<svg id="CNC_Victoria" data-name="CNC Victoria" xmlns="http://www.w3.org/2000/svg" viewBox="0 0 1143.82 317"><defs><style>.cls-1{fill:#009640;}.cls-2{fill:#e30513;}.cls-3{fill:#ef7d00;}.cls-4{fill:#009fe3;}.cls-5{fill:#ad4682;}.cls-6{fill:#f5b3d2;}.cls-7{fill:#fc0;}.cls-8{fill:#b0cb0a;}.cls-9{fill:#e30713;}.cls-10{fill:#fff;}.cls-11{fill:none;stroke:#fff;stroke-miterlimit:10;stroke-width:3px;}</style></defs><path class="cls-1" d="M127.29,134.32c.55-.95,1-2,1.58-2.85A46.32,46.32,0,0,1,152.67,113a54.9,54.9,0,0,1,16-2.94,124.43,124.43,0,0,1,47.83,7.54,55.3,55.3,0,0,1,5.87,2.69,7.9,7.9,0,0,1,3,2.78A49.18,49.18,0,0,1,234,144a43.48,43.48,0,0,1-.71,16.66,22.19,22.19,0,0,1-2.46,6.19c-3.33,5.55-4.92,11.58-5.87,17.93-.32,2.38-.95,4.76-1.43,7.06a13.38,13.38,0,0,1-.55,1.82c-1,2.86-2.07,3.49-5,3.17l-9.28-1c-.24,0-.48-.08-.72-.08-2.14-.47-2.38-.63-2.38-2.77,0-6.75.08-13.49.24-20.15a34.94,34.94,0,0,0-.32-8.17,20.43,20.43,0,0,0-5.55-10.4,26,26,0,0,0-3.57-3.09A48.27,48.27,0,0,0,168.14,143a23.81,23.81,0,0,0-8.49,1.83,8.17,8.17,0,0,0-2.3,1.26c-1.43,1-1.35,2.15.16,2.94a29.39,29.39,0,0,0,2.78,1.27c3.25,1.19,6.66,2.22,9.91,3.41s6.59,2.62,9.76,4.12c3.73,1.83,6.9,4.21,8.65,8.25a22.27,22.27,0,0,1,1.58,14,30.49,30.49,0,0,1-4.52,10.39A51.22,51.22,0,0,1,177,200.64a100.73,100.73,0,0,1-10,8.25,190.75,190.75,0,0,0-31.89,27.37c-1.66,1.74-3.25,3.57-5.08,5.16-3.09,2.77-6.1,5.47-9.44,8a20.12,20.12,0,0,1-10.7,4.2,69.59,69.59,0,0,1-8.17,0c-2.94-.08-5.8-.47-8.73-.63-2-.08-2.46.71-1.75,2.54.08.15.16.39.24.55,2.62,4.13,5.32,8.25,9.2,11.34A14.72,14.72,0,0,0,116,269.74c7.94-3.1,15.08-7.38,20.63-13.89,3.81-4.36,7.3-9,10.87-13.48,4.44-5.63,8.64-11.43,13.16-17A76,76,0,0,1,176,211a43.11,43.11,0,0,1,16.74-7.45,33.58,33.58,0,0,1,13.25.08,97.19,97.19,0,0,1,22.05,6.9,44.48,44.48,0,0,1,18.88,16.42,25,25,0,0,1,4.45,15.86,26.23,26.23,0,0,1-2.46,9.13,28.78,28.78,0,0,1-9.05,11.82,125.47,125.47,0,0,1-13.24,9c-6.83,3.89-14.05,6.43-22.06,6.27-4-.08-8.09,0-12.13-.08-1.91,0-2.7.55-2.86,2.46-.32,3.73,1.35,6.18,5.08,6.9,5.87,1,11.66.95,16.89-2.38a28.94,28.94,0,0,1,10.16-3.65,62.8,62.8,0,0,0,25.7-11.42c4.2-3.1,8.17-6.43,12.14-9.84a29.23,29.23,0,0,0,6-7.85,160.92,160.92,0,0,0,8.8-17.69,58.7,58.7,0,0,1,3-6.35c4.53-8,11.51-12.06,20.55-12.77a59.68,59.68,0,0,1,18.33,1.82,89.56,89.56,0,0,1,20.54,7.3,40,40,0,0,1,10.71,7.85c4,4.21,6.43,9.13,6.35,15A19.33,19.33,0,0,1,348.13,262a29.64,29.64,0,0,1-9.91,6.66c-2.38,1-4.84,1.91-7.3,2.78a17.61,17.61,0,0,0-8.81,6.27c-.79,1-1.82,2-2.69,2.93-.48.56-.95,1.11-1.51,1.67a3.35,3.35,0,0,0,2.78,1.35c2.77.16,5.55.16,8.33.24a.7.7,0,0,0,.39-.08c4.68-.56,4.68-.56,7.94-3.89a11.07,11.07,0,0,1,.31,1.27A31.82,31.82,0,0,1,332,297.9a7.21,7.21,0,0,1-1,1.11,41.49,41.49,0,0,1-20.23,11.5c-4.76,1.19-8.57-.71-10.39-5.32a20,20,0,0,1-1.11-9.91A46,46,0,0,1,303,282.35a99.53,99.53,0,0,0,6.18-19.52c.64-3.41-1.66-5.87-3.64-7.14a3.89,3.89,0,0,0-4.13,0,12.81,12.81,0,0,0-3.17,2.62,25.87,25.87,0,0,0-5.63,10.47,65.77,65.77,0,0,1-7.7,19C277.53,299.8,267,307.26,253,309.56c-2.7.47-5.55.16-8.33.08-5.79-.16-11.5-.48-17.29-.56a33.86,33.86,0,0,0-9.76,1.43c-5.87,1.67-11.74,3.33-17.61,4.76a51.55,51.55,0,0,1-13,1.43c-6.42-.08-12.85.08-19.2-.88a43.78,43.78,0,0,1-7.77-1.74c-3.81-1.27-5-3.41-4.13-7.38a38.06,38.06,0,0,1,2.15-6.66,59.3,59.3,0,0,1,7.53-12.54,24.2,24.2,0,0,0,2.54-3.8,156.18,156.18,0,0,1,14.28-22c4.28-5.55,8.41-11.34,12.69-16.89a35.52,35.52,0,0,1,3.73-4.05,4,4,0,0,1,4.28-.87c1.67.55,2.15,1.74,1.19,3.25a3.08,3.08,0,0,1-.63.87,2,2,0,0,0,2,1.35c3.57.24,6.82-.47,9.44-3.09a6.38,6.38,0,0,0,1.11-1.51,4,4,0,0,0-1.42-5.79,12.18,12.18,0,0,0-6.19-1.75c-7.93-.31-14.84,2.38-20.94,7.22a10.34,10.34,0,0,0-1.51,1.75c-1.19,1.74-2.38,3.41-3.49,5.23a420,420,0,0,1-27.77,37c-2,2.46-4.2,4.76-6.34,7.06a50.35,50.35,0,0,1-9.44,7.93,30.28,30.28,0,0,1-16.5,5.56c-6.82.23-13.73.39-20.55.39a57.68,57.68,0,0,1-13.72-1.82c-4.6-1.19-8.73-3.1-12-6.59-1.67-1.82-3.49-3.49-5.08-5.39-4.92-5.55-6.42-12.06-4.92-19.28a474.87,474.87,0,0,1,11.9-46.64A220.35,220.35,0,0,1,88,198.26a54.76,54.76,0,0,1,4-7.38,7,7,0,0,1,6.5-3.49,71.63,71.63,0,0,1,17.85,2.54c4.92,1.27,9.76,2.78,14.68,4.13a38.46,38.46,0,0,0,5,1,12.29,12.29,0,0,0,9.84-2.7,22.91,22.91,0,0,1,6.27-3.49c4.92-1.9,7.77-5.79,9-10.87.64-2.54-.47-4.36-2.93-5.15a12.09,12.09,0,0,0-8,.47,2.35,2.35,0,0,0-1.66,1.75c.55,1,1.58,1.11,2.54,1.43a1.62,1.62,0,0,1,1.19,2.06,10.82,10.82,0,0,1-4.45,7.3,3.85,3.85,0,0,1-2.3.55,24.82,24.82,0,0,1-4.84-.95,200.32,200.32,0,0,0-21.49-4.84c-1.59-.24-3.18-.47-4.68-.63-3.1-.32-4.6-1.91-4.68-5.08a35.93,35.93,0,0,1,1.42-10.87,12.58,12.58,0,0,1,3.81-6c6.59-5.63,13.25-11.26,19.75-17,4.45-3.89,8.81-7.86,13.25-11.74a26.94,26.94,0,0,0,2.06-2.22c1.51-2.07.8-3.49-1.66-3.73h-.16c-5.47.31-10.47,1.74-14.52,5.63-1.58,1.51-3,3.09-4.6,4.6a4.39,4.39,0,0,1-1,.71C127.45,134.48,127.37,134.4,127.29,134.32Z"/><path class="cls-2" d="M380.9,283.78a3,3,0,0,0,2.77,1,53.78,53.78,0,0,0,7.06-1.27,111.1,111.1,0,0,0,37.76-19.2,45,45,0,0,0,12.93-15.71,101.27,101.27,0,0,0,7.06-17.84c2.46-8.65,7.38-15.79,13.65-22.14a29.9,29.9,0,0,1,4-3.17,5.71,5.71,0,0,1,3.81-.87,29.66,29.66,0,0,1,17.45,7.3,7.4,7.4,0,0,1,2.46,3.57c.56,1.58.95,3.17,1.43,4.76a3.6,3.6,0,0,0,3.65,3,13.74,13.74,0,0,0,10.31-3.73,6.33,6.33,0,0,0,1.83-5.95,12.78,12.78,0,0,0-3.65-7,22.46,22.46,0,0,0-7.06-5.08c-3.34-1.42-6.75-2.69-10.08-3.88-1.74-.64-2.14-1-1.66-2.78C487.11,185,490,175.34,496.16,167c1.19-1.59,2.46-3.1,3.73-4.6a3.69,3.69,0,0,1,4-1.19,58.13,58.13,0,0,1,15.31,6.1,28.66,28.66,0,0,1,6.35,5.08,15.83,15.83,0,0,1,4.12,14c-1,5.48-1.74,11-2.77,16.5a66.76,66.76,0,0,1-10.55,24.91,101.8,101.8,0,0,1-13.09,16,58.93,58.93,0,0,1-5.48,4.68,19.81,19.81,0,0,1-4.28,2.38,8,8,0,0,1-8.41-1.26,18.12,18.12,0,0,1-5.71-7c-.48-1-.95-2.06-1.51-3.09a7.27,7.27,0,0,0-7.77-3,2.08,2.08,0,0,0-1.59,2.77c1.11,3.57.72,7.14.56,10.79A39,39,0,0,1,467,261.72a15.67,15.67,0,0,1-7.22,8.73,145.82,145.82,0,0,1-27.61,12.22c-8.25,2.61-16.26,5.71-24.19,9a115.58,115.58,0,0,1-22.22,7.14,39.58,39.58,0,0,1-17.53-.16,29.24,29.24,0,0,1-10.63-5.32,8.41,8.41,0,0,1-3.25-5.39,25.68,25.68,0,0,1,4.76-20.55,70,70,0,0,1,6.43-7.21c2.46-2.3,4.36-4.76,4.68-8.17a4.73,4.73,0,0,1,.31-1c.8.4,1.51.64,2.23,1,1.66,1,3.33,2.15,4.91,3.26a2.54,2.54,0,0,0,2.46.39c.56-.23,1.19-.39,1.75-.63,2.46-1.27,4.84-2.54,7.22-3.89,1.74-.95,1.9-1.9.47-3.25a6.78,6.78,0,0,0-2.77-1.51c-5.16-1.66-10.24-3.33-15.39-4.84-1.43-.47-2.3-1-2.22-2.69a7.44,7.44,0,0,0-1.51-4.21,15.28,15.28,0,0,1-2.46-5.71,3.92,3.92,0,0,1,.48-2.93,25.6,25.6,0,0,1,2.77.87,82.8,82.8,0,0,0,31.1,4.44A37.16,37.16,0,0,0,410.88,229a4.76,4.76,0,0,0,3.33-4.44,2.73,2.73,0,0,0-2.85-3.1,14.43,14.43,0,0,0-2.62.24c-10.39,1.83-20.31.16-30.14-3.25-6.59-2.3-13.17-4.68-19.76-6.82a80.67,80.67,0,0,0-17.37-3.18c-4.6-.47-9.2-1-13.72-1.82a27.21,27.21,0,0,1-17.22-11.26,67.79,67.79,0,0,1-4.2-6.83,4.17,4.17,0,0,0-4.52-2.38,22.11,22.11,0,0,0-7.14,1.83,13.51,13.51,0,0,0-1.83,1c-1.58,1.19-1.74,2.14-.87,4a45.49,45.49,0,0,0,11.11,14.59c.55.48,1.11,1,1.66,1.59-.55.71-1.19.47-1.74.47a119,119,0,0,0-19.76,3c-1.26.32-2.53.79-3.8,1.19a12.44,12.44,0,0,0-4.68,2.85,6.91,6.91,0,0,1-7.38,1.67,11.24,11.24,0,0,1-2.46-.95c-3.81-2.06-7.69-4.21-11.42-6.43a23.65,23.65,0,0,1-4.21-3.25c-6.5-5.79-9.44-13.09-8.33-21.81a41,41,0,0,1,5.71-16.58,37.33,37.33,0,0,1,4.05-5.32A16.3,16.3,0,0,1,266,158.76c4.44.71,9,1,13.41,1.5a52.32,52.32,0,0,0,25.14-3.72c3.1-1.19,6.11-2.46,9.13-3.81a18.44,18.44,0,0,1,10.94-1.43,150.21,150.21,0,0,1,19.68,4.28c1.19.4,2.38.88,3.57,1.35a2.77,2.77,0,0,1,1.9,2.78,37,37,0,0,0,.79,6.58c1.11,5.24,4.52,7.14,9.6,5.64a11,11,0,0,0,6.35-4.92,16.09,16.09,0,0,0,2.38-6.75c.16-.95.24-1.9.39-3,1,.08,2,.08,3,.24,5.95,1,10.07,4.12,12.14,10a3,3,0,0,1-1,3.73c-1.74,1.43-3.65,2.78-5.47,4.13-3.09,2.38-6.19,4.6-9.12,7.14a45.8,45.8,0,0,0-5.56,6.18,11.94,11.94,0,0,0-1.9,3.73,1.86,1.86,0,0,0,1.35,2.7,14.34,14.34,0,0,0,4.12.63,17.43,17.43,0,0,0,6.67-1.35,11.34,11.34,0,0,0,4.84-3.57,68.73,68.73,0,0,1,10.47-11,41,41,0,0,1,6.34-4.13,9.85,9.85,0,0,1,7.78-.71c5.31,1.59,10.63,2.86,15.94,4.52,10.55,3.33,16.66,10.71,18.8,21.42a39.19,39.19,0,0,1,.56,11c-.24,2.38-.16,4.83-.32,7.21a70.86,70.86,0,0,1-3.41,16.19c-1.19,3.65-2.38,7.22-3.65,10.79a28,28,0,0,1-7.53,11.5,98.64,98.64,0,0,1-9.84,8.09A116.47,116.47,0,0,1,389,279.25a56.54,56.54,0,0,0-5.79,2.86A10.67,10.67,0,0,0,380.9,283.78Z"/><path class="cls-3" d="M325.68,142.65a19.31,19.31,0,0,1,1.11-2.38,44.92,44.92,0,0,1,2.86-3.8c3-3.34,6.11-6.59,9.12-10a4.41,4.41,0,0,1,4.05-1.51c1.74.24,3.49.4,5.31.64,2.15.24,4.29.55,6.43.79a14.75,14.75,0,0,0,9.12-2,5.39,5.39,0,0,0,3.1-5.08c0-1.35-.16-1.74-1.51-2.06-3.17-.79-6.43-1.59-9.68-2.06-3.09-.48-6.19-.72-9.28-1a21.69,21.69,0,0,0-13.64,3.25A42.92,42.92,0,0,0,324,124.8c-2.62,2.94-5.16,6-7.78,8.89-2.45,2.78-4.91,5.63-7.53,8.33-8,8.41-19.2,10.07-29.43,6.11a38.8,38.8,0,0,0-7.3-2.07,40.53,40.53,0,0,1-11.58-4.2,18.58,18.58,0,0,1-7.06-6.74c-2.7-4.29-5.55-8.49-8.49-12.62a73.68,73.68,0,0,0-5.55-6.5,26.69,26.69,0,0,0-12.14-7.54c-10.63-3.17-21.34-6.18-32.29-7.85a63,63,0,0,0-8.72-.56,8.28,8.28,0,0,1-4.36-1c.47-.55,1-1,1.42-1.5a18.14,18.14,0,0,0,5-9.21,11.2,11.2,0,0,0-.71-5.79c-.8-2.14-.56-2.85,1.58-3.88a63,63,0,0,1,12.54-4.37,86.09,86.09,0,0,1,14.83-2.22,27.89,27.89,0,0,1,12.61,2.38A60.1,60.1,0,0,1,245,84.67c3.09,2.53,6,5.31,9,7.85,2.46,2.06,5.08,4,7.7,5.87a27.76,27.76,0,0,0,3,1.51c-.24-.72-.24-1.11-.4-1.43-6.5-12-14.83-22.45-25.94-30.54a81.38,81.38,0,0,0-7.21-4.52,10.73,10.73,0,0,0-5.64-1.59,17.27,17.27,0,0,1-2.85-.32,10.83,10.83,0,0,1-2.14-.71,12.34,12.34,0,0,1,1.11-2.14q4-4.65,8.09-9a4.85,4.85,0,0,1,3.49-1.35c6.19-.31,12.29-.07,18.09,2.46,6.1,2.62,12.21,5.32,18.32,8,5.95,2.61,11.82,5.55,17.93,7.93a49.2,49.2,0,0,0,18.24,3.25,17.31,17.31,0,0,0,4.84-.79C314.58,68,314.9,62,312,60.31a43.4,43.4,0,0,0-5.71-3q-11.07-4.17-22.37-8.09a140.43,140.43,0,0,0-18.8-5.4c-4.21-.87-8.49-1.58-12.69-2.54A9.52,9.52,0,0,1,248,39.61c.64-.4,1.11-.72,1.67-1a66,66,0,0,1,25.15-8.81,54.14,54.14,0,0,1,20.78,1.35c8.65,2.3,16.82,5.63,23.88,11.26a59.89,59.89,0,0,1,6,5.8,27.32,27.32,0,0,1,3.25,4.68c3.41,5.87,3.57,11.58-.4,17.29a38.17,38.17,0,0,1-9.68,9.91,17.22,17.22,0,0,1-4,2c-2.22.79-4.6,1.5-6.9,2.22a34.22,34.22,0,0,0-7.7,3.25C295.62,90,290.7,91.09,285.78,92c-.87.16-1.66.32-2.61.48.15.32.15.55.23.63,4.37,4.13,9.05,7.54,15,9,4,.95,7.85.39,11.1-2.38,1.75-1.51,3.41-3,5.16-4.52,2.85-2.62,5.63-5.32,8.57-7.78a38.54,38.54,0,0,1,18.48-8.8,36.18,36.18,0,0,1,7.22-.64A103.08,103.08,0,0,1,374.55,81,42.77,42.77,0,0,1,394.7,92.44a130.9,130.9,0,0,1,8.8,10c4,5.08,4.76,10.79,2.86,16.9a31.46,31.46,0,0,1-5.95,10.55,52,52,0,0,1-15.79,13.33c-1.58.87-3.17,1.66-4.68,2.54a15.29,15.29,0,0,1-11.18,1.66c-5.87-1.19-11.66-2.54-17.45-3.8a66.72,66.72,0,0,0-19-1.75c-1.59.08-3.17.4-4.68.56C327.19,142.49,326.64,142.57,325.68,142.65Z"/><path class="cls-4" d="M55.5,204.77a10.09,10.09,0,0,0-2.14-1,51.81,51.81,0,0,0-5.16-1.27c-2.06-.4-4-1-5.4-2.54a8.41,8.41,0,0,0-1.34-1.11c-1.43-1-2.54-1-3.73.31a6.54,6.54,0,0,0-1.59,2.78A47.65,47.65,0,0,0,35,208.42,18.52,18.52,0,0,1,32,217c-2.7,4.05-5.56,8.09-8.33,12.06l-4.76,6.66a48.38,48.38,0,0,0-7.22,15c-.4,1.5-1,3-1.51,4.52a1.88,1.88,0,0,1-1.82,1.35,14.38,14.38,0,0,1-6.59-.72c-1.74-.63-1.9-.79-1.74-2.61A27.44,27.44,0,0,1,5.6,238.32,157.25,157.25,0,0,0,15.36,224a51,51,0,0,0,7-20.7,92.24,92.24,0,0,1,3-16c1.91-6.1,4.68-11.66,9.28-16.18a30.26,30.26,0,0,1,18.25-8.57,51.19,51.19,0,0,1,12,.24,24.59,24.59,0,0,0,8.72-.24,12.51,12.51,0,0,0,2.54-.79c2.22-1,2.62-2.7,1.19-4.6a6.83,6.83,0,0,0-4-2.93,21.7,21.7,0,0,0-5.08-.72c-5.24-.16-10.31.95-15.39,2.06L43,157.73a6.76,6.76,0,0,1-4.12-.32A31.3,31.3,0,0,1,33.68,155c-6.34-4.21-8.49-10.71-6.11-17.93a16.35,16.35,0,0,1,9-10.31,114.34,114.34,0,0,1,15.94-5.63A128.77,128.77,0,0,0,70.09,115a52.26,52.26,0,0,0,6.19-3.41c1.19-.72,1.19-.88,1.67-2.22-.48-.88-1.35-.88-2.15-1a24.25,24.25,0,0,0-10.15,1c-4.36,1.26-8.73,2.77-13,4.2-.4.08-.71.32-1,.4-1.43.47-1.9.23-1.82-1.27a47.57,47.57,0,0,1,.55-6,54.62,54.62,0,0,1,4.13-14.2,26.71,26.71,0,0,1,5-7.62c4.37-4.52,9.6-6,15.63-4.12a15,15,0,0,1,1.59.63c.95.4,1.19,1,1.19,2.14a17.5,17.5,0,0,0,.39,4.53c1.19,5,5.16,8.17,10.79,8.72a19.45,19.45,0,0,0,7.7-.63c3.65-1,7.3-2.06,11-2.94a26.81,26.81,0,0,1,15,.88,33.11,33.11,0,0,1,13.56,8.17,16,16,0,0,1,3.81,5.87c.79,2.38.63,2.85-1.27,4.36s-4.05,3.09-6.11,4.6a44.36,44.36,0,0,0-13.09,15.23c-.55-.48-1.11-.87-1.66-1.27-2.7-2.06-5.24-4.2-8-6.11a22.46,22.46,0,0,0-13.08-3.88c-9,0-17.46,2-25.86,4.84-2.15.71-4.29,1.58-6.43,2.38a4.07,4.07,0,0,0-2.38,2.06,1.9,1.9,0,0,0,0,1.74,2,2,0,0,0,1.67.56c2.22-.4,4.44-.95,6.66-1.43a83.5,83.5,0,0,1,14.75-1.67,23.83,23.83,0,0,1,14.2,4.05A74.38,74.38,0,0,1,110,141.78a30.59,30.59,0,0,1,2.07,2.46c.79,1.11.79,1.51-.16,2.54s-2,2-3,2.93c-2.46,2.22-4.91,4.37-7.45,6.59a12.71,12.71,0,0,0-3.65,5.47,41.43,41.43,0,0,0-2.7,16.42c.08,1.11.24,2.22.32,3.41a2.54,2.54,0,0,1-.72.24c-8.56.87-14.51,5.47-18.64,12.77a19.13,19.13,0,0,0-1.5,3.49C69.7,211.43,64.78,224.76,60,238.16c-4.29,12-7.7,24.2-11,36.41a16.68,16.68,0,0,0,.08,7.14c.16,1,.24,2.15.32,3.26-5,1.74-9.76,2.46-14.52.08A12,12,0,0,1,30,280a23.61,23.61,0,0,1-2.53-8.73c-.8-6.19,0-12.29,1.34-18.32a74.15,74.15,0,0,1,3.1-10,45,45,0,0,1,3.65-6.66c2.06-3.33,4.44-6.51,6.34-9.92a49.66,49.66,0,0,0,3.81-8.72,22.19,22.19,0,0,1,8.57-12C54.62,205.56,54.94,205.24,55.5,204.77Z"/><path class="cls-5" d="M383.67,62.77a6.27,6.27,0,0,0,3.89,1.35,97.13,97.13,0,0,1,18.88,4.28,5.75,5.75,0,0,0,2.62.16,44,44,0,0,1,22,1.51c5.08,1.67,10.23,3.09,15,5.55a42.67,42.67,0,0,1,7.22,4.52,15.94,15.94,0,0,1,6.35,12.62,22.53,22.53,0,0,1-7.54,18.56,34,34,0,0,0-3.73,4.52c-.47.71-.95,1.67-.31,2.46a2.27,2.27,0,0,0,2.61.48c5.64-1.91,11.35-3.65,16.58-6.59,4.05-2.3,7.22-5.39,8.49-10.07a14.58,14.58,0,0,0,.64-3.73c.08-3.25.08-6.51.08-9.68a14.17,14.17,0,0,0-3.1-8.8c-1.58-2-3.25-3.89-4.76-6a9.69,9.69,0,0,1,1.59,1,29.7,29.7,0,0,1,6.19,6.42,93.12,93.12,0,0,1,8.72,14.52,52.16,52.16,0,0,1,5.08,20.71c.08.87-.08,1.74-.08,2.93a26.32,26.32,0,0,1-2.7-.24c-2.62-.55-5.15-1.27-7.77-1.66a46.69,46.69,0,0,0-21.66,1.74,52.33,52.33,0,0,0-12.06,5.16c-7.29,4.52-11.89,11-14.35,19.2a6.53,6.53,0,0,0-.24,1.42,4.15,4.15,0,0,0,1.27.32h6.82a6.27,6.27,0,0,0,6.19-4c.31-.71.71-1.5,1.11-2.22A36.57,36.57,0,0,1,454,129a12.1,12.1,0,0,1,10.31-3.81c4.52.56,9,1.19,13.33,2.94,9.12,3.8,14.12,10.55,15.07,20.38l.24,3.57a3.13,3.13,0,0,1-1.43,2.94c-7.22,4.52-11.9,11.26-16,18.48a82,82,0,0,0-8.33,22.61c-.08.4-.23.87-.31,1.27,0,1.19-.8,1.59-1.83,1.82a24.87,24.87,0,0,0-11.34,5.87c-.32.24-.64.56-1.11.88a43,43,0,0,0-9.2-26.18c1.11-.16,2-.32,2.85-.4a39,39,0,0,0,13.33-3.73,20.1,20.1,0,0,0,3.57-2.14,7.72,7.72,0,0,0,3.09-4.84c1-4.36,2.3-8.72,3.49-13l.48-1.66a7.11,7.11,0,0,0-6.19-9,12.41,12.41,0,0,0-9.84,3,3.65,3.65,0,0,0-1.34,3.88c1.5,5.95-.48,11.43-2.54,16.82-.8,2.06-2.22,3.18-4.52,2.86-4.29-.56-8.57-.87-12.86-1.59-6.82-1.19-13.72-2.7-20.46-4.12a32.16,32.16,0,0,1-10.63-4.45,17.38,17.38,0,0,1-4.92-4.44c-2.62-3.49-2.7-7.14,0-10.55a31.65,31.65,0,0,1,4.05-4c3.17-2.69,6.5-5.31,9.59-8.09a31.54,31.54,0,0,0,9.37-13.88c2.85-9.12,1.9-17.85-3.57-25.78a45.1,45.1,0,0,0-5.87-6.9,65.21,65.21,0,0,0-31.34-16.66,50.14,50.14,0,0,0-14.2-.87,7.62,7.62,0,0,1-6.66-2.86,14.86,14.86,0,0,1-4-7.22,14.55,14.55,0,0,1,0-3.73,15,15,0,0,1,.72-2.53,10.9,10.9,0,0,1,5.87-7.54c1.58-.87,3.25-1.75,4.76-2.78a13.65,13.65,0,0,0,2.77-2.54c.72-1,.4-1.74-.79-1.9-2.7-.32-5.47-.71-8.09.24-4.21,1.51-8.25,3.17-12.38,4.84-1.9.79-2.54.71-3.49-1.19a13.72,13.72,0,0,0-3.41-4.29,7.56,7.56,0,0,1-2.7-7.69,29.71,29.71,0,0,1,1.27-5.32,6.15,6.15,0,0,1,5.72-4.28,35.78,35.78,0,0,1,5.87.16c10.07,1.51,20.14,3.09,30.3,4.6,3.41.48,6.9.95,10.39,1.27,4.52.48,8.33,2.22,11,5.95,2.54,3.49,5.15,6.9,7.69,10.39a38.78,38.78,0,0,1,2.38,4.36c1.19,2.3.64,4.68.4,7.06-.08,1.19-1.19,1.83-2.22,2.15a39.15,39.15,0,0,1-5.87,1.66c-4.6.72-9.28,1.27-14,1.91-1.51.23-3,.47-4.53.79A20.51,20.51,0,0,1,383.67,62.77Z"/><path class="cls-6" d="M159.1,52.78A8.33,8.33,0,0,1,167,52.3,11.81,11.81,0,0,1,172.19,57,3.21,3.21,0,0,0,175,58.57a18.74,18.74,0,0,0,7-.72,11.42,11.42,0,0,0,7.62-7.93,12.28,12.28,0,0,0,.32-1.67,1.26,1.26,0,0,0-.88-1.5,19.46,19.46,0,0,0-9-.72c-1.11.16-1.35.64-1.35,1.91,0,.71.08,1.42.08,2.06a6.21,6.21,0,0,1-.16.63c-.47-.55-.87-1-1.27-1.42-2-2.38-4.36-3.89-7.61-3.34-3.73.64-7.46,1.35-11.19,2.07-.87.16-1.74.39-2.61.63a23.76,23.76,0,0,1-13.73.16,15.66,15.66,0,0,1,.4-2.06,38.64,38.64,0,0,1,2.7-5.48c2.61-4,5.31-7.85,8.09-11.74,1.74-2.46,4.36-3.8,7.14-4.91a44.47,44.47,0,0,1,12.05-2.62,135.57,135.57,0,0,1,20.55-.16c2.3.16,4.6.16,6.82.16,3.65.08,6.67-1.43,9.52-3.41a1.67,1.67,0,0,0,.72-1.19,1.82,1.82,0,0,0-1.27-.88,42.79,42.79,0,0,0-4.37-.31,12.08,12.08,0,0,1-1.35-.16c.4-.4.56-.64.8-.72,7.06-4.36,14.2-8.56,21.26-13C229.06-.21,232.55.5,236,3a18.12,18.12,0,0,1,5.79,7.38,61.52,61.52,0,0,1,4.44,13.88,9.55,9.55,0,0,1,.16,1.51c.08,3.17-.8,4.28-3.89,5.15a23,23,0,0,0-4.6,1.83A35.89,35.89,0,0,0,228,40.4a14.92,14.92,0,0,1-1.58,1.51c-.16-1-.32-1.75-.48-2.46-1.27-8-5.95-12.77-14-14.28-7.78-1.43-15,.24-21.9,3.73a10.67,10.67,0,0,0-2.38,1.82,1.93,1.93,0,0,0-.39,2.14c.32.8,1,.88,1.74.88,4.6.24,9.28.31,13.81,1.43a34,34,0,0,1,6.26,2.14c4.21,2.06,5.56,5.15,4.84,9.68a12.07,12.07,0,0,1-3.81,7.21A101,101,0,0,1,195,65.63c-3,2-6.1,3.8-9.2,5.71-4.6,2.85-5.95,2.77-10.23-.48L172.9,69a7.81,7.81,0,0,0-6.42-1.59c-1.91.32-2.38-.08-2.15-1.9.56-4.21-1.19-7.62-3.57-10.87A13.81,13.81,0,0,1,159.1,52.78Z"/><path class="cls-7" d="M111.18,65.31a3.6,3.6,0,0,0-3.49-.56c-2.77.48-5.47,1-8.25,1.51-2.14.4-4.2.87-6.34,1.19a21,21,0,0,1-3.18,0A6.07,6.07,0,0,1,91.83,65a36.45,36.45,0,0,1,14.36-8.33A50.31,50.31,0,0,1,129,54.92a45.25,45.25,0,0,1,11.59,2.93,17.55,17.55,0,0,1,6.82,4.45,6.63,6.63,0,0,1,1.11,8.09,5.52,5.52,0,0,1-4.05,3.17L142.2,74a5.07,5.07,0,0,0,.08,4.28A3.8,3.8,0,0,0,146,80.78a11.34,11.34,0,0,0,7.93-2.7,4.88,4.88,0,0,1,6.43-.32c2.38,1.59,4.6,3.34,6.82,5.16,1.43,1.19,1.43,1.9.48,3.65a65.87,65.87,0,0,0-3.18,5.87,25.88,25.88,0,0,0-2.62,8.73,2.35,2.35,0,0,1-2.14,2.45c-1.74.32-3.49.8-5.23,1-1,.16-1.75-.32-2.3-1.51-5.16-11.9-14.44-17.93-27.29-18.48a46.8,46.8,0,0,0-12.46,1.27,40.19,40.19,0,0,1-11.1,1.34,18.75,18.75,0,0,1-4.21-.87A3,3,0,0,1,94.92,83c.32-2.86.72-5.63,1.27-8.41.32-1.59,1.67-2.46,3.25-2.93,2.15-.72,4.29-1.27,6.27-2.15A24.1,24.1,0,0,0,110.15,67,12.65,12.65,0,0,1,111.18,65.31Z"/><path class="cls-8" d="M328.46,22.55c-1,1.75-1.9,3.18-2.78,4.68-.47-.16-.87-.31-1.26-.47a90.88,90.88,0,0,0-26.5-7.38A54,54,0,0,0,279,20.57c-6.27,1.51-12.61,2.86-19,4.28-.4.08-.87.08-1.59.16a15,15,0,0,0,0-1.9c-.31-3.49-.47-7-.95-10.39-.47-3.89-.63-4.13,2.46-6.67,1.91-1.58,4-3,5.95-4.44a3.64,3.64,0,0,1,3.57-.48c5.08,1.75,10.23,3.49,15.31,5.08,4.28,1.35,8.57,2.7,12.93,4a166.41,166.41,0,0,1,23,8.41C323.38,19.78,325.84,21.2,328.46,22.55Z"/><path class="cls-9" d="M609.3,169.3a21.11,21.11,0,0,0,.35-3.26q.17-12.37.35-24.77c0-2.55-.47-3-2.91-3.6-1.05-.23-2.21-.47-3.49-.7-.12-.93-.12-1.86-.23-3a24.48,24.48,0,0,1,2.56-.23h12.21A4.61,4.61,0,0,1,620,134c.35.23.81.93.69,1.28a4,4,0,0,1-.69,1.62c-.12.24-.47.24-.82.24-3.95,1.28-4.07,1.28-4.18,5.58-.24,13.14-.35,26.4-.47,39.54,0,1.16.58,2.67-.93,3.14s-2.21-.82-3-1.75c-3-3.6-5.82-7.56-9.3-10.7-9.77-9.18-19.77-18-29.66-27.09a9.44,9.44,0,0,0-1.51-1.16,13.17,13.17,0,0,0-.35,1.62c-.11,9.77-.35,19.54-.35,29.31a21.89,21.89,0,0,0,.24,2.79,3.45,3.45,0,0,0,2.79,2.79c1,.23,2,.35,3,.58,2.56.47,2.79.93,2,3.72H559.53c-.58-2.79-.47-3,1.74-3.49,2.56-.58,2.68-.69,2.79-3.25.12-1.63.12-3.14.12-4.77.12-10.12.12-20.23.23-30.35,0-2.67-.69-4.77-3.14-6-.35-.23-.69-.35-.81-.69a4.59,4.59,0,0,1-.47-2,1.75,1.75,0,0,1,1.52-.93c2.55-.12,5.23-.12,7.79,0a5.34,5.34,0,0,1,2.44,1.16,32.62,32.62,0,0,1,3,2.91l32,29.53A7.6,7.6,0,0,1,609.3,169.3Z"/><path class="cls-10" d="M833.15,176.62c-1-.93-1.86-1.62-2.68-2.44-3.14-3-3.84-6.63-2.56-10.7,1.75-5.69,8-10.93,16.75-8.95a21,21,0,0,0,6.05.58c2.44-.11,4.88-.23,7.21-.23,1.86,0,2.32.7,2.32,2.32s-.58,2.33-2.32,2.45c-1.52.11-3.14,0-5.12,0a28.75,28.75,0,0,0,.93,2.9c2.09,6.63-.12,11.28-6.63,13.61-2.56.93-5.23,1.39-7.79,2.21-1,.35-2,.7-3.14,1.16.7,2,2.21,2,3.6,2.09,3.84.24,7.8.24,11.63.59a13.85,13.85,0,0,1,4.77,1.27A6.34,6.34,0,0,1,859,192.9a13.62,13.62,0,0,1-3.72,4.07c-6.39,4.77-13.72,5.93-21.4,4.89a14,14,0,0,1-5.11-2.1c-3.72-2.44-4.54-7.44-.23-10.46,1.16-.81,2.44-1.63,3.83-2.68a28.17,28.17,0,0,1-3.37-2.2c-2.33-1.63-2.33-3.84-.12-5.47C830.12,178.14,831.4,177.55,833.15,176.62Zm6.16-18a5.2,5.2,0,0,0-5.35,4.65,9.9,9.9,0,0,0,6.51,10.47,6,6,0,0,0,7.68-4.07C849.31,164.53,844.54,158.6,839.31,158.6Zm3.6,29.07a13.73,13.73,0,0,0-8.72,2.56c-1.28.93-2.21,2-2,3.72s1.62,2.21,3,2.56a23.76,23.76,0,0,0,13.37-.12,16.65,16.65,0,0,0,3.26-1.51,3.54,3.54,0,0,0,1.86-3.49c-.23-1.63-1.51-2.21-2.91-2.44A58.75,58.75,0,0,0,842.91,187.67Z"/><path class="cls-10" d="M731.51,94H719.19c-.93,0-1.63-.35-1.75-1.4s0-2,1-2.21c2.79-.58,3-2.56,3-4.88,0-2.91.24-5.82.12-8.61a28.76,28.76,0,0,0-.81-5.46,4.18,4.18,0,0,0-4.07-2.91,8.37,8.37,0,0,0-6.28,2.44,3.84,3.84,0,0,0-.93,2.56c-.12,4.65,0,9.3-.12,14a2.77,2.77,0,0,0,2.33,2.91c2.09.7,2.09.81,1.51,3.49H699.54c-.7-2.44-.7-2.44,1.16-3.72a3.27,3.27,0,0,0,1.63-2.79c.11-4.77.11-9.54.11-14.19a3.28,3.28,0,0,0-1.74-2.67c-1.86-1.4-1.86-2.33-.12-3.72s3.61-2.68,5.47-4a16.91,16.91,0,0,1,2.9-1.05c.12,2.1.24,3.84.47,6.05.93-.7,1.74-1.16,2.44-1.63a13.35,13.35,0,0,1,8.26-2.79,7.21,7.21,0,0,1,6.63,3.38,5.47,5.47,0,0,0,1,1.39L730,66.27a12.58,12.58,0,0,1,5.93-3c5.7-1,10.35,2.32,11.28,8.14a21.42,21.42,0,0,1,.23,3.83V86.39c0,1.86.47,3.25,2.56,3.72.24,0,.47.23.82.35a1.61,1.61,0,0,1,.81,2.09,1.35,1.35,0,0,1-1.51,1.28c-3.61,0-7.21,0-10.81-.12a2.25,2.25,0,0,1-1.63-1,1.53,1.53,0,0,1,.81-2.33c2.56-.7,2.56-2.56,2.44-4.65-.11-3.49,0-7.09,0-10.58,0-2.33-.35-4.65-2.67-5.7a8.28,8.28,0,0,0-8,.7,3.16,3.16,0,0,0-1.51,2.79c-.11,4.88-.11,9.88-.11,14.77a2.13,2.13,0,0,0,1.74,2.21C732.21,90.92,732.21,90.92,731.51,94Z"/><path class="cls-9" d="M1041.53,173a20.18,20.18,0,0,1-2.33,11,4.13,4.13,0,0,1-2.56,1.86c-10.58,1.62-21,1.51-30.46-4.65a23.07,23.07,0,0,1-11-17.91c-.93-9.42,2.09-17.56,9.42-23.61,8.14-6.86,17.56-8.95,27.91-6.28,2.56.58,5.12.93,7.67,1.28,1.28.12,2.21.58,2.1,2-.12,3.14-.35,6.28-.58,9.42-.12.93-.47,1.86-1.63,1.86s-1.63-.7-1.86-1.63c-.12-.47-.24-.93-.35-1.4-1-4.65-4.19-7.09-8.61-8-11.86-2.32-22.32,4.88-24.3,16.75a30.82,30.82,0,0,0,1.16,15.93c4.89,13,17.56,15,27,10.58a10.92,10.92,0,0,0,5.47-5.7C1038.85,173.37,1039.44,172.21,1041.53,173Z"/><path class="cls-9" d="M648,81.39a20.66,20.66,0,0,1-1.63,10.35A4,4,0,0,1,643,94.41c-9.07,1.28-18,1.28-26.51-2.67-7.68-3.61-12.91-9.42-14.42-18-1.75-10.35,1.39-19.18,9.53-25.93s17.33-8.6,27.56-5.93a58.59,58.59,0,0,0,7.68,1.28c1.28.12,2.21.58,2.21,2-.12,3.14-.35,6.28-.58,9.42-.12.93-.47,1.86-1.63,1.86A1.8,1.8,0,0,1,645,54.76a7,7,0,0,1-.35-1.28c-1-4.77-4.3-7.21-8.95-8-12.68-2.33-23.15,5.93-24.31,18.72a31.24,31.24,0,0,0,1.28,13.49c2.33,6.39,6.4,11,13.26,12.67a20.67,20.67,0,0,0,11.86-.7A12.2,12.2,0,0,0,645.35,83C645.58,81.85,646.16,80.69,648,81.39Z"/><path class="cls-9" d="M748.49,264c.58-1.39,1-2.44,1.51-3.48,3.72-9.07,7.45-18,11.17-27.1.23-.7.58-1.39.81-2.09.58-2.1.23-2.79-1.74-3.72-.7-.35-1.52-.47-2-1.05a2.36,2.36,0,0,1-.7-1.86c0-.35.93-.93,1.4-.93,3.6-.12,7.21-.12,10.93,0,1.51,0,2.09,1.28,1.39,2.56a1.41,1.41,0,0,1-.58.58c-2.44,1.51-3.37,4.19-4.3,6.63-5.7,13.49-11.28,26.86-17,40.35-.46,1.16-.46,2.79-2.32,2.67-1.52,0-1.75-1.51-2.21-2.56-6.75-13.83-13.38-27.56-20.12-41.39-1-2.1-2.09-4.19-4.3-5.24a1.84,1.84,0,0,1-1.05-2.55c.35-1.17,1.4-1.05,2.33-1.05H734c1,0,2.09,0,2.32,1.39s-.46,1.75-1.63,2.33c-2.55,1.16-2.67,1.28-1.62,3.72,4.76,10.58,9.65,21.17,14.53,31.63A6.39,6.39,0,0,1,748.49,264Z"/><path class="cls-10" d="M875.82,66.39a10.59,10.59,0,0,0,1.63-.93c3.14-2.33,6.75-2.56,10.35-2.1a8.64,8.64,0,0,1,7.68,8.84c.11,4.65,0,9.3-.12,14v3.14c1.16.35,2.09.7,3,.93a1.86,1.86,0,0,1,1.28,2.21c-.11,1.17-.93,1.52-2,1.52H886.87c-.81,0-1.51-.24-1.74-1s-.24-2.09.81-2.44c2.79-.82,2.67-2.91,2.67-5.12,0-3.37.12-6.74,0-10a10.49,10.49,0,0,0-.46-3.26c-.81-2.9-2.79-4.3-5.81-4.3a15.71,15.71,0,0,0-3.26.35c-3.26.93-3.84,1.74-3.84,5.12V86.39c0,2.67,0,2.67,2.56,3.49,2.33.81,2.44.93,1.63,3.83a6.68,6.68,0,0,1-1.51.24H867.1a3.07,3.07,0,0,1-2.09-.82,1.71,1.71,0,0,1,.93-2.56c2.21-1,2.56-2.9,2.67-5.11q.18-18,.35-35.94a4.73,4.73,0,0,0-1.63-4c-1.62-1.39-1.62-2.32.12-3.49s3.49-2.21,5.23-3.14a18.27,18.27,0,0,1,3.61-.93c-.23,3.49-.35,6.51-.47,9.54s-.11,6.28-.23,9.53C875.71,60,875.82,63,875.82,66.39Z"/><path class="cls-10" d="M768.14,62.32c.35,1,.7,2.09,1.05,3.37a17.6,17.6,0,0,0,2.09-1,14.42,14.42,0,0,1,11.4-1c5.93,1.74,9.65,6.74,9.88,13.37.47,13.6-9.88,19.53-20.93,17.91-.81-.12-1.63-.35-2.67-.47a17.12,17.12,0,0,0-.35,2v8.14c0,2.44.46,2.9,2.91,3.14.46,0,.93.11,1.39.11a1.52,1.52,0,0,1,1.4,1.75,1.5,1.5,0,0,1-1.51,1.63,8,8,0,0,1-1.63,0H760.82a2.91,2.91,0,0,1-1.4-.12c-.46-.23-1-.58-1.16-.93a3,3,0,0,1,.46-1.74c.24-.35.82-.47,1.17-.7,1.39-.47,1.74-1.4,1.74-2.79.12-4,.23-7.79.23-11.75,0-6.28,0-12.67.12-18.95a4.41,4.41,0,0,0-2.33-4.31c-2.32-1.39-2.2-2.2,0-3.83,1.52-1.05,3-2.1,4.66-3.14C765.59,62.32,766.63,61.73,768.14,62.32Zm.7,16h0c.12,2.45,0,4.89.12,7.21a3.82,3.82,0,0,0,1.39,3.26c4.31,3.37,12.1,1.86,14.65-2.91,3.14-6,.47-14.3-5.58-17.21a10.48,10.48,0,0,0-8.37-.46,2.77,2.77,0,0,0-2.09,2.9C768.84,73.6,768.84,75.92,768.84,78.36Z"/><path class="cls-10" d="M952.11,62.08c.11,2.1.34,3.72.46,5.59a18.75,18.75,0,0,1,1.86-.7c1.63-.93,3.26-1.86,4.89-2.68a8.74,8.74,0,0,1,5.93-.58c4,.93,5.93,3.26,6,7.21.12,4.89.12,9.89.12,14.77v2c0,1.39.46,2.32,2,2.44a2.2,2.2,0,0,1,1.51.58,4,4,0,0,1,.7,2,1.38,1.38,0,0,1-1.05,1c-4.54.12-9.07,0-13.49,0-.7-1.74-.47-2.9,1.16-3.37s2.21-1.74,2.21-3.37c0-4.42.12-8.72,0-13.14-.11-3-1.51-4.42-4.53-4.54a11.29,11.29,0,0,0-3.38.24c-3.83.81-4.41,1.51-4.41,5.46-.12,3.72,0,7.44-.12,11.16,0,2.1.46,3.49,2.79,4.19,1.74.47,1.74.93.93,3.26H941.29c-1-2.45-.93-2.91,1.4-3.72A2.76,2.76,0,0,0,944.78,87V71.85c0-1.39-.81-1.86-1.86-2.56-2.09-1.28-2.21-2.44-.35-3.72a52.52,52.52,0,0,1,6.63-3.49A23.55,23.55,0,0,0,952.11,62.08Z"/><path class="cls-10" d="M683,182c-.93.58-1.62,1.05-2.44,1.51a16.22,16.22,0,0,1-9.3,2.56c-4.07-.11-6.75-2.09-7.44-6.16a52.17,52.17,0,0,1-.35-8.6c0-2.91.23-5.82.46-8.61a2.77,2.77,0,0,0-2-3.26c-.93-.34-1.75-.81-1.63-2s1.16-1.4,2-1.51c2.68-.47,5.47-1.4,8.38-.47v3.84c-.24,5.35-.47,10.58-.58,15.93,0,4,2.79,6.28,6.74,5.7a19.61,19.61,0,0,0,2.44-.58c4.19-1.4,4.42-1.63,4.65-6,.24-3.49.24-7.09.35-10.58.12-2-.46-3.49-2.56-4.07a2.55,2.55,0,0,1-.93-.47c-1.16-.93-1.16-2.44.24-2.79,3.14-.81,6.28-1.51,9.76-.81v3.49c-.11,6.27-.34,12.67-.46,19,0,2.33.23,2.44,2.56,2.67h.58c.46.35,1.28.7,1.28,1.05a1.74,1.74,0,0,1-.93,1.4c-2.33.93-4.65,1.86-7,2.67-1.74.58-2.44.12-3.14-1.74A9.06,9.06,0,0,0,683,182Z"/><path class="cls-10" d="M934.08,168.83c0-2,.12-4.18,0-6.28a3.55,3.55,0,0,0-3.49-3.37c-2.55-.35-3.72.23-4.76,2.33a6,6,0,0,1-6.4,3.14c-1.4-.35-2-1.05-1.51-2.45a7.07,7.07,0,0,1,1.28-2.44c3.49-4.3,11.86-6.51,17.09-4.53a6.56,6.56,0,0,1,4.3,4.77,16.27,16.27,0,0,1,.59,4.07c.11,4.41,0,9,0,13.37,0,2.91,0,2.91,3.13,3.14.35,0,.7.11,1.05.11.58,2.45,0,3.14-2.91,4.42-3.6,1.51-6.16.82-8.14-2.32a19,19,0,0,0-2.09,1.16,15.5,15.5,0,0,1-9.07,2.21c-3.25-.23-5.58-1.86-6.51-4.77a7.13,7.13,0,0,1,2.32-8.25,12.59,12.59,0,0,1,4-2C926.41,170.23,930,169.65,934.08,168.83Zm.12,4.42c-4.42-.35-7.33.35-9.19,2a3.48,3.48,0,0,0-1.28,4,3.33,3.33,0,0,0,3.37,2.33,12.25,12.25,0,0,0,6.28-2.09,2.06,2.06,0,0,0,.7-1.4C934.2,176.51,934.2,175,934.2,173.25Z"/><path class="cls-10" d="M1066.76,182.79c-.81.46-1.39.81-2.09,1.16a15.5,15.5,0,0,1-9.07,2.21,7,7,0,0,1-6.51-4.77,7.12,7.12,0,0,1,2.32-8.25,12.09,12.09,0,0,1,4-1.86,38.76,38.76,0,0,1,5.46-1.28c1.86-.35,3.72-.47,5.82-.82a19.41,19.41,0,0,0-.24-7.32c-.58-1.86-1.86-2.68-4.07-2.68-1.74,0-3.25.35-3.95,2.33a5.58,5.58,0,0,1-6.4,3.14c-1.51-.35-2.2-1.4-1.39-2.91a13.42,13.42,0,0,1,2.67-3.49,17,17,0,0,1,12.79-3.6c4.89.58,7.33,3.14,7.45,8.14.11,4.53,0,9.07.11,13.72v2.21c0,1.39.7,2,2.1,2,.93,0,2.21-.46,2.55.93s-.69,2.21-1.86,2.8a14.36,14.36,0,0,1-2.79,1.16C1070.48,186.51,1068.62,185.81,1066.76,182.79Zm.12-9.42a11.77,11.77,0,0,0-8,1c-2.21,1.28-3.14,3.14-2.45,5s2.56,2.56,4.89,2a19.68,19.68,0,0,0,4.3-1.74,2.41,2.41,0,0,0,1.16-1.63A29.71,29.71,0,0,0,1066.88,173.37Z"/><path class="cls-9" d="M875.94,244.53a33.13,33.13,0,0,1,4.88.82c7.56,1.86,12.33,7.91,12,15.35-.35,8.25-5.46,14.07-13.49,15.35a19.69,19.69,0,0,1-8.6-.35c-7.68-2.09-12-9.3-10.7-17.21C861.4,251.05,868.26,244.3,875.94,244.53Zm9.3,18.26c-.11-5.46-1.51-10-5.93-13-4.65-3-10-.93-11.39,4.42a18.66,18.66,0,0,0,1.39,13.25,11.15,11.15,0,0,0,2.56,3.26A7.76,7.76,0,0,0,884.54,267,21.42,21.42,0,0,0,885.24,262.79Z"/><path class="cls-10" d="M803.61,186.16c-10.12,0-16.86-7-16.16-16,.69-9.53,8.95-16.63,17.9-15.46a31,31,0,0,1,3.26.58c7.68,2.09,12.33,8.25,11.75,15.81-.59,8.37-6.17,14.19-14.54,15A10.42,10.42,0,0,0,803.61,186.16Zm9.07-13.61c-.12-5.34-1.39-9.76-5.7-12.79-4.76-3.37-10.35-1.28-11.74,4.42a19.47,19.47,0,0,0,1.39,13,10.29,10.29,0,0,0,2.1,2.9,7.76,7.76,0,0,0,13.14-3.49A14.1,14.1,0,0,0,812.68,172.55Z"/><path class="cls-10" d="M745,186.16c-10.11,0-16.86-6.86-16.28-15.93.58-9.65,9-16.75,18.14-15.47a14.72,14.72,0,0,1,3,.58c7.79,2,12.44,8.38,11.86,16-.7,8.37-6.28,14.07-14.65,14.89A4.38,4.38,0,0,0,745,186.16Zm-9-17.68h.12a23.92,23.92,0,0,0,.11,2.8c.47,3.25,1.28,6.39,3.72,8.83a7.81,7.81,0,0,0,13.26-3.25,16.84,16.84,0,0,0-.12-9.89c-1-3.37-2.79-6-5.93-7.67a7.17,7.17,0,0,0-10.46,4.42C736.4,165.11,736.4,166.74,736.05,168.48Z"/><path class="cls-10" d="M674,94.53c-8.83,0-15.11-5.12-16.16-12.56-1.51-10.58,7.56-22,20.81-18.49,8,2.09,12.56,8.37,11.87,16.51-.59,7.79-6.52,13.61-14.54,14.3A7,7,0,0,1,674,94.53Zm9.07-14h-.23a10.8,10.8,0,0,0,0-2c-.46-4.31-2.09-8.14-5.93-10.59-4.77-3-10.23-.69-11.4,4.77a18.52,18.52,0,0,0,1,11.75,11.22,11.22,0,0,0,3.37,4.65,7.66,7.66,0,0,0,12.45-4C682.67,83.71,682.79,82.08,683,80.57Z"/><path class="cls-9" d="M968.15,272.79a22.73,22.73,0,0,1-2.79,1.51,14.06,14.06,0,0,1-9.65,1.75,7,7,0,0,1-5.7-5.35c-.69-3.14.12-5.82,2.68-7.68a12.24,12.24,0,0,1,4.53-2c3.37-.82,6.86-1.4,10.58-2a52.74,52.74,0,0,0,0-6.16c-.23-2.21-1.74-3.38-3.95-3.61s-3.37.47-4.3,2.56a5.69,5.69,0,0,1-6.86,2.79c-1.17-.46-1.63-1.39-1.05-2.44a11.21,11.21,0,0,1,2.79-3.72A16.92,16.92,0,0,1,968.62,245c3.72.58,5.93,3.26,6.16,7.21.23,3.49.12,7.09.12,10.58v5.58c.11,2,.35,2.21,2.21,2.44.93.12,2.09-.34,2.32.93a2.25,2.25,0,0,1-1.51,2.68,15.72,15.72,0,0,1-4.42,1.63C971.29,276.28,969.08,276.05,968.15,272.79Zm-.23-9.42a9.14,9.14,0,0,0-6.16.47,9.84,9.84,0,0,0-3.49,2.21,3.29,3.29,0,0,0,1.63,5.46c2.67.58,5.11-.46,7.32-1.86,1.63-1,.58-2.91.82-4.42A13.1,13.1,0,0,0,967.92,263.37Z"/><path class="cls-10" d="M1076.3,78.48a11.13,11.13,0,0,0,2.79,8.37,6.85,6.85,0,0,0,5.46,2.21,11.28,11.28,0,0,0,7.33-2.32,4.2,4.2,0,0,1,1.16-.82c.93-.46,1.75-.58,2.44.35a1.79,1.79,0,0,1-.34,2.33c-2.56,2.9-5.47,5.23-9.31,5.69-7.44,1-15.46-1.51-16.86-11.86a19.33,19.33,0,0,1,2-12.21,13.67,13.67,0,0,1,16.4-6.74,12,12,0,0,1,6.39,5.12,6,6,0,0,0,2.21,2.32,1.81,1.81,0,0,1,1,2c-.12,1-.82,1.28-1.75,1.51l-15.58,3.14C1078.51,77.9,1077.58,78.13,1076.3,78.48Zm10.58-5.93c-.81-4-3.26-6.28-5.81-5.81-3.14.58-5.35,4.3-4.54,8.14C1080,74.18,1083.39,73.36,1086.88,72.55Z"/><path class="cls-10" d="M1118.63,170.23c.11.93.11,1.86.23,2.67,1.39,7.45,8.37,10.24,14.65,6a8.41,8.41,0,0,1,2.09-1.4,2.51,2.51,0,0,1,2.21.35c.82.58.35,1.51-.11,2.21-4.54,6.51-15.7,8.14-21.63,3a12.18,12.18,0,0,1-3.26-4.42c-2.44-5.93-2.32-11.86.93-17.45a13.45,13.45,0,0,1,16.17-6,11.88,11.88,0,0,1,6.16,5c.7,1,1,2.32,2.56,2.79.35.12.69,1.28.58,1.86a1.85,1.85,0,0,1-1.28,1.16c-2.68.58-5.23,1.05-7.91,1.63-3.49.7-6.86,1.51-10.35,2.21A2.2,2.2,0,0,0,1118.63,170.23Zm10.58-6c-.58-4-3.14-6.39-5.82-5.81-3.14.7-5.35,4.65-4.3,8.14C1122.46,165.69,1125.72,165,1129.21,164.18Z"/><path class="cls-10" d="M634.07,170c.11,1.16.11,2,.23,2.79,1.4,7.44,8.37,10.35,14.65,6a8.37,8.37,0,0,1,2.09-1.39,2.48,2.48,0,0,1,2.21.35c.82.58.47,1.51-.11,2.21-2.68,3.14-5.93,5.46-10.12,5.93a21.25,21.25,0,0,1-6-.35c-5-.93-8-4-9.41-8.84a19,19,0,0,1,1.27-14.88A13.4,13.4,0,0,1,645.11,155a11.15,11.15,0,0,1,6.4,5.11c.7,1,1,2.33,2.56,2.79a1.94,1.94,0,0,1,.58,1.86,2.11,2.11,0,0,1-1.51,1.28c-4.3.93-8.72,1.75-13.14,2.68C638.14,169.18,636.28,169.53,634.07,170Zm10.58-5.82c-.58-3.84-3.14-6.39-5.7-5.81-3.14.7-5.35,4.53-4.3,8.14C637.9,165.69,641.28,164.88,644.65,164.18Z"/><path class="cls-10" d="M914.08,78.36c-.58,4.65,1.75,9.19,5.23,10.24a10.63,10.63,0,0,0,9.31-1.28c.58-.35,1.16-.93,1.74-1.28a1.85,1.85,0,0,1,2.56.23c.7.81.35,1.51-.23,2.33-4.42,6.39-15.35,8-21.52,3.14a11.51,11.51,0,0,1-3.72-5.12,19.62,19.62,0,0,1,.82-16.16,13.45,13.45,0,0,1,16.28-6.86,11.16,11.16,0,0,1,6.39,5.11c.7,1.05,1,2.33,2.56,2.79a1.63,1.63,0,0,1,.58,1.63,2.7,2.7,0,0,1-1.28,1.51c-2.56.7-5.23,1-7.9,1.63C921.41,76.85,917.69,77.67,914.08,78.36ZM913.85,75c3.72-.81,7.09-1.63,10.46-2.44-.34-2.44-.46-2.79-1.39-3.84-2.33-2.67-5.35-2.67-7.56.12A8.36,8.36,0,0,0,913.85,75Z"/><path class="cls-10" d="M857.8,74.18c-6.86,1.39-13.49,2.79-20.35,4.18.12,4,.93,7.45,4.3,9.54s7.1,1.39,10.58-.58a16.75,16.75,0,0,0,1.52-1.17c.93-.69,2-.93,2.79,0s.23,1.87-.47,2.68c-4.19,4.53-9.19,6.51-15.23,5.35s-9.54-5-10.47-11.17a20.37,20.37,0,0,1,1.63-12.55,13.56,13.56,0,0,1,16.4-7.1,11.21,11.21,0,0,1,6.39,5.12c.7,1,1.16,2.21,2.56,2.79C858.61,71.74,858.15,73,857.8,74.18ZM837.68,75c3.61-.81,7-1.51,10.35-2.32a6,6,0,0,0-3.72-5.82c-1.86-.58-4.07.35-5.35,2.56A7.12,7.12,0,0,0,837.68,75Z"/><path class="cls-10" d="M782.45,185.35a7.28,7.28,0,0,1-1.63.23h-11.4c-.93,0-2,.23-2.21-1.05a1.78,1.78,0,0,1,1.4-2.32c2.21-.47,2.44-2,2.56-4,.23-11.51.58-23,.93-34.53.11-2.68-.47-4.89-2.91-6.4-1.74-1-1.63-2.09.12-3.14,2.55-1.51,5.23-2.79,7.9-4.07a5,5,0,0,1,2-.12v3c-.12,1.51-.46,2.9-.46,4.42-.12,13.14-.35,26.39-.47,39.53v2c0,2.44.12,2.44,2.44,3.26C782.91,182.79,782.91,182.79,782.45,185.35Z"/><path class="cls-10" d="M962.34,129.88v2.44c-.12,2.56-.47,5.23-.47,7.79-.23,12.21-.23,24.54-.46,36.75v2c.12,2.33.12,2.33,2.32,3s2.21.69,1.87,3.25a6.68,6.68,0,0,1-1.52.24H952.69c-.93,0-2,.23-2.33-.93a1.92,1.92,0,0,1,1.51-2.56c1.86-.47,2.33-1.63,2.33-3.49.23-11.63.58-23.26.93-34.77.12-2.79-.47-5.12-3-6.63-1.4-.81-1.52-2-.35-2.67,3-1.63,6-3.14,9.18-4.66A13.62,13.62,0,0,0,962.34,129.88Z"/><path class="cls-10" d="M1002.34,71.5a2.14,2.14,0,0,1-2.91-.81c-.46-.58-.81-1.28-1.28-1.86-1.62-2.21-3.48-2.68-6.16-1.86a2.82,2.82,0,0,0-2.32,2.44,3,3,0,0,0,1.62,3.26c2.79,1.27,5.59,2.67,8.26,4a8.15,8.15,0,0,1,4.54,4.65,8,8,0,0,1-1.87,8.84,15.32,15.32,0,0,1-5.34,3.49,19.62,19.62,0,0,1-12.1.35c-2.09-.59-2.44-1-2.56-3.38v-5c0-.81,0-1.74,1-2a2.11,2.11,0,0,1,2.33,1,32.72,32.72,0,0,0,2.21,3.49,5.63,5.63,0,0,0,6.39,2.33c2-.58,3-1.63,3.26-3.38.23-2-.47-3.25-2.45-4.3-2.67-1.39-5.34-2.67-7.9-4.18A7.36,7.36,0,0,1,983.39,71a7,7,0,0,1,4.07-6.17,20.12,20.12,0,0,1,12-1.62,2.72,2.72,0,0,1,2.45,2.32A9.65,9.65,0,0,1,1002.34,71.5Z"/><path class="cls-9" d="M798.38,262.56c-.12-9.89,8.84-19.54,21.63-17.68a9.92,9.92,0,0,1,5.23,2.45,3.37,3.37,0,0,1,.93,3.83c-.47,1.28-1.63,2-3.37,2.1a5.83,5.83,0,0,1-4.07-1.63,7.64,7.64,0,0,0-6.28-1.75,6.44,6.44,0,0,0-5.7,4.31,14.79,14.79,0,0,0,.81,12.9c2.33,4.19,7.33,5.7,12.21,4.07,1.17-.46,2.33-1.16,3.49-1.62.82-.35,1.63-.59,2.21.34s.35,1.75-.46,2.45a16.34,16.34,0,0,1-11.28,4.07,22.86,22.86,0,0,1-6.86-1.17C801.17,273.14,798.26,268.72,798.38,262.56Z"/><path class="cls-10" d="M898.85,186.28c-1.4-.24-2.79-.24-4.19-.59-8.49-1.86-12.56-8.48-10.7-17A18.28,18.28,0,0,1,906.17,155a14.35,14.35,0,0,1,4.42,2.32,3,3,0,0,1,.93,3.84,3,3,0,0,1-3.37,2,10,10,0,0,1-3.95-1.63,9.2,9.2,0,0,0-5.7-1.75,6.6,6.6,0,0,0-6.28,4.31,14.67,14.67,0,0,0,.7,12.67c2.32,4.42,7.79,6,12.9,3.95a27.49,27.49,0,0,0,3.26-1.62c.81-.35,1.63-.35,1.86.46a2.35,2.35,0,0,1-.12,2,6.22,6.22,0,0,1-1.86,1.63A17.64,17.64,0,0,1,898.85,186.28Z"/><path class="cls-10" d="M1042.11,67.32c1.63,5.81,4.07,11.16,6.05,17,.58-.58,1-.81,1.28-1.28,2.09-4,4.3-7.79,6.28-11.86,1.27-2.44,1.16-2.67-1-4.3a3.9,3.9,0,0,1-1.05-.93c-.81-1-.35-2.44.93-2.44,2.68-.12,5.35-.12,8,0,1.39.12,1.86,1.51,1,2.67-5.46,7.56-8.95,16.17-13.72,24.19a19.92,19.92,0,0,1-1.51,2.68c-1.28,1.74-2.21,1.62-3.26-.24-.35-.69-.69-1.51-1-2.32-2.79-6.75-5.47-13.38-8.26-20.12-.58-1.4-1.51-2.56-2.09-3.84a4.28,4.28,0,0,1-.58-2.32c.11-.35,1.16-.7,1.86-.7,3.25-.12,6.51,0,9.76,0,.94,0,2-.12,2.1,1.28s-.7,1.74-1.86,1.86C1044.09,66.74,1043.27,67.08,1042.11,67.32Z"/><path class="cls-10" d="M718.49,181.74c.7,3.14.47,3.61-2.09,3.61-4.31.11-8.49.11-12.79.11-.82,0-1.75.12-2.1-.93s-.23-2.21.82-2.67c2.32-.93,2.32-2.79,2.32-4.77,0-3.84,0-7.56.12-11.4,0-1.74-.35-3-1.86-3.95-2.1-1.4-2.1-2.21,0-3.72,2-1.28,4-2.44,5.93-3.61a11.94,11.94,0,0,1,2.79-.81c.12,2.33.23,4.19.35,6.63,1.16-.82,2.09-1.51,2.91-2.1a28.82,28.82,0,0,1,4-2.67c3.14-1.51,5.58.23,5.58,3.72a5.53,5.53,0,0,1-.12,1.4c-.58,3-2.21,3.95-5,2.67a5.82,5.82,0,0,0-6.28.35,3.27,3.27,0,0,0-1.51,2.79c0,3.49-.23,7.09-.23,10.58,0,3.14.93,4.07,4.07,4.54C716.4,181.62,717.44,181.62,718.49,181.74Z"/><path class="cls-10" d="M1101,181.74c.7,3.26.47,3.61-2.09,3.61-4.19.11-8.38.11-12.56.11-.93,0-2,.23-2.33-.93s-.23-2.32,1-2.79c1.86-.81,2.09-2.33,2.09-4.07,0-3.95,0-8,.12-12a4.14,4.14,0,0,0-1.86-3.95c-2.09-1.4-2.09-2.21,0-3.72,1.86-1.28,3.72-2.33,5.7-3.49a19.62,19.62,0,0,1,2.9-1.05c.12,2.33.35,4.31.47,6.75,1.51-1,2.67-2,3.84-2.79a17.6,17.6,0,0,1,3.83-2.21c2.56-.93,4.65.7,4.77,3.37V160c-.46,3.48-2.09,4.53-5.35,3a5.31,5.31,0,0,0-4.77-.12c-1.74.82-2.79,1.86-2.79,4.07,0,3.26-.23,6.51-.23,9.77,0,3.49.93,4.42,4.42,4.77C1099,181.62,1099.9,181.62,1101,181.74Z"/><path class="cls-10" d="M801.28,93.83c-.81-2.56-.81-2.79.94-3.84A3.34,3.34,0,0,0,804,86.85c0-4.3,0-8.49.12-12.79a4.24,4.24,0,0,0-2-4c-2-1.28-2-2.21,0-3.49a65.85,65.85,0,0,1,6.16-3.72,18.79,18.79,0,0,1,2.68-.82c.11,2.21.23,4.19.35,6.4.81-.47,1.39-.7,2-1,1.51-1,2.91-2.32,4.54-3.25a4.13,4.13,0,0,1,5.35.69c1.16,1.63.69,5.7-.7,6.75s-2.79.58-4.19-.12a5.74,5.74,0,0,0-6,.58,2.81,2.81,0,0,0-1.4,2.56c-.12,3.61-.23,7.21-.23,10.82,0,3,.93,4,3.95,4.3a11,11,0,0,0,2,.12c1.28,0,1.86.58,1.86,1.86s-.58,1.86-1.86,1.86C811.52,93.83,806.52,93.83,801.28,93.83Z"/><path class="cls-9" d="M911.06,250.58c2.21-1.63,3.72-2.79,5.23-4a5.44,5.44,0,0,1,4.42-1.28,2.86,2.86,0,0,1,2.67,2.67,5.49,5.49,0,0,1,0,2c-.23,3.72-2,4.77-5.35,3.26a5.46,5.46,0,0,0-5.34.11,3.83,3.83,0,0,0-2.33,3.72c.12,3.38-.12,6.75-.12,10s.93,4.19,4.07,4.42h.82c2.67.23,2.79.35,2.32,3.72H900.71c-.58-1.62-.58-3,1.16-3.72a2.57,2.57,0,0,0,1.63-2.67c.12-4.77.12-9.54.23-14.19,0-1.51-.93-2.09-2-2.79-2-1.51-2-2.44,0-3.72a76.2,76.2,0,0,1,6.75-3.95c1.51-.82,2.21-.24,2.21,1.51A19.85,19.85,0,0,1,911.06,250.58Z"/><path class="cls-9" d="M836.29,251.16c-.7-.35-1.4-.58-2-.81-2.09-.82-2.21-1.86-.58-3.49,1.39-1.28,2.91-2.56,4.3-4,.93-.82,1.63-1.75,2.68-2.56a11.42,11.42,0,0,1,2.44-1.16v6h7.9c2,0,2.33.47,2.33,2.33,0,2.09-.35,2.56-2.56,2.56H843.5c-.24.34-.47.46-.47.69-.12,5.24-.46,10.59-.46,15.82.11,3.49,2.44,4.77,5.81,3.72a19.83,19.83,0,0,1,2.33-.93,2.27,2.27,0,0,1,1.74.35c.23.23.12,1-.12,1.51-2.21,4.65-9.76,6.4-13.72,3.14a8.1,8.1,0,0,1-2.79-6.63q.18-7,.35-14A10.26,10.26,0,0,0,836.29,251.16Z"/><path class="cls-10" d="M879.08,182.32v3.14H864.54c-.93-2.44-.93-2.67,1.28-3.6a2.85,2.85,0,0,0,2-2.91V165a3.3,3.3,0,0,0-2-3.38c-.93-.35-1.63-.81-1.51-2s.93-1.52,1.75-2c2-.93,3.83-1.86,5.81-2.67a14.81,14.81,0,0,1,2.91-.7v2.79q-.18,10.29-.35,20.58c0,3.72,0,3.72,3.6,4.3C878.38,181.86,878.73,182.09,879.08,182.32Z"/><path class="cls-10" d="M1012.57,94c-.46-2.8-.46-2.91,1.52-3.73a2.91,2.91,0,0,0,2-3V73.48a3.71,3.71,0,0,0-2.09-3.61c-2.21-1.16-2.09-2.67.12-3.72s4.18-2.09,6.28-3a7.36,7.36,0,0,1,2.44-.46,14.55,14.55,0,0,1,.23,1.62c-.12,7.68-.23,15.24-.35,22.91,0,2.56.12,2.68,2.79,3,1.86.24,2.56,1,2.09,2.45a1.82,1.82,0,0,1-1.27,1.16C1021.76,94,1017.23,94,1012.57,94Z"/><path class="cls-9" d="M940,244.3v4c-.11,6.74-.23,13.6-.35,20.35,0,2.79.24,3,2.91,3.37.58.11,1,.11,1.86.23v3.26c-.93.11-1.86.11-2.79.23-3,0-6.16,0-9.19.11h-.23c-1.16,0-2.56.35-2.91-1.39-.34-1.51.59-2.21,1.86-2.56,1.52-.46,1.87-1.51,1.87-3V255.12a3.62,3.62,0,0,0-2-3.61c-2.21-1.16-2.09-2.67.11-3.84s4.19-2.09,6.28-3C938.15,244.53,938.85,244.53,940,244.3Z"/><path class="cls-9" d="M792,272.21c1,2.79.58,3.6-2.09,3.49H779.66c-2.1,0-2.91-.7-2.45-2.33a2.37,2.37,0,0,1,1.4-1.39c1.86-.58,2.33-1.75,2.33-3.61-.12-4.42,0-8.72,0-13.14a3.77,3.77,0,0,0-2.21-3.83c-2.1-1.05-2.1-2.56,0-3.61s4.53-2.21,6.74-3.26a10.83,10.83,0,0,1,2.33-.34v1.86c-.12,7.67-.24,15.35-.24,23.14,0,1.86.35,2.21,2.21,2.56A8.91,8.91,0,0,0,792,272.21Z"/><path class="cls-9" d="M936.64,234a3.65,3.65,0,0,1-3.72-3.6,3.57,3.57,0,0,1,3.6-3.72,3.8,3.8,0,0,1,4,3.72A4,4,0,0,1,936.64,234Z"/><path class="cls-9" d="M784.42,234a3.82,3.82,0,0,1-3.72-3.72,3.94,3.94,0,0,1,3.84-3.72,3.8,3.8,0,0,1,3.84,3.84A4,4,0,0,1,784.42,234Z"/><path class="cls-10" d="M1019.67,44.87a3.61,3.61,0,1,1-3.84,3.49A3.6,3.6,0,0,1,1019.67,44.87Z"/><path class="cls-10" d="M871.29,143.72a3.61,3.61,0,1,1,0-7.21,3.79,3.79,0,0,1,4,3.72A3.93,3.93,0,0,1,871.29,143.72Z"/><line class="cls-11" x1="559.2" y1="1.5" x2="1143.82" y2="1.5"/><line class="cls-11" x1="559.2" y1="315.5" x2="1143.82" y2="315.5"/></svg>