<?xml version="1.0" encoding="utf-8"?>
<!-- Generator: Adobe Illustrator 26.3.1, SVG Export Plug-In . SVG Version: 6.00 Build 0)  -->
<svg version="1.1" id="CNC_Victoria" xmlns="http://www.w3.org/2000/svg" xmlns:xlink="http://www.w3.org/1999/xlink" x="0px"
	 y="0px" viewBox="0 0 686 708" style="enable-background:new 0 0 686 708;" xml:space="preserve">
<style type="text/css">
	.st0{fill:#009640;}
	.st1{fill:#E30513;}
	.st2{fill:#EF7D00;}
	.st3{fill:#009FE3;}
	.st4{fill:#AD4682;}
	.st5{fill:#F5B3D2;}
	.st6{fill:#FFCC00;}
	.st7{fill:#B0CB0A;}
	.st8{fill:#E30713;}
</style>
<path class="st0" d="M166.2,173.3c0.7-1.2,1.3-2.5,2-3.6c7.3-11.1,17.4-18.8,30-23.3c6.5-2.3,13.3-3.4,20.2-3.7
	c20.7-0.8,40.8,2.4,60.3,9.5c2.5,0.9,5,2.2,7.4,3.4c1.6,0.8,2.8,2,3.8,3.5c5.5,8,9.4,16.7,10.8,26.4c1,7,0.8,14.1-0.9,21
	c-0.7,2.7-1.6,5.4-3.1,7.8c-4.2,7-6.2,14.6-7.4,22.6c-0.4,3-1.2,6-1.8,8.9c-0.2,0.8-0.4,1.6-0.7,2.3c-1.3,3.6-2.6,4.4-6.3,4
	c-3.9-0.4-7.8-0.8-11.7-1.2c-0.3,0-0.6-0.1-0.9-0.1c-2.7-0.6-3-0.8-3-3.5c0-8.5,0.1-17,0.3-25.4c0.1-3.4,0.3-6.9-0.4-10.3
	c-1.1-5.1-3.4-9.5-7-13.1c-1.4-1.4-2.9-2.8-4.5-3.9c-10.8-7.1-22.6-10.7-35.6-10.4c-3.7,0.1-7.3,0.9-10.7,2.3
	c-1,0.4-2.1,0.9-2.9,1.6c-1.8,1.3-1.7,2.7,0.2,3.7c1.1,0.6,2.3,1.1,3.5,1.6c4.1,1.5,8.4,2.8,12.5,4.3c4.2,1.6,8.3,3.3,12.3,5.2
	c4.7,2.3,8.7,5.3,10.9,10.4c2.5,5.7,3.3,11.5,2,17.6c-1,4.8-3.1,9.1-5.7,13.1c-3.1,4.8-6.8,9.1-11,12.9c-4,3.6-8.1,7.3-12.6,10.4
	c-14.6,10.1-28.1,21.4-40.2,34.5c-2.1,2.2-4.1,4.5-6.4,6.5c-3.9,3.5-7.7,6.9-11.9,10.1c-3.9,3-8.5,4.9-13.5,5.3
	c-3.4,0.3-6.9,0.1-10.3,0c-3.7-0.1-7.3-0.6-11-0.8c-2.5-0.1-3.1,0.9-2.2,3.2c0.1,0.2,0.2,0.5,0.3,0.7c3.3,5.2,6.7,10.4,11.6,14.3
	c5.9,4.7,12.4,5.6,19.4,2.9c10-3.9,19-9.3,26-17.5c4.8-5.5,9.2-11.3,13.7-17c5.6-7.1,10.9-14.4,16.6-21.4c5.6-6.9,12-13.1,19.3-18.2
	c6.4-4.5,13.3-7.9,21.1-9.4c5.6-1.1,11.1-1,16.7,0.1c9.6,1.9,18.9,4.6,27.8,8.7c9.9,4.6,17.8,11.5,23.8,20.7c4,6.1,6.1,12.6,5.6,20
	c-0.3,4-1.4,7.9-3.1,11.5c-2.6,5.8-6.1,11-11.4,14.9c-5.4,4-10.8,8-16.7,11.3c-8.6,4.9-17.7,8.1-27.8,7.9c-5.1-0.1-10.2,0-15.3-0.1
	c-2.4,0-3.4,0.7-3.6,3.1c-0.4,4.7,1.7,7.8,6.4,8.7c7.4,1.3,14.7,1.2,21.3-3c3.9-2.5,8.3-3.7,12.8-4.6c11.9-2.3,22.7-7.2,32.4-14.4
	c5.3-3.9,10.3-8.1,15.3-12.4c3.2-2.7,5.4-6.3,7.5-9.9c4.3-7.1,7.7-14.7,11.1-22.3c1.2-2.7,2.3-5.5,3.8-8
	c5.7-10.1,14.5-15.2,25.9-16.1c7.8-0.6,15.5,0.5,23.1,2.3c9,2.2,17.7,4.9,25.9,9.2c5,2.6,9.6,5.8,13.5,9.9c5,5.3,8.1,11.5,8,18.9
	c-0.1,6.7-2.4,12.5-7.1,17.3c-3.6,3.7-7.8,6.4-12.5,8.4c-3,1.3-6.1,2.4-9.2,3.5c-4.5,1.6-8.3,4-11.1,7.9c-1,1.3-2.3,2.5-3.4,3.7
	c-0.6,0.7-1.2,1.4-1.9,2.1c1,1.3,2.3,1.7,3.5,1.7c3.5,0.2,7,0.2,10.5,0.3c0.2,0,0.3,0,0.5-0.1c5.9-0.7,5.9-0.7,10-4.9
	c0.1,0.6,0.4,1.1,0.4,1.6c-0.3,7.7-2.8,14.7-7.1,21.1c-0.4,0.5-0.8,1-1.3,1.4c-7.1,7.4-15.7,12-25.5,14.5c-6,1.5-10.8-0.9-13.1-6.7
	c-1.6-4-1.9-8.2-1.4-12.5c0.6-5.7,2.5-11,4.7-16.3c3.3-8,6.2-16.1,7.8-24.6c0.8-4.3-2.1-7.4-4.6-9c-1.7-1-3.6-1-5.2,0
	c-1.5,0.9-2.9,2-4,3.3c-3.3,3.9-5.8,8.1-7.1,13.2c-2,8.4-5.2,16.5-9.7,23.9c-9.3,15.2-22.6,24.6-40.2,27.5c-3.4,0.6-7,0.2-10.5,0.1
	c-7.3-0.2-14.5-0.6-21.8-0.7c-4.2-0.1-8.3,0.7-12.3,1.8c-7.4,2.1-14.8,4.2-22.2,6c-5.4,1.3-10.9,1.9-16.4,1.8
	c-8.1-0.1-16.2,0.1-24.2-1.1c-3.3-0.5-6.6-1.1-9.8-2.2c-4.8-1.6-6.3-4.3-5.2-9.3c0.6-2.9,1.6-5.7,2.7-8.4c2.4-5.7,5.8-10.9,9.5-15.8
	c1.2-1.5,2.3-3.1,3.2-4.8c5.2-9.8,11.3-19,18-27.7c5.4-7,10.6-14.3,16-21.3c1.4-1.8,3-3.5,4.7-5.1c1.5-1.4,3.4-1.8,5.4-1.1
	c2.1,0.7,2.7,2.2,1.5,4.1c-0.2,0.4-0.5,0.8-0.8,1.1c0.4,1.3,1.5,1.6,2.5,1.7c4.5,0.3,8.6-0.6,11.9-3.9c0.6-0.6,1-1.2,1.4-1.9
	c1.6-2.8,0.9-5.5-1.8-7.3c-2.4-1.5-5-2.1-7.8-2.2c-10-0.4-18.7,3-26.4,9.1c-0.7,0.6-1.3,1.4-1.9,2.2c-1.5,2.2-3,4.3-4.4,6.6
	c-10.7,16.3-22.6,31.6-35,46.6c-2.5,3.1-5.3,6-8,8.9c-3.5,3.9-7.6,7.1-11.9,10c-6.3,4.3-13.2,6.8-20.8,7c-8.6,0.3-17.3,0.5-25.9,0.5
	c-5.8,0-11.6-0.9-17.3-2.3c-5.8-1.5-11-3.9-15.1-8.3c-2.1-2.3-4.4-4.4-6.4-6.8c-6.2-7-8.1-15.2-6.2-24.3c3.9-19.9,9.1-39.4,15-58.8
	c3.5-11.7,7.3-23.4,12.3-34.5c1.4-3.2,3.1-6.3,5-9.3c1.8-3,4.5-4.4,8.2-4.4c7.7,0,15.1,1.3,22.5,3.2c6.2,1.6,12.3,3.5,18.5,5.2
	c2.1,0.6,4.2,1,6.3,1.3c4.6,0.7,8.8-0.5,12.4-3.4c2.4-1.9,5-3.3,7.9-4.4c6.2-2.4,9.8-7.3,11.3-13.7c0.8-3.2-0.6-5.5-3.7-6.5
	c-3.4-1-6.8-0.7-10.1,0.6c-0.9,0.4-1.9,0.9-2.1,2.2c0.7,1.2,2,1.4,3.2,1.8c1.3,0.5,1.7,1.2,1.5,2.6c-0.6,3.9-2.5,6.9-5.6,9.2
	c-0.8,0.5-1.9,0.8-2.9,0.7c-2.1-0.2-4.1-0.6-6.1-1.2c-9-2.4-17.9-4.7-27.1-6.1c-2-0.3-4-0.6-5.9-0.8c-3.9-0.4-5.8-2.4-5.9-6.4
	c-0.1-4.7,0.5-9.2,1.8-13.7c0.9-3,2.4-5.5,4.8-7.6c8.3-7.1,16.7-14.2,24.9-21.4c5.6-4.9,11.1-9.9,16.7-14.8c0.9-0.9,1.8-1.8,2.6-2.8
	c1.9-2.6,1-4.4-2.1-4.7c-0.1,0-0.2,0-0.2,0c-6.9,0.4-13.2,2.2-18.3,7.1c-2,1.9-3.8,3.9-5.8,5.8c-0.4,0.4-0.8,0.6-1.3,0.9
	C166.4,173.5,166.3,173.4,166.2,173.3z"/>
<path class="st1" d="M485.9,361.7c1.3,1.3,2.4,1.3,3.5,1.2c3-0.4,6-0.8,8.9-1.6c17.4-5,33.3-13.1,47.6-24.2
	c6.9-5.4,12.4-11.9,16.3-19.8c3.6-7.2,6.7-14.7,8.9-22.5c3.1-10.9,9.3-19.9,17.2-27.9c1.5-1.5,3.3-2.8,5-4c1.4-1,3-1.2,4.8-1.1
	c8.4,0.5,15.6,3.9,22,9.2c1.5,1.2,2.5,2.7,3.1,4.5c0.7,2,1.2,4,1.8,6c0.7,2.5,2,3.6,4.6,3.8c5,0.3,9.3-1.4,13-4.7
	c2.2-2,2.7-4.6,2.3-7.5c-0.5-3.4-2.2-6.3-4.6-8.8c-2.6-2.7-5.5-4.9-8.9-6.4c-4.2-1.8-8.5-3.4-12.7-4.9c-2.2-0.8-2.7-1.3-2.1-3.5
	c3.2-12.3,6.8-24.5,14.6-35c1.5-2,3.1-3.9,4.7-5.8c1.4-1.6,3-2,5.1-1.5c6.8,1.8,13.3,4.1,19.3,7.7c3,1.8,5.7,3.9,8,6.4
	c4.6,5.1,6.4,11,5.2,17.7c-1.2,6.9-2.2,13.9-3.5,20.8c-2.2,11.4-6.8,21.8-13.3,31.4c-4.9,7.3-10.3,14.1-16.5,20.2
	c-2.2,2.1-4.5,4.1-6.9,5.9c-1.6,1.2-3.5,2.2-5.4,3c-3.8,1.5-7.4,1-10.6-1.6c-3.1-2.4-5.6-5.2-7.2-8.8c-0.6-1.3-1.2-2.6-1.9-3.9
	c-1.9-3.1-6.3-4.8-9.8-3.8c-1.6,0.5-2.6,1.8-2,3.5c1.4,4.5,0.9,9,0.7,13.6c-0.2,5-1,9.8-2.7,14.6c-1.7,4.8-4.6,8.4-9.1,11
	c-11.1,6.2-22.6,11.6-34.8,15.4c-10.4,3.3-20.5,7.2-30.5,11.4c-9.1,3.8-18.3,7.1-28,9c-7.4,1.4-14.8,1.7-22.1-0.2
	c-5-1.3-9.4-3.6-13.4-6.7c-2.3-1.8-3.6-4-4.1-6.8c-1.6-9.5,0.2-18.2,6-25.9c2.5-3.2,5.2-6.3,8.1-9.1c3.1-2.9,5.5-6,5.9-10.3
	c0-0.3,0.2-0.6,0.4-1.2c1,0.5,1.9,0.8,2.8,1.3c2.1,1.3,4.2,2.7,6.2,4.1c1,0.7,2,0.9,3.1,0.5c0.7-0.3,1.5-0.5,2.2-0.8
	c3.1-1.6,6.1-3.2,9.1-4.9c2.2-1.2,2.4-2.4,0.6-4.1c-0.9-0.9-2.2-1.5-3.5-1.9c-6.5-2.1-12.9-4.2-19.4-6.1c-1.8-0.6-2.9-1.3-2.8-3.4
	c0.1-2-0.9-3.7-1.9-5.3c-1.4-2.3-2.7-4.5-3.1-7.2c-0.1-1.2-0.3-2.4,0.6-3.7c1.2,0.3,2.4,0.7,3.5,1.1c12.7,4.2,25.7,6.4,39.2,5.6
	c4.9-0.3,9.7-1.2,14.3-3c2.5-1,4.1-2.8,4.2-5.6c0.1-2.3-1.2-3.8-3.6-3.9c-1.1,0-2.2,0.1-3.3,0.3c-13.1,2.3-25.6,0.2-38-4.1
	c-8.3-2.9-16.6-5.9-24.9-8.6c-7.1-2.3-14.5-3.3-21.9-4c-5.8-0.6-11.6-1.2-17.3-2.3c-9.1-1.8-16.3-6.7-21.7-14.2
	c-1.9-2.7-3.7-5.6-5.3-8.6c-1.3-2.4-3.2-3.3-5.7-3c-3.1,0.3-6.2,1-9,2.3c-0.8,0.4-1.6,0.8-2.3,1.3c-2,1.5-2.2,2.7-1.1,5
	c3.4,7.1,8.1,13.2,14,18.4c0.7,0.6,1.4,1.3,2.1,2c-0.7,0.9-1.5,0.6-2.2,0.6c-8.4,0.7-16.7,1.7-24.9,3.8c-1.6,0.4-3.2,1-4.8,1.5
	c-2.2,0.8-4.2,1.9-5.9,3.6c-2.7,2.6-5.8,3.2-9.3,2.1c-1.1-0.3-2.2-0.7-3.1-1.2c-4.8-2.6-9.7-5.3-14.4-8.1c-1.9-1.1-3.7-2.6-5.3-4.1
	c-8.2-7.3-11.9-16.5-10.5-27.5c1-7.5,3.2-14.5,7.2-20.9c1.5-2.4,3.2-4.6,5.1-6.7c5.2-5.6,11.6-7.9,19.3-6.7
	c5.6,0.9,11.3,1.3,16.9,1.9c11,1.1,21.5-0.6,31.7-4.7c3.9-1.5,7.7-3.1,11.5-4.8c4.4-2,8.9-2.6,13.8-1.8c8.4,1.4,16.7,2.9,24.8,5.4
	c1.5,0.5,3,1.1,4.5,1.7c1.6,0.6,2.3,1.7,2.4,3.5c0.1,2.8,0.4,5.6,1,8.3c1.4,6.6,5.7,9,12.1,7.1c3.5-1,6.1-3.2,8-6.2
	c1.7-2.6,2.6-5.5,3-8.5c0.2-1.2,0.3-2.4,0.5-3.8c1.3,0.1,2.5,0.1,3.8,0.3c7.5,1.3,12.7,5.2,15.3,12.6c0.7,2,0.3,3.5-1.2,4.7
	c-2.2,1.8-4.6,3.5-6.9,5.2c-3.9,3-7.8,5.8-11.5,9c-2.6,2.3-4.9,5.1-7,7.8c-1.1,1.3-1.8,3-2.4,4.7c-0.6,1.7,0,2.9,1.7,3.4
	c1.7,0.5,3.4,0.8,5.2,0.8c2.9,0,5.7-0.6,8.4-1.7c2.4-1,4.5-2.4,6.1-4.5c4-5,8.2-9.9,13.2-13.9c2.5-2,5.2-3.7,8-5.2
	c3.1-1.7,6.4-1.9,9.8-0.9c6.7,2,13.4,3.6,20.1,5.7c13.3,4.2,21,13.5,23.7,27c0.9,4.6,1.1,9.2,0.7,13.9c-0.3,3-0.2,6.1-0.4,9.1
	c-0.5,7-2.2,13.7-4.3,20.4c-1.5,4.6-3,9.1-4.6,13.6c-2,5.6-5.1,10.5-9.5,14.5c-3.9,3.6-8,7.1-12.4,10.2c-9.7,6.9-19.9,12.7-31,17.1
	c-2.5,1-4.9,2.3-7.3,3.6C487.5,360.2,486.8,361,485.9,361.7z"/>
<path class="st2" d="M416.3,183.8c0.6-1.3,0.9-2.3,1.4-3c1.1-1.6,2.3-3.3,3.6-4.8c3.8-4.2,7.7-8.3,11.5-12.6
	c1.4-1.6,3.1-2.1,5.1-1.9c2.2,0.3,4.4,0.5,6.7,0.8c2.7,0.3,5.4,0.7,8.1,1c4.1,0.5,7.9-0.5,11.5-2.5c2.5-1.4,4-3.5,3.9-6.4
	c0-1.7-0.2-2.2-1.9-2.6c-4-1-8.1-2-12.2-2.6c-3.9-0.6-7.8-0.9-11.7-1.3c-6.2-0.6-11.9,0.9-17.2,4.1c-4.1,2.6-7.7,5.8-10.9,9.3
	c-3.3,3.7-6.5,7.5-9.8,11.2c-3.1,3.5-6.2,7.1-9.5,10.5c-10.1,10.6-24.2,12.7-37.1,7.7c-3-1.2-6-2-9.2-2.6c-5.1-1-10-2.8-14.6-5.3
	c-3.8-2-6.6-4.9-8.9-8.5c-3.4-5.4-7-10.7-10.7-15.9c-2.1-2.9-4.6-5.6-7-8.2c-4.2-4.6-9.4-7.7-15.3-9.5c-13.4-4-26.9-7.8-40.7-9.9
	c-3.6-0.6-7.3-0.6-11-0.7c-2.5-0.1-3.6-0.3-5.5-1.3c0.6-0.7,1.2-1.2,1.8-1.9c3.1-3.3,5.5-7.1,6.3-11.6c0.4-2.5,0-4.9-0.9-7.3
	c-1-2.7-0.7-3.6,2-4.9c5-2.5,10.4-4.1,15.8-5.5c6.2-1.5,12.4-2.4,18.7-2.8c5.5-0.4,10.8,0.9,15.9,3c7.5,3.1,14,7.7,20.1,12.9
	c3.9,3.2,7.5,6.7,11.4,9.9c3.1,2.6,6.4,5,9.7,7.4c1,0.7,2.2,1.1,3.8,1.9c-0.3-0.9-0.3-1.4-0.5-1.8c-8.2-15.1-18.7-28.3-32.7-38.5
	c-2.9-2.1-6-3.9-9.1-5.7c-2.2-1.3-4.5-2-7.1-2c-1.2,0-2.4-0.2-3.6-0.4c-0.8-0.1-1.6-0.5-2.7-0.9c0.6-1.1,0.8-2,1.4-2.7
	c3.4-3.9,6.8-7.7,10.2-11.4c1.2-1.3,2.8-1.6,4.4-1.7c7.8-0.4,15.5-0.1,22.8,3.1c7.7,3.3,15.4,6.7,23.1,10.1c7.5,3.3,14.9,7,22.6,10
	c7.3,2.9,15.1,4.1,23,4.1c2,0,4.1-0.4,6.1-1c4.9-1.4,5.3-9,1.6-11.1c-2.4-1.3-4.7-2.9-7.2-3.8c-9.3-3.5-18.7-6.9-28.2-10.2
	c-7.8-2.7-15.6-5.2-23.7-6.8c-5.3-1.1-10.7-2-16-3.2c-1.8-0.4-3.8-0.7-5.5-2.1c0.8-0.5,1.4-0.9,2.1-1.3c9.9-5.7,20.3-9.7,31.7-11.1
	c8.8-1.1,17.6-0.6,26.2,1.7c10.9,2.9,21.2,7.1,30.1,14.2c2.7,2.2,5.2,4.7,7.6,7.3c1.6,1.8,2.9,3.8,4.1,5.9
	c4.3,7.4,4.5,14.6-0.5,21.8c-3.4,4.9-7.3,9.1-12.2,12.5c-1.6,1.1-3.4,1.9-5.1,2.5c-2.8,1-5.8,1.9-8.7,2.8c-3.4,1-6.6,2.3-9.7,4.1
	c-5.6,3.1-11.8,4.5-18,5.6c-1.1,0.2-2.1,0.4-3.3,0.6c0.2,0.4,0.2,0.7,0.3,0.8c5.5,5.2,11.4,9.5,18.9,11.3c5.1,1.2,9.9,0.5,14-3
	c2.2-1.9,4.3-3.8,6.5-5.7c3.6-3.3,7.1-6.7,10.8-9.8c6.8-5.7,14.5-9.6,23.3-11.1c3-0.5,6-0.9,9.1-0.8c10.9,0,21.7,1.2,32.3,3.9
	c9.7,2.5,18.3,7.2,25.4,14.4c3.9,4,7.6,8.2,11.1,12.6c5,6.4,6,13.6,3.6,21.3c-1.6,5-4.2,9.3-7.5,13.3c-5.5,6.9-12.1,12.5-19.9,16.8
	c-2,1.1-4,2.1-5.9,3.2c-4.4,2.6-9.2,3.1-14.1,2.1c-7.4-1.5-14.7-3.2-22-4.8c-7.9-1.7-15.9-2.8-24-2.2c-2,0.1-4,0.5-5.9,0.7
	C418.2,183.6,417.5,183.7,416.3,183.8z"/>
<path class="st3" d="M75.7,262.1c-1-0.5-1.8-1.1-2.7-1.3c-2.1-0.6-4.3-1.2-6.5-1.6c-2.6-0.5-5-1.2-6.8-3.2c-0.5-0.5-1.1-1-1.7-1.4
	c-1.8-1.3-3.2-1.2-4.7,0.4c-0.9,1-1.7,2.2-2,3.5c-0.7,2.7-1.2,5.5-1.5,8.2c-0.4,3.9-1.5,7.5-3.7,10.8c-3.4,5.1-7,10.2-10.5,15.2
	c-2,2.8-4,5.6-6,8.4c-4.1,5.8-7.2,12.1-9.1,18.9c-0.5,1.9-1.2,3.8-1.9,5.7c-0.4,1.1-1.1,1.6-2.3,1.7c-2.8,0.3-5.6,0.1-8.3-0.9
	c-2.2-0.8-2.4-1-2.2-3.3c0.6-6.9,2.7-13.3,7-18.8c4.5-5.8,8.5-11.8,12.3-18c4.9-8.1,7.7-16.8,8.8-26.1c0.8-6.8,1.8-13.6,3.8-20.2
	c2.4-7.7,5.9-14.7,11.7-20.4c6.4-6.4,14.2-9.7,23-10.8c5-0.6,10-0.3,15.1,0.3c3.7,0.5,7.3,0.5,11-0.3c1.1-0.2,2.2-0.6,3.2-1
	c2.8-1.3,3.3-3.4,1.5-5.8c-1.3-1.8-2.9-3.2-5.1-3.7c-2.1-0.5-4.2-0.9-6.4-0.9c-6.6-0.2-13,1.2-19.4,2.6c-4.1,0.9-8.3,1.8-12.4,2.7
	c-1.8,0.4-3.5,0.3-5.2-0.4c-2.2-0.9-4.5-1.8-6.5-3.1c-8-5.3-10.7-13.5-7.7-22.6c1.9-6,5.6-10.3,11.3-13c6.5-3,13.3-5.1,20.1-7.1
	c7.5-2.2,15-4.4,22.2-7.7c2.7-1.2,5.2-2.7,7.8-4.3c1.5-0.9,1.5-1.1,2.1-2.8c-0.6-1.1-1.7-1.1-2.7-1.2c-4.4-0.6-8.7,0.1-12.8,1.3
	c-5.5,1.6-11,3.5-16.4,5.3c-0.5,0.1-0.9,0.4-1.3,0.5c-1.8,0.6-2.4,0.3-2.3-1.6c0.1-2.6,0.3-5.1,0.7-7.6c1-6.2,2.6-12.2,5.2-17.9
	c1.6-3.5,3.6-6.8,6.3-9.6c5.5-5.7,12.1-7.5,19.7-5.2c0.7,0.2,1.3,0.5,2,0.8c1.2,0.5,1.5,1.3,1.5,2.7c-0.1,1.9,0.1,3.9,0.5,5.7
	c1.5,6.3,6.5,10.3,13.6,11c3.3,0.3,6.5,0.2,9.7-0.8c4.6-1.3,9.2-2.6,13.9-3.7c6.4-1.5,12.7-1,18.9,1.1c6.4,2.2,12.3,5.3,17.1,10.3
	c2,2.2,3.9,4.5,4.8,7.4c1,3,0.8,3.6-1.6,5.5c-2.5,2-5.1,3.9-7.7,5.8c-6.8,5.1-12.4,11.3-16.5,19.2c-0.7-0.6-1.4-1.1-2.1-1.6
	c-3.4-2.6-6.6-5.3-10.1-7.7c-4.9-3.4-10.5-4.9-16.5-4.9c-11.3,0-22,2.5-32.6,6.1c-2.7,0.9-5.4,2-8.1,3c-1.3,0.5-2.4,1.3-3,2.6
	c-0.3,0.7-0.4,1.7,0,2.2c0.3,0.5,1.4,0.8,2.1,0.7c2.8-0.5,5.6-1.2,8.4-1.8c6.1-1.2,12.3-2,18.6-2.1c6.5-0.1,12.5,1.4,17.9,5.1
	c4.6,3.2,9.2,6.3,13.2,10.3c0.9,1,1.8,2,2.6,3.1c1,1.4,1,1.9-0.2,3.2c-1.2,1.3-2.5,2.5-3.8,3.7c-3.1,2.8-6.2,5.5-9.4,8.3
	c-2.2,1.9-3.6,4.2-4.6,6.9c-2.4,6.7-3.8,13.6-3.4,20.7c0.1,1.4,0.3,2.8,0.4,4.3c-0.3,0.1-0.6,0.3-0.9,0.3
	c-10.8,1.1-18.3,6.9-23.5,16.1c-0.8,1.4-1.4,2.9-1.9,4.4c-6.1,16.8-12.3,33.6-18.3,50.5c-5.4,15.1-9.7,30.5-13.8,45.9
	c-0.8,3.1-0.4,6,0.1,9c0.2,1.3,0.3,2.7,0.4,4.1c-6.3,2.2-12.3,3.1-18.3,0.1c-2.8-1.4-4.8-3.7-6.3-6.4c-1.9-3.4-2.7-7.1-3.2-11
	c-1-7.8,0-15.5,1.7-23.1c1-4.3,2.3-8.5,3.9-12.6c1.2-2.9,2.9-5.7,4.6-8.4c2.6-4.2,5.6-8.2,8-12.5c1.9-3.5,3.6-7.2,4.8-11
	c2-6.3,5.4-11.3,10.8-15.1C74.6,263.1,75,262.7,75.7,262.1z"/>
<path class="st4" d="M489.4,83.1c1.7,1.5,3.4,1.5,4.9,1.7c8.1,1,16,2.8,23.8,5.4c1,0.3,2.2,0.4,3.3,0.2c9.4-1.8,18.6-1,27.7,1.9
	c6.4,2.1,12.9,3.9,18.9,7c3.2,1.6,6.3,3.5,9.1,5.7c5.2,3.9,7.7,9.4,8,15.9c0.4,9.3-2.6,17.1-9.5,23.4c-1.8,1.7-3.2,3.7-4.7,5.7
	c-0.6,0.9-1.2,2.1-0.4,3.1c0.8,1,2.1,1,3.3,0.6c7.1-2.4,14.3-4.6,20.9-8.3c5.1-2.9,9.1-6.8,10.7-12.7c0.4-1.5,0.8-3.1,0.8-4.7
	c0.1-4.1,0.1-8.2,0.1-12.2c0-4.1-1.4-7.9-3.9-11.1c-2-2.5-4.1-4.9-6-7.6c0.7,0.4,1.4,0.7,2,1.2c3.1,2.2,5.5,5.1,7.8,8.1
	c4.3,5.7,7.8,11.9,11,18.3c4.1,8.2,5.9,17,6.4,26.1c0.1,1.1-0.1,2.2-0.1,3.7c-1.3-0.1-2.3-0.1-3.4-0.3c-3.3-0.7-6.5-1.6-9.8-2.1
	c-9.3-1.6-18.3-0.5-27.3,2.2c-5.3,1.6-10.4,3.6-15.2,6.5c-9.2,5.7-15,13.9-18.1,24.2c-0.2,0.5-0.2,1.1-0.3,1.8
	c0.6,0.2,1.1,0.4,1.6,0.4c2.9,0,5.8,0,8.6,0c3.6,0,6.3-1.6,7.8-5c0.4-0.9,0.9-1.9,1.4-2.8c2.3-4.8,5.4-9,9.2-12.8
	c3.6-3.5,7.7-5.4,13-4.8c5.7,0.7,11.4,1.5,16.8,3.7c11.5,4.8,17.8,13.3,19,25.7c0.1,1.5,0.2,3,0.3,4.5c0.1,1.6-0.5,2.8-1.8,3.7
	c-9.1,5.7-15,14.2-20.2,23.3c-5,8.9-8.3,18.5-10.5,28.5c-0.1,0.5-0.3,1.1-0.4,1.6c0,1.5-1,2-2.3,2.3c-5.5,1.1-10.1,3.8-14.3,7.4
	c-0.4,0.3-0.8,0.7-1.4,1.1c-0.3-12.2-3.9-23.1-11.6-33c1.4-0.2,2.5-0.4,3.6-0.5c5.9-0.5,11.4-2.2,16.8-4.7c1.6-0.7,3.1-1.7,4.5-2.7
	c2.1-1.5,3.3-3.5,3.9-6.1c1.3-5.5,2.9-11,4.4-16.4c0.2-0.7,0.4-1.4,0.6-2.1c1.3-5.6-2.1-10.6-7.8-11.3c-4.7-0.6-8.8,0.8-12.4,3.8
	c-1.5,1.3-2.2,2.9-1.7,4.9c1.9,7.5-0.6,14.4-3.2,21.2c-1,2.6-2.8,4-5.7,3.6c-5.4-0.7-10.8-1.1-16.2-2c-8.6-1.5-17.3-3.4-25.8-5.2
	c-4.8-1-9.3-3-13.4-5.6c-2.4-1.5-4.5-3.3-6.2-5.6c-3.3-4.4-3.4-9,0-13.3c1.5-1.9,3.3-3.4,5.1-5c4-3.4,8.2-6.7,12.1-10.2
	c5.3-4.8,9.6-10.5,11.8-17.5c3.6-11.5,2.4-22.5-4.5-32.5c-2.2-3.1-4.7-6.2-7.4-8.7c-11.3-10.5-24.3-17.8-39.5-21
	c-5.9-1.2-11.9-1.6-17.9-1.1c-3.6,0.3-6.1-1.1-8.4-3.6c-2.4-2.6-4.4-5.5-5.1-9.1c-0.3-1.5-0.1-3.2,0-4.7c0.1-1.1,0.6-2.1,0.9-3.2
	c0.9-4.4,3.6-7.4,7.4-9.5c2-1.1,4.1-2.2,6-3.5c1.3-0.9,2.5-2,3.5-3.2c0.9-1.2,0.5-2.2-1-2.4c-3.4-0.4-6.9-0.9-10.2,0.3
	c-5.3,1.9-10.4,4-15.6,6.1c-2.4,1-3.2,0.9-4.4-1.5c-1.1-2.1-2.5-3.9-4.3-5.4c-3.1-2.5-4.1-5.9-3.4-9.7c0.4-2.3,0.8-4.6,1.6-6.7
	c1.2-3.3,3.7-5.2,7.2-5.4c2.5-0.1,5-0.1,7.4,0.2c12.7,1.9,25.4,3.9,38.2,5.8c4.3,0.6,8.7,1.2,13.1,1.6c5.7,0.6,10.5,2.8,13.9,7.5
	c3.2,4.4,6.5,8.7,9.7,13.1c1.2,1.7,2,3.6,3,5.5c1.5,2.9,0.8,5.9,0.5,8.9c-0.1,1.5-1.5,2.3-2.8,2.7c-2.4,0.8-4.9,1.7-7.4,2.1
	c-5.8,0.9-11.7,1.6-17.6,2.4c-1.9,0.3-3.8,0.6-5.7,1C491.3,82.3,490.6,82.7,489.4,83.1z"/>
<path class="st5" d="M206.3,70.5c3.5-2,6.7-2,10-0.6c2.8,1.3,4.9,3.3,6.5,5.9c0.9,1.4,2,1.9,3.5,2c3,0.1,5.9,0.1,8.8-0.9
	c4.9-1.7,8.1-5,9.6-10c0.2-0.7,0.3-1.4,0.4-2.1c0.1-0.9-0.2-1.6-1.1-1.9c-3.7-1.2-7.5-1.5-11.4-0.9c-1.4,0.2-1.7,0.8-1.7,2.4
	c0,0.9,0.1,1.8,0.1,2.6c0,0.2-0.1,0.3-0.2,0.8c-0.6-0.7-1.1-1.2-1.6-1.8c-2.5-3-5.5-4.9-9.6-4.2c-4.7,0.8-9.4,1.7-14.1,2.6
	c-1.1,0.2-2.2,0.5-3.3,0.8c-5.7,1.9-11.3,1.7-17.3,0.2c0.2-0.9,0.2-1.8,0.5-2.6c1-2.3,2-4.7,3.4-6.9c3.3-5,6.7-9.9,10.2-14.8
	c2.2-3.1,5.5-4.8,9-6.2c4.9-1.9,10-2.8,15.2-3.3c8.6-0.8,17.3-0.7,25.9-0.2c2.9,0.2,5.8,0.2,8.6,0.2c4.6,0.1,8.4-1.8,12-4.3
	c0.5-0.3,1-1.2,0.9-1.5c-0.3-0.5-1-1.1-1.6-1.1c-1.8-0.3-3.7-0.3-5.5-0.4c-0.5,0-0.9-0.1-1.7-0.2c0.5-0.5,0.7-0.8,1-0.9
	c8.9-5.5,17.9-10.8,26.8-16.4c4.9-3.1,9.3-2.2,13.6,0.9c3.3,2.4,5.7,5.7,7.3,9.3c2.6,5.6,4.4,11.5,5.6,17.5c0.1,0.6,0.2,1.3,0.2,1.9
	c0.1,4-1,5.4-4.9,6.5c-2,0.6-4,1.3-5.8,2.3c-4.7,2.6-8.9,5.7-12.4,9.7c-0.5,0.6-1.1,1.1-2,1.9c-0.2-1.3-0.4-2.2-0.6-3.1
	c-1.6-10.1-7.5-16.1-17.6-18c-9.8-1.8-18.9,0.3-27.6,4.7c-1.1,0.6-2.1,1.4-3,2.3c-0.7,0.7-0.9,1.7-0.5,2.7c0.4,1,1.3,1.1,2.2,1.1
	c5.8,0.3,11.7,0.4,17.4,1.8c2.7,0.7,5.4,1.5,7.9,2.7c5.3,2.6,7,6.5,6.1,12.2c-0.6,3.6-2.1,6.6-4.8,9.1c-5.9,5.5-12.4,10.1-19.2,14.4
	c-3.8,2.5-7.7,4.8-11.6,7.2c-5.8,3.6-7.5,3.5-12.9-0.6c-1.1-0.8-2.2-1.6-3.3-2.4c-2.4-1.9-5.1-2.5-8.1-2c-2.4,0.4-3-0.1-2.7-2.4
	c0.7-5.3-1.5-9.6-4.5-13.7C207.8,72.3,207.1,71.5,206.3,70.5z"/>
<path class="st6" d="M145.9,86.3c-1.5-1.3-3-1-4.4-0.7c-3.5,0.6-6.9,1.3-10.4,1.9c-2.7,0.5-5.3,1.1-8,1.5c-1.2,0.2-2.5,0-4,0
	c0.5-1.4,1.5-2.3,2.4-3.1c5.2-5,11.3-8.3,18.1-10.5c9.4-3.1,19-3.5,28.7-2.2c5,0.7,9.9,1.7,14.6,3.7c3.2,1.3,6.2,2.9,8.6,5.6
	c2.8,3.1,3.3,6.6,1.4,10.2c-1.1,2.1-2.7,3.6-5.1,4c-0.9,0.2-1.9,0.4-2.8,0.6c-0.9,1.9-0.6,3.7,0.1,5.4c0.8,2.1,2.5,3,4.7,3.1
	c3.8,0.2,7.2-1.1,10-3.4c2.8-2.3,5.4-2.2,8.1-0.4c3,2,5.8,4.2,8.6,6.5c1.8,1.5,1.8,2.4,0.6,4.6c-1.4,2.4-2.8,4.8-4,7.4
	c-1.7,3.5-2.9,7.1-3.3,11c-0.2,1.8-0.9,2.8-2.7,3.1c-2.2,0.4-4.4,1-6.6,1.2c-1.3,0.2-2.2-0.4-2.9-1.9c-6.5-15-18.2-22.6-34.4-23.3
	c-5.3-0.3-10.5,0.5-15.7,1.6c-4.6,1-9.2,2-14,1.7c-1.8-0.1-3.6-0.6-5.3-1.1c-1.9-0.6-3.1-2.2-2.8-4.2c0.4-3.6,0.9-7.1,1.6-10.6
	c0.4-2,2.1-3.1,4.1-3.7c2.7-0.9,5.4-1.6,7.9-2.7c2-0.8,3.8-2,5.6-3.2C145,87.7,145.4,86.9,145.9,86.3z"/>
<path class="st7" d="M419.8,32.4c-1.3,2.2-2.4,4-3.5,5.9c-0.6-0.2-1.1-0.4-1.6-0.6c-10.7-4.7-21.8-8-33.4-9.3
	c-8-0.9-16-0.4-23.8,1.5c-7.9,1.9-15.9,3.6-23.9,5.4c-0.5,0.1-1.1,0.1-2,0.2c0-0.9,0.1-1.7,0-2.4c-0.4-4.4-0.6-8.8-1.2-13.1
	c-0.6-4.9-0.8-5.2,3.1-8.4c2.4-2,5-3.8,7.5-5.6c1.4-1,2.9-1.2,4.5-0.6c6.4,2.2,12.9,4.4,19.3,6.4c5.4,1.7,10.8,3.4,16.3,5
	c9.9,3,19.7,6.2,29,10.6C413.4,28.9,416.5,30.7,419.8,32.4z"/>
<path d="M627.6,699.6c-0.4,0.6-0.6,1.1-0.9,1.2c-0.7,0.1-1.4,0.1-2.1,0.1c-190.1,0-380.2,0-570.2,0c-0.7,0-1.5,0.1-2.1-0.1
	c-0.3-0.1-0.5-0.6-0.9-1.2C243.5,699.6,435.4,699.6,627.6,699.6z"/>
<path d="M627.4,459.4c-0.2,0.3-0.5,0.8-0.8,0.9c-0.7,0.1-1.4,0.1-2.1,0.1c-190.1,0-380.2,0-570.2,0c-0.7,0-1.4,0-2.2-0.1
	c-0.3,0-0.5-0.5-0.6-0.7c0.1-0.3,0.1-0.3,0.2-0.4c0-0.1,0.1-0.1,0.2-0.1c0.8-0.1,1.6-0.2,2.4-0.2c190.9,0,381.9,0,572.8,0
	C627.2,459.1,627.3,459.2,627.4,459.4z"/>
<path class="st8" d="M133.1,588.5c0.2-1.3,0.3-2,0.3-2.8c0.1-7.1,0.2-14.2,0.3-21.3c0-2.2-0.4-2.6-2.5-3.1c-0.9-0.2-1.9-0.4-3-0.6
	c-0.1-0.8-0.1-1.6-0.2-2.6c0.9-0.1,1.6-0.2,2.2-0.2c3.5,0,7,0,10.5,0c0.6,0,1.2,0,1.6,0.2c0.3,0.2,0.7,0.8,0.6,1.1
	c0,0.5-0.4,1-0.6,1.4c-0.1,0.2-0.4,0.2-0.7,0.2c-3.4,1.1-3.5,1.1-3.6,4.8c-0.2,11.3-0.3,22.7-0.4,34c0,1,0.5,2.3-0.8,2.7
	c-1.4,0.5-1.9-0.7-2.6-1.5c-2.6-3.1-5-6.5-8-9.2c-8.4-7.9-17-15.5-25.5-23.3c-0.3-0.3-0.7-0.6-1.3-1c-0.1,0.6-0.3,1-0.3,1.4
	c-0.1,8.4-0.3,16.8-0.3,25.2c0,0.8,0.1,1.6,0.2,2.4c0.3,1.3,1.1,2.1,2.4,2.4c0.9,0.2,1.7,0.3,2.6,0.5c2.2,0.4,2.4,0.8,1.7,3.2
	c-5.1,0-10.3,0-15.4,0c-0.5-2.4-0.4-2.6,1.5-3c2.2-0.5,2.3-0.6,2.4-2.8c0.1-1.4,0.1-2.7,0.1-4.1c0.1-8.7,0.1-17.4,0.2-26.1
	c0-2.3-0.6-4.1-2.7-5.2c-0.3-0.2-0.6-0.3-0.7-0.6c-0.2-0.6-0.5-1.2-0.4-1.7c0.1-0.4,0.8-0.8,1.3-0.8c2.2-0.1,4.5-0.1,6.7,0
	c0.7,0,1.5,0.6,2.1,1c0.9,0.7,1.7,1.6,2.6,2.5c9.2,8.5,18.3,16.9,27.5,25.4C131.5,587.2,132.1,587.6,133.1,588.5z"/>
<path d="M325.6,594.8c-0.9-0.8-1.6-1.4-2.3-2.1c-2.7-2.6-3.3-5.7-2.2-9.2c1.5-4.9,6.9-9.4,14.4-7.7c1.8,0.4,3.4,0.6,5.2,0.5
	c2.1-0.1,4.2-0.2,6.2-0.2c1.6,0,2,0.6,2,2c0,1.5-0.5,2-2,2.1c-1.3,0.1-2.7,0-4.4,0c0.3,1,0.5,1.8,0.8,2.5c1.8,5.7-0.1,9.7-5.7,11.7
	c-2.2,0.8-4.5,1.2-6.7,1.9c-0.9,0.3-1.7,0.6-2.7,1c0.6,1.7,1.9,1.7,3.1,1.8c3.3,0.2,6.7,0.2,10,0.5c1.4,0.1,2.8,0.5,4.1,1.1
	c3.2,1.5,4.3,5,2.4,8.1c-0.8,1.3-1.9,2.6-3.2,3.5c-5.5,4.1-11.8,5.1-18.4,4.2c-1.5-0.2-3.1-1-4.4-1.8c-3.2-2.1-3.9-6.4-0.2-9
	c1-0.7,2.1-1.4,3.3-2.3c-1.1-0.7-2.1-1.2-2.9-1.9c-2-1.4-2-3.3-0.1-4.7C323,596.1,324.1,595.6,325.6,594.8z M330.9,579.3
	c-2.4,0-4.2,1.5-4.6,4c-0.6,3.8,2,7.8,5.6,9c2.9,0.9,5.9-0.7,6.6-3.5C339.5,584.4,335.4,579.3,330.9,579.3z M334,604.3
	c-2.7,0-5.3,0.5-7.5,2.2c-1.1,0.8-1.9,1.7-1.7,3.2c0.2,1.4,1.4,1.9,2.6,2.2c3.8,1.1,7.7,1,11.5-0.1c1-0.3,1.9-0.8,2.8-1.3
	c1-0.7,1.8-1.6,1.6-3c-0.2-1.4-1.3-1.9-2.5-2.1C338.6,604.8,336.3,604.6,334,604.3z"/>
<path d="M238.2,523.7c-3.6,0-7.1,0-10.6,0c-0.8,0-1.4-0.3-1.5-1.2c-0.1-0.8,0-1.7,0.9-1.9c2.4-0.5,2.6-2.2,2.6-4.2
	c0-2.5,0.2-5,0.1-7.4c-0.1-1.6-0.3-3.2-0.7-4.7c-0.5-1.6-1.8-2.4-3.5-2.5c-2.1-0.1-3.9,0.7-5.4,2.1c-0.5,0.5-0.8,1.4-0.8,2.2
	c-0.1,4,0,8-0.1,12c0,1.4,0.7,2.1,2,2.5c1.8,0.6,1.8,0.7,1.3,3c-3.9,0-7.9,0-11.8,0c-0.6-2.1-0.6-2.1,1-3.2c0.9-0.6,1.4-1.4,1.4-2.4
	c0.1-4.1,0.1-8.2,0.1-12.2c0-1.1-0.7-1.7-1.5-2.3c-1.6-1.2-1.6-2-0.1-3.2c1.5-1.2,3.1-2.3,4.7-3.4c0.6-0.4,1.4-0.5,2.5-0.9
	c0.1,1.8,0.2,3.3,0.4,5.2c0.8-0.6,1.5-1,2.1-1.4c2.1-1.6,4.5-2.4,7.1-2.4c2.4,0,4.4,0.8,5.7,2.9c0.2,0.4,0.5,0.8,0.9,1.2
	c0.7-0.6,1.3-1.1,1.9-1.6c1.5-1.3,3.1-2.2,5.1-2.6c4.9-0.9,8.9,2,9.7,7c0.2,1.1,0.2,2.2,0.2,3.3c0,3.2,0,6.4,0,9.6
	c0,1.6,0.4,2.8,2.2,3.2c0.2,0,0.4,0.2,0.7,0.3c0.8,0.4,0.9,1.1,0.7,1.8c-0.1,0.8-0.6,1.1-1.3,1.1c-3.1,0-6.2,0-9.3-0.1
	c-0.5,0-1.2-0.5-1.4-0.9c-0.4-0.8-0.2-1.8,0.7-2c2.2-0.6,2.2-2.2,2.1-4c-0.1-3,0-6.1,0-9.1c0-2-0.3-4-2.3-4.9
	c-2.3-1-4.7-0.8-6.9,0.6c-0.9,0.6-1.3,1.4-1.3,2.4c-0.1,4.2-0.1,8.5-0.1,12.7c0,1,0.5,1.6,1.5,1.9
	C238.8,521.1,238.8,521.1,238.2,523.7z"/>
<path class="st8" d="M504.8,591.7c0.1,3.3-0.3,6.6-2,9.5c-0.4,0.7-1.4,1.5-2.2,1.6c-9.1,1.4-18.1,1.3-26.2-4
	c-5.6-3.6-8.9-8.8-9.5-15.4c-0.8-8.1,1.8-15.1,8.1-20.3c7-5.9,15.1-7.7,24-5.4c2.2,0.5,4.4,0.8,6.6,1.1c1.1,0.1,1.9,0.5,1.8,1.7
	c-0.1,2.7-0.3,5.4-0.5,8.1c-0.1,0.8-0.4,1.6-1.4,1.6c-1,0.1-1.4-0.6-1.6-1.4c-0.1-0.4-0.2-0.8-0.3-1.2c-0.9-4-3.6-6.1-7.4-6.9
	c-10.2-2-19.2,4.2-20.9,14.4c-0.8,4.7-0.6,9.3,1,13.7c4.2,11.2,15.1,12.9,23.2,9.1c2.2-1,3.7-2.7,4.7-4.9
	C502.5,592,503,591,504.8,591.7z"/>
<path class="st8" d="M166.4,512.9c0.4,3.2-0.3,6.1-1.4,8.9c-0.5,1.3-1.5,2.1-2.9,2.3c-7.8,1.1-15.5,1.1-22.8-2.3
	c-6.6-3.1-11.1-8.1-12.4-15.5c-1.5-8.9,1.2-16.5,8.2-22.3c6.9-5.7,14.9-7.4,23.7-5.1c2.2,0.6,4.4,0.8,6.6,1.1
	c1.1,0.1,1.9,0.5,1.9,1.7c-0.1,2.7-0.3,5.4-0.5,8.1c-0.1,0.8-0.4,1.6-1.4,1.6c-1,0-1.4-0.6-1.6-1.4c-0.1-0.4-0.3-0.8-0.3-1.1
	c-0.9-4.1-3.7-6.2-7.7-6.9c-10.9-2-19.9,5.1-20.9,16.1c-0.4,4-0.2,7.8,1.1,11.6c2,5.5,5.5,9.5,11.4,10.9c3.4,0.8,6.8,0.6,10.2-0.6
	c2.9-1,5.2-2.8,6.5-5.7C164.3,513.3,164.8,512.3,166.4,512.9z"/>
<path class="st8" d="M252.8,669.9c0.5-1.2,0.9-2.1,1.3-3c3.2-7.8,6.4-15.5,9.6-23.3c0.2-0.6,0.5-1.2,0.7-1.8
	c0.5-1.8,0.2-2.4-1.5-3.2c-0.6-0.3-1.3-0.4-1.7-0.9c-0.4-0.4-0.7-1.1-0.6-1.6c0-0.3,0.8-0.8,1.2-0.8c3.1-0.1,6.2-0.1,9.4,0
	c1.3,0,1.8,1.1,1.2,2.2c-0.1,0.2-0.3,0.4-0.5,0.5c-2.1,1.3-2.9,3.6-3.7,5.7c-4.9,11.6-9.7,23.1-14.6,34.7c-0.4,1-0.4,2.4-2,2.3
	c-1.3,0-1.5-1.3-1.9-2.2c-5.8-11.9-11.5-23.7-17.3-35.6c-0.9-1.8-1.8-3.6-3.7-4.5c-0.9-0.4-1.3-1.2-0.9-2.2c0.3-1,1.2-0.9,2-0.9
	c3.5,0,7,0,10.5,0c0.9,0,1.8,0,2,1.2c0.2,1.1-0.4,1.5-1.4,2c-2.2,1-2.3,1.1-1.4,3.2c4.1,9.1,8.3,18.2,12.5,27.2
	C252.2,669.1,252.4,669.3,252.8,669.9z"/>
<path d="M362.3,500c0.6-0.3,1-0.5,1.4-0.8c2.7-2,5.8-2.2,8.9-1.8c3.9,0.5,6.6,3.6,6.6,7.6c0.1,4,0,8-0.1,12c0,0.9,0,1.7,0,2.7
	c1,0.3,1.8,0.6,2.6,0.8c0.9,0.3,1.2,1,1.1,1.9c-0.1,1-0.8,1.3-1.7,1.3c-3.1,0-6.2,0-9.3,0c-0.7,0-1.3-0.2-1.5-0.9
	c-0.2-0.8-0.2-1.8,0.7-2.1c2.4-0.7,2.3-2.5,2.3-4.4c0-2.9,0.1-5.8,0-8.6c0-0.9-0.1-1.9-0.4-2.8c-0.7-2.5-2.4-3.7-5-3.7
	c-0.9,0-1.9,0.1-2.8,0.3c-2.8,0.8-3.3,1.5-3.3,4.4c0,3.8,0,7.5,0,11.3c0,2.3,0,2.3,2.2,3c2,0.7,2.1,0.8,1.4,3.3
	c-0.4,0.1-0.9,0.2-1.3,0.2c-3.1,0-6.2,0-9.3,0c-0.6,0-1.5-0.3-1.8-0.7c-0.5-0.8-0.2-1.8,0.8-2.2c1.9-0.9,2.2-2.5,2.3-4.4
	c0.1-10.3,0.2-20.6,0.3-30.9c0-1.4-0.3-2.4-1.4-3.4c-1.4-1.2-1.4-2,0.1-3c1.5-1,3-1.9,4.5-2.7c0.8-0.4,1.8-0.5,3.1-0.8
	c-0.2,3-0.3,5.6-0.4,8.2c-0.1,2.7-0.1,5.4-0.2,8.2C362.2,494.5,362.3,497.1,362.3,500z"/>
<path d="M269.7,496.5c0.3,0.9,0.6,1.8,0.9,2.9c0.7-0.3,1.3-0.6,1.8-0.9c3.1-1.7,6.4-1.9,9.8-0.9c5.1,1.5,8.3,5.8,8.5,11.5
	c0.4,11.7-8.5,16.8-18,15.4c-0.7-0.1-1.4-0.3-2.3-0.4c-0.1,0.7-0.3,1.2-0.3,1.7c0,2.3,0,4.6,0,7c0,2.1,0.4,2.5,2.5,2.7
	c0.4,0,0.8,0.1,1.2,0.1c0.8,0.1,1.2,0.6,1.2,1.5c0,0.9-0.5,1.3-1.3,1.4c-0.5,0.1-1,0-1.4,0c-3,0-5.9,0-8.9,0c-0.4,0-0.8,0.1-1.2-0.1
	c-0.4-0.2-0.9-0.5-1-0.8c-0.1-0.5,0.2-1.1,0.4-1.5c0.2-0.3,0.7-0.4,1-0.6c1.2-0.4,1.5-1.2,1.5-2.4c0.1-3.4,0.2-6.7,0.2-10.1
	c0-5.4,0-10.9,0.1-16.3c0-1.7-0.5-2.8-2-3.7c-2-1.2-1.9-1.9,0-3.3c1.3-0.9,2.6-1.8,4-2.7C267.5,496.5,268.4,496,269.7,496.5z
	 M270.3,510.3C270.3,510.3,270.3,510.3,270.3,510.3c0.1,2.1,0,4.2,0.1,6.2c0,1,0.2,2,1.2,2.8c3.7,2.9,10.4,1.6,12.6-2.5
	c2.7-5.2,0.4-12.3-4.8-14.8c-2.3-1.1-4.8-1.3-7.2-0.4c-1.2,0.4-1.8,1.2-1.8,2.5C270.3,506.2,270.3,508.2,270.3,510.3z"/>
<path d="M427.9,496.3c0.1,1.8,0.3,3.2,0.4,4.8c0.6-0.3,1.1-0.4,1.6-0.6c1.4-0.8,2.8-1.6,4.2-2.3c1.6-0.8,3.4-0.9,5.1-0.5
	c3.4,0.8,5.1,2.8,5.2,6.2c0.1,4.2,0.1,8.5,0.1,12.7c0,0.6,0,1.1,0,1.7c0,1.2,0.4,2,1.7,2.1c0.5,0,1,0.2,1.3,0.5
	c0.3,0.5,0.6,1.1,0.6,1.7c0,0.3-0.5,0.9-0.9,0.9c-3.9,0.1-7.8,0-11.6,0c-0.6-1.5-0.4-2.5,1-2.9c1.5-0.4,1.9-1.5,1.9-2.9
	c0-3.8,0.1-7.5,0-11.3c-0.1-2.6-1.3-3.8-3.9-3.9c-0.9-0.1-1.9,0-2.9,0.2c-3.3,0.7-3.8,1.3-3.8,4.7c-0.1,3.2,0,6.4-0.1,9.6
	c0,1.8,0.4,3,2.4,3.6c1.5,0.4,1.5,0.8,0.8,2.8c-4.1,0-8.2,0-12.4,0c-0.9-2.1-0.8-2.5,1.2-3.2c1.3-0.4,1.8-1.3,1.8-2.5
	c0-4.3,0-8.6,0-13c0-1.2-0.7-1.6-1.6-2.2c-1.8-1.1-1.9-2.1-0.3-3.2c1.8-1.2,3.8-2.1,5.7-3C426.3,496.3,427,496.4,427.9,496.3z"/>
<path d="M196.5,599.4c-0.8,0.5-1.4,0.9-2.1,1.3c-2.4,1.5-5.1,2.3-8,2.2c-3.5-0.1-5.8-1.8-6.4-5.3c-0.4-2.4-0.3-4.9-0.3-7.4
	c0-2.5,0.2-5,0.4-7.4c0.1-1.4-0.3-2.3-1.7-2.8c-0.8-0.3-1.5-0.7-1.4-1.7c0.1-1,1-1.2,1.7-1.3c2.3-0.4,4.7-1.2,7.2-0.4
	c0,1.1,0,2.2,0,3.3c-0.2,4.6-0.4,9.1-0.5,13.7c0,3.4,2.4,5.4,5.8,4.9c0.7-0.1,1.4-0.3,2.1-0.5c3.6-1.2,3.8-1.4,4-5.2
	c0.2-3,0.2-6.1,0.3-9.1c0.1-1.7-0.4-3-2.2-3.5c-0.3-0.1-0.6-0.2-0.8-0.4c-1-0.8-1-2.1,0.2-2.4c2.7-0.7,5.4-1.3,8.4-0.7
	c0,1.1,0,2,0,3c-0.1,5.4-0.3,10.9-0.4,16.3c0,2,0.2,2.1,2.2,2.3c0.2,0,0.4,0,0.5,0c0.4,0.3,1.1,0.6,1.1,0.9c0,0.4-0.4,1.1-0.8,1.2
	c-2,0.8-4,1.6-6,2.3c-1.5,0.5-2.1,0.1-2.7-1.5C197,600.6,196.8,600.1,196.5,599.4z"/>
<path d="M412.4,588.1c0-1.7,0.1-3.6,0-5.4c-0.1-1.7-1.3-2.7-3-2.9c-2.2-0.3-3.2,0.2-4.1,2c-1,2-3.4,3.2-5.5,2.7
	c-1.2-0.3-1.7-0.9-1.3-2.1c0.2-0.7,0.6-1.5,1.1-2.1c3-3.7,10.2-5.6,14.7-3.9c2,0.7,3.2,2.2,3.7,4.1c0.3,1.1,0.5,2.4,0.5,3.5
	c0.1,3.8,0,7.7,0,11.5c0,2.5,0,2.5,2.7,2.7c0.3,0,0.6,0.1,0.9,0.1c0.5,2.1,0,2.7-2.5,3.8c-3.1,1.3-5.3,0.7-7-2
	c-0.6,0.3-1.2,0.6-1.8,1c-2.4,1.5-5,2-7.8,1.9c-2.8-0.2-4.8-1.6-5.6-4.1c-0.9-2.7-0.2-5.5,2-7.1c1-0.7,2.2-1.4,3.4-1.7
	C405.8,589.3,408.9,588.8,412.4,588.1z M412.5,591.9c-3.8-0.3-6.3,0.3-7.9,1.7c-1,0.9-1.6,2-1.1,3.4c0.4,1.2,1.4,2,2.9,2
	c2,0,3.7-0.8,5.4-1.8c0.3-0.2,0.6-0.8,0.6-1.2C412.5,594.7,412.5,593.4,412.5,591.9z"/>
<path d="M526.5,600.1c-0.7,0.4-1.2,0.7-1.8,1c-2.4,1.5-5,2-7.8,1.9c-2.8-0.2-4.8-1.7-5.6-4.1c-0.9-2.7-0.2-5.5,2-7.1
	c1-0.7,2.2-1.3,3.4-1.6c1.5-0.5,3.1-0.8,4.7-1.1c1.6-0.3,3.2-0.4,5-0.7c0.2-2.1,0.4-4.2-0.2-6.3c-0.5-1.6-1.6-2.3-3.5-2.3
	c-1.5,0-2.8,0.3-3.4,2c-0.8,2.1-3.3,3.2-5.5,2.7c-1.3-0.3-1.9-1.2-1.2-2.5c0.6-1.1,1.4-2.2,2.3-3c3.2-2.5,7-3.6,11-3.1
	c4.2,0.5,6.3,2.7,6.4,7c0.1,3.9,0,7.8,0.1,11.8c0,0.6,0,1.3,0,1.9c0,1.2,0.6,1.7,1.8,1.7c0.8,0,1.9-0.4,2.2,0.8
	c0.3,1.2-0.6,1.9-1.6,2.4c-0.8,0.4-1.6,0.8-2.4,1C529.7,603.3,528.1,602.7,526.5,600.1z M526.6,592c-2.6-0.5-4.8-0.2-6.9,0.9
	c-1.9,1.1-2.7,2.7-2.1,4.3c0.6,1.5,2.2,2.2,4.2,1.7c1.3-0.3,2.5-0.9,3.7-1.5c0.5-0.2,0.9-0.9,1-1.4
	C526.7,594.7,526.6,593.4,526.6,592z"/>
<path class="st8" d="M362.4,653.2c1.4,0.2,2.9,0.3,4.2,0.7c6.5,1.6,10.6,6.8,10.3,13.2c-0.3,7.1-4.7,12.1-11.6,13.2
	c-2.5,0.4-4.9,0.4-7.4-0.3c-6.6-1.8-10.3-8-9.2-14.8C349.9,658.8,355.8,653,362.4,653.2z M370.4,668.9c-0.1-4.7-1.3-8.6-5.1-11.2
	c-4-2.6-8.6-0.8-9.8,3.8c-1,3.9-0.6,7.8,1.2,11.4c0.5,1,1.3,2,2.2,2.8c3.8,3.3,9.5,1.6,10.9-3.2
	C370.2,671.2,370.3,669.8,370.4,668.9z"/>
<path d="M300.2,603c-8.7,0-14.5-6-13.9-13.8c0.6-8.2,7.7-14.3,15.4-13.3c0.9,0.1,1.9,0.3,2.8,0.5c6.6,1.8,10.6,7.1,10.1,13.6
	c-0.5,7.2-5.3,12.2-12.5,12.9C301.3,602.9,300.5,602.9,300.2,603z M308,591.3c-0.1-4.6-1.2-8.4-4.9-11c-4.1-2.9-8.9-1.1-10.1,3.8
	c-0.9,3.8-0.5,7.6,1.2,11.2c0.4,0.9,1.1,1.8,1.8,2.5c3.8,3.8,9.9,2.1,11.3-3C307.8,593.6,307.9,592.3,308,591.3z"/>
<path d="M249.8,603c-8.7,0-14.5-5.9-14-13.7c0.5-8.3,7.7-14.4,15.6-13.3c0.9,0.1,1.7,0.2,2.6,0.5c6.7,1.7,10.7,7.2,10.2,13.8
	c-0.6,7.2-5.4,12.1-12.6,12.8C250.8,602.9,250.1,602.9,249.8,603z M242.1,587.8c0,0,0.1,0,0.1,0c0,0.8,0,1.6,0.1,2.4
	c0.4,2.8,1.1,5.5,3.2,7.6c3.8,3.8,10,2.3,11.4-2.8c0.8-2.8,0.8-5.7-0.1-8.5c-0.9-2.9-2.4-5.2-5.1-6.6c-3.7-1.9-7.8-0.2-9,3.8
	C242.4,584.9,242.4,586.3,242.1,587.8z"/>
<path d="M188.7,524.2c-7.6,0-13-4.4-13.9-10.8c-1.3-9.1,6.5-18.9,17.9-15.9c6.9,1.8,10.8,7.2,10.2,14.2c-0.5,6.7-5.6,11.7-12.5,12.3
	C189.7,524.2,189,524.2,188.7,524.2z M196.5,512.2c-0.1,0-0.1,0-0.2,0c0-0.6,0.1-1.1,0-1.7c-0.4-3.7-1.8-7-5.1-9.1
	c-4.1-2.6-8.8-0.6-9.8,4.1c-0.8,3.4-0.5,6.9,0.9,10.1c0.6,1.5,1.6,3,2.9,4c3.8,3.2,9.4,1.4,10.7-3.4
	C196.2,514.9,196.3,513.5,196.5,512.2z"/>
<path class="st8" d="M441.7,677.5c-1,0.6-1.7,1-2.4,1.3c-2.6,1.4-5.4,2.1-8.3,1.5c-2.6-0.5-4.2-2.1-4.9-4.6c-0.6-2.7,0.1-5,2.3-6.6
	c1.1-0.8,2.5-1.4,3.9-1.7c2.9-0.7,5.9-1.2,9.1-1.7c0-1.7,0.2-3.5,0-5.3c-0.2-1.9-1.5-2.9-3.4-3.1c-1.8-0.2-2.9,0.4-3.7,2.2
	c-1,2.1-3.7,3.2-5.9,2.4c-1-0.4-1.4-1.2-0.9-2.1c0.6-1.2,1.4-2.4,2.4-3.2c3.6-2.9,7.7-3.8,12.2-3c3.2,0.5,5.1,2.8,5.3,6.2
	c0.2,3,0.1,6.1,0.1,9.1c0,1.6,0,3.2,0,4.8c0.1,1.7,0.3,1.9,1.9,2.1c0.8,0.1,1.8-0.3,2,0.8c0.3,1.1-0.4,1.9-1.3,2.3
	c-1.2,0.6-2.5,1.2-3.8,1.4C444.4,680.5,442.5,680.3,441.7,677.5z M441.5,669.4c-2-0.5-3.7-0.3-5.3,0.4c-1.1,0.4-2.2,1.1-3,1.9
	c-1.5,1.6-0.7,4.2,1.4,4.7c2.3,0.5,4.4-0.4,6.3-1.6c1.4-0.9,0.5-2.5,0.7-3.8C441.7,670.6,441.5,670.1,441.5,669.4z"/>
<path d="M534.7,510.4c-0.2,2.9,0.7,5.2,2.4,7.2c1.2,1.4,2.9,1.9,4.7,1.9c2.3,0,4.4-0.5,6.3-2c0.3-0.3,0.6-0.5,1-0.7
	c0.8-0.4,1.5-0.5,2.1,0.3c0.5,0.7,0.2,1.4-0.3,2c-2.2,2.5-4.7,4.5-8,4.9c-6.4,0.9-13.3-1.3-14.5-10.2c-0.5-3.7-0.1-7.2,1.7-10.5
	c2.8-5.2,8.4-7.5,14.1-5.8c2.4,0.8,4.1,2.3,5.5,4.4c0.5,0.8,1.1,1.6,1.9,2c0.8,0.5,1,1,0.9,1.7c-0.1,0.9-0.7,1.1-1.5,1.3
	c-4.5,0.9-8.9,1.8-13.4,2.7C536.6,509.9,535.8,510.1,534.7,510.4z M543.8,505.3c-0.7-3.4-2.8-5.4-5-5c-2.7,0.5-4.6,3.7-3.9,7
	C537.9,506.7,540.8,506,543.8,505.3z"/>
<path d="M571.1,589.3c0.1,0.8,0.1,1.6,0.2,2.3c1.2,6.4,7.2,8.8,12.6,5.2c0.6-0.4,1.1-1,1.8-1.2c0.6-0.2,1.4-0.1,1.9,0.3
	c0.7,0.5,0.3,1.3-0.1,1.9c-3.9,5.6-13.5,7-18.6,2.6c-1.2-1-2.2-2.4-2.8-3.8c-2.1-5.1-2-10.2,0.8-15c2.8-4.9,8.5-7,13.9-5.2
	c2.3,0.8,4,2.3,5.3,4.3c0.6,0.9,0.9,2,2.2,2.4c0.3,0.1,0.6,1.1,0.5,1.6c-0.1,0.4-0.6,0.9-1.1,1c-2.3,0.5-4.5,0.9-6.8,1.4
	c-3,0.6-5.9,1.3-8.9,1.9C571.7,589,571.5,589.1,571.1,589.3z M580.2,584.1c-0.5-3.4-2.7-5.5-5-5c-2.7,0.6-4.6,4-3.7,7
	C574.4,585.4,577.2,584.8,580.2,584.1z"/>
<path d="M154.4,589.1c0.1,1,0.1,1.7,0.2,2.4c1.2,6.4,7.2,8.9,12.6,5.2c0.6-0.4,1.1-1,1.8-1.2c0.6-0.2,1.4-0.1,1.9,0.3
	c0.7,0.5,0.4,1.3-0.1,1.9c-2.3,2.7-5.1,4.7-8.7,5.1c-1.7,0.2-3.5,0-5.2-0.3c-4.3-0.8-6.9-3.4-8.1-7.6c-1.3-4.4-1.1-8.7,1.1-12.8
	c2.7-5.3,8.3-7.6,14-5.9c2.4,0.7,4.2,2.3,5.5,4.4c0.6,0.9,0.9,2,2.2,2.4c0.3,0.1,0.7,1.1,0.5,1.6c-0.1,0.5-0.8,1-1.3,1.1
	c-3.7,0.8-7.5,1.5-11.3,2.3C157.9,588.4,156.3,588.7,154.4,589.1z M163.5,584.1c-0.5-3.3-2.7-5.5-4.9-5c-2.7,0.6-4.6,3.9-3.7,7
	C157.7,585.4,160.6,584.7,163.5,584.1z"/>
<path d="M395.2,510.3c-0.5,4,1.5,7.9,4.5,8.8c2.8,0.9,5.5,0.5,8-1.1c0.5-0.3,1-0.8,1.5-1.1c0.7-0.5,1.5-0.5,2.2,0.2
	c0.6,0.7,0.3,1.3-0.2,2c-3.8,5.5-13.2,6.9-18.5,2.7c-1.5-1.2-2.6-2.7-3.2-4.4c-1.7-4.7-1.6-9.4,0.7-13.9c2.7-5.3,8.4-7.6,14-5.9
	c2.4,0.7,4.2,2.3,5.5,4.4c0.6,0.9,0.9,2,2.2,2.4c0.3,0.1,0.7,1,0.5,1.4c-0.1,0.5-0.7,1.1-1.1,1.3c-2.2,0.6-4.5,0.9-6.8,1.4
	C401.5,509,398.3,509.7,395.2,510.3z M395,507.4c3.2-0.7,6.1-1.4,9-2.1c-0.3-2.1-0.4-2.4-1.2-3.3c-2-2.3-4.6-2.3-6.5,0.1
	C395.2,503.6,394.8,505.2,395,507.4z"/>
<path d="M346.8,506.7c-5.9,1.2-11.6,2.4-17.5,3.6c0.1,3.4,0.8,6.4,3.7,8.2c3,1.8,6.1,1.2,9.1-0.5c0.5-0.3,0.9-0.7,1.3-1
	c0.8-0.6,1.7-0.8,2.4,0c0.7,0.8,0.2,1.6-0.4,2.3c-3.6,3.9-7.9,5.6-13.1,4.6c-5.1-1-8.2-4.3-9-9.6c-0.6-3.7-0.3-7.3,1.4-10.8
	c2.7-5.4,8.4-7.8,14.1-6.1c2.4,0.7,4.2,2.3,5.5,4.4c0.6,0.9,1,1.9,2.2,2.4C347.5,504.6,347.1,505.7,346.8,506.7z M329.5,507.4
	c3.1-0.7,6-1.3,8.9-2c0-2.4-1.3-4.3-3.2-5c-1.6-0.5-3.5,0.3-4.6,2.2C329.6,504,329.2,505.5,329.5,507.4z"/>
<path d="M282,602.3c-0.4,0.1-0.9,0.2-1.4,0.2c-3.3,0-6.5,0-9.8,0c-0.8,0-1.7,0.2-1.9-0.9c-0.2-1,0.2-1.8,1.2-2
	c1.9-0.4,2.1-1.7,2.2-3.4c0.2-9.9,0.5-19.8,0.8-29.7c0.1-2.3-0.4-4.2-2.5-5.5c-1.5-0.9-1.4-1.8,0.1-2.7c2.2-1.3,4.5-2.4,6.8-3.5
	c0.4-0.2,0.9-0.1,1.7-0.1c0,1,0,1.8,0,2.6c-0.1,1.3-0.4,2.5-0.4,3.8c-0.1,11.3-0.3,22.7-0.4,34c0,0.6,0,1.1,0,1.7
	c0,2.1,0.1,2.1,2.1,2.8C282.4,600.1,282.4,600.1,282,602.3z"/>
<path d="M436.7,554.6c0,0.7,0,1.4,0,2.1c-0.1,2.2-0.4,4.5-0.4,6.7c-0.2,10.5-0.2,21.1-0.4,31.6c0,0.6,0,1.1,0,1.7c0.1,2,0.1,2,2,2.6
	c1.9,0.6,1.9,0.6,1.6,2.8c-0.4,0.1-0.9,0.2-1.3,0.2c-3.3,0-6.5,0-9.8,0c-0.8,0-1.7,0.2-2-0.8c-0.3-1.1,0.2-1.9,1.3-2.2
	c1.6-0.4,2-1.4,2-3c0.2-10,0.5-20,0.8-29.9c0.1-2.4-0.4-4.4-2.6-5.7c-1.2-0.7-1.3-1.7-0.3-2.3c2.6-1.4,5.2-2.7,7.9-4
	C435.8,554.4,436.2,554.6,436.7,554.6z"/>
<path d="M471.1,504.4c-1,0.5-1.8,0.2-2.5-0.7c-0.4-0.5-0.7-1.1-1.1-1.6c-1.4-1.9-3-2.3-5.3-1.6c-1.1,0.3-1.8,0.9-2,2.1
	c-0.1,1.2,0.2,2.2,1.4,2.8c2.4,1.1,4.8,2.3,7.1,3.4c1.8,0.8,3.2,2.1,3.9,4c1,2.8,0.5,5.5-1.6,7.6c-1.2,1.3-2.9,2.3-4.6,3
	c-3.4,1.3-6.9,1.2-10.4,0.3c-1.8-0.5-2.1-0.9-2.2-2.9c0-1.4,0-2.9,0-4.3c0-0.7,0-1.5,0.9-1.7c0.9-0.2,1.5,0.2,2,0.9
	c0.6,1,1.2,2.1,1.9,3c1.4,1.9,3.3,2.6,5.5,2c1.7-0.5,2.6-1.4,2.8-2.9c0.2-1.7-0.4-2.8-2.1-3.7c-2.3-1.2-4.6-2.3-6.8-3.6
	c-2.4-1.4-3.5-3.7-3.2-6.5c0.2-2.4,1.3-4.3,3.5-5.3c3.3-1.6,6.7-1.9,10.3-1.4c1.2,0.2,1.8,0.8,2.1,2
	C471.4,501.4,471.5,502.6,471.1,504.4z"/>
<path class="st8" d="M295.7,668.7c-0.1-8.5,7.6-16.8,18.6-15.2c1.7,0.3,3.2,0.9,4.5,2.1c0.9,0.9,1.3,2,0.8,3.3
	c-0.4,1.1-1.4,1.7-2.9,1.8c-1.4,0.1-2.5-0.6-3.5-1.4c-1.6-1.3-3.3-1.8-5.4-1.5c-2.4,0.3-4.1,1.5-4.9,3.7c-1.4,3.8-1.3,7.6,0.7,11.1
	c2,3.6,6.3,4.9,10.5,3.5c1-0.4,2-1,3-1.4c0.7-0.3,1.4-0.5,1.9,0.3c0.6,0.8,0.3,1.5-0.4,2.1c-2.8,2.4-6.1,3.6-9.7,3.5
	c-2,0-4-0.4-5.9-1C298.1,677.8,295.6,674,295.7,668.7z"/>
<path d="M382.1,603.1c-1.2-0.2-2.4-0.2-3.6-0.5c-7.3-1.6-10.8-7.3-9.2-14.6c1.9-8.5,10.6-14,19.1-11.8c1.3,0.3,2.6,1.2,3.8,2
	c1.1,0.8,1.3,2,0.8,3.3c-0.5,1.3-1.6,1.9-2.9,1.7c-1.2-0.2-2.4-0.7-3.4-1.4c-1.5-1.1-3.1-1.5-4.9-1.5c-2.6,0.1-4.5,1.4-5.4,3.7
	c-1.4,3.7-1.3,7.4,0.6,10.9c2,3.8,6.7,5.2,11.1,3.4c1-0.4,1.9-0.9,2.8-1.4c0.7-0.3,1.4-0.3,1.6,0.4c0.2,0.5,0.2,1.3-0.1,1.7
	c-0.4,0.6-1,1-1.6,1.4C388.1,602.2,385.3,603.1,382.1,603.1z"/>
<path d="M505.3,500.8c1.4,5,3.5,9.6,5.2,14.6c0.5-0.5,0.9-0.7,1.1-1.1c1.8-3.4,3.7-6.7,5.4-10.2c1.1-2.1,1-2.3-0.9-3.7
	c-0.3-0.2-0.7-0.5-0.9-0.8c-0.7-0.9-0.3-2.1,0.8-2.1c2.3-0.1,4.6-0.1,6.9,0c1.2,0.1,1.6,1.3,0.9,2.3c-4.7,6.5-7.7,13.9-11.8,20.8
	c-0.4,0.8-0.8,1.6-1.3,2.3c-1.1,1.5-1.9,1.4-2.8-0.2c-0.3-0.6-0.6-1.3-0.9-2c-2.4-5.8-4.7-11.5-7.1-17.3c-0.5-1.2-1.3-2.2-1.8-3.3
	c-0.3-0.6-0.6-1.4-0.5-2c0.1-0.3,1-0.6,1.6-0.6c2.8-0.1,5.6,0,8.4,0c0.8,0,1.7-0.1,1.8,1.1c0.1,1.2-0.6,1.5-1.6,1.6
	C507,500.3,506.3,500.6,505.3,500.8z"/>
<path d="M227,599.2c0.6,2.7,0.4,3.1-1.8,3.1c-3.7,0.1-7.3,0.1-11,0.1c-0.7,0-1.5,0.1-1.8-0.8c-0.3-0.9-0.2-1.9,0.7-2.3
	c2-0.8,2-2.4,2-4.1c0-3.3,0-6.5,0.1-9.8c0-1.5-0.3-2.6-1.6-3.4c-1.8-1.2-1.8-1.9,0-3.2c1.7-1.1,3.4-2.1,5.1-3.1
	c0.6-0.4,1.4-0.4,2.4-0.7c0.1,2,0.2,3.6,0.3,5.7c1-0.7,1.8-1.3,2.5-1.8c1.1-0.8,2.2-1.7,3.4-2.3c2.7-1.3,4.8,0.2,4.8,3.2
	c0,0.4,0,0.8-0.1,1.2c-0.5,2.6-1.9,3.4-4.3,2.3c-1.9-0.9-3.7-0.9-5.4,0.3c-0.8,0.6-1.3,1.3-1.3,2.4c0,3-0.2,6.1-0.2,9.1
	c0,2.7,0.8,3.5,3.5,3.9C225.2,599.1,226.1,599.1,227,599.2z"/>
<path d="M555.9,599.2c0.6,2.8,0.4,3.1-1.8,3.1c-3.6,0.1-7.2,0.1-10.8,0.1c-0.8,0-1.7,0.2-2-0.8c-0.3-1-0.2-2,0.9-2.4
	c1.6-0.7,1.8-2,1.8-3.5c0-3.4,0-6.9,0.1-10.3c0-1.5-0.3-2.5-1.6-3.4c-1.8-1.2-1.8-1.9,0-3.2c1.6-1.1,3.2-2,4.9-3
	c0.7-0.4,1.4-0.5,2.5-0.9c0.1,2,0.3,3.7,0.4,5.8c1.3-0.9,2.3-1.7,3.3-2.4c1.1-0.7,2.1-1.5,3.3-1.9c2.2-0.8,4,0.6,4.1,2.9
	c0,0.4,0,0.8,0,1.2c-0.4,3-1.8,3.9-4.6,2.6c-1.4-0.6-2.7-0.8-4.1-0.1c-1.5,0.7-2.4,1.6-2.4,3.5c0,2.8-0.2,5.6-0.2,8.4
	c0,3,0.8,3.8,3.8,4.1C554.2,599.1,555,599.1,555.9,599.2z"/>
<path d="M298.2,523.6c-0.7-2.2-0.7-2.4,0.8-3.3c1.1-0.7,1.5-1.5,1.5-2.7c0-3.7,0-7.3,0.1-11c0.1-1.5-0.5-2.5-1.7-3.4
	c-1.7-1.1-1.7-1.9,0-3c1.7-1.2,3.5-2.2,5.3-3.2c0.6-0.3,1.3-0.4,2.3-0.7c0.1,1.9,0.2,3.6,0.3,5.5c0.7-0.4,1.2-0.6,1.7-0.9
	c1.3-0.9,2.5-2,3.9-2.8c1.7-1,3.7-0.6,4.6,0.6c1,1.4,0.6,4.9-0.6,5.8c-1.2,0.9-2.4,0.5-3.6-0.1c-1.8-0.9-3.5-0.6-5.2,0.5
	c-0.8,0.5-1.2,1.2-1.2,2.2c-0.1,3.1-0.2,6.2-0.2,9.3c0,2.6,0.8,3.4,3.4,3.7c0.6,0.1,1.1,0.1,1.7,0.1c1.1,0,1.6,0.5,1.6,1.6
	c0,1.1-0.5,1.6-1.6,1.6C307,523.6,302.7,523.6,298.2,523.6z"/>
<path class="st8" d="M392.6,658.4c1.9-1.4,3.2-2.4,4.5-3.4c1.1-0.8,2.3-1.4,3.8-1.1c1.4,0.2,2.1,1,2.3,2.3c0.1,0.6,0.1,1.1,0,1.7
	c-0.2,3.2-1.7,4.1-4.6,2.8c-1.6-0.7-3.1-0.8-4.6,0.1c-1.3,0.7-2,1.6-2,3.2c0.1,2.9-0.1,5.8-0.1,8.6c0,2.8,0.8,3.6,3.5,3.8
	c0.2,0,0.5,0,0.7,0c2.3,0.2,2.4,0.3,2,3.2c-4.7,0-9.6,0-14.4,0c-0.5-1.4-0.5-2.6,1-3.2c1-0.4,1.4-1.2,1.4-2.3
	c0.1-4.1,0.1-8.2,0.2-12.2c0-1.3-0.8-1.8-1.7-2.4c-1.7-1.3-1.7-2.1,0-3.2c1.9-1.2,3.8-2.4,5.8-3.4c1.3-0.7,1.9-0.2,1.9,1.3
	C392.6,655.4,392.6,656.6,392.6,658.4z"/>
<path class="st8" d="M328.3,658.9c-0.6-0.3-1.2-0.5-1.7-0.7c-1.8-0.7-1.9-1.6-0.5-3c1.2-1.1,2.5-2.2,3.7-3.4
	c0.8-0.7,1.4-1.5,2.3-2.2c0.5-0.4,1.2-0.6,2.1-1c0,1.9,0,3.4,0,5.2c2.4,0,4.6,0,6.8,0c1.7,0,2,0.4,2,2c0,1.8-0.3,2.2-2.2,2.2
	c-2.1,0-4.3,0-6.3,0c-0.2,0.3-0.4,0.4-0.4,0.6c-0.1,4.5-0.4,9.1-0.4,13.6c0.1,3,2.1,4.1,5,3.2c0.7-0.2,1.3-0.7,2-0.8
	c0.5-0.1,1.1,0,1.5,0.3c0.2,0.2,0.1,0.9-0.1,1.3c-1.9,4-8.4,5.5-11.8,2.7c-1.8-1.5-2.4-3.5-2.4-5.7c0.1-4,0.2-8,0.3-12
	C328.4,660.5,328.3,659.7,328.3,658.9z"/>
<path d="M365.1,599.7c0,0.8,0,1.7,0,2.7c-4.3,0-8.4,0-12.5,0c-0.8-2.1-0.8-2.3,1.1-3.1c1.2-0.5,1.7-1.3,1.7-2.5c0-4,0-8,0-12
	c0-1.3-0.4-2.3-1.7-2.9c-0.8-0.3-1.4-0.7-1.3-1.7c0.1-1,0.8-1.3,1.5-1.7c1.7-0.8,3.3-1.6,5-2.3c0.7-0.3,1.5-0.4,2.5-0.6
	c0,1,0,1.7,0,2.4c-0.1,5.9-0.2,11.8-0.3,17.7c0,3.2,0,3.2,3.1,3.7C364.5,599.3,364.8,599.5,365.1,599.7z"/>
<path d="M479.9,523.7c-0.4-2.4-0.4-2.5,1.3-3.2c1.2-0.5,1.7-1.3,1.7-2.6c0-3.9,0-7.8,0-11.8c0-1.4-0.5-2.4-1.8-3.1
	c-1.9-1-1.8-2.3,0.1-3.2c1.8-0.9,3.6-1.8,5.4-2.6c0.6-0.3,1.3-0.3,2.1-0.4c0.1,0.7,0.2,1,0.2,1.4c-0.1,6.6-0.2,13.1-0.3,19.7
	c0,2.2,0.1,2.3,2.4,2.6c1.6,0.2,2.2,0.9,1.8,2.1c-0.1,0.4-0.7,1-1.1,1C487.8,523.7,483.9,523.7,479.9,523.7z"/>
<path class="st8" d="M417.5,653c0,1.4,0,2.4,0,3.4c-0.1,5.8-0.2,11.7-0.3,17.5c0,2.4,0.2,2.6,2.5,2.9c0.5,0.1,0.9,0.1,1.6,0.2
	c0,0.9,0,1.7,0,2.8c-0.8,0.1-1.6,0.1-2.4,0.2c-2.6,0-5.3,0-7.9,0.1c-0.1,0-0.2,0-0.2,0c-1,0-2.2,0.3-2.5-1.2
	c-0.3-1.3,0.5-1.9,1.6-2.2c1.3-0.4,1.6-1.3,1.6-2.6c0-3.9,0-7.8,0-11.8c0-1.4-0.4-2.4-1.7-3.1c-1.9-1-1.8-2.3,0.1-3.3
	c1.8-0.9,3.6-1.8,5.4-2.6C415.9,653.2,416.5,653.2,417.5,653z"/>
<path class="st8" d="M290.2,677c0.9,2.4,0.5,3.1-1.8,3c-2.9,0-5.9,0-8.8,0c-1.8,0-2.5-0.6-2.1-2c0.1-0.5,0.7-1,1.2-1.2
	c1.6-0.5,2-1.5,2-3.1c-0.1-3.8,0-7.5,0-11.3c0-1.5-0.4-2.5-1.9-3.3c-1.8-0.9-1.8-2.2,0-3.1c1.9-1,3.9-1.9,5.8-2.8
	c0.5-0.2,1.2-0.2,2-0.3c0,0.7,0,1.2,0,1.6c-0.1,6.6-0.2,13.2-0.2,19.9c0,1.6,0.3,1.9,1.9,2.2C289,676.9,289.6,676.9,290.2,677z"/>
<path class="st8" d="M414.6,644.1c-1.8,0-3.2-1.4-3.2-3.1c0-1.8,1.3-3.2,3.1-3.2c1.8-0.1,3.5,1.5,3.4,3.2
	C417.9,642.6,416.3,644,414.6,644.1z"/>
<path class="st8" d="M283.7,644.1c-1.8-0.1-3.2-1.5-3.2-3.2c0-1.7,1.5-3.1,3.3-3.2c1.8,0,3.4,1.5,3.3,3.3
	C287,642.7,285.4,644.1,283.7,644.1z"/>
<path d="M486,481.5c1.8,0,3.2,1.4,3.2,3.1c0,1.8-1.5,3.2-3.4,3.1c-1.8-0.1-3.2-1.5-3.1-3.2C482.7,482.8,484.1,481.5,486,481.5z"/>
<path d="M358.4,566.5c-1.9,0-3.2-1.3-3.2-3.1c0-1.8,1.3-3.1,3.2-3.1c1.9,0,3.5,1.5,3.4,3.2C361.7,565.1,360.2,566.5,358.4,566.5z"/>
</svg>
