<?xml version="1.0" encoding="utf-8"?>
<!-- Generator: Adobe Illustrator 26.3.1, SVG Export Plug-In . SVG Version: 6.00 Build 0)  -->
<svg version="1.1" id="CNC_Victoria" xmlns="http://www.w3.org/2000/svg" xmlns:xlink="http://www.w3.org/1999/xlink" x="0px"
	 y="0px" viewBox="0 0 472 115" style="enable-background:new 0 0 472 115;" xml:space="preserve">
<style type="text/css">
	.st0{fill:#009640;}
	.st1{fill:#E30513;}
	.st2{fill:#EF7D00;}
	.st3{fill:#009FE3;}
	.st4{fill:#AD4682;}
	.st5{fill:#F5B3D2;}
	.st6{fill:#FFCC00;}
	.st7{fill:#B0CB0A;}
	.st8{display:none;}
	.st9{fill:#E30713;}
	.st10{display:inline;fill:#E30713;}
	.st11{display:inline;}
</style>
<path class="st0" d="M46.6,49.3c0.2-0.3,0.3-0.7,0.5-1c2-3,4.7-5,8-6.2c1.7-0.6,3.6-0.9,5.4-1c5.5-0.2,10.9,0.6,16.2,2.5
	c0.7,0.2,1.3,0.6,2,0.9c0.4,0.2,0.8,0.5,1,0.9c1.5,2.1,2.5,4.5,2.9,7.1c0.3,1.9,0.2,3.8-0.2,5.6c-0.2,0.7-0.4,1.4-0.8,2.1
	c-1.1,1.9-1.7,3.9-2,6.1c-0.1,0.8-0.3,1.6-0.5,2.4c-0.1,0.2-0.1,0.4-0.2,0.6c-0.3,1-0.7,1.2-1.7,1.1c-1-0.1-2.1-0.2-3.1-0.3
	c-0.1,0-0.2,0-0.2,0c-0.7-0.2-0.8-0.2-0.8-0.9c0-2.3,0-4.6,0.1-6.8c0-0.9,0.1-1.8-0.1-2.8c-0.3-1.4-0.9-2.5-1.9-3.5
	c-0.4-0.4-0.8-0.8-1.2-1c-2.9-1.9-6.1-2.9-9.5-2.8c-1,0-2,0.2-2.9,0.6c-0.3,0.1-0.6,0.2-0.8,0.4c-0.5,0.3-0.5,0.7,0.1,1
	c0.3,0.2,0.6,0.3,0.9,0.4c1.1,0.4,2.3,0.8,3.3,1.2c1.1,0.4,2.2,0.9,3.3,1.4c1.3,0.6,2.3,1.4,2.9,2.8c0.7,1.5,0.9,3.1,0.5,4.7
	c-0.3,1.3-0.8,2.4-1.5,3.5c-0.8,1.3-1.8,2.4-2.9,3.5c-1.1,1-2.2,2-3.4,2.8c-3.9,2.7-7.5,5.7-10.8,9.2c-0.6,0.6-1.1,1.2-1.7,1.7
	c-1,0.9-2.1,1.8-3.2,2.7c-1,0.8-2.3,1.3-3.6,1.4c-0.9,0.1-1.8,0-2.8,0c-1,0-2-0.2-2.9-0.2c-0.7,0-0.8,0.2-0.6,0.9
	c0,0.1,0.1,0.1,0.1,0.2c0.9,1.4,1.8,2.8,3.1,3.8c1.6,1.3,3.3,1.5,5.2,0.8c2.7-1,5.1-2.5,7-4.7c1.3-1.5,2.5-3,3.7-4.6
	c1.5-1.9,2.9-3.9,4.4-5.7c1.5-1.8,3.2-3.5,5.2-4.9c1.7-1.2,3.6-2.1,5.7-2.5c1.5-0.3,3-0.3,4.5,0c2.6,0.5,5.1,1.2,7.4,2.3
	c2.7,1.2,4.8,3.1,6.4,5.5c1.1,1.6,1.6,3.4,1.5,5.4C88.4,87,88.1,88,87.7,89C87,90.6,86,92,84.6,93c-1.4,1.1-2.9,2.1-4.5,3
	c-2.3,1.3-4.7,2.2-7.4,2.1c-1.4,0-2.7,0-4.1,0c-0.6,0-0.9,0.2-1,0.8c-0.1,1.3,0.5,2.1,1.7,2.3c2,0.3,3.9,0.3,5.7-0.8
	c1-0.7,2.2-1,3.4-1.2c3.2-0.6,6.1-1.9,8.7-3.9c1.4-1,2.8-2.2,4.1-3.3c0.9-0.7,1.4-1.7,2-2.7c1.2-1.9,2.1-3.9,3-6
	c0.3-0.7,0.6-1.5,1-2.1c1.5-2.7,3.9-4.1,6.9-4.3c2.1-0.2,4.2,0.1,6.2,0.6c2.4,0.6,4.7,1.3,6.9,2.5c1.3,0.7,2.6,1.6,3.6,2.7
	c1.3,1.4,2.2,3.1,2.1,5.1c0,1.8-0.6,3.3-1.9,4.6c-1,1-2.1,1.7-3.3,2.3c-0.8,0.3-1.6,0.6-2.5,0.9c-1.2,0.4-2.2,1.1-3,2.1
	c-0.3,0.3-0.6,0.7-0.9,1c-0.2,0.2-0.3,0.4-0.5,0.6c0.3,0.3,0.6,0.5,0.9,0.5c0.9,0.1,1.9,0.1,2.8,0.1c0.1,0,0.1,0,0.1,0
	c1.6-0.2,1.6-0.2,2.7-1.3c0,0.2,0.1,0.3,0.1,0.4c-0.1,2.1-0.8,3.9-1.9,5.7c-0.1,0.1-0.2,0.3-0.3,0.4c-1.9,2-4.2,3.2-6.8,3.9
	c-1.6,0.4-2.9-0.2-3.5-1.8c-0.4-1.1-0.5-2.2-0.4-3.3c0.2-1.5,0.7-2.9,1.3-4.4c0.9-2.1,1.7-4.3,2.1-6.6c0.2-1.2-0.6-2-1.2-2.4
	c-0.5-0.3-1-0.3-1.4,0c-0.4,0.2-0.8,0.5-1.1,0.9c-0.9,1-1.6,2.2-1.9,3.5c-0.5,2.3-1.4,4.4-2.6,6.4c-2.5,4.1-6.1,6.6-10.8,7.4
	c-0.9,0.2-1.9,0.1-2.8,0c-2-0.1-3.9-0.2-5.8-0.2c-1.1,0-2.2,0.2-3.3,0.5c-2,0.6-4,1.1-5.9,1.6c-1.4,0.3-2.9,0.5-4.4,0.5
	c-2.2,0-4.3,0-6.5-0.3c-0.9-0.1-1.8-0.3-2.6-0.6c-1.3-0.4-1.7-1.2-1.4-2.5c0.2-0.8,0.4-1.5,0.7-2.3c0.6-1.5,1.6-2.9,2.5-4.2
	c0.3-0.4,0.6-0.8,0.9-1.3c1.4-2.6,3-5.1,4.8-7.4c1.4-1.9,2.8-3.8,4.3-5.7c0.4-0.5,0.8-0.9,1.3-1.4c0.4-0.4,0.9-0.5,1.4-0.3
	c0.6,0.2,0.7,0.6,0.4,1.1c-0.1,0.1-0.1,0.2-0.2,0.3c0.1,0.3,0.4,0.4,0.7,0.5c1.2,0.1,2.3-0.2,3.2-1c0.2-0.2,0.3-0.3,0.4-0.5
	c0.4-0.8,0.2-1.5-0.5-2c-0.6-0.4-1.3-0.6-2.1-0.6c-2.7-0.1-5,0.8-7.1,2.4c-0.2,0.2-0.3,0.4-0.5,0.6c-0.4,0.6-0.8,1.2-1.2,1.8
	c-2.9,4.4-6.1,8.5-9.4,12.5c-0.7,0.8-1.4,1.6-2.1,2.4c-0.9,1-2,1.9-3.2,2.7c-1.7,1.2-3.5,1.8-5.6,1.9c-2.3,0.1-4.6,0.1-6.9,0.1
	c-1.6,0-3.1-0.2-4.6-0.6c-1.6-0.4-2.9-1-4-2.2c-0.6-0.6-1.2-1.2-1.7-1.8c-1.7-1.9-2.2-4.1-1.7-6.5c1-5.3,2.4-10.6,4-15.8
	c0.9-3.1,2-6.3,3.3-9.2c0.4-0.9,0.8-1.7,1.3-2.5c0.5-0.8,1.2-1.2,2.2-1.2c2.1,0,4,0.3,6,0.9c1.7,0.4,3.3,0.9,5,1.4
	c0.6,0.2,1.1,0.3,1.7,0.3c1.2,0.2,2.4-0.1,3.3-0.9c0.6-0.5,1.3-0.9,2.1-1.2c1.7-0.6,2.6-2,3-3.7c0.2-0.9-0.2-1.5-1-1.7
	c-0.9-0.3-1.8-0.2-2.7,0.2c-0.2,0.1-0.5,0.2-0.6,0.6c0.2,0.3,0.5,0.4,0.9,0.5c0.3,0.1,0.5,0.3,0.4,0.7c-0.2,1-0.7,1.8-1.5,2.5
	c-0.2,0.1-0.5,0.2-0.8,0.2c-0.6-0.1-1.1-0.2-1.6-0.3c-2.4-0.6-4.8-1.3-7.3-1.6c-0.5-0.1-1.1-0.2-1.6-0.2c-1-0.1-1.6-0.6-1.6-1.7
	c0-1.3,0.1-2.5,0.5-3.7c0.2-0.8,0.6-1.5,1.3-2c2.2-1.9,4.5-3.8,6.7-5.7c1.5-1.3,3-2.7,4.5-4c0.2-0.2,0.5-0.5,0.7-0.8
	c0.5-0.7,0.3-1.2-0.6-1.3c0,0-0.1,0-0.1,0c-1.8,0.1-3.5,0.6-4.9,1.9c-0.5,0.5-1,1-1.6,1.6c-0.1,0.1-0.2,0.2-0.3,0.2
	C46.7,49.4,46.6,49.3,46.6,49.3z"/>
<path class="st1" d="M132.2,99.8c0.3,0.3,0.6,0.3,0.9,0.3c0.8-0.1,1.6-0.2,2.4-0.4c4.7-1.3,8.9-3.5,12.8-6.5
	c1.8-1.4,3.3-3.2,4.4-5.3c1-1.9,1.8-3.9,2.4-6c0.8-2.9,2.5-5.3,4.6-7.5c0.4-0.4,0.9-0.8,1.3-1.1c0.4-0.3,0.8-0.3,1.3-0.3
	c2.3,0.1,4.2,1,5.9,2.5c0.4,0.3,0.7,0.7,0.8,1.2c0.2,0.5,0.3,1.1,0.5,1.6c0.2,0.7,0.5,1,1.2,1c1.3,0.1,2.5-0.4,3.5-1.3
	c0.6-0.5,0.7-1.2,0.6-2c-0.1-0.9-0.6-1.7-1.2-2.4c-0.7-0.7-1.5-1.3-2.4-1.7c-1.1-0.5-2.3-0.9-3.4-1.3c-0.6-0.2-0.7-0.3-0.6-0.9
	c0.9-3.3,1.8-6.6,3.9-9.4c0.4-0.5,0.8-1,1.3-1.6c0.4-0.4,0.8-0.5,1.4-0.4c1.8,0.5,3.6,1.1,5.2,2.1c0.8,0.5,1.5,1,2.1,1.7
	c1.2,1.4,1.7,2.9,1.4,4.7c-0.3,1.8-0.6,3.7-0.9,5.6c-0.6,3.1-1.8,5.8-3.6,8.4c-1.3,2-2.8,3.8-4.4,5.4c-0.6,0.6-1.2,1.1-1.8,1.6
	c-0.4,0.3-0.9,0.6-1.4,0.8c-1,0.4-2,0.3-2.8-0.4c-0.8-0.6-1.5-1.4-1.9-2.4c-0.2-0.3-0.3-0.7-0.5-1c-0.5-0.8-1.7-1.3-2.6-1
	c-0.4,0.1-0.7,0.5-0.5,0.9c0.4,1.2,0.2,2.4,0.2,3.6c-0.1,1.3-0.3,2.6-0.7,3.9c-0.5,1.3-1.2,2.3-2.4,2.9c-3,1.7-6.1,3.1-9.3,4.1
	c-2.8,0.9-5.5,1.9-8.2,3.1c-2.4,1-4.9,1.9-7.5,2.4c-2,0.4-4,0.5-5.9-0.1c-1.3-0.3-2.5-1-3.6-1.8c-0.6-0.5-1-1.1-1.1-1.8
	c-0.4-2.5,0.1-4.9,1.6-6.9c0.7-0.9,1.4-1.7,2.2-2.4c0.8-0.8,1.5-1.6,1.6-2.8c0-0.1,0.1-0.2,0.1-0.3c0.3,0.1,0.5,0.2,0.8,0.3
	c0.6,0.3,1.1,0.7,1.7,1.1c0.3,0.2,0.5,0.2,0.8,0.1c0.2-0.1,0.4-0.1,0.6-0.2c0.8-0.4,1.6-0.9,2.4-1.3c0.6-0.3,0.6-0.6,0.2-1.1
	c-0.2-0.2-0.6-0.4-0.9-0.5c-1.7-0.6-3.5-1.1-5.2-1.6c-0.5-0.2-0.8-0.3-0.8-0.9c0-0.5-0.2-1-0.5-1.4c-0.4-0.6-0.7-1.2-0.8-1.9
	c0-0.3-0.1-0.6,0.2-1c0.3,0.1,0.6,0.2,0.9,0.3c3.4,1.1,6.9,1.7,10.5,1.5c1.3-0.1,2.6-0.3,3.8-0.8c0.7-0.3,1.1-0.8,1.1-1.5
	c0-0.6-0.3-1-1-1c-0.3,0-0.6,0-0.9,0.1c-3.5,0.6-6.9,0.1-10.2-1.1c-2.2-0.8-4.4-1.6-6.7-2.3c-1.9-0.6-3.9-0.9-5.9-1.1
	c-1.6-0.2-3.1-0.3-4.6-0.6c-2.4-0.5-4.4-1.8-5.8-3.8c-0.5-0.7-1-1.5-1.4-2.3c-0.3-0.6-0.9-0.9-1.5-0.8c-0.8,0.1-1.7,0.3-2.4,0.6
	c-0.2,0.1-0.4,0.2-0.6,0.3c-0.5,0.4-0.6,0.7-0.3,1.3c0.9,1.9,2.2,3.5,3.8,4.9c0.2,0.2,0.4,0.3,0.6,0.5c-0.2,0.2-0.4,0.2-0.6,0.2
	c-2.3,0.2-4.5,0.5-6.7,1c-0.4,0.1-0.9,0.3-1.3,0.4c-0.6,0.2-1.1,0.5-1.6,1c-0.7,0.7-1.6,0.9-2.5,0.6c-0.3-0.1-0.6-0.2-0.8-0.3
	c-1.3-0.7-2.6-1.4-3.9-2.2c-0.5-0.3-1-0.7-1.4-1.1c-2.2-2-3.2-4.4-2.8-7.4c0.3-2,0.9-3.9,1.9-5.6c0.4-0.6,0.9-1.2,1.4-1.8
	c1.4-1.5,3.1-2.1,5.2-1.8c1.5,0.2,3,0.3,4.5,0.5c2.9,0.3,5.8-0.2,8.5-1.3c1-0.4,2.1-0.8,3.1-1.3c1.2-0.5,2.4-0.7,3.7-0.5
	c2.3,0.4,4.5,0.8,6.6,1.4c0.4,0.1,0.8,0.3,1.2,0.5c0.4,0.2,0.6,0.5,0.6,0.9c0,0.8,0.1,1.5,0.3,2.2c0.4,1.8,1.5,2.4,3.2,1.9
	c0.9-0.3,1.6-0.9,2.1-1.7c0.5-0.7,0.7-1.5,0.8-2.3c0.1-0.3,0.1-0.6,0.1-1c0.3,0,0.7,0,1,0.1c2,0.3,3.4,1.4,4.1,3.4
	c0.2,0.5,0.1,0.9-0.3,1.3c-0.6,0.5-1.2,0.9-1.8,1.4c-1,0.8-2.1,1.6-3.1,2.4c-0.7,0.6-1.3,1.4-1.9,2.1c-0.3,0.3-0.5,0.8-0.6,1.3
	c-0.2,0.5,0,0.8,0.5,0.9c0.5,0.1,0.9,0.2,1.4,0.2c0.8,0,1.5-0.2,2.3-0.5c0.6-0.3,1.2-0.6,1.6-1.2c1.1-1.3,2.2-2.7,3.5-3.7
	c0.7-0.5,1.4-1,2.1-1.4c0.8-0.5,1.7-0.5,2.6-0.2c1.8,0.5,3.6,1,5.4,1.5c3.6,1.1,5.6,3.6,6.3,7.2c0.2,1.2,0.3,2.5,0.2,3.7
	c-0.1,0.8-0.1,1.6-0.1,2.4c-0.1,1.9-0.6,3.7-1.2,5.5c-0.4,1.2-0.8,2.4-1.2,3.6c-0.5,1.5-1.4,2.8-2.5,3.9c-1,1-2.1,1.9-3.3,2.7
	c-2.6,1.8-5.3,3.4-8.3,4.6c-0.7,0.3-1.3,0.6-2,1C132.7,99.4,132.5,99.6,132.2,99.8z"/>
<path class="st2" d="M113.6,52.1c0.2-0.3,0.2-0.6,0.4-0.8c0.3-0.4,0.6-0.9,1-1.3c1-1.1,2.1-2.2,3.1-3.4c0.4-0.4,0.8-0.6,1.4-0.5
	c0.6,0.1,1.2,0.1,1.8,0.2c0.7,0.1,1.4,0.2,2.2,0.3c1.1,0.1,2.1-0.1,3.1-0.7c0.7-0.4,1.1-0.9,1-1.7c0-0.5-0.1-0.6-0.5-0.7
	c-1.1-0.3-2.2-0.5-3.3-0.7c-1-0.2-2.1-0.2-3.1-0.3c-1.7-0.2-3.2,0.2-4.6,1.1c-1.1,0.7-2.1,1.6-2.9,2.5c-0.9,1-1.7,2-2.6,3
	c-0.8,0.9-1.7,1.9-2.5,2.8c-2.7,2.8-6.5,3.4-9.9,2.1c-0.8-0.3-1.6-0.5-2.5-0.7c-1.4-0.3-2.7-0.8-3.9-1.4c-1-0.5-1.8-1.3-2.4-2.3
	c-0.9-1.4-1.9-2.9-2.9-4.3c-0.6-0.8-1.2-1.5-1.9-2.2c-1.1-1.2-2.5-2.1-4.1-2.5c-3.6-1.1-7.2-2.1-10.9-2.7c-1-0.2-2-0.2-2.9-0.2
	c-0.7,0-1-0.1-1.5-0.3c0.2-0.2,0.3-0.3,0.5-0.5c0.8-0.9,1.5-1.9,1.7-3.1c0.1-0.7,0-1.3-0.2-2c-0.3-0.7-0.2-1,0.5-1.3
	c1.3-0.7,2.8-1.1,4.2-1.5c1.7-0.4,3.3-0.6,5-0.8c1.5-0.1,2.9,0.2,4.3,0.8c2,0.8,3.8,2.1,5.4,3.5c1,0.9,2,1.8,3.1,2.7
	c0.8,0.7,1.7,1.3,2.6,2c0.3,0.2,0.6,0.3,1,0.5c-0.1-0.2-0.1-0.4-0.1-0.5c-2.2-4-5-7.6-8.8-10.3c-0.8-0.6-1.6-1-2.4-1.5
	c-0.6-0.3-1.2-0.5-1.9-0.5c-0.3,0-0.6-0.1-1-0.1c-0.2,0-0.4-0.1-0.7-0.2c0.2-0.3,0.2-0.5,0.4-0.7c0.9-1,1.8-2.1,2.7-3.1
	c0.3-0.3,0.8-0.4,1.2-0.5c2.1-0.1,4.2,0,6.1,0.8c2.1,0.9,4.1,1.8,6.2,2.7c2,0.9,4,1.9,6.1,2.7c2,0.8,4,1.1,6.2,1.1
	c0.5,0,1.1-0.1,1.6-0.3c1.3-0.4,1.4-2.4,0.4-3c-0.6-0.3-1.3-0.8-1.9-1c-2.5-0.9-5-1.8-7.6-2.7c-2.1-0.7-4.2-1.4-6.3-1.8
	c-1.4-0.3-2.9-0.5-4.3-0.9c-0.5-0.1-1-0.2-1.5-0.6c0.2-0.1,0.4-0.2,0.6-0.3c2.7-1.5,5.4-2.6,8.5-3c2.4-0.3,4.7-0.2,7,0.5
	c2.9,0.8,5.7,1.9,8.1,3.8c0.7,0.6,1.4,1.3,2,2c0.4,0.5,0.8,1,1.1,1.6c1.2,2,1.2,3.9-0.1,5.8c-0.9,1.3-2,2.4-3.3,3.3
	c-0.4,0.3-0.9,0.5-1.4,0.7c-0.8,0.3-1.6,0.5-2.3,0.8c-0.9,0.3-1.8,0.6-2.6,1.1c-1.5,0.8-3.2,1.2-4.8,1.5c-0.3,0.1-0.6,0.1-0.9,0.2
	c0.1,0.1,0.1,0.2,0.1,0.2c1.5,1.4,3.1,2.5,5.1,3c1.4,0.3,2.7,0.1,3.8-0.8c0.6-0.5,1.2-1,1.7-1.5c1-0.9,1.9-1.8,2.9-2.6
	c1.8-1.5,3.9-2.6,6.2-3c0.8-0.1,1.6-0.2,2.4-0.2c2.9,0,5.8,0.3,8.7,1c2.6,0.7,4.9,1.9,6.8,3.9c1,1.1,2,2.2,3,3.4
	c1.3,1.7,1.6,3.6,1,5.7c-0.4,1.3-1.1,2.5-2,3.6c-1.5,1.8-3.2,3.3-5.3,4.5c-0.5,0.3-1.1,0.6-1.6,0.9c-1.2,0.7-2.5,0.8-3.8,0.6
	c-2-0.4-3.9-0.9-5.9-1.3c-2.1-0.5-4.3-0.8-6.4-0.6c-0.5,0-1.1,0.1-1.6,0.2C114.1,52.1,113.9,52.1,113.6,52.1z"/>
<path class="st3" d="M22.4,73.1c-0.3-0.1-0.5-0.3-0.7-0.3c-0.6-0.2-1.2-0.3-1.7-0.4c-0.7-0.1-1.3-0.3-1.8-0.9
	c-0.1-0.1-0.3-0.3-0.5-0.4c-0.5-0.3-0.9-0.3-1.3,0.1c-0.2,0.3-0.5,0.6-0.5,0.9c-0.2,0.7-0.3,1.5-0.4,2.2c-0.1,1-0.4,2-1,2.9
	c-0.9,1.4-1.9,2.7-2.8,4.1c-0.5,0.8-1.1,1.5-1.6,2.3c-1.1,1.6-1.9,3.2-2.4,5.1c-0.1,0.5-0.3,1-0.5,1.5c-0.1,0.3-0.3,0.4-0.6,0.5
	c-0.8,0.1-1.5,0-2.2-0.2c-0.6-0.2-0.6-0.3-0.6-0.9c0.2-1.8,0.7-3.6,1.9-5c1.2-1.6,2.3-3.2,3.3-4.8c1.3-2.2,2.1-4.5,2.4-7
	c0.2-1.8,0.5-3.6,1-5.4c0.6-2.1,1.6-3.9,3.1-5.5c1.7-1.7,3.8-2.6,6.2-2.9c1.3-0.2,2.7-0.1,4,0.1c1,0.1,2,0.1,2.9-0.1
	c0.3-0.1,0.6-0.2,0.9-0.3c0.8-0.3,0.9-0.9,0.4-1.6c-0.3-0.5-0.8-0.9-1.4-1c-0.6-0.1-1.1-0.2-1.7-0.2c-1.8-0.1-3.5,0.3-5.2,0.7
	c-1.1,0.2-2.2,0.5-3.3,0.7c-0.5,0.1-0.9,0.1-1.4-0.1c-0.6-0.2-1.2-0.5-1.7-0.8c-2.1-1.4-2.9-3.6-2.1-6.1c0.5-1.6,1.5-2.8,3-3.5
	c1.7-0.8,3.6-1.4,5.4-1.9c2-0.6,4-1.2,5.9-2.1c0.7-0.3,1.4-0.7,2.1-1.2c0.4-0.2,0.4-0.3,0.6-0.8c-0.2-0.3-0.5-0.3-0.7-0.3
	c-1.2-0.2-2.3,0-3.4,0.3c-1.5,0.4-2.9,0.9-4.4,1.4c-0.1,0-0.2,0.1-0.3,0.1c-0.5,0.2-0.6,0.1-0.6-0.4c0-0.7,0.1-1.4,0.2-2
	c0.3-1.7,0.7-3.3,1.4-4.8c0.4-0.9,1-1.8,1.7-2.6c1.5-1.5,3.2-2,5.3-1.4c0.2,0.1,0.3,0.1,0.5,0.2c0.3,0.1,0.4,0.3,0.4,0.7
	c0,0.5,0,1,0.1,1.5c0.4,1.7,1.7,2.8,3.6,2.9c0.9,0.1,1.7,0.1,2.6-0.2c1.2-0.3,2.5-0.7,3.7-1c1.7-0.4,3.4-0.3,5.1,0.3
	c1.7,0.6,3.3,1.4,4.6,2.8c0.5,0.6,1,1.2,1.3,2c0.3,0.8,0.2,1-0.4,1.5c-0.7,0.5-1.4,1-2.1,1.6c-1.8,1.4-3.3,3-4.4,5.1
	c-0.2-0.2-0.4-0.3-0.6-0.4c-0.9-0.7-1.8-1.4-2.7-2.1c-1.3-0.9-2.8-1.3-4.4-1.3c-3,0-5.9,0.7-8.7,1.6c-0.7,0.2-1.4,0.5-2.2,0.8
	c-0.3,0.1-0.6,0.3-0.8,0.7c-0.1,0.2-0.1,0.5,0,0.6c0.1,0.1,0.4,0.2,0.6,0.2c0.8-0.1,1.5-0.3,2.3-0.5c1.6-0.3,3.3-0.5,5-0.6
	c1.7,0,3.3,0.4,4.8,1.4c1.2,0.9,2.5,1.7,3.5,2.8c0.2,0.3,0.5,0.5,0.7,0.8c0.3,0.4,0.3,0.5-0.1,0.9c-0.3,0.3-0.7,0.7-1,1
	c-0.8,0.8-1.7,1.5-2.5,2.2c-0.6,0.5-1,1.1-1.2,1.8c-0.6,1.8-1,3.6-0.9,5.5c0,0.4,0.1,0.8,0.1,1.2c-0.1,0-0.2,0.1-0.2,0.1
	c-2.9,0.3-4.9,1.8-6.3,4.3c-0.2,0.4-0.4,0.8-0.5,1.2c-1.6,4.5-3.3,9-4.9,13.5c-1.4,4-2.6,8.2-3.7,12.3c-0.2,0.8-0.1,1.6,0,2.4
	c0.1,0.3,0.1,0.7,0.1,1.1c-1.7,0.6-3.3,0.8-4.9,0c-0.8-0.4-1.3-1-1.7-1.7c-0.5-0.9-0.7-1.9-0.9-2.9c-0.3-2.1,0-4.2,0.5-6.2
	c0.3-1.2,0.6-2.3,1-3.4c0.3-0.8,0.8-1.5,1.2-2.3c0.7-1.1,1.5-2.2,2.1-3.3c0.5-0.9,1-1.9,1.3-2.9c0.5-1.7,1.4-3,2.9-4
	C22.1,73.4,22.2,73.3,22.4,73.1z"/>
<path class="st4" d="M133.2,25.2c0.5,0.4,0.9,0.4,1.3,0.5c2.2,0.3,4.3,0.8,6.4,1.4c0.3,0.1,0.6,0.1,0.9,0.1c2.5-0.5,5-0.3,7.4,0.5
	c1.7,0.6,3.5,1,5.1,1.9c0.9,0.4,1.7,0.9,2.4,1.5c1.4,1,2.1,2.5,2.1,4.3c0.1,2.5-0.7,4.6-2.5,6.3c-0.5,0.5-0.9,1-1.3,1.5
	c-0.2,0.2-0.3,0.6-0.1,0.8c0.2,0.3,0.6,0.3,0.9,0.2c1.9-0.6,3.8-1.2,5.6-2.2c1.4-0.8,2.4-1.8,2.9-3.4c0.1-0.4,0.2-0.8,0.2-1.3
	c0-1.1,0-2.2,0-3.3c0-1.1-0.4-2.1-1-3c-0.5-0.7-1.1-1.3-1.6-2c0.2,0.1,0.4,0.2,0.5,0.3c0.8,0.6,1.5,1.4,2.1,2.2
	c1.2,1.5,2.1,3.2,2.9,4.9c1.1,2.2,1.6,4.6,1.7,7c0,0.3,0,0.6,0,1c-0.3,0-0.6,0-0.9-0.1c-0.9-0.2-1.7-0.4-2.6-0.6
	c-2.5-0.4-4.9-0.1-7.3,0.6c-1.4,0.4-2.8,1-4.1,1.7c-2.5,1.5-4,3.7-4.8,6.5c-0.1,0.1-0.1,0.3-0.1,0.5c0.2,0.1,0.3,0.1,0.4,0.1
	c0.8,0,1.6,0,2.3,0c1,0,1.7-0.4,2.1-1.3c0.1-0.2,0.2-0.5,0.4-0.8c0.6-1.3,1.4-2.4,2.5-3.4c1-0.9,2.1-1.4,3.5-1.3
	c1.5,0.2,3.1,0.4,4.5,1c3.1,1.3,4.8,3.6,5.1,6.9c0,0.4,0.1,0.8,0.1,1.2c0,0.4-0.1,0.8-0.5,1c-2.4,1.5-4,3.8-5.4,6.2
	c-1.3,2.4-2.2,5-2.8,7.6c0,0.1-0.1,0.3-0.1,0.4c0,0.4-0.3,0.5-0.6,0.6c-1.5,0.3-2.7,1-3.8,2c-0.1,0.1-0.2,0.2-0.4,0.3
	c-0.1-3.3-1-6.2-3.1-8.8c0.4-0.1,0.7-0.1,1-0.1c1.6-0.1,3.1-0.6,4.5-1.3c0.4-0.2,0.8-0.5,1.2-0.7c0.6-0.4,0.9-0.9,1-1.6
	c0.3-1.5,0.8-2.9,1.2-4.4c0.1-0.2,0.1-0.4,0.2-0.6c0.3-1.5-0.6-2.8-2.1-3c-1.3-0.2-2.4,0.2-3.3,1c-0.4,0.3-0.6,0.8-0.5,1.3
	c0.5,2-0.2,3.9-0.9,5.7c-0.3,0.7-0.8,1.1-1.5,1c-1.4-0.2-2.9-0.3-4.3-0.5c-2.3-0.4-4.6-0.9-6.9-1.4c-1.3-0.3-2.5-0.8-3.6-1.5
	c-0.6-0.4-1.2-0.9-1.7-1.5c-0.9-1.2-0.9-2.4,0-3.6c0.4-0.5,0.9-0.9,1.4-1.3c1.1-0.9,2.2-1.8,3.2-2.7c1.4-1.3,2.6-2.8,3.2-4.7
	c1-3.1,0.6-6-1.2-8.7c-0.6-0.8-1.3-1.7-2-2.3c-3-2.8-6.5-4.8-10.6-5.6c-1.6-0.3-3.2-0.4-4.8-0.3c-1,0.1-1.6-0.3-2.3-1
	c-0.6-0.7-1.2-1.5-1.4-2.4c-0.1-0.4,0-0.9,0-1.3c0-0.3,0.2-0.6,0.2-0.9c0.2-1.2,1-2,2-2.5c0.5-0.3,1.1-0.6,1.6-0.9
	c0.3-0.2,0.7-0.5,0.9-0.9c0.2-0.3,0.1-0.6-0.3-0.6c-0.9-0.1-1.8-0.2-2.7,0.1c-1.4,0.5-2.8,1.1-4.2,1.6c-0.6,0.3-0.9,0.2-1.2-0.4
	c-0.3-0.6-0.7-1-1.2-1.4c-0.8-0.7-1.1-1.6-0.9-2.6c0.1-0.6,0.2-1.2,0.4-1.8c0.3-0.9,1-1.4,1.9-1.4c0.7,0,1.3,0,2,0.1
	c3.4,0.5,6.8,1,10.2,1.6c1.2,0.2,2.3,0.3,3.5,0.4c1.5,0.2,2.8,0.8,3.7,2c0.9,1.2,1.7,2.3,2.6,3.5c0.3,0.5,0.5,1,0.8,1.5
	c0.4,0.8,0.2,1.6,0.1,2.4c0,0.4-0.4,0.6-0.8,0.7c-0.6,0.2-1.3,0.5-2,0.6c-1.6,0.2-3.1,0.4-4.7,0.6c-0.5,0.1-1,0.2-1.5,0.3
	C133.7,24.9,133.5,25,133.2,25.2z"/>
<path class="st5" d="M57.3,21.8c0.9-0.5,1.8-0.5,2.7-0.2c0.8,0.3,1.3,0.9,1.7,1.6c0.2,0.4,0.5,0.5,0.9,0.5c0.8,0,1.6,0,2.4-0.2
	c1.3-0.5,2.2-1.3,2.6-2.7c0.1-0.2,0.1-0.4,0.1-0.6c0-0.2-0.1-0.4-0.3-0.5c-1-0.3-2-0.4-3.1-0.2c-0.4,0.1-0.5,0.2-0.5,0.6
	c0,0.2,0,0.5,0,0.7c0,0.1,0,0.1-0.1,0.2c-0.2-0.2-0.3-0.3-0.4-0.5c-0.7-0.8-1.5-1.3-2.6-1.1c-1.3,0.2-2.5,0.5-3.8,0.7
	c-0.3,0.1-0.6,0.1-0.9,0.2c-1.5,0.5-3,0.5-4.6,0.1c0.1-0.2,0.1-0.5,0.1-0.7c0.3-0.6,0.5-1.3,0.9-1.8c0.9-1.3,1.8-2.7,2.7-4
	c0.6-0.8,1.5-1.3,2.4-1.7c1.3-0.5,2.7-0.8,4.1-0.9c2.3-0.2,4.6-0.2,6.9-0.1c0.8,0.1,1.6,0.1,2.3,0.1c1.2,0,2.3-0.5,3.2-1.2
	c0.1-0.1,0.3-0.3,0.2-0.4c-0.1-0.1-0.3-0.3-0.4-0.3c-0.5-0.1-1-0.1-1.5-0.1c-0.1,0-0.2,0-0.5-0.1c0.1-0.1,0.2-0.2,0.3-0.2
	c2.4-1.5,4.8-2.9,7.2-4.4C81,3.9,82.1,4.1,83.3,5c0.9,0.6,1.5,1.5,2,2.5c0.7,1.5,1.2,3.1,1.5,4.7c0,0.2,0.1,0.3,0.1,0.5
	c0,1.1-0.3,1.4-1.3,1.7c-0.5,0.2-1.1,0.3-1.6,0.6c-1.3,0.7-2.4,1.5-3.3,2.6c-0.1,0.2-0.3,0.3-0.5,0.5c-0.1-0.3-0.1-0.6-0.2-0.8
	c-0.4-2.7-2-4.3-4.7-4.8c-2.6-0.5-5.1,0.1-7.4,1.3c-0.3,0.2-0.6,0.4-0.8,0.6c-0.2,0.2-0.2,0.5-0.1,0.7c0.1,0.3,0.3,0.3,0.6,0.3
	c1.6,0.1,3.1,0.1,4.7,0.5c0.7,0.2,1.4,0.4,2.1,0.7c1.4,0.7,1.9,1.7,1.6,3.3c-0.2,1-0.6,1.8-1.3,2.4c-1.6,1.5-3.3,2.7-5.1,3.9
	c-1,0.7-2.1,1.3-3.1,1.9c-1.6,1-2,0.9-3.5-0.2c-0.3-0.2-0.6-0.4-0.9-0.6c-0.6-0.5-1.4-0.7-2.2-0.5c-0.6,0.1-0.8,0-0.7-0.6
	c0.2-1.4-0.4-2.6-1.2-3.7C57.7,22.3,57.6,22,57.3,21.8z"/>
<path class="st6" d="M41.2,26c-0.4-0.3-0.8-0.3-1.2-0.2c-0.9,0.2-1.8,0.3-2.8,0.5c-0.7,0.1-1.4,0.3-2.1,0.4c-0.3,0.1-0.7,0-1.1,0
	c0.1-0.4,0.4-0.6,0.6-0.8c1.4-1.3,3-2.2,4.8-2.8c2.5-0.8,5.1-0.9,7.7-0.6c1.3,0.2,2.7,0.5,3.9,1c0.9,0.3,1.7,0.8,2.3,1.5
	c0.8,0.8,0.9,1.8,0.4,2.7c-0.3,0.6-0.7,1-1.4,1.1c-0.2,0.1-0.5,0.1-0.8,0.2c-0.2,0.5-0.2,1,0,1.4c0.2,0.6,0.7,0.8,1.3,0.8
	c1,0.1,1.9-0.3,2.7-0.9s1.4-0.6,2.2-0.1c0.8,0.5,1.6,1.1,2.3,1.7c0.5,0.4,0.5,0.6,0.2,1.2c-0.4,0.6-0.8,1.3-1.1,2
	c-0.5,0.9-0.8,1.9-0.9,2.9c-0.1,0.5-0.2,0.8-0.7,0.8c-0.6,0.1-1.2,0.3-1.8,0.3c-0.3,0.1-0.6-0.1-0.8-0.5c-1.7-4-4.9-6.1-9.2-6.2
	c-1.4-0.1-2.8,0.1-4.2,0.4c-1.2,0.3-2.5,0.5-3.8,0.5c-0.5,0-1-0.2-1.4-0.3c-0.5-0.2-0.8-0.6-0.8-1.1c0.1-1,0.2-1.9,0.4-2.8
	c0.1-0.5,0.6-0.8,1.1-1c0.7-0.2,1.4-0.4,2.1-0.7c0.5-0.2,1-0.5,1.5-0.9C40.9,26.4,41,26.2,41.2,26z"/>
<path class="st7" d="M114.5,11.6c-0.3,0.6-0.6,1.1-0.9,1.6c-0.2-0.1-0.3-0.1-0.4-0.2c-2.9-1.3-5.8-2.1-8.9-2.5
	c-2.1-0.2-4.3-0.1-6.4,0.4c-2.1,0.5-4.3,1-6.4,1.4c-0.1,0-0.3,0-0.5,0.1c0-0.2,0-0.5,0-0.6c-0.1-1.2-0.2-2.4-0.3-3.5
	c-0.2-1.3-0.2-1.4,0.8-2.3c0.6-0.5,1.3-1,2-1.5c0.4-0.3,0.8-0.3,1.2-0.2c1.7,0.6,3.5,1.2,5.2,1.7c1.4,0.5,2.9,0.9,4.4,1.3
	c2.7,0.8,5.3,1.7,7.8,2.8C112.8,10.6,113.6,11.1,114.5,11.6z"/>
<path class="st8" d="M453.4,98.2c-0.1,0.2-0.2,0.4-0.3,0.4c-0.2,0-0.5,0-0.7,0c-66.4,0-132.8,0-199.2,0c-0.2,0-0.5,0-0.7,0
	c-0.1,0-0.2-0.2-0.3-0.4C319.2,98.2,386.2,98.2,453.4,98.2z"/>
<path class="st8" d="M453.3,14.3c-0.1,0.1-0.2,0.3-0.3,0.3c-0.2,0-0.5,0-0.7,0c-66.4,0-132.8,0-199.2,0c-0.2,0-0.5,0-0.8,0
	c-0.1,0-0.2-0.2-0.2-0.2c0-0.1,0-0.1,0.1-0.1c0,0,0,0,0.1,0c0.3,0,0.6-0.1,0.8-0.1c66.7,0,133.4,0,200.1,0
	C453.2,14.2,453.3,14.2,453.3,14.3z"/>
<g>
	<path class="st9" d="M231.1,62.5c0.1-0.6,0.1-1,0.1-1.4c0-3.5,0.1-7.1,0.1-10.6c0-1.1-0.2-1.3-1.2-1.5c-0.4-0.1-0.9-0.2-1.5-0.3
		c0-0.4,0-0.8-0.1-1.3c0.4,0,0.8-0.1,1.1-0.1c1.7,0,3.5,0,5.2,0c0.3,0,0.6,0,0.8,0.1c0.1,0.1,0.3,0.4,0.3,0.5c0,0.2-0.2,0.5-0.3,0.7
		c0,0.1-0.2,0.1-0.3,0.1c-1.7,0.5-1.7,0.5-1.8,2.4c-0.1,5.6-0.1,11.3-0.2,16.9c0,0.5,0.2,1.1-0.4,1.3c-0.7,0.2-0.9-0.3-1.3-0.7
		c-1.3-1.5-2.5-3.2-4-4.6c-4.2-3.9-8.5-7.7-12.7-11.6c-0.1-0.1-0.3-0.3-0.6-0.5c0,0.3-0.1,0.5-0.1,0.7c0,4.2-0.1,8.4-0.1,12.5
		c0,0.4,0,0.8,0.1,1.2c0.1,0.6,0.5,1,1.2,1.2c0.4,0.1,0.8,0.1,1.3,0.2c1.1,0.2,1.2,0.4,0.8,1.6c-2.5,0-5.1,0-7.7,0
		c-0.2-1.2-0.2-1.3,0.7-1.5c1.1-0.2,1.1-0.3,1.2-1.4c0-0.7,0-1.3,0-2c0-4.3,0-8.7,0.1-13c0-1.1-0.3-2-1.3-2.6
		c-0.1-0.1-0.3-0.1-0.3-0.3c-0.1-0.3-0.2-0.6-0.2-0.8c0-0.2,0.4-0.4,0.6-0.4c1.1,0,2.2,0,3.3,0c0.3,0,0.7,0.3,1,0.5
		c0.4,0.3,0.8,0.8,1.3,1.2c4.6,4.2,9.1,8.4,13.7,12.6C230.3,61.9,230.6,62.1,231.1,62.5z"/>
	<path d="M326.8,65.7c-0.4-0.4-0.8-0.7-1.1-1c-1.3-1.3-1.6-2.8-1.1-4.6c0.7-2.4,3.4-4.7,7.2-3.8c0.9,0.2,1.7,0.3,2.6,0.2
		c1,0,2.1-0.1,3.1-0.1c0.8,0,1,0.3,1,1c0,0.7-0.2,1-1,1c-0.6,0-1.3,0-2.2,0c0.1,0.5,0.2,0.9,0.4,1.2c0.9,2.8,0,4.8-2.8,5.8
		c-1.1,0.4-2.2,0.6-3.3,0.9c-0.4,0.1-0.8,0.3-1.3,0.5c0.3,0.8,0.9,0.8,1.5,0.9c1.6,0.1,3.3,0.1,5,0.2c0.7,0,1.4,0.2,2,0.5
		c1.6,0.7,2.1,2.5,1.2,4c-0.4,0.6-0.9,1.3-1.6,1.7c-2.7,2-5.9,2.5-9.1,2.1c-0.7-0.1-1.5-0.5-2.2-0.9c-1.6-1-1.9-3.2-0.1-4.5
		c0.5-0.3,1-0.7,1.6-1.1c-0.5-0.3-1-0.6-1.4-0.9c-1-0.7-1-1.6,0-2.3C325.5,66.3,326.1,66.1,326.8,65.7z M329.5,58
		c-1.2,0-2.1,0.7-2.3,2c-0.3,1.9,1,3.9,2.8,4.5c1.4,0.4,2.9-0.3,3.3-1.7C333.7,60.5,331.7,58,329.5,58z M331,70.4
		c-1.3,0-2.6,0.2-3.7,1.1c-0.5,0.4-0.9,0.8-0.8,1.6c0.1,0.7,0.7,0.9,1.3,1.1c1.9,0.5,3.8,0.5,5.7,0c0.5-0.1,0.9-0.4,1.4-0.6
		c0.5-0.3,0.9-0.8,0.8-1.5c-0.1-0.7-0.6-0.9-1.2-1C333.3,70.6,332.2,70.5,331,70.4z"/>
	<path d="M283.4,30.3c-1.8,0-3.5,0-5.3,0c-0.4,0-0.7-0.1-0.7-0.6c0-0.4,0-0.8,0.4-0.9c1.2-0.2,1.3-1.1,1.3-2.1c0-1.2,0.1-2.5,0-3.7
		c0-0.8-0.1-1.6-0.3-2.3c-0.2-0.8-0.9-1.2-1.7-1.2c-1,0-1.9,0.3-2.7,1c-0.2,0.2-0.4,0.7-0.4,1.1c0,2,0,4,0,6c0,0.7,0.3,1,1,1.2
		c0.9,0.3,0.9,0.3,0.6,1.5c-1.9,0-3.9,0-5.9,0c-0.3-1-0.3-1,0.5-1.6c0.4-0.3,0.7-0.7,0.7-1.2c0-2,0-4.1,0-6.1c0-0.5-0.3-0.8-0.7-1.1
		c-0.8-0.6-0.8-1,0-1.6c0.7-0.6,1.5-1.1,2.3-1.7c0.3-0.2,0.7-0.2,1.2-0.4c0,0.9,0.1,1.6,0.2,2.6c0.4-0.3,0.7-0.5,1-0.7
		c1-0.8,2.2-1.2,3.5-1.2c1.2,0,2.2,0.4,2.8,1.4c0.1,0.2,0.2,0.4,0.4,0.6c0.3-0.3,0.6-0.5,0.9-0.8c0.7-0.6,1.5-1.1,2.5-1.3
		c2.4-0.4,4.4,1,4.8,3.5c0.1,0.5,0.1,1.1,0.1,1.6c0,1.6,0,3.2,0,4.8c0,0.8,0.2,1.4,1.1,1.6c0.1,0,0.2,0.1,0.3,0.1
		c0.4,0.2,0.4,0.5,0.3,0.9c0,0.4-0.3,0.5-0.6,0.5c-1.5,0-3.1,0-4.6,0c-0.2,0-0.6-0.2-0.7-0.4c-0.2-0.4-0.1-0.9,0.3-1
		c1.1-0.3,1.1-1.1,1-2c0-1.5,0-3,0-4.5c0-1-0.1-2-1.1-2.4c-1.1-0.5-2.3-0.4-3.4,0.3c-0.4,0.3-0.6,0.7-0.6,1.2c0,2.1,0,4.2,0,6.3
		c0,0.5,0.2,0.8,0.7,0.9C283.7,29,283.7,29,283.4,30.3z"/>
	<path class="st9" d="M415.9,64.1c0,1.6-0.1,3.3-1,4.7c-0.2,0.3-0.7,0.7-1.1,0.8c-4.5,0.7-9,0.6-13-2c-2.8-1.8-4.4-4.4-4.7-7.7
		c-0.4-4,0.9-7.5,4-10.1c3.5-2.9,7.5-3.8,11.9-2.7c1.1,0.2,2.2,0.4,3.3,0.5c0.5,0,0.9,0.2,0.9,0.8c0,1.3-0.1,2.7-0.2,4
		c0,0.4-0.2,0.8-0.7,0.8c-0.5,0-0.7-0.3-0.8-0.7c0-0.2-0.1-0.4-0.1-0.6c-0.4-2-1.8-3-3.7-3.4c-5.1-1-9.5,2.1-10.4,7.2
		c-0.4,2.3-0.3,4.6,0.5,6.8c2.1,5.6,7.5,6.4,11.5,4.5c1.1-0.5,1.8-1.3,2.3-2.4C414.8,64.3,415,63.8,415.9,64.1z"/>
	<path class="st9" d="M247.7,24.9c0.2,1.6-0.1,3-0.7,4.4c-0.2,0.6-0.7,1-1.4,1.1c-3.9,0.5-7.7,0.5-11.3-1.1c-3.3-1.5-5.5-4-6.2-7.7
		c-0.7-4.4,0.6-8.2,4.1-11.1c3.4-2.8,7.4-3.7,11.8-2.5c1.1,0.3,2.2,0.4,3.3,0.5c0.5,0,0.9,0.2,0.9,0.8c0,1.3-0.1,2.7-0.2,4
		c0,0.4-0.2,0.8-0.7,0.8c-0.5,0-0.7-0.3-0.8-0.7c0-0.2-0.1-0.4-0.1-0.5c-0.4-2-1.8-3.1-3.8-3.4c-5.4-1-9.9,2.5-10.4,8
		c-0.2,2-0.1,3.9,0.5,5.8c1,2.7,2.7,4.7,5.7,5.4c1.7,0.4,3.4,0.3,5.1-0.3c1.4-0.5,2.6-1.4,3.2-2.8C246.6,25.1,246.9,24.6,247.7,24.9
		z"/>
	<path class="st9" d="M290.6,103c0.2-0.6,0.4-1,0.6-1.5c1.6-3.9,3.2-7.7,4.8-11.6c0.1-0.3,0.2-0.6,0.3-0.9c0.2-0.9,0.1-1.2-0.7-1.6
		c-0.3-0.1-0.6-0.2-0.8-0.4c-0.2-0.2-0.3-0.5-0.3-0.8c0-0.1,0.4-0.4,0.6-0.4c1.5,0,3.1,0,4.7,0c0.6,0,0.9,0.5,0.6,1.1
		c0,0.1-0.1,0.2-0.2,0.2c-1,0.6-1.4,1.8-1.8,2.8c-2.4,5.8-4.8,11.5-7.3,17.3c-0.2,0.5-0.2,1.2-1,1.1c-0.6,0-0.7-0.6-0.9-1.1
		c-2.9-5.9-5.7-11.8-8.6-17.7c-0.4-0.9-0.9-1.8-1.8-2.2c-0.4-0.2-0.6-0.6-0.4-1.1c0.1-0.5,0.6-0.4,1-0.4c1.7,0,3.5,0,5.2,0
		c0.4,0,0.9,0,1,0.6c0.1,0.5-0.2,0.7-0.7,1c-1.1,0.5-1.1,0.5-0.7,1.6c2,4.5,4.1,9,6.2,13.5C290.3,102.6,290.4,102.7,290.6,103z"/>
	<path d="M345.1,18.5c0.3-0.1,0.5-0.2,0.7-0.4c1.3-1,2.9-1.1,4.4-0.9c1.9,0.2,3.3,1.8,3.3,3.8c0,2,0,4,0,6c0,0.4,0,0.8,0,1.3
		c0.5,0.1,0.9,0.3,1.3,0.4c0.4,0.1,0.6,0.5,0.5,0.9c0,0.5-0.4,0.6-0.8,0.6c-1.5,0-3.1,0-4.6,0c-0.3,0-0.6-0.1-0.7-0.4
		c-0.1-0.4-0.1-0.9,0.3-1c1.2-0.3,1.1-1.2,1.1-2.2c0-1.4,0-2.9,0-4.3c0-0.4,0-0.9-0.2-1.4c-0.3-1.2-1.2-1.8-2.5-1.8
		c-0.4,0-0.9,0-1.4,0.1c-1.4,0.4-1.6,0.7-1.6,2.2c0,1.9,0,3.7,0,5.6c0,1.1,0,1.1,1.1,1.5c1,0.3,1,0.4,0.7,1.6
		c-0.2,0-0.4,0.1-0.6,0.1c-1.5,0-3.1,0-4.6,0c-0.3,0-0.7-0.1-0.9-0.3c-0.2-0.4-0.1-0.9,0.4-1.1c0.9-0.4,1.1-1.2,1.1-2.2
		c0-5.1,0.1-10.2,0.1-15.4c0-0.7-0.1-1.2-0.7-1.7c-0.7-0.6-0.7-1,0-1.5c0.7-0.5,1.5-0.9,2.2-1.3c0.4-0.2,0.9-0.2,1.5-0.4
		c-0.1,1.5-0.1,2.8-0.2,4.1c0,1.3,0,2.7-0.1,4.1C345,15.8,345.1,17.1,345.1,18.5z"/>
	<path d="M299,16.8c0.1,0.4,0.3,0.9,0.4,1.4c0.3-0.1,0.6-0.3,0.9-0.4c1.5-0.8,3.2-0.9,4.9-0.4c2.5,0.7,4.1,2.9,4.2,5.7
		c0.2,5.8-4.2,8.4-8.9,7.7c-0.3,0-0.7-0.1-1.1-0.2c0,0.3-0.1,0.6-0.1,0.8c0,1.1,0,2.3,0,3.5c0,1,0.2,1.2,1.2,1.3c0.2,0,0.4,0,0.6,0
		c0.4,0,0.6,0.3,0.6,0.7c0,0.4-0.2,0.6-0.6,0.7c-0.2,0-0.5,0-0.7,0c-1.5,0-2.9,0-4.4,0c-0.2,0-0.4,0-0.6,0c-0.2-0.1-0.4-0.2-0.5-0.4
		c0-0.2,0.1-0.5,0.2-0.7c0.1-0.1,0.3-0.2,0.5-0.3c0.6-0.2,0.7-0.6,0.7-1.2c0-1.7,0.1-3.3,0.1-5c0-2.7,0-5.4,0-8.1
		c0-0.8-0.2-1.4-1-1.8c-1-0.6-0.9-0.9,0-1.6c0.6-0.4,1.3-0.9,2-1.3C297.9,16.8,298.4,16.5,299,16.8z M299.3,23.6L299.3,23.6
		c0,1,0,2.1,0,3.1c0,0.5,0.1,1,0.6,1.4c1.8,1.4,5.2,0.8,6.3-1.2c1.3-2.6,0.2-6.1-2.4-7.4c-1.1-0.5-2.4-0.6-3.6-0.2
		c-0.6,0.2-0.9,0.6-0.9,1.2C299.3,21.6,299.3,22.6,299.3,23.6z"/>
	<path d="M377.7,16.7c0,0.9,0.1,1.6,0.2,2.4c0.3-0.1,0.5-0.2,0.8-0.3c0.7-0.4,1.4-0.8,2.1-1.1c0.8-0.4,1.7-0.4,2.5-0.2
		c1.7,0.4,2.5,1.4,2.6,3.1c0,2.1,0,4.2,0,6.3c0,0.3,0,0.5,0,0.8c0,0.6,0.2,1,0.8,1c0.2,0,0.5,0.1,0.6,0.2c0.1,0.2,0.3,0.5,0.3,0.8
		c0,0.1-0.2,0.4-0.4,0.4c-1.9,0-3.9,0-5.8,0c-0.3-0.7-0.2-1.2,0.5-1.4c0.7-0.2,0.9-0.7,0.9-1.4c0-1.9,0-3.7,0-5.6
		c0-1.3-0.6-1.9-1.9-1.9c-0.4,0-0.9,0-1.4,0.1c-1.6,0.3-1.9,0.6-1.9,2.3c0,1.6,0,3.2,0,4.8c0,0.9,0.2,1.5,1.2,1.8
		c0.7,0.2,0.7,0.4,0.4,1.4c-2,0-4.1,0-6.2,0c-0.4-1-0.4-1.2,0.6-1.6c0.6-0.2,0.9-0.6,0.9-1.2c0-2.1,0-4.3,0-6.5
		c0-0.6-0.3-0.8-0.8-1.1c-0.9-0.5-0.9-1-0.1-1.6c0.9-0.6,1.9-1,2.8-1.5C376.9,16.7,377.3,16.7,377.7,16.7z"/>
	<path d="M262.6,67.9c-0.4,0.2-0.7,0.4-1,0.6c-1.2,0.7-2.5,1.1-4,1.1c-1.7,0-2.9-0.9-3.2-2.6c-0.2-1.2-0.1-2.4-0.1-3.7
		s0.1-2.5,0.2-3.7c0-0.7-0.1-1.1-0.8-1.4c-0.4-0.1-0.7-0.3-0.7-0.8c0-0.5,0.5-0.6,0.8-0.6c1.1-0.2,2.3-0.6,3.6-0.2
		c0,0.5,0,1.1,0,1.6c-0.1,2.3-0.2,4.5-0.2,6.8c0,1.7,1.2,2.7,2.9,2.4c0.3,0,0.7-0.1,1-0.2c1.8-0.6,1.9-0.7,2-2.6
		c0.1-1.5,0.1-3,0.1-4.5c0-0.8-0.2-1.5-1.1-1.7c-0.1,0-0.3-0.1-0.4-0.2c-0.5-0.4-0.5-1,0.1-1.2c1.3-0.3,2.7-0.6,4.2-0.3
		c0,0.5,0,1,0,1.5c0,2.7-0.1,5.4-0.2,8.1c0,1,0.1,1,1.1,1.1c0.1,0,0.2,0,0.2,0c0.2,0.1,0.5,0.3,0.5,0.4c0,0.2-0.2,0.5-0.4,0.6
		c-1,0.4-2,0.8-3,1.1c-0.7,0.2-1,0-1.3-0.7C262.9,68.5,262.8,68.3,262.6,67.9z"/>
	<path d="M370,62.3c0-0.8,0-1.8,0-2.7c0-0.8-0.6-1.3-1.5-1.4c-1.1-0.1-1.6,0.1-2,1c-0.5,1-1.7,1.6-2.7,1.3c-0.6-0.1-0.8-0.4-0.6-1
		c0.1-0.3,0.3-0.7,0.5-1c1.5-1.8,5.1-2.8,7.3-1.9c1,0.3,1.6,1.1,1.8,2c0.1,0.5,0.2,1.2,0.2,1.7c0,1.9,0,3.8,0,5.7
		c0,1.2,0,1.2,1.3,1.3c0.1,0,0.3,0,0.4,0c0.2,1,0,1.3-1.2,1.9c-1.5,0.6-2.6,0.3-3.5-1c-0.3,0.1-0.6,0.3-0.9,0.5
		c-1.2,0.7-2.5,1-3.9,0.9c-1.4-0.1-2.4-0.8-2.8-2c-0.4-1.3-0.1-2.7,1-3.5c0.5-0.3,1.1-0.7,1.7-0.8C366.7,62.9,368.3,62.7,370,62.3z
		 M370,64.2c-1.9-0.1-3.1,0.1-3.9,0.8c-0.5,0.4-0.8,1-0.5,1.7c0.2,0.6,0.7,1,1.4,1c1,0,1.8-0.4,2.7-0.9c0.1-0.1,0.3-0.4,0.3-0.6
		C370,65.6,370,65,370,64.2z"/>
	<path d="M426.7,68.3c-0.3,0.2-0.6,0.3-0.9,0.5c-1.2,0.7-2.5,1-3.9,0.9c-1.4-0.1-2.4-0.8-2.8-2c-0.4-1.3-0.1-2.7,1-3.5
		c0.5-0.3,1.1-0.6,1.7-0.8c0.7-0.2,1.5-0.4,2.3-0.5s1.6-0.2,2.5-0.3c0.1-1,0.2-2.1-0.1-3.1c-0.2-0.8-0.8-1.1-1.7-1.1
		c-0.7,0-1.4,0.1-1.7,1c-0.4,1-1.6,1.6-2.7,1.3c-0.6-0.1-0.9-0.6-0.6-1.2c0.3-0.5,0.7-1.1,1.1-1.5c1.6-1.2,3.5-1.8,5.5-1.5
		c2.1,0.2,3.1,1.3,3.2,3.5c0,1.9,0,3.9,0,5.9c0,0.3,0,0.6,0,0.9c0,0.6,0.3,0.8,0.9,0.8c0.4,0,0.9-0.2,1.1,0.4
		c0.1,0.6-0.3,0.9-0.8,1.2c-0.4,0.2-0.8,0.4-1.2,0.5C428.3,69.9,427.5,69.6,426.7,68.3z M426.8,64.3c-1.3-0.2-2.4-0.1-3.4,0.4
		c-0.9,0.5-1.3,1.3-1,2.1c0.3,0.7,1.1,1.1,2.1,0.8c0.6-0.1,1.2-0.4,1.8-0.7c0.2-0.1,0.4-0.4,0.5-0.7C426.8,65.6,426.8,65,426.8,64.3
		z"/>
	<path class="st9" d="M345.1,94.7c0.7,0.1,1.4,0.1,2.1,0.3c3.2,0.8,5.3,3.4,5.1,6.6c-0.1,3.5-2.3,6-5.8,6.6
		c-1.2,0.2-2.4,0.2-3.7-0.1c-3.3-0.9-5.1-4-4.6-7.4C338.9,97.5,341.9,94.6,345.1,94.7z M349.1,102.5c0-2.3-0.6-4.3-2.5-5.6
		c-2-1.3-4.3-0.4-4.9,1.9c-0.5,1.9-0.3,3.9,0.6,5.7c0.2,0.5,0.6,1,1.1,1.4c1.9,1.6,4.7,0.8,5.4-1.6C349,103.7,349.1,103,349.1,102.5
		z"/>
	<path d="M314.2,69.7c-4.3,0-7.2-3-6.9-6.9c0.3-4.1,3.8-7.1,7.7-6.6c0.4,0,0.9,0.1,1.4,0.2c3.3,0.9,5.3,3.5,5,6.8
		c-0.2,3.6-2.6,6.1-6.2,6.4C314.8,69.7,314.4,69.7,314.2,69.7z M318.1,63.9c0-2.3-0.6-4.2-2.4-5.5c-2-1.4-4.4-0.5-5,1.9
		c-0.4,1.9-0.2,3.8,0.6,5.6c0.2,0.4,0.5,0.9,0.9,1.2c1.9,1.9,4.9,1,5.6-1.5C318,65.1,318,64.4,318.1,63.9z"/>
	<path d="M289.1,69.7c-4.3,0-7.2-2.9-7-6.8c0.2-4.1,3.8-7.2,7.8-6.6c0.4,0,0.8,0.1,1.3,0.2c3.3,0.8,5.3,3.6,5.1,6.9
		c-0.3,3.6-2.7,6-6.3,6.4C289.6,69.7,289.3,69.7,289.1,69.7z M285.3,62.2L285.3,62.2c0,0.4,0,0.8,0.1,1.2c0.2,1.4,0.5,2.7,1.6,3.8
		c1.9,1.9,5,1.1,5.7-1.4c0.4-1.4,0.4-2.8,0-4.2c-0.4-1.4-1.2-2.6-2.5-3.3c-1.8-0.9-3.9-0.1-4.5,1.9
		C285.5,60.7,285.5,61.4,285.3,62.2z"/>
	<path d="M258.8,30.6c-3.8,0-6.5-2.2-6.9-5.4c-0.6-4.5,3.2-9.4,8.9-7.9c3.4,0.9,5.4,3.6,5.1,7.1c-0.2,3.3-2.8,5.8-6.2,6.1
		C259.3,30.6,258.9,30.6,258.8,30.6z M262.6,24.6C262.6,24.6,262.6,24.6,262.6,24.6c-0.1-0.3,0-0.5-0.1-0.8
		c-0.2-1.8-0.9-3.5-2.5-4.5c-2-1.3-4.4-0.3-4.9,2c-0.4,1.7-0.2,3.4,0.4,5c0.3,0.7,0.8,1.5,1.4,2c1.9,1.6,4.7,0.7,5.3-1.7
		C262.5,25.9,262.5,25.2,262.6,24.6z"/>
	<path class="st9" d="M384.6,106.8c-0.5,0.3-0.8,0.5-1.2,0.6c-1.3,0.7-2.7,1-4.1,0.7c-1.3-0.2-2.1-1-2.4-2.3c-0.3-1.3,0-2.5,1.1-3.3
		c0.5-0.4,1.2-0.7,1.9-0.8c1.4-0.3,2.9-0.6,4.5-0.8c0-0.8,0.1-1.7,0-2.6c-0.1-0.9-0.7-1.4-1.7-1.5c-0.9-0.1-1.4,0.2-1.8,1.1
		c-0.5,1-1.8,1.6-2.9,1.2c-0.5-0.2-0.7-0.6-0.4-1c0.3-0.6,0.7-1.2,1.2-1.6c1.8-1.4,3.8-1.9,6.1-1.5c1.6,0.2,2.5,1.4,2.6,3.1
		c0.1,1.5,0,3,0,4.5c0,0.8,0,1.6,0,2.4c0,0.8,0.1,0.9,0.9,1c0.4,0,0.9-0.1,1,0.4c0.1,0.5-0.2,0.9-0.6,1.1c-0.6,0.3-1.2,0.6-1.9,0.7
		C385.9,108.3,385,108.2,384.6,106.8z M384.5,102.8c-1-0.2-1.8-0.1-2.6,0.2c-0.5,0.2-1.1,0.5-1.5,0.9c-0.7,0.8-0.3,2.1,0.7,2.3
		c1.1,0.2,2.2-0.2,3.1-0.8c0.7-0.4,0.2-1.2,0.3-1.9C384.6,103.4,384.5,103.1,384.5,102.8z"/>
	<path d="M430.8,23.7c-0.1,1.4,0.3,2.6,1.2,3.6c0.6,0.7,1.4,0.9,2.3,0.9c1.1,0,2.2-0.2,3.1-1c0.1-0.1,0.3-0.2,0.5-0.3
		c0.4-0.2,0.7-0.2,1,0.1c0.2,0.3,0.1,0.7-0.1,1c-1.1,1.2-2.3,2.2-4,2.4c-3.2,0.4-6.6-0.6-7.2-5.1c-0.2-1.8,0-3.6,0.8-5.2
		c1.4-2.6,4.2-3.7,7-2.9c1.2,0.4,2,1.1,2.7,2.2c0.2,0.4,0.5,0.8,0.9,1c0.4,0.2,0.5,0.5,0.4,0.8c0,0.4-0.3,0.5-0.7,0.6
		c-2.2,0.4-4.4,0.9-6.7,1.3C431.7,23.4,431.3,23.5,430.8,23.7z M435.3,21.2c-0.3-1.7-1.4-2.7-2.5-2.5c-1.3,0.2-2.3,1.8-1.9,3.5
		C432.4,21.9,433.8,21.5,435.3,21.2z"/>
	<path d="M448.9,62.9c0,0.4,0,0.8,0.1,1.1c0.6,3.2,3.6,4.4,6.3,2.6c0.3-0.2,0.5-0.5,0.9-0.6c0.3-0.1,0.7,0,0.9,0.1
		c0.3,0.2,0.1,0.6,0,0.9c-1.9,2.8-6.7,3.5-9.2,1.3c-0.6-0.5-1.1-1.2-1.4-1.9c-1-2.5-1-5.1,0.4-7.5c1.4-2.4,4.2-3.5,6.9-2.6
		c1.1,0.4,2,1.1,2.6,2.1c0.3,0.4,0.4,1,1.1,1.2c0.1,0,0.3,0.5,0.2,0.8c0,0.2-0.3,0.4-0.5,0.5c-1.1,0.2-2.2,0.4-3.4,0.7
		c-1.5,0.3-2.9,0.6-4.4,0.9C449.2,62.8,449.1,62.8,448.9,62.9z M453.4,60.3c-0.2-1.7-1.3-2.7-2.5-2.5c-1.3,0.3-2.3,2-1.8,3.5
		C450.5,61,451.9,60.7,453.4,60.3z"/>
	<path d="M241.7,62.8c0,0.5,0,0.8,0.1,1.2c0.6,3.2,3.6,4.4,6.3,2.6c0.3-0.2,0.5-0.5,0.9-0.6c0.3-0.1,0.7,0,0.9,0.1
		c0.3,0.2,0.2,0.6,0,0.9c-1.1,1.3-2.5,2.3-4.3,2.5c-0.8,0.1-1.7,0-2.6-0.1c-2.1-0.4-3.4-1.7-4-3.8c-0.6-2.2-0.5-4.3,0.5-6.4
		c1.3-2.6,4.1-3.8,7-2.9c1.2,0.3,2.1,1.1,2.7,2.2c0.3,0.4,0.4,1,1.1,1.2c0.1,0,0.3,0.5,0.2,0.8c0,0.2-0.4,0.5-0.6,0.5
		c-1.8,0.4-3.7,0.7-5.6,1.1C243.5,62.5,242.7,62.6,241.7,62.8z M246.2,60.3c-0.2-1.6-1.3-2.7-2.4-2.5c-1.3,0.3-2.3,1.9-1.8,3.5
		C243.4,61,244.8,60.6,246.2,60.3z"/>
	<path d="M361.4,23.6c-0.2,2,0.7,3.9,2.2,4.4c1.4,0.4,2.7,0.2,4-0.5c0.2-0.1,0.5-0.4,0.7-0.5c0.3-0.2,0.7-0.2,1.1,0.1
		c0.3,0.3,0.1,0.6-0.1,1c-1.9,2.7-6.6,3.4-9.2,1.3c-0.7-0.6-1.3-1.3-1.6-2.2c-0.8-2.3-0.8-4.7,0.3-6.9c1.3-2.6,4.2-3.8,7-2.9
		c1.2,0.3,2.1,1.1,2.7,2.2c0.3,0.4,0.4,1,1.1,1.2c0.1,0,0.3,0.5,0.2,0.7c0,0.2-0.3,0.5-0.5,0.6c-1.1,0.3-2.2,0.4-3.4,0.7
		C364.6,23,363,23.3,361.4,23.6z M361.3,22.2c1.6-0.3,3-0.7,4.5-1c-0.1-1-0.2-1.2-0.6-1.6c-1-1.1-2.3-1.1-3.2,0
		C361.4,20.3,361.2,21.1,361.3,22.2z"/>
	<path d="M337.4,21.9c-2.9,0.6-5.8,1.2-8.7,1.8c0,1.7,0.4,3.2,1.8,4.1c1.5,0.9,3,0.6,4.5-0.2c0.2-0.1,0.4-0.3,0.6-0.5
		c0.4-0.3,0.8-0.4,1.2,0c0.3,0.4,0.1,0.8-0.2,1.1c-1.8,1.9-3.9,2.8-6.5,2.3c-2.5-0.5-4.1-2.1-4.5-4.8c-0.3-1.8-0.1-3.6,0.7-5.4
		c1.3-2.7,4.2-3.9,7-3c1.2,0.3,2.1,1.1,2.7,2.2c0.3,0.4,0.5,0.9,1.1,1.2C337.7,20.8,337.5,21.4,337.4,21.9z M328.8,22.2
		c1.5-0.3,3-0.6,4.4-1c0-1.2-0.6-2.1-1.6-2.5c-0.8-0.2-1.7,0.1-2.3,1.1C328.8,20.5,328.6,21.3,328.8,22.2z"/>
	<path d="M305.2,69.4c-0.2,0-0.4,0.1-0.7,0.1c-1.6,0-3.2,0-4.9,0c-0.4,0-0.8,0.1-0.9-0.4c-0.1-0.5,0.1-0.9,0.6-1
		c0.9-0.2,1-0.8,1.1-1.7c0.1-4.9,0.2-9.8,0.4-14.8c0-1.1-0.2-2.1-1.2-2.7c-0.7-0.4-0.7-0.9,0-1.3c1.1-0.6,2.2-1.2,3.4-1.7
		c0.2-0.1,0.4,0,0.8,0c0,0.5,0,0.9,0,1.3c0,0.6-0.2,1.2-0.2,1.9c0,5.6-0.1,11.3-0.2,16.9c0,0.3,0,0.5,0,0.8c0,1,0,1,1,1.4
		C305.4,68.3,305.4,68.3,305.2,69.4z"/>
	<path d="M382.1,45.7c0,0.3,0,0.7,0,1c0,1.1-0.2,2.2-0.2,3.3c-0.1,5.2-0.1,10.5-0.2,15.7c0,0.3,0,0.5,0,0.8c0,1,0,1,1,1.3
		c0.9,0.3,0.9,0.3,0.8,1.4c-0.2,0-0.4,0.1-0.6,0.1c-1.6,0-3.2,0-4.9,0c-0.4,0-0.8,0.1-1-0.4c-0.1-0.5,0.1-0.9,0.6-1.1
		c0.8-0.2,1-0.7,1-1.5c0.1-5,0.2-9.9,0.4-14.9c0-1.2-0.2-2.2-1.3-2.8c-0.6-0.3-0.6-0.8-0.1-1.1c1.3-0.7,2.6-1.3,3.9-2
		C381.6,45.6,381.8,45.7,382.1,45.7z"/>
	<path d="M399.2,20.7c-0.5,0.2-0.9,0.1-1.2-0.3c-0.2-0.2-0.3-0.5-0.5-0.8c-0.7-0.9-1.5-1.1-2.6-0.8c-0.5,0.1-0.9,0.4-1,1
		c0,0.6,0.1,1.1,0.7,1.4c1.2,0.5,2.4,1.1,3.5,1.7c0.9,0.4,1.6,1,1.9,2c0.5,1.4,0.2,2.7-0.8,3.8c-0.6,0.6-1.4,1.1-2.3,1.5
		c-1.7,0.6-3.4,0.6-5.2,0.1c-0.9-0.2-1-0.4-1.1-1.4c0-0.7,0-1.4,0-2.1c0-0.3,0-0.7,0.4-0.8c0.4-0.1,0.7,0.1,1,0.4
		c0.3,0.5,0.6,1,0.9,1.5c0.7,0.9,1.6,1.3,2.7,1c0.8-0.2,1.3-0.7,1.4-1.4c0.1-0.8-0.2-1.4-1-1.8c-1.1-0.6-2.3-1.1-3.4-1.8
		c-1.2-0.7-1.7-1.8-1.6-3.2c0.1-1.2,0.6-2.1,1.7-2.6c1.6-0.8,3.3-0.9,5.1-0.7c0.6,0.1,0.9,0.4,1,1C399.3,19.2,399.4,19.8,399.2,20.7
		z"/>
	<path class="st9" d="M312,102.4c0-4.2,3.8-8.4,9.2-7.6c0.8,0.1,1.6,0.4,2.2,1c0.4,0.4,0.6,1,0.4,1.6c-0.2,0.5-0.7,0.8-1.4,0.9
		c-0.7,0-1.2-0.3-1.7-0.7c-0.8-0.6-1.6-0.9-2.7-0.7c-1.2,0.1-2,0.7-2.4,1.8c-0.7,1.9-0.6,3.8,0.3,5.5c1,1.8,3.1,2.4,5.2,1.7
		c0.5-0.2,1-0.5,1.5-0.7c0.3-0.1,0.7-0.2,0.9,0.1c0.3,0.4,0.1,0.7-0.2,1c-1.4,1.2-3,1.8-4.8,1.7c-1,0-2-0.2-2.9-0.5
		C313.2,106.9,311.9,105,312,102.4z"/>
	<path d="M354.9,69.8c-0.6-0.1-1.2-0.1-1.8-0.2c-3.6-0.8-5.4-3.6-4.6-7.3c0.9-4.2,5.3-7,9.5-5.9c0.6,0.1,1.3,0.6,1.9,1
		c0.5,0.4,0.6,1,0.4,1.6c-0.2,0.6-0.8,0.9-1.4,0.8c-0.6-0.1-1.2-0.3-1.7-0.7c-0.7-0.5-1.5-0.7-2.4-0.7c-1.3,0-2.2,0.7-2.7,1.8
		c-0.7,1.8-0.6,3.7,0.3,5.4c1,1.9,3.3,2.6,5.5,1.7c0.5-0.2,0.9-0.4,1.4-0.7c0.3-0.1,0.7-0.1,0.8,0.2c0.1,0.2,0.1,0.6,0,0.8
		c-0.2,0.3-0.5,0.5-0.8,0.7C357.9,69.3,356.5,69.8,354.9,69.8z"/>
	<path d="M416.2,18.9c0.7,2.5,1.7,4.8,2.6,7.3c0.2-0.2,0.4-0.3,0.5-0.5c0.9-1.7,1.8-3.3,2.7-5.1c0.5-1,0.5-1.1-0.4-1.8
		c-0.1-0.1-0.3-0.2-0.4-0.4c-0.3-0.4-0.1-1,0.4-1c1.1,0,2.3,0,3.4,0c0.6,0,0.8,0.6,0.4,1.1c-2.3,3.2-3.8,6.9-5.9,10.3
		c-0.2,0.4-0.4,0.8-0.6,1.1c-0.5,0.7-0.9,0.7-1.4-0.1c-0.1-0.3-0.3-0.6-0.4-1c-1.2-2.9-2.3-5.7-3.5-8.6c-0.2-0.6-0.6-1.1-0.9-1.6
		c-0.1-0.3-0.3-0.7-0.2-1c0-0.1,0.5-0.3,0.8-0.3c1.4,0,2.8,0,4.2,0c0.4,0,0.8,0,0.9,0.5s-0.3,0.7-0.8,0.8
		C417,18.7,416.7,18.8,416.2,18.9z"/>
	<path d="M277.8,67.9c0.3,1.3,0.2,1.5-0.9,1.5c-1.8,0-3.6,0-5.5,0c-0.3,0-0.7,0-0.9-0.4c-0.1-0.4-0.1-0.9,0.3-1.1c1-0.4,1-1.2,1-2
		c0-1.6,0-3.2,0-4.9c0-0.7-0.1-1.3-0.8-1.7c-0.9-0.6-0.9-0.9,0-1.6c0.8-0.5,1.7-1,2.5-1.5c0.3-0.2,0.7-0.2,1.2-0.3
		c0,1,0.1,1.8,0.1,2.8c0.5-0.3,0.9-0.6,1.2-0.9c0.5-0.4,1.1-0.8,1.7-1.1c1.3-0.6,2.4,0.1,2.4,1.6c0,0.2,0,0.4,0,0.6
		c-0.2,1.3-0.9,1.7-2.1,1.1c-0.9-0.4-1.8-0.4-2.7,0.1c-0.4,0.3-0.6,0.6-0.6,1.2c0,1.5-0.1,3-0.1,4.5c0,1.3,0.4,1.7,1.7,1.9
		C276.9,67.8,277.4,67.8,277.8,67.9z"/>
	<path d="M441.3,67.9c0.3,1.4,0.2,1.5-0.9,1.5c-1.8,0-3.6,0-5.4,0c-0.4,0-0.8,0.1-1-0.4c-0.1-0.5-0.1-1,0.4-1.2
		c0.8-0.3,0.9-1,0.9-1.7c0-1.7,0-3.4,0-5.1c0-0.7-0.1-1.2-0.8-1.7c-0.9-0.6-0.9-0.9,0-1.6c0.8-0.5,1.6-1,2.4-1.5
		c0.3-0.2,0.7-0.2,1.2-0.4c0,1,0.1,1.8,0.2,2.9c0.6-0.4,1.1-0.8,1.6-1.2c0.5-0.3,1-0.7,1.6-0.9c1.1-0.4,2,0.3,2,1.4
		c0,0.2,0,0.4,0,0.6c-0.2,1.5-0.9,1.9-2.3,1.3c-0.7-0.3-1.3-0.4-2,0c-0.7,0.3-1.2,0.8-1.2,1.7c0,1.4-0.1,2.8-0.1,4.2
		c0,1.5,0.4,1.9,1.9,2C440.5,67.8,440.9,67.8,441.3,67.9z"/>
	<path d="M313.2,30.3c-0.3-1.1-0.3-1.2,0.4-1.6c0.5-0.3,0.7-0.7,0.7-1.3c0-1.8,0-3.6,0-5.5c0-0.7-0.2-1.2-0.8-1.7
		c-0.8-0.5-0.8-0.9,0-1.5c0.8-0.6,1.7-1.1,2.6-1.6c0.3-0.1,0.6-0.2,1.1-0.3c0,0.9,0.1,1.8,0.1,2.7c0.3-0.2,0.6-0.3,0.8-0.4
		c0.6-0.4,1.2-1,1.9-1.4c0.8-0.5,1.8-0.3,2.3,0.3c0.5,0.7,0.3,2.4-0.3,2.9c-0.6,0.4-1.2,0.2-1.8,0c-0.9-0.4-1.7-0.3-2.6,0.2
		c-0.4,0.2-0.6,0.6-0.6,1.1c0,1.5-0.1,3.1-0.1,4.6c0,1.3,0.4,1.7,1.7,1.8c0.3,0,0.5,0,0.8,0c0.5,0,0.8,0.2,0.8,0.8s-0.2,0.8-0.8,0.8
		C317.6,30.3,315.4,30.3,313.2,30.3z"/>
	<path class="st9" d="M360.1,97.3c0.9-0.7,1.6-1.2,2.2-1.7c0.5-0.4,1.1-0.7,1.9-0.5c0.7,0.1,1,0.5,1.1,1.1c0,0.3,0,0.5,0,0.8
		c-0.1,1.6-0.8,2-2.3,1.4c-0.8-0.3-1.5-0.4-2.3,0c-0.6,0.3-1,0.8-1,1.6c0,1.4,0,2.9,0,4.3s0.4,1.8,1.7,1.9c0.1,0,0.2,0,0.3,0
		c1.1,0.1,1.2,0.1,1,1.6c-2.3,0-4.8,0-7.2,0c-0.2-0.7-0.2-1.3,0.5-1.6c0.5-0.2,0.7-0.6,0.7-1.1c0-2,0-4.1,0.1-6.1
		c0-0.6-0.4-0.9-0.8-1.2c-0.8-0.6-0.8-1,0-1.6c0.9-0.6,1.9-1.2,2.9-1.7c0.6-0.3,0.9-0.1,0.9,0.6C360.1,95.8,360.1,96.4,360.1,97.3z"
		/>
	<path class="st9" d="M328.2,97.5c-0.3-0.1-0.6-0.2-0.8-0.3c-0.9-0.3-0.9-0.8-0.2-1.5c0.6-0.5,1.2-1.1,1.8-1.7
		c0.4-0.3,0.7-0.7,1.1-1.1c0.2-0.2,0.6-0.3,1-0.5c0,0.9,0,1.7,0,2.6c1.2,0,2.3,0,3.4,0c0.8,0,1,0.2,1,1c0,0.9-0.1,1.1-1.1,1.1
		c-1,0-2.1,0-3.1,0c-0.1,0.1-0.2,0.2-0.2,0.3c0,2.2-0.2,4.5-0.2,6.8c0,1.5,1,2,2.5,1.6c0.3-0.1,0.6-0.3,1-0.4c0.2,0,0.5,0,0.7,0.1
		c0.1,0.1,0,0.4,0,0.6c-0.9,2-4.2,2.7-5.9,1.3c-0.9-0.7-1.2-1.7-1.2-2.8c0-2,0.1-4,0.1-6C328.2,98.3,328.2,97.9,328.2,97.5z"/>
	<path d="M346.5,68.1c0,0.4,0,0.8,0,1.3c-2.1,0-4.2,0-6.2,0c-0.4-1-0.4-1.1,0.5-1.5c0.6-0.2,0.8-0.6,0.8-1.2c0-2,0-4,0-6
		c0-0.6-0.2-1.1-0.8-1.4c-0.4-0.1-0.7-0.3-0.6-0.8c0-0.5,0.4-0.6,0.7-0.8c0.8-0.4,1.6-0.8,2.5-1.1c0.3-0.1,0.7-0.2,1.2-0.3
		c0,0.5,0,0.8,0,1.2c0,2.9-0.1,5.9-0.1,8.8c0,1.6,0,1.6,1.5,1.8C346.2,67.9,346.3,68,346.5,68.1z"/>
	<path d="M403.6,30.3c-0.2-1.2-0.2-1.2,0.6-1.6c0.6-0.2,0.8-0.6,0.8-1.3c0-1.9,0-3.9,0-5.9c0-0.7-0.2-1.2-0.9-1.5
		c-0.9-0.5-0.9-1.1,0-1.6c0.9-0.4,1.8-0.9,2.7-1.3c0.3-0.1,0.6-0.1,1-0.2c0,0.3,0.1,0.5,0.1,0.7c0,3.3-0.1,6.5-0.1,9.8
		c0,1.1,0,1.1,1.2,1.3c0.8,0.1,1.1,0.4,0.9,1c0,0.2-0.3,0.5-0.5,0.5C407.5,30.3,405.5,30.3,403.6,30.3z"/>
	<path class="st9" d="M372.5,94.6c0,0.7,0,1.2,0,1.7c0,2.9-0.1,5.8-0.1,8.7c0,1.2,0.1,1.3,1.2,1.4c0.2,0,0.4,0,0.8,0.1
		c0,0.4,0,0.8,0,1.4c-0.4,0-0.8,0-1.2,0.1c-1.3,0-2.6,0-3.9,0c0,0-0.1,0-0.1,0c-0.5,0-1.1,0.1-1.2-0.6c-0.1-0.6,0.2-0.9,0.8-1.1
		c0.6-0.2,0.8-0.6,0.8-1.3c0-1.9,0-3.9,0-5.9c0-0.7-0.2-1.2-0.8-1.5c-0.9-0.5-0.9-1.1,0-1.6c0.9-0.4,1.8-0.9,2.7-1.3
		C371.7,94.7,372,94.7,372.5,94.6z"/>
	<path class="st9" d="M309.2,106.5c0.4,1.2,0.2,1.5-0.9,1.5c-1.4,0-2.9,0-4.4,0c-0.9,0-1.2-0.3-1-1c0-0.2,0.3-0.5,0.6-0.6
		c0.8-0.2,1-0.7,1-1.5c0-1.9,0-3.7,0-5.6c0-0.7-0.2-1.2-0.9-1.6c-0.9-0.4-0.9-1.1,0-1.5c0.9-0.5,1.9-0.9,2.9-1.4
		c0.2-0.1,0.6-0.1,1-0.1c0,0.3,0,0.6,0,0.8c0,3.3-0.1,6.6-0.1,9.9c0,0.8,0.1,0.9,0.9,1.1C308.6,106.5,308.9,106.5,309.2,106.5z"/>
	<path class="st9" d="M371.1,90.2c-0.9,0-1.6-0.7-1.6-1.5c0-0.9,0.6-1.6,1.5-1.6c0.9,0,1.7,0.7,1.7,1.6
		C372.7,89.4,371.9,90.1,371.1,90.2z"/>
	<path class="st9" d="M306,90.2c-0.9,0-1.6-0.7-1.6-1.6s0.7-1.5,1.6-1.6c0.9,0,1.7,0.7,1.6,1.6C307.6,89.5,306.8,90.2,306,90.2z"/>
	<path d="M406.6,9.3c0.9,0,1.6,0.7,1.6,1.5c0,0.9-0.7,1.6-1.7,1.5c-0.9,0-1.6-0.7-1.5-1.6C404.9,10,405.6,9.3,406.6,9.3z"/>
	<path d="M343.1,51.6c-0.9,0-1.6-0.6-1.6-1.5s0.6-1.5,1.6-1.5c0.9,0,1.7,0.7,1.7,1.6C344.8,50.9,344,51.6,343.1,51.6z"/>
</g>
<g class="st8">
	<path class="st10" d="M242.7,22.7c-0.5,1.7-1.4,4.3-1.9,5.5c-0.9,0.2-3.7,0.9-6.3,0.9c-9.1,0-12.9-5.9-12.9-11.3
		c0-7,5.4-11.8,13.5-11.8c3,0,5.6,0.7,6.4,0.8c0.2,1.6,0.4,4.1,0.6,5.6l-1.4,0.2c-0.7-2.7-1.7-3.9-3.5-4.6c-0.8-0.3-2-0.5-3-0.5
		c-4.9,0-7.4,4.1-7.4,9.5c0,6.2,3.2,10.4,7.9,10.4c2.9,0,4.8-1.5,6.6-5.2L242.7,22.7z"/>
	<path class="st11" d="M253.3,13.1c4.8,0,7.8,3.6,7.8,7.7c0,5.5-3.9,8.2-8,8.2c-5.1,0-8.1-3.9-8.1-7.9
		C245.1,15.9,249.4,13.1,253.3,13.1z M252.9,14.4c-1.5,0-2.9,1.5-2.9,5.7c0,4.2,1.4,7.4,3.5,7.4c1.3,0,2.7-0.9,2.7-5.8
		C256.3,17,255,14.4,252.9,14.4z"/>
	<path class="st11" d="M282,28.6v-1.2c1.4-0.2,1.6-0.3,1.6-2.4v-5.9c0-2.8-1.3-3.3-2.4-3.3c-0.7,0-1.5,0.2-2.5,1.1
		c0,0.4,0.1,0.9,0.1,1.4v6.9c0,1.9,0.1,2.1,1.7,2.3v1.2h-7.6v-1.2c1.5-0.2,1.6-0.3,1.6-2.3V19c0-2.4-1-3.2-2.2-3.2
		c-0.8,0-1.7,0.3-2.6,1v8.4c0,1.9,0.2,2.1,1.5,2.3v1.2h-7.8v-1.2c1.9-0.2,2-0.4,2-2.4v-7.2c0-1.9,0-2.2-1.6-2.4v-1.1
		c1.9-0.2,3.8-0.7,6-1.3c0,0.8,0,1.8,0,2.5c0.7-0.5,1.4-1,2.1-1.4c1.1-0.6,1.9-1.1,2.9-1.1c1.9,0,3.2,1,3.8,2.6
		c0.8-0.6,1.5-1.1,2.3-1.7c0.7-0.5,1.7-0.9,2.7-0.9c3,0,4.5,2,4.5,5.5v6.6c0,1.9,0.2,2,1.8,2.3v1.2H282z"/>
	<path class="st11" d="M291.3,14.3c1.8-0.3,4.1-0.9,6.3-1.5c0,0.7,0,1.7,0,2.4c0.1,0,2.3-1.4,2.4-1.4c0.9-0.5,1.6-0.7,2.2-0.7
		c3.7,0,5.9,3.4,5.9,6.7c0,5-3.9,8.3-8.3,9.2c-0.9,0-1.6-0.1-2.1-0.3v4.1c0,1.9,0.2,2.1,2.5,2.4v1.1H291v-1.1
		c2.1-0.2,2.2-0.5,2.2-2.4V17.6c0-1.8-0.2-2-1.9-2.2V14.3z M297.6,26.1c0.6,0.6,1.9,1.3,2.8,1.3c1.8,0,3.1-2.2,3.1-5.9
		c0-4.2-2.1-5.8-3.8-5.8c-0.9,0-1.6,0.3-2.1,0.7V26.1z"/>
	<path class="st11" d="M319.1,28.6h-9v-1.2c1.8-0.2,2-0.4,2-2.4v-7.4c0-1.7-0.1-1.9-1.7-2.2v-1.1c2.1-0.2,4-0.6,6.1-1.3
		c0,1.1,0,2.6,0,3.7c1.5-2.3,2.8-3.6,4.1-3.6c1.3,0,2.2,0.9,2.2,2c0,1.7-1.2,2.6-1.7,2.9c-0.5,0.2-0.8,0-1.1-0.2c-0.6-0.5-1-1-1.6-1
		c-0.5,0-1.4,0.4-2,1.7V25c0,2,0.2,2.1,2.6,2.4V28.6z"/>
	<path class="st11" d="M337.4,25.3c-2.1,3.1-4.8,3.7-6.2,3.7c-4.6,0-7.1-3.4-7.1-7.4c0-2.4,1.1-4.7,2.5-6.1c1.5-1.5,3.4-2.4,5.3-2.4
		c3.3,0,5.6,2.8,5.6,5.5c0,0.6,0,1.2-0.4,1.3c-0.6,0.2-5.4,0.4-8.7,0.5c0.1,3.6,2.1,5.4,4.6,5.4c1.3,0,2.7-0.5,3.9-1.5L337.4,25.3z
		 M331.2,14.5c-1.4,0-2.5,1.6-2.7,4.3c1.4,0,2.7-0.1,4.1-0.1c0.5,0,0.7-0.1,0.7-0.7C333.3,16.3,332.5,14.5,331.2,14.5z"/>
	<path class="st11" d="M348.8,28.6v-1.2c1.5-0.2,1.6-0.5,1.6-2.3v-6c0-2.6-1.1-3.5-2.4-3.5c-0.8,0-1.7,0.2-2.5,1v8.5
		c0,1.8,0.2,2.1,1.7,2.3v1.2h-8.1v-1.2c1.7-0.2,2-0.3,2-2.4V9.2c0-1.6-0.2-1.9-2.1-2.2V5.9c2.5-0.2,4.9-0.7,6.5-1.2
		c0,1.3,0,2.6,0,3.9v6.7c1.2-1.2,2.9-2.2,4.6-2.2c3,0,4.7,1.9,4.7,5.7V25c0,2.1,0.2,2.2,1.9,2.4v1.2H348.8z"/>
	<path class="st11" d="M372.1,25.3c-2.1,3.1-4.8,3.7-6.2,3.7c-4.6,0-7.1-3.4-7.1-7.4c0-2.4,1.1-4.7,2.6-6.1c1.5-1.5,3.4-2.4,5.3-2.4
		c3.3,0,5.6,2.8,5.6,5.5c0,0.6,0,1.2-0.4,1.3c-0.6,0.2-5.4,0.4-8.7,0.5c0.1,3.6,2.1,5.4,4.6,5.4c1.3,0,2.7-0.5,3.9-1.5L372.1,25.3z
		 M365.9,14.5c-1.4,0-2.5,1.6-2.7,4.3c1.4,0,2.7-0.1,4.1-0.1c0.5,0,0.7-0.1,0.7-0.7C368,16.3,367.2,14.5,365.9,14.5z"/>
	<path class="st11" d="M384,28.6v-1.2c1.4-0.2,1.5-0.3,1.5-2.7v-5.8c0-2.4-1.2-3.2-2.4-3.2c-0.9,0-1.6,0.3-2.5,1V25
		c0,2.1,0.1,2.2,1.5,2.4v1.2h-7.9v-1.2c1.8-0.3,2-0.3,2-2.5v-7.1c0-2-0.3-2.1-1.8-2.4v-1.1c2-0.2,4.3-0.7,6.2-1.3
		c0,0.5-0.1,1.7-0.1,2.4c0.7-0.5,1.4-1,2.2-1.5c1-0.6,1.7-0.9,2.7-0.9c2.8,0,4.5,2,4.5,5.5V25c0,2.1,0.2,2.2,1.8,2.4v1.2H384z"/>
	<path class="st11" d="M402.9,17.9c-0.9-2.4-2-3.5-3.6-3.5c-1,0-1.8,0.7-1.8,1.8c0,1.2,0.8,1.8,2.6,2.6c2.8,1.2,4.6,2.4,4.6,5.1
		c0,3.4-3.2,5.1-6.2,5.1c-1.8,0-3.6-0.7-4.3-1c-0.1-0.8-0.4-3.1-0.5-4.3l1.1-0.2c0.7,2.1,2.1,4.1,4.3,4.1c1.3,0,1.9-0.8,1.9-1.8
		c0-1.1-0.5-1.8-2.6-2.9c-2.2-1.1-4.4-2.3-4.4-5.1c0-2.7,2.2-4.8,5.8-4.8c1.6,0,2.9,0.3,3.7,0.5c0.1,0.9,0.4,3.1,0.5,4L402.9,17.9z"
		/>
	<path class="st11" d="M406.7,28.6v-1.2c1.8-0.2,2-0.4,2-2.8V18c0-2.3-0.2-2.4-1.8-2.6v-1.1c2.1-0.2,4.3-0.7,6.2-1.2
		c0,1.4,0,2.8,0,4.2v7.4c0,2.3,0.1,2.5,2.1,2.8v1.2H406.7z M410.7,11c-1.3,0-2.4-1.1-2.4-2.4c0-1.4,1.2-2.4,2.5-2.4
		c1.4,0,2.4,1,2.4,2.4C413.1,9.9,412,11,410.7,11z"/>
	<path class="st11" d="M432.4,14.6c-1.8,0.3-2.1,0.7-2.8,2.3c-1.2,2.7-3,6.9-5,12h-1.4c-1.7-4.2-3.3-8.2-4.9-12.1
		c-0.6-1.5-1-1.9-2.7-2.2v-1.2h8.5v1.2c-1.5,0.3-1.7,0.6-1.3,1.7c0.8,2.3,2.1,5.6,2.6,7c0.6-1.5,1.7-4.5,2.5-6.8
		c0.3-1,0.3-1.7-1.8-1.9v-1.2h6.4V14.6z"/>
	<path class="st11" d="M446.3,25.3c-2.1,3.1-4.8,3.7-6.2,3.7c-4.6,0-7.1-3.4-7.1-7.4c0-2.4,1.1-4.7,2.5-6.1c1.5-1.5,3.4-2.4,5.3-2.4
		c3.3,0,5.6,2.8,5.6,5.5c0,0.6,0,1.2-0.4,1.3c-0.6,0.2-5.4,0.4-8.7,0.5c0.1,3.6,2.1,5.4,4.6,5.4c1.3,0,2.7-0.5,3.9-1.5L446.3,25.3z
		 M440.1,14.5c-1.4,0-2.5,1.6-2.7,4.3c1.4,0,2.7-0.1,4.1-0.1c0.5,0,0.7-0.1,0.7-0.7C442.2,16.3,441.4,14.5,440.1,14.5z"/>
	<path class="st10" d="M226.6,48.5c-2.1,0.3-2.7,0.7-2.8,2.2c-0.1,1.3-0.2,2.5-0.2,5.4v13.5h-1.9l-14.2-17v7.7c0,3,0.1,4.3,0.2,5.3
		c0.1,1.5,0.8,2.3,3.4,2.4v1.3h-8.4v-1.3c1.9-0.2,2.8-0.7,3-2.3c0.1-1.2,0.2-2.4,0.2-5.4v-8.1c0-1.1-0.1-1.9-0.7-2.8
		c-0.6-0.9-1.4-1-2.9-1.1v-1.3h6.6l13,15.1v-6.1c0-3,0-4.1-0.1-5.3c-0.1-1.5-0.6-2.2-3.5-2.3v-1.3h8.4V48.5z"/>
	<path class="st11" d="M241,66.1c-2.1,3.1-4.8,3.7-6.2,3.7c-4.6,0-7.1-3.4-7.1-7.4c0-2.4,1.1-4.7,2.5-6.1c1.5-1.5,3.4-2.4,5.3-2.4
		c3.3,0,5.6,2.8,5.6,5.5c0,0.6,0,1.2-0.4,1.3c-0.6,0.2-5.4,0.4-8.7,0.5c0.1,3.6,2.1,5.4,4.6,5.4c1.3,0,2.7-0.5,3.9-1.5L241,66.1z
		 M234.8,55.3c-1.4,0-2.5,1.6-2.7,4.3c1.4,0,2.7-0.1,4.1-0.1c0.5,0,0.7-0.1,0.7-0.7C236.9,57.1,236.1,55.3,234.8,55.3z"/>
	<path class="st11" d="M260.3,68.6c-2,0.3-4.2,0.7-6.5,1.2c0-0.7,0-1.6,0-2.3c-1.4,1.2-2.8,2.3-4.7,2.3c-2.9,0-4.5-1.8-4.5-4.9v-7
		c0-1.6-0.2-1.7-1.1-2l-0.7-0.2v-1.1c1.7-0.1,4.4-0.3,6.3-0.6c-0.1,1.4-0.1,3.2-0.1,5.1v5c0,2.2,1.1,3,2.3,3c1,0,1.7-0.2,2.4-1v-8.2
		c0-1.6-0.2-1.8-1.1-2l-1-0.2v-1.1c2-0.1,4.9-0.3,6.6-0.6v11.1c0,1.8,0.2,2.1,1.3,2.2l0.7,0.1V68.6z"/>
	<path class="st11" d="M270.9,69.4h-9v-1.2c1.8-0.2,2-0.4,2-2.4v-7.4c0-1.7-0.1-1.9-1.7-2.2v-1.1c2.1-0.2,4-0.6,6.1-1.3
		c0,1.1,0,2.6,0,3.7c1.5-2.3,2.8-3.6,4.1-3.6c1.3,0,2.2,0.9,2.2,2c0,1.7-1.2,2.6-1.7,2.9c-0.5,0.2-0.8,0-1.1-0.2c-0.6-0.5-1-1-1.6-1
		c-0.5,0-1.4,0.4-2,1.7v6.5c0,2,0.2,2.1,2.6,2.4V69.4z"/>
	<path class="st11" d="M284,53.9c4.8,0,7.8,3.6,7.8,7.7c0,5.5-3.9,8.2-8,8.2c-5.1,0-8.1-3.9-8.1-7.9C275.8,56.7,280.1,53.9,284,53.9
		z M283.6,55.2c-1.5,0-2.9,1.5-2.9,5.7c0,4.2,1.4,7.4,3.5,7.4c1.3,0,2.7-0.9,2.7-5.8C286.9,57.8,285.7,55.2,283.6,55.2z"/>
	<path class="st11" d="M293.7,69.4v-1.2c1.9-0.3,2-0.5,2-2.6V50.1c0-1.8-0.2-2-2-2.3v-1.1c2.3-0.2,4.7-0.6,6.4-1.2
		c0,1.5,0,3.1,0,4.6v15.4c0,2.2,0.1,2.4,2,2.6v1.2H293.7z"/>
	<path class="st11" d="M312.2,53.9c4.8,0,7.8,3.6,7.8,7.7c0,5.5-3.9,8.2-8,8.2c-5.1,0-8.1-3.9-8.1-7.9
		C304,56.7,308.3,53.9,312.2,53.9z M311.8,55.2c-1.5,0-2.9,1.5-2.9,5.7c0,4.2,1.4,7.4,3.5,7.4c1.3,0,2.7-0.9,2.7-5.8
		C315.1,57.8,313.9,55.2,311.8,55.2z"/>
	<path class="st11" d="M327.5,64.1c-0.3,0.4-0.6,0.8-0.6,1.2c0,0.5,0.6,1.3,1.9,1.3c1.1,0,2.7,0,3.8,0c2.1,0,5.1,0.8,5.1,4.2
		c0,3.8-4.7,6.9-9.2,6.9c-4.5,0-6.5-2.2-6.5-4c0-0.8,0.3-1.4,1-1.9c0.9-0.6,1.8-1.2,2.5-1.7c-1.4-0.5-2.1-1.2-2.5-1.9
		c-0.4-0.5-0.6-1.4-0.5-1.9c1.6-0.7,3-1.7,3.7-2.5L327.5,64.1z M329.1,64.4c-3.9,0-6.4-2.1-6.4-5.1c0-3.7,3.5-5.4,6.6-5.4
		c1.4,0,2.6,0.3,3.8,0.9c1.4,0,3.8-0.2,4.7-0.5l0.2,0.3c-0.2,0.6-0.6,1.7-1.3,2.1c-0.6,0-1.5-0.1-2-0.2c0.5,0.6,0.8,1.5,0.8,2.8
		C335.6,62.7,332.5,64.4,329.1,64.4z M329.5,70.1c-1.7,0-2.6,0.2-3.1,0.6c-0.6,0.5-1,1.2-1,1.9c0,1.8,1.7,3.2,4.6,3.2
		c2.6,0,4.2-1.2,4.2-3.1c0-1.3-0.8-2.1-1.9-2.3C331.6,70.1,330.8,70.1,329.5,70.1z M329.2,55.2c-1.1,0-2.1,1.3-2.1,3.7
		c0,2.3,0.8,4.2,2.4,4.2c1.3,0,2.1-1.4,2.1-3.8C331.5,57.1,330.8,55.2,329.2,55.2z"/>
	<path class="st11" d="M339.1,69.4v-1.2c1.8-0.2,2-0.4,2-2.8v-6.6c0-2.3-0.2-2.4-1.8-2.6v-1.1c2.1-0.2,4.3-0.7,6.2-1.2
		c0,1.4,0,2.8,0,4.2v7.4c0,2.3,0.1,2.5,2.1,2.8v1.2H339.1z M343.1,51.8c-1.3,0-2.4-1.1-2.4-2.4c0-1.4,1.2-2.4,2.5-2.4
		c1.4,0,2.4,1,2.4,2.4C345.6,50.7,344.5,51.8,343.1,51.8z"/>
	<path class="st11" d="M362.8,66.1c-1.6,2.2-3.8,3.7-5.9,3.7c-4.7,0-7.4-3.5-7.4-7.3c0-2.5,1.3-4.9,3.5-6.5c2.2-1.7,4.4-2.1,5.9-2.1
		c1.3,0,2.4,0.4,3,0.8c0.5,0.3,0.6,0.7,0.6,1.3c0,1-1,1.9-1.5,1.9c-0.2,0-0.5-0.1-0.7-0.4c-1.5-1.2-2.6-1.8-3.5-1.8
		c-1.3,0-2.9,1.3-2.9,5c0,4.5,3.3,6,4.8,6c1.4,0,2.4-0.4,3.6-1.4L362.8,66.1z"/>
	<path class="st11" d="M375.6,69.8c-0.9,0-1.7-0.3-2.1-0.7c-0.5-0.4-0.7-0.9-0.9-1.3c-1.3,0.8-3,2-3.6,2c-2.9,0-4.6-2.3-4.6-4.4
		c0-1.8,0.8-2.6,2.6-3.3c2-0.7,4.7-1.6,5.5-2.2v-1.5c0-1.8-0.6-2.8-2.1-2.8c-0.6,0-1.1,0.3-1.4,0.7c-0.4,0.5-0.5,1.2-0.8,2.2
		c-0.2,0.9-0.8,1.2-1.5,1.2c-0.9,0-2-0.8-2-1.8c0-0.6,0.4-1.1,1.2-1.6c1.5-1,3.5-2,5.4-2.4c1.4,0,2.5,0.3,3.5,1
		c1.5,1,1.9,2.4,1.9,4.2v5.9c0,1.6,0.5,2,1.1,2c0.3,0,0.7-0.1,1.1-0.3l0.4,1.2L375.6,69.8z M372.5,61.2c-0.6,0.3-1.2,0.7-1.9,1.1
		c-1.1,0.5-1.7,1.2-1.7,2.3c0,1.9,1.3,2.6,2.1,2.6c0.5,0,1,0,1.5-0.5C372.5,65,372.5,62.8,372.5,61.2z"/>
	<path class="st11" d="M380.1,69.4v-1.2c1.9-0.3,2-0.5,2-2.6V50.1c0-1.8-0.2-2-2-2.3v-1.1c2.3-0.2,4.7-0.6,6.4-1.2
		c0,1.5,0,3.1,0,4.6v15.4c0,2.2,0.1,2.4,2,2.6v1.2H380.1z"/>
	<path class="st10" d="M419.1,63.5c-0.5,1.7-1.4,4.3-1.9,5.5c-0.9,0.2-3.7,0.9-6.3,0.9c-9.1,0-12.9-5.9-12.9-11.3
		c0-7,5.4-11.8,13.5-11.8c3,0,5.6,0.7,6.4,0.8c0.2,1.6,0.4,4.1,0.6,5.6l-1.4,0.2c-0.7-2.7-1.7-3.9-3.5-4.6c-0.8-0.3-2-0.5-3-0.5
		c-4.9,0-7.4,4.1-7.4,9.5c0,6.2,3.2,10.4,7.9,10.4c2.9,0,4.8-1.5,6.6-5.2L419.1,63.5z"/>
	<path class="st11" d="M432.9,69.8c-0.9,0-1.7-0.3-2.1-0.7c-0.5-0.4-0.7-0.9-0.9-1.3c-1.3,0.8-3,2-3.6,2c-2.9,0-4.6-2.3-4.6-4.4
		c0-1.8,0.8-2.6,2.6-3.3c2-0.7,4.7-1.6,5.5-2.2v-1.5c0-1.8-0.6-2.8-2.1-2.8c-0.6,0-1.1,0.3-1.4,0.7c-0.4,0.5-0.5,1.2-0.8,2.2
		c-0.2,0.9-0.8,1.2-1.5,1.2c-0.9,0-2-0.8-2-1.8c0-0.6,0.4-1.1,1.2-1.6c1.5-1,3.5-2,5.4-2.4c1.4,0,2.5,0.3,3.5,1
		c1.5,1,1.9,2.4,1.9,4.2v5.9c0,1.6,0.5,2,1.1,2c0.3,0,0.7-0.1,1.1-0.3l0.4,1.2L432.9,69.8z M429.8,61.2c-0.6,0.3-1.2,0.7-1.9,1.1
		c-1.1,0.5-1.7,1.2-1.7,2.3c0,1.9,1.3,2.6,2.1,2.6c0.5,0,1,0,1.5-0.5C429.8,65,429.8,62.8,429.8,61.2z"/>
	<path class="st11" d="M446.7,69.4h-9v-1.2c1.8-0.2,2-0.4,2-2.4v-7.4c0-1.7-0.1-1.9-1.7-2.2v-1.1c2.1-0.2,4-0.6,6.1-1.3
		c0,1.1,0,2.6,0,3.7c1.5-2.3,2.8-3.6,4.1-3.6c1.3,0,2.2,0.9,2.2,2c0,1.7-1.2,2.6-1.7,2.9c-0.5,0.2-0.8,0-1.1-0.2c-0.6-0.5-1-1-1.6-1
		c-0.5,0-1.4,0.4-2,1.7v6.5c0,2,0.2,2.1,2.6,2.4V69.4z"/>
	<path class="st11" d="M464.9,66.1c-2.1,3.1-4.8,3.7-6.2,3.7c-4.6,0-7.1-3.4-7.1-7.4c0-2.4,1.1-4.7,2.5-6.1c1.5-1.5,3.4-2.4,5.3-2.4
		c3.3,0,5.6,2.8,5.6,5.5c0,0.6,0,1.2-0.4,1.3c-0.6,0.2-5.4,0.4-8.7,0.5c0.1,3.6,2.1,5.4,4.6,5.4c1.3,0,2.7-0.5,3.9-1.5L464.9,66.1z
		 M458.8,55.3c-1.4,0-2.5,1.6-2.7,4.3c1.4,0,2.7-0.1,4.1-0.1c0.5,0,0.7-0.1,0.7-0.7C460.9,57.1,460.1,55.3,458.8,55.3z"/>
	<path class="st10" d="M298,89.3c-2.2,0.2-2.9,0.5-4.2,3.8c-1.1,2.6-4.6,11-7.1,17.4h-1.9c-1-2.7-5.4-14.3-6.8-17.9
		c-1.1-2.5-1.5-3.1-3.7-3.3v-1.3h10.4l0,1.3c-2.5,0.3-2.5,0.6-1.9,2c1.1,2.9,3.6,9.9,4.8,12.9c2-4.9,3.9-9.5,4.7-11.7
		c0.8-2.3,0.6-2.9-2.2-3.2v-1.3h8.1V89.3z"/>
	<path class="st10" d="M298.1,110.2V109c1.8-0.2,2-0.4,2-2.8v-6.6c0-2.3-0.2-2.4-1.8-2.6v-1.1c2.1-0.2,4.3-0.7,6.2-1.2
		c0,1.4,0,2.8,0,4.2v7.4c0,2.3,0.1,2.5,2.1,2.8v1.2H298.1z M302.1,92.6c-1.3,0-2.4-1.1-2.4-2.4c0-1.4,1.2-2.4,2.5-2.4
		c1.4,0,2.4,1,2.4,2.4C304.5,91.5,303.5,92.6,302.1,92.6z"/>
	<path class="st10" d="M321.8,106.9c-1.6,2.2-3.8,3.7-5.9,3.7c-4.7,0-7.4-3.5-7.4-7.3c0-2.5,1.3-4.9,3.5-6.5
		c2.2-1.7,4.4-2.1,5.9-2.1c1.3,0,2.4,0.4,3,0.8c0.5,0.3,0.6,0.7,0.6,1.3c0,1-1,1.9-1.5,1.9c-0.2,0-0.5-0.1-0.7-0.4
		c-1.5-1.2-2.6-1.8-3.5-1.8c-1.3,0-2.9,1.3-2.9,5c0,4.5,3.3,6,4.8,6c1.4,0,2.4-0.4,3.6-1.4L321.8,106.9z"/>
	<path class="st10" d="M330.8,110.2c-0.6,0.3-1.1,0.4-1.4,0.4c-2.6,0-4.2-1.2-4.2-4.3v-9.5H323l-0.2-0.4l1-1.3h1.4v-2.8
		c1.2-0.8,2.8-1.9,4-2.7l0.4,0.3c0,0.9-0.1,2.7-0.1,5.3h3.4c0.3,0.3,0.2,1.4-0.3,1.7h-3.1v8.3c0,2.7,1.1,3,1.7,3
		c0.6,0,1-0.1,1.6-0.3l0.3,1.2L330.8,110.2z"/>
	<path class="st10" d="M342.5,94.7c4.8,0,7.8,3.6,7.8,7.7c0,5.5-3.9,8.2-8,8.2c-5.1,0-8.1-3.9-8.1-7.9
		C334.3,97.5,338.6,94.7,342.5,94.7z M342.1,96c-1.5,0-2.9,1.5-2.9,5.7c0,4.2,1.4,7.4,3.5,7.4c1.3,0,2.7-0.9,2.7-5.8
		C345.4,98.6,344.2,96,342.1,96z"/>
	<path class="st10" d="M361.4,110.2h-9V109c1.8-0.2,2-0.4,2-2.4v-7.4c0-1.7-0.1-1.9-1.7-2.2v-1.1c2.1-0.2,4-0.6,6.1-1.3
		c0,1.1,0,2.6,0,3.7c1.5-2.3,2.8-3.6,4.1-3.6c1.3,0,2.2,0.9,2.2,2c0,1.7-1.2,2.6-1.7,2.9c-0.5,0.2-0.8,0-1.1-0.2c-0.6-0.5-1-1-1.6-1
		c-0.5,0-1.4,0.4-2,1.7v6.5c0,2,0.2,2.1,2.6,2.4V110.2z"/>
	<path class="st10" d="M366.8,110.2V109c1.8-0.2,2-0.4,2-2.8v-6.6c0-2.3-0.2-2.4-1.8-2.6v-1.1c2.1-0.2,4.3-0.7,6.2-1.2
		c0,1.4,0,2.8,0,4.2v7.4c0,2.3,0.1,2.5,2.1,2.8v1.2H366.8z M370.7,92.6c-1.3,0-2.4-1.1-2.4-2.4c0-1.4,1.2-2.4,2.5-2.4
		c1.4,0,2.4,1,2.4,2.4C373.2,91.5,372.1,92.6,370.7,92.6z"/>
	<path class="st10" d="M388.4,110.6c-0.9,0-1.7-0.3-2.1-0.7c-0.5-0.4-0.7-0.9-0.9-1.3c-1.3,0.8-3,2-3.6,2c-2.9,0-4.6-2.3-4.6-4.4
		c0-1.8,0.8-2.6,2.6-3.3c2-0.7,4.7-1.6,5.5-2.2v-1.5c0-1.8-0.6-2.8-2.1-2.8c-0.6,0-1.1,0.3-1.4,0.7c-0.4,0.5-0.5,1.2-0.8,2.2
		c-0.2,0.9-0.8,1.2-1.5,1.2c-0.9,0-2-0.8-2-1.8c0-0.6,0.4-1.1,1.2-1.6c1.5-1,3.5-2,5.4-2.4c1.4,0,2.5,0.3,3.5,1
		c1.5,1,1.9,2.4,1.9,4.2v5.9c0,1.6,0.5,2,1.1,2c0.3,0,0.7-0.1,1.1-0.3l0.4,1.2L388.4,110.6z M385.3,102c-0.6,0.3-1.2,0.7-1.9,1.1
		c-1.1,0.5-1.7,1.2-1.7,2.3c0,1.9,1.3,2.6,2.1,2.6c0.5,0,1,0,1.5-0.5C385.3,105.8,385.3,103.6,385.3,102z"/>
</g>
</svg>
