<svg xmlns="http://www.w3.org/2000/svg" viewBox="0 0 344.982 105.286"><g id="CNC_Victoria" data-name="CNC Victoria"><path d="M3.455,92.832V74.33A3.388,3.388,0,0,0,.432,72.567v-.613H8.278l7.451,17.962,7.416-17.962h7.739v.613c-1.836,0-3.024.683-3.024,3.059V93.48c0,2.376,1.188,3.059,3.024,3.059v.613H19.365v-.613c1.836,0,3.024-.683,3.024-3.059V76.85L13.857,97.475h-.719L4.607,76.85V92.832c0,2.556,1.188,3.707,3.492,3.707v.613H0v-.613C2.231,96.539,3.455,95.388,3.455,92.832Z" style="fill:#fff"/><path d="M32.472,88.332a9.022,9.022,0,0,1,9.358-9.394c4.932,0,7.667,3.239,7.667,6.947H37.763a9.764,9.764,0,0,0-.036,1.008c0,5.183,3.1,7.487,6.407,7.487a5.51,5.51,0,0,0,4.788-2.448l.432.216c-1.189,2.988-3.672,5.58-7.776,5.58C36.5,97.728,32.472,94.2,32.472,88.332ZM42.3,84.841c1.908,0,2.7-.972,2.7-2.267,0-1.405-.936-2.592-2.916-2.592-2.52,0-3.743,2.447-4.175,4.859Z" style="fill:#fff"/><path d="M53.531,93.48V76.706c0-1.98-.864-2.916-3.023-2.916v-.467l8.207-1.98V93.48c0,2.34,1.187,3.023,2.987,3.023v.613H50.508V96.5C52.344,96.5,53.531,95.82,53.531,93.48Z" style="fill:#fff"/><path d="M67.967,95.532,65.123,97.44h-.5V76.706c0-1.944-.864-2.88-3.024-2.88v-.5L69.8,71.378v11.2h.18a6.417,6.417,0,0,1,5.8-3.636c4.068,0,6.551,3.563,6.551,8.387,0,6.659-3.707,10.4-8.711,10.4A8,8,0,0,1,67.967,95.532ZM69.8,91.069c0,4.355,1.62,5.579,3.456,5.579,2.7,0,3.779-2.737,3.779-7.56,0-5.147-1.368-7.558-3.707-7.558-1.692,0-2.772,1.007-3.528,2.555Z" style="fill:#fff"/><path d="M85,88.332c0-5.543,3.852-9.394,9.07-9.394,5.436,0,9.036,3.636,9.036,9.394a9.037,9.037,0,0,1-9.036,9.4C88.6,97.728,85,94.272,85,88.332Zm9.539,8.352c2.411,0,3.312-2.664,3.312-6.659,0-6.228-1.548-10.043-4.212-10.043-2.3,0-3.348,2.34-3.348,6.623C90.286,93.516,91.906,96.684,94.534,96.684Z" style="fill:#fff"/><path d="M107.387,91.212V83.185c0-2.375-1.079-3.06-2.808-3.06v-.611h7.991v11.41c0,2.16.828,3.491,2.88,3.491a5.348,5.348,0,0,0,3.348-1.4V83.185c0-2.375-1.044-3.06-2.808-3.06v-.611h7.991V92.4c0,1.944.864,2.88,3.024,2.88v.5L118.8,97.728v-3.78h-.18a6.9,6.9,0,0,1-5.867,3.78C109.4,97.728,107.387,95.711,107.387,91.212Z" style="fill:#fff"/><path d="M130.9,93.48V84.265c0-1.943-.829-2.88-2.988-2.88v-.5l8.171-1.943v5.8h.252a6.967,6.967,0,0,1,6.982-5.8v4.751a9.216,9.216,0,0,0-2.338-.288c-2.953,0-4.9,1.62-4.9,4.284v5.8c0,2.376,1.188,3.059,3.024,3.059v.613h-11.2v-.613C129.707,96.539,130.9,95.856,130.9,93.48Z" style="fill:#fff"/><path d="M147.6,93.48V84.265c0-1.943-.828-2.88-2.988-2.88v-.5l8.171-1.943v3.743h.18c1.368-2.159,3.239-3.743,5.867-3.743,3.239,0,5.4,2.159,5.4,6.623V93.48c0,2.376,1.043,3.059,2.771,3.059v.613H156.705v-.613c1.441,0,2.34-.683,2.34-3.059V85.7c0-2.159-.863-3.455-2.915-3.455a5.575,5.575,0,0,0-3.348,1.368V93.48c0,2.376.9,3.059,2.34,3.059v.613H144.611v-.613C146.411,96.539,147.6,95.856,147.6,93.48Z" style="fill:#fff"/><path d="M168.587,88.332a9.022,9.022,0,0,1,9.358-9.394c4.932,0,7.667,3.239,7.667,6.947H173.878a9.764,9.764,0,0,0-.036,1.008c0,5.183,3.1,7.487,6.407,7.487a5.51,5.51,0,0,0,4.788-2.448l.432.216c-1.189,2.988-3.672,5.58-7.776,5.58C172.618,97.728,168.587,94.2,168.587,88.332Zm9.826-3.491c1.908,0,2.7-.972,2.7-2.267,0-1.405-.935-2.592-2.916-2.592-2.519,0-3.743,2.447-4.175,4.859Z" style="fill:#fff"/><path d="M199.4,93.48V75.626c0-2.376-1.187-3.059-3.023-3.059v-.613h20.445v7.6h-.611c0-3.96-2.3-6.552-6.588-6.552h-4.751V83.977h4.464c2.7,0,3.779-1.98,3.779-4.679h.612V89.737h-.612c0-2.737-1.08-4.716-3.779-4.716h-4.464V96.108h5.4c4.68,0,6.587-2.628,6.587-7.02h.613v8.064H196.378v-.613C198.214,96.539,199.4,95.856,199.4,93.48Z" style="fill:#fff"/><path d="M219.31,104.1c1.836,0,3.024-.685,3.024-3.06V84.3c0-2.124-.937-2.844-3.024-2.844v-.576l8.207-1.943V82.61h.18a6.2,6.2,0,0,1,5.652-3.672c4.211,0,6.694,3.563,6.694,8.566,0,6.48-3.707,10.224-8.71,10.224a7.467,7.467,0,0,1-3.816-.973v4.284c0,2.375,1.189,3.06,3.025,3.06v.611H219.31Zm8.207-13.03c0,4.355,1.62,5.579,3.348,5.579,2.628,0,3.887-2.737,3.887-7.6,0-5.111-1.368-7.522-3.851-7.522-1.548,0-2.664,1.007-3.384,2.628Z" style="fill:#fff"/><path d="M245.086,93.48V84.265c0-1.943-.864-2.88-3.024-2.88v-.5l8.207-1.943V93.48c0,2.376,1.189,3.059,2.988,3.059v.613H242.062v-.613C243.9,96.539,245.086,95.856,245.086,93.48Zm2.3-22.785a3.019,3.019,0,0,1,3.024,3.023,3.024,3.024,0,1,1-3.024-3.023Z" style="fill:#fff"/><path d="M256.857,93.48V76.706c0-1.98-.864-2.916-3.024-2.916v-.467l8.208-1.98V93.48c0,2.34,1.187,3.023,2.987,3.023v.613h-11.2V96.5C255.669,96.5,256.857,95.82,256.857,93.48Z" style="fill:#fff"/><path d="M266.614,88.332a9.022,9.022,0,0,1,9.358-9.394c4.932,0,7.667,3.239,7.667,6.947H271.9a9.764,9.764,0,0,0-.036,1.008c0,5.183,3.095,7.487,6.407,7.487a5.51,5.51,0,0,0,4.788-2.448l.432.216c-1.189,2.988-3.672,5.58-7.776,5.58C270.645,97.728,266.614,94.2,266.614,88.332Zm9.826-3.491c1.908,0,2.7-.972,2.7-2.267,0-1.405-.935-2.592-2.916-2.592-2.519,0-3.743,2.447-4.175,4.859Z" style="fill:#fff"/><path d="M284.829,104.1c1.836,0,3.024-.685,3.024-3.06V84.3c0-2.124-.936-2.844-3.024-2.844v-.576l8.207-1.943V82.61h.18a6.2,6.2,0,0,1,5.652-3.672c4.211,0,6.694,3.563,6.694,8.566,0,6.48-3.707,10.224-8.711,10.224a7.463,7.463,0,0,1-3.815-.973v4.284c0,2.375,1.188,3.06,3.024,3.06v.611H284.829Zm8.207-13.03c0,4.355,1.62,5.579,3.347,5.579,2.628,0,3.888-2.737,3.888-7.6,0-5.111-1.368-7.522-3.852-7.522-1.547,0-2.663,1.007-3.383,2.628Z" style="fill:#fff"/><path d="M308.409,96.251v-5.8h.467c1.332,3.528,4.249,6.228,7.488,6.228,1.979,0,2.987-.937,2.987-2.16,0-4.283-10.763-2.664-10.763-10.007,0-3.636,2.916-5.579,6.84-5.579a14.2,14.2,0,0,1,6.479,1.475v5.616h-.5c-1.115-3.852-3.707-6.047-6.551-6.047-1.727,0-2.844.9-2.844,2.267,0,4.32,10.763,2.916,10.763,10.043,0,3.743-2.844,5.436-6.875,5.436A20.679,20.679,0,0,1,308.409,96.251Z" style="fill:#fff"/><path d="M327.056,100.787c3.672,0,5.327-1.3,6.335-3.312l-6.442-14.29c-.937-2.088-1.765-3.06-3.42-3.06v-.611h10.906v.611c-2.231,0-2.915.865-1.943,3.06l3.635,8.171,3.6-7.99c1.079-2.449-.036-3.241-2.269-3.241v-.611h7.524v.611c-1.836,0-2.987.865-3.959,3.06l-6.3,14c-2.519,5.651-5.183,8.1-10.583,8.1v-4.715A22.275,22.275,0,0,0,327.056,100.787Z" style="fill:#fff"/></g><g id="Layer_2" data-name="Layer 2"><path d="M24.459,25.265c.105-.18.2-.375.3-.54a8.762,8.762,0,0,1,4.5-3.5,10.4,10.4,0,0,1,3.03-.555A23.547,23.547,0,0,1,41.335,22.1a10.557,10.557,0,0,1,1.11.51,1.474,1.474,0,0,1,.57.525,9.289,9.289,0,0,1,1.62,3.961,8.252,8.252,0,0,1-.135,3.15,4.148,4.148,0,0,1-.465,1.17,9.031,9.031,0,0,0-1.11,3.39c-.06.45-.18.9-.27,1.335a2.319,2.319,0,0,1-.105.345c-.2.54-.39.66-.945.6l-1.755-.18c-.045,0-.09-.015-.135-.015-.405-.09-.45-.12-.45-.525,0-1.275.015-2.55.045-3.81a6.668,6.668,0,0,0-.06-1.545,3.87,3.87,0,0,0-1.05-1.965,4.915,4.915,0,0,0-.676-.585,9.127,9.127,0,0,0-5.34-1.561,4.506,4.506,0,0,0-1.6.346,1.537,1.537,0,0,0-.435.24c-.27.2-.255.4.03.555a5.591,5.591,0,0,0,.525.24c.615.225,1.26.42,1.875.645.63.24,1.245.5,1.845.78a3.13,3.13,0,0,1,1.635,1.56,4.213,4.213,0,0,1,.3,2.64,5.763,5.763,0,0,1-.855,1.965,9.713,9.713,0,0,1-1.65,1.935,18.98,18.98,0,0,1-1.89,1.56,36.1,36.1,0,0,0-6.03,5.176c-.315.33-.615.675-.96.975-.585.525-1.156,1.035-1.786,1.515a3.806,3.806,0,0,1-2.025.8,13.272,13.272,0,0,1-1.545,0c-.555-.015-1.095-.09-1.65-.12-.375-.015-.465.135-.33.48.015.03.03.075.045.105a8.281,8.281,0,0,0,1.74,2.145,2.782,2.782,0,0,0,2.91.435,9.519,9.519,0,0,0,3.9-2.625c.72-.825,1.38-1.7,2.055-2.55.84-1.065,1.635-2.16,2.49-3.21a14.314,14.314,0,0,1,2.895-2.731,8.153,8.153,0,0,1,3.165-1.41,6.406,6.406,0,0,1,2.506.015,18.442,18.442,0,0,1,4.17,1.3,8.421,8.421,0,0,1,3.57,3.106,4.736,4.736,0,0,1,.84,3,4.913,4.913,0,0,1-.465,1.725,5.427,5.427,0,0,1-1.71,2.235,23.664,23.664,0,0,1-2.5,1.7,8.006,8.006,0,0,1-4.17,1.185c-.765-.015-1.53,0-2.3-.015-.36,0-.51.1-.54.465a1.1,1.1,0,0,0,.96,1.306,4.316,4.316,0,0,0,3.2-.451,5.462,5.462,0,0,1,1.92-.69,11.854,11.854,0,0,0,4.86-2.16c.8-.585,1.545-1.215,2.3-1.86a5.471,5.471,0,0,0,1.125-1.485,30.027,30.027,0,0,0,1.666-3.345,11,11,0,0,1,.57-1.2,4.6,4.6,0,0,1,3.885-2.415,11.257,11.257,0,0,1,3.465.345,16.876,16.876,0,0,1,3.885,1.38,7.575,7.575,0,0,1,2.026,1.485,3.974,3.974,0,0,1,1.2,2.835A3.653,3.653,0,0,1,66.222,49.4a5.652,5.652,0,0,1-1.876,1.26c-.45.2-.915.36-1.38.525A3.326,3.326,0,0,0,61.3,52.372c-.15.2-.345.375-.51.555-.09.1-.18.21-.285.315a.635.635,0,0,0,.525.255c.525.03,1.05.03,1.575.045a.135.135,0,0,0,.075-.015,1.686,1.686,0,0,0,1.5-.735,1.866,1.866,0,0,1,.06.24A6.011,6.011,0,0,1,63.176,56.2a1.3,1.3,0,0,1-.2.21,7.848,7.848,0,0,1-3.825,2.175,1.553,1.553,0,0,1-1.965-1,3.79,3.79,0,0,1-.21-1.875,8.793,8.793,0,0,1,.7-2.446,18.846,18.846,0,0,0,1.17-3.69,1.338,1.338,0,0,0-.69-1.35.732.732,0,0,0-.78,0,2.4,2.4,0,0,0-.6.5,4.887,4.887,0,0,0-1.065,1.98,12.448,12.448,0,0,1-1.455,3.586A8.413,8.413,0,0,1,48.235,58.4a7.885,7.885,0,0,1-1.575.015c-1.095-.03-2.175-.09-3.27-.1a6.387,6.387,0,0,0-1.845.27c-1.11.315-2.22.63-3.33.9a9.756,9.756,0,0,1-2.461.27,26.624,26.624,0,0,1-3.63-.165,8.322,8.322,0,0,1-1.47-.33,1.025,1.025,0,0,1-.78-1.4,7.261,7.261,0,0,1,.405-1.26,11.177,11.177,0,0,1,1.425-2.37,4.682,4.682,0,0,0,.48-.721,29.433,29.433,0,0,1,2.7-4.155c.81-1.05,1.59-2.145,2.4-3.195a6.772,6.772,0,0,1,.706-.765.764.764,0,0,1,.81-.165.37.37,0,0,1,.225.615.666.666,0,0,1-.12.165.381.381,0,0,0,.375.255,2.173,2.173,0,0,0,1.785-.585,1.27,1.27,0,0,0,.21-.285.764.764,0,0,0-.27-1.095,2.3,2.3,0,0,0-1.17-.33,5.851,5.851,0,0,0-3.961,1.365,2.052,2.052,0,0,0-.285.33c-.225.33-.45.645-.66.99a79.419,79.419,0,0,1-5.25,6.99c-.375.466-.795.9-1.2,1.336a9.472,9.472,0,0,1-1.785,1.5,5.721,5.721,0,0,1-3.121,1.05c-1.29.045-2.595.075-3.885.075a10.91,10.91,0,0,1-2.595-.345,4.512,4.512,0,0,1-2.265-1.245c-.315-.345-.66-.66-.96-1.02a4,4,0,0,1-.93-3.646,89.371,89.371,0,0,1,2.25-8.82,41.609,41.609,0,0,1,1.845-5.176,10.433,10.433,0,0,1,.75-1.4,1.322,1.322,0,0,1,1.23-.66,13.481,13.481,0,0,1,3.375.48c.93.24,1.846.525,2.776.78a7.05,7.05,0,0,0,.945.2,2.317,2.317,0,0,0,1.86-.51,4.366,4.366,0,0,1,1.185-.66,2.729,2.729,0,0,0,1.7-2.055.751.751,0,0,0-.555-.975,2.288,2.288,0,0,0-1.515.09c-.135.06-.285.135-.315.33.105.18.3.21.48.27a.307.307,0,0,1,.225.39,2.038,2.038,0,0,1-.84,1.38.724.724,0,0,1-.435.105,4.7,4.7,0,0,1-.915-.18,37.835,37.835,0,0,0-4.066-.915c-.3-.045-.6-.09-.885-.12a.871.871,0,0,1-.885-.96,6.791,6.791,0,0,1,.27-2.055,2.359,2.359,0,0,1,.72-1.14c1.245-1.065,2.506-2.13,3.736-3.211.84-.735,1.665-1.485,2.5-2.22a5.169,5.169,0,0,0,.39-.42c.285-.39.15-.66-.315-.7h-.03a4.111,4.111,0,0,0-2.745,1.065c-.3.285-.57.585-.87.87a.9.9,0,0,1-.195.135C24.489,25.3,24.474,25.28,24.459,25.265Z" style="fill:#009640"/><path d="M72.417,53.527a.571.571,0,0,0,.525.18,9.95,9.95,0,0,0,1.335-.24,21.033,21.033,0,0,0,7.141-3.63,8.531,8.531,0,0,0,2.445-2.97A19.269,19.269,0,0,0,85.2,43.492a9.739,9.739,0,0,1,2.58-4.186,5.717,5.717,0,0,1,.75-.6,1.076,1.076,0,0,1,.72-.165,5.619,5.619,0,0,1,3.3,1.38,1.409,1.409,0,0,1,.465.676c.105.3.18.6.27.9a.681.681,0,0,0,.69.57,2.6,2.6,0,0,0,1.95-.7,1.2,1.2,0,0,0,.345-1.126,2.406,2.406,0,0,0-.69-1.32,4.209,4.209,0,0,0-1.335-.96c-.63-.27-1.275-.51-1.905-.735-.33-.12-.405-.195-.315-.525a14.7,14.7,0,0,1,2.19-5.25c.225-.3.465-.585.7-.87a.7.7,0,0,1,.765-.225,11.024,11.024,0,0,1,2.895,1.155,5.361,5.361,0,0,1,1.2.96,3,3,0,0,1,.78,2.655c-.18,1.035-.33,2.085-.525,3.12a12.608,12.608,0,0,1-2,4.711,19.311,19.311,0,0,1-2.475,3.03,11.522,11.522,0,0,1-1.035.885,3.865,3.865,0,0,1-.81.45,1.5,1.5,0,0,1-1.59-.24,3.413,3.413,0,0,1-1.081-1.32c-.09-.2-.18-.39-.285-.585a1.379,1.379,0,0,0-1.47-.57.4.4,0,0,0-.3.525,5.829,5.829,0,0,1,.105,2.04,7.336,7.336,0,0,1-.405,2.19,2.963,2.963,0,0,1-1.365,1.65,27.5,27.5,0,0,1-5.22,2.31c-1.56.495-3.075,1.081-4.576,1.711a21.763,21.763,0,0,1-4.2,1.35,7.492,7.492,0,0,1-3.315-.03,5.513,5.513,0,0,1-2.01-1,1.59,1.59,0,0,1-.615-1.02,4.856,4.856,0,0,1,.9-3.886,13.157,13.157,0,0,1,1.215-1.365,2.4,2.4,0,0,0,.885-1.545.81.81,0,0,1,.06-.18c.15.075.285.12.42.2.315.2.63.405.93.615a.478.478,0,0,0,.465.075c.105-.045.225-.075.33-.12.465-.24.915-.48,1.365-.735.33-.18.36-.36.09-.615a1.275,1.275,0,0,0-.525-.285c-.975-.315-1.935-.63-2.91-.915-.27-.09-.435-.2-.42-.51a1.387,1.387,0,0,0-.285-.8,2.884,2.884,0,0,1-.465-1.08.749.749,0,0,1,.09-.555,5.37,5.37,0,0,1,.525.165,15.628,15.628,0,0,0,5.88.84,7.034,7.034,0,0,0,2.146-.45.9.9,0,0,0,.63-.84.517.517,0,0,0-.54-.585,2.773,2.773,0,0,0-.5.045,11.192,11.192,0,0,1-5.7-.615c-1.245-.435-2.49-.886-3.735-1.291a15.268,15.268,0,0,0-3.285-.6c-.871-.09-1.741-.18-2.6-.345a5.139,5.139,0,0,1-3.255-2.13,12.372,12.372,0,0,1-.795-1.29.786.786,0,0,0-.855-.45,4.165,4.165,0,0,0-1.35.345,2.565,2.565,0,0,0-.345.2c-.3.225-.33.405-.165.75a8.6,8.6,0,0,0,2.1,2.76c.1.09.21.2.315.3-.1.135-.225.09-.33.09a22.472,22.472,0,0,0-3.735.57c-.24.06-.48.15-.72.225a2.353,2.353,0,0,0-.885.541,1.307,1.307,0,0,1-1.395.315,2.13,2.13,0,0,1-.466-.18c-.72-.39-1.455-.8-2.16-1.216a5.089,5.089,0,0,1-2.37-4.74,7.738,7.738,0,0,1,1.08-3.135,7.1,7.1,0,0,1,.765-1.005,3.085,3.085,0,0,1,2.9-1c.841.135,1.7.2,2.536.285a9.908,9.908,0,0,0,4.755-.7c.585-.225,1.155-.465,1.725-.72a3.488,3.488,0,0,1,2.07-.27,28.37,28.37,0,0,1,3.721.81c.225.075.45.165.675.255a.524.524,0,0,1,.36.525,6.888,6.888,0,0,0,.15,1.245A1.275,1.275,0,0,0,68.5,32.376a2.072,2.072,0,0,0,1.2-.93,3.027,3.027,0,0,0,.45-1.275c.03-.18.045-.36.075-.57.195.015.375.015.57.045a2.731,2.731,0,0,1,2.3,1.89.57.57,0,0,1-.18.7c-.33.27-.69.525-1.035.78-.585.45-1.17.87-1.725,1.35a8.609,8.609,0,0,0-1.05,1.17,2.237,2.237,0,0,0-.36.705.351.351,0,0,0,.255.51,2.731,2.731,0,0,0,.78.12,3.317,3.317,0,0,0,1.26-.255,2.151,2.151,0,0,0,.915-.675,13.035,13.035,0,0,1,1.98-2.085,7.828,7.828,0,0,1,1.2-.78,1.859,1.859,0,0,1,1.47-.135c1,.3,2.011.54,3.016.855a4.973,4.973,0,0,1,3.555,4.05,7.467,7.467,0,0,1,.105,2.085c-.045.45-.03.916-.06,1.366a13.4,13.4,0,0,1-.645,3.06c-.225.69-.45,1.365-.69,2.04a5.29,5.29,0,0,1-1.425,2.175,18.335,18.335,0,0,1-1.86,1.53,21.985,21.985,0,0,1-4.651,2.565,10.582,10.582,0,0,0-1.095.54A2.034,2.034,0,0,0,72.417,53.527Z" style="fill:#e30513"/><path d="M61.976,26.84a3.305,3.305,0,0,1,.21-.45,8.188,8.188,0,0,1,.54-.72c.57-.63,1.155-1.245,1.725-1.89a.837.837,0,0,1,.766-.285c.33.045.66.075,1,.12.405.045.81.105,1.215.15a2.788,2.788,0,0,0,1.725-.375,1.02,1.02,0,0,0,.585-.96c0-.255-.03-.33-.285-.39-.6-.15-1.215-.3-1.83-.39-.585-.09-1.17-.135-1.755-.2a4.116,4.116,0,0,0-2.581.615,8.126,8.126,0,0,0-1.635,1.395c-.5.555-.975,1.125-1.47,1.68-.465.525-.93,1.065-1.425,1.575A4.975,4.975,0,0,1,53.2,27.876a7.251,7.251,0,0,0-1.38-.39,7.685,7.685,0,0,1-2.191-.8A3.515,3.515,0,0,1,48.3,25.415c-.51-.81-1.05-1.605-1.605-2.385a13.753,13.753,0,0,0-1.05-1.23,5.043,5.043,0,0,0-2.3-1.425,45.234,45.234,0,0,0-6.106-1.485,12.035,12.035,0,0,0-1.65-.105,1.6,1.6,0,0,1-.825-.2c.09-.105.18-.18.27-.285a3.432,3.432,0,0,0,.945-1.74,2.113,2.113,0,0,0-.135-1.1c-.15-.405-.105-.54.3-.735a12,12,0,0,1,2.371-.825,16.342,16.342,0,0,1,2.805-.421,5.244,5.244,0,0,1,2.385.451,11.373,11.373,0,0,1,3.015,1.935c.585.48,1.125,1,1.71,1.485.465.39.96.75,1.455,1.11a5,5,0,0,0,.57.285c-.045-.135-.045-.21-.075-.27a17.029,17.029,0,0,0-4.905-5.776,16.006,16.006,0,0,0-1.365-.855,2.039,2.039,0,0,0-1.065-.3,3.306,3.306,0,0,1-.54-.06,2.119,2.119,0,0,1-.405-.135,2.5,2.5,0,0,1,.21-.4q.765-.878,1.53-1.71a.916.916,0,0,1,.66-.255,7.386,7.386,0,0,1,3.42.465c1.155.495,2.31,1,3.466,1.515,1.125.5,2.235,1.05,3.39,1.5a9.3,9.3,0,0,0,3.45.615,3.243,3.243,0,0,0,.915-.15.972.972,0,0,0,.24-1.665,8.287,8.287,0,0,0-1.08-.57q-2.093-.787-4.23-1.53a26.665,26.665,0,0,0-3.556-1.02c-.8-.165-1.605-.3-2.4-.48a1.812,1.812,0,0,1-.825-.315c.12-.075.21-.135.315-.2a12.512,12.512,0,0,1,4.756-1.665,10.216,10.216,0,0,1,3.93.255,12.036,12.036,0,0,1,4.515,2.13,11.2,11.2,0,0,1,1.14,1.1,5.179,5.179,0,0,1,.615.885,2.817,2.817,0,0,1-.075,3.27,7.24,7.24,0,0,1-1.83,1.876,3.285,3.285,0,0,1-.765.375c-.42.15-.87.285-1.3.42a6.519,6.519,0,0,0-1.455.615,8.568,8.568,0,0,1-2.7.84c-.165.03-.315.06-.495.09.03.06.03.105.045.12a6.257,6.257,0,0,0,2.835,1.7,2.268,2.268,0,0,0,2.1-.45c.33-.285.645-.57.975-.855.54-.5,1.065-1,1.62-1.47a7.289,7.289,0,0,1,3.5-1.665,6.9,6.9,0,0,1,1.365-.12,19.559,19.559,0,0,1,4.845.585,8.087,8.087,0,0,1,3.81,2.16,24.989,24.989,0,0,1,1.665,1.89,3.317,3.317,0,0,1,.54,3.2,5.967,5.967,0,0,1-1.125,2,9.87,9.87,0,0,1-2.985,2.52c-.3.166-.6.316-.885.481a2.9,2.9,0,0,1-2.115.315c-1.11-.225-2.2-.48-3.3-.721a12.651,12.651,0,0,0-3.6-.33c-.3.015-.6.075-.885.105A3.215,3.215,0,0,1,61.976,26.84Z" style="fill:#ef7d00"/><path d="M10.883,38.586a1.979,1.979,0,0,0-.4-.2c-.316-.09-.646-.18-.976-.24a1.711,1.711,0,0,1-1.02-.48,1.727,1.727,0,0,0-.255-.21.464.464,0,0,0-.7.06,1.232,1.232,0,0,0-.3.525A8.841,8.841,0,0,0,7,39.276,3.5,3.5,0,0,1,6.442,40.9c-.51.765-1.05,1.53-1.575,2.28l-.9,1.26A9.174,9.174,0,0,0,2.6,47.272c-.075.285-.18.57-.285.855a.356.356,0,0,1-.345.255,2.711,2.711,0,0,1-1.245-.135c-.33-.12-.36-.15-.33-.495a5.2,5.2,0,0,1,1.05-2.82,29.594,29.594,0,0,0,1.845-2.7,9.637,9.637,0,0,0,1.32-3.916,17.4,17.4,0,0,1,.57-3.03,7.122,7.122,0,0,1,1.755-3.06,5.713,5.713,0,0,1,3.45-1.62,9.563,9.563,0,0,1,2.266.045,4.7,4.7,0,0,0,1.65-.045,2.552,2.552,0,0,0,.48-.15.512.512,0,0,0,.225-.87,1.3,1.3,0,0,0-.765-.555,4.117,4.117,0,0,0-.96-.135,11.94,11.94,0,0,0-2.911.39c-.615.135-1.245.27-1.86.4a1.262,1.262,0,0,1-.78-.06,5.812,5.812,0,0,1-.975-.465A2.777,2.777,0,0,1,5.6,25.775,3.089,3.089,0,0,1,7.3,23.825a21.817,21.817,0,0,1,3.015-1.065,24.266,24.266,0,0,0,3.331-1.155,9.962,9.962,0,0,0,1.17-.645c.225-.135.225-.165.315-.42-.09-.165-.255-.165-.4-.18a4.6,4.6,0,0,0-1.92.2c-.825.24-1.65.525-2.461.8-.075.015-.135.06-.2.075-.27.09-.36.045-.345-.24a9.467,9.467,0,0,1,.105-1.14,10.376,10.376,0,0,1,.781-2.685,5.093,5.093,0,0,1,.945-1.44,2.742,2.742,0,0,1,2.955-.78,2.5,2.5,0,0,1,.3.12c.18.075.225.2.225.4a3.244,3.244,0,0,0,.075.855,2.162,2.162,0,0,0,2.04,1.65,3.669,3.669,0,0,0,1.455-.12c.69-.2,1.38-.39,2.085-.555a5.072,5.072,0,0,1,2.835.165A6.268,6.268,0,0,1,26.169,19.2a3.02,3.02,0,0,1,.72,1.11c.15.45.12.54-.24.825-.375.3-.765.585-1.155.87a8.385,8.385,0,0,0-2.476,2.88c-.105-.09-.21-.165-.315-.24-.51-.39-.99-.795-1.515-1.155a4.247,4.247,0,0,0-2.475-.735,15.1,15.1,0,0,0-4.89.915c-.405.135-.81.3-1.215.45a.771.771,0,0,0-.45.39.364.364,0,0,0,0,.33.37.37,0,0,0,.315.105c.42-.075.84-.18,1.26-.27a15.736,15.736,0,0,1,2.79-.315,4.49,4.49,0,0,1,2.685.765,14.047,14.047,0,0,1,1.98,1.545,5.829,5.829,0,0,1,.39.466c.15.21.15.285-.03.48s-.375.375-.57.555c-.465.42-.93.825-1.41,1.245a2.425,2.425,0,0,0-.69,1.035,7.86,7.86,0,0,0-.51,3.105c.015.21.045.42.06.645a.477.477,0,0,1-.135.045,4.4,4.4,0,0,0-3.525,2.415,3.654,3.654,0,0,0-.285.66c-.915,2.52-1.845,5.041-2.745,7.576-.81,2.265-1.456,4.575-2.071,6.885a3.15,3.15,0,0,0,.015,1.35c.03.2.045.405.06.615A3.359,3.359,0,0,1,7,53.767a2.245,2.245,0,0,1-.945-.96,4.464,4.464,0,0,1-.48-1.65,9.984,9.984,0,0,1,.255-3.465,13.775,13.775,0,0,1,.585-1.89,8.593,8.593,0,0,1,.69-1.26c.39-.63.84-1.23,1.2-1.875a9.478,9.478,0,0,0,.72-1.65,4.2,4.2,0,0,1,1.621-2.266C10.718,38.736,10.778,38.676,10.883,38.586Z" style="fill:#009fe3"/><path d="M72.942,11.734a1.181,1.181,0,0,0,.735.255,18.352,18.352,0,0,1,3.57.81,1.1,1.1,0,0,0,.5.03,8.32,8.32,0,0,1,4.156.285,18.9,18.9,0,0,1,2.835,1.051,8.018,8.018,0,0,1,1.365.855,3.012,3.012,0,0,1,1.2,2.385,4.263,4.263,0,0,1-1.425,3.51,6.474,6.474,0,0,0-.7.855c-.09.135-.18.315-.06.465a.429.429,0,0,0,.495.09,18.194,18.194,0,0,0,3.135-1.245,3.121,3.121,0,0,0,1.605-1.9,2.776,2.776,0,0,0,.12-.705c.015-.615.015-1.23.015-1.83a2.68,2.68,0,0,0-.585-1.665c-.3-.375-.615-.735-.9-1.14a1.986,1.986,0,0,1,.3.18,5.621,5.621,0,0,1,1.17,1.215,17.607,17.607,0,0,1,1.651,2.745,9.835,9.835,0,0,1,.96,3.915c.015.165-.015.33-.015.555a4.965,4.965,0,0,1-.51-.045c-.5-.1-.976-.24-1.471-.315a8.823,8.823,0,0,0-4.095.33,9.856,9.856,0,0,0-2.28.975,6.192,6.192,0,0,0-2.715,3.63,1.284,1.284,0,0,0-.045.271.8.8,0,0,0,.24.06h1.29a1.186,1.186,0,0,0,1.17-.751c.06-.135.135-.285.21-.42a6.946,6.946,0,0,1,1.38-1.92,2.29,2.29,0,0,1,1.95-.72,9.718,9.718,0,0,1,2.52.555,4.35,4.35,0,0,1,2.851,3.856l.045.675a.585.585,0,0,1-.27.555,9.338,9.338,0,0,0-3.031,3.5,15.421,15.421,0,0,0-1.575,4.275c-.015.075-.045.165-.06.24,0,.225-.15.3-.345.345a4.679,4.679,0,0,0-2.145,1.11c-.06.045-.12.1-.21.165a8.118,8.118,0,0,0-1.74-4.95c.21-.03.375-.06.54-.075a7.442,7.442,0,0,0,2.52-.7,3.834,3.834,0,0,0,.675-.405,1.464,1.464,0,0,0,.585-.915c.195-.825.435-1.65.66-2.46l.09-.315a1.344,1.344,0,0,0-1.17-1.7,2.34,2.34,0,0,0-1.86.57.694.694,0,0,0-.255.735,5.175,5.175,0,0,1-.48,3.18.74.74,0,0,1-.855.54c-.81-.105-1.62-.165-2.43-.3-1.29-.225-2.595-.51-3.87-.78a6.085,6.085,0,0,1-2.011-.84,3.313,3.313,0,0,1-.93-.84,1.508,1.508,0,0,1,0-2,6.032,6.032,0,0,1,.765-.751c.6-.51,1.23-1,1.815-1.53a5.962,5.962,0,0,0,1.771-2.625,5.373,5.373,0,0,0-.675-4.875A8.447,8.447,0,0,0,78,16.475a12.333,12.333,0,0,0-5.925-3.151,9.491,9.491,0,0,0-2.685-.165,1.44,1.44,0,0,1-1.26-.54,2.815,2.815,0,0,1-.765-1.365,2.773,2.773,0,0,1,0-.7,2.875,2.875,0,0,1,.135-.48,2.063,2.063,0,0,1,1.11-1.425c.3-.165.615-.33.9-.525a2.665,2.665,0,0,0,.525-.48c.135-.18.075-.33-.15-.36a3.3,3.3,0,0,0-1.53.045c-.8.285-1.56.6-2.34.915-.36.15-.48.135-.66-.225a2.6,2.6,0,0,0-.646-.81,1.428,1.428,0,0,1-.51-1.455,5.459,5.459,0,0,1,.24-1,1.159,1.159,0,0,1,1.081-.81,6.817,6.817,0,0,1,1.11.03c1.905.285,3.81.585,5.73.87.645.09,1.305.18,1.965.24A2.786,2.786,0,0,1,76.407,6.2c.48.66.975,1.3,1.455,1.965a7.239,7.239,0,0,1,.45.825,2.247,2.247,0,0,1,.076,1.335c-.015.225-.226.345-.421.4a7.191,7.191,0,0,1-1.11.315c-.87.135-1.755.24-2.64.36-.285.045-.57.09-.855.15A3.912,3.912,0,0,1,72.942,11.734Z" style="fill:#ad4682"/><path d="M30.474,9.844a1.578,1.578,0,0,1,1.5-.09,2.228,2.228,0,0,1,.975.885.609.609,0,0,0,.525.3,3.573,3.573,0,0,0,1.32-.135,2.161,2.161,0,0,0,1.44-1.5,2.329,2.329,0,0,0,.06-.315.239.239,0,0,0-.165-.285,3.663,3.663,0,0,0-1.71-.135c-.21.03-.255.12-.255.36,0,.135.015.27.015.39,0,.03-.015.045-.03.12-.09-.105-.165-.18-.24-.27a1.475,1.475,0,0,0-1.44-.63c-.705.12-1.41.255-2.115.39-.165.03-.33.075-.495.12a4.493,4.493,0,0,1-2.6.03,3,3,0,0,1,.075-.39,7.352,7.352,0,0,1,.51-1.035c.5-.75,1-1.485,1.53-2.22a2.854,2.854,0,0,1,1.35-.93,8.489,8.489,0,0,1,2.28-.495,25.839,25.839,0,0,1,3.885-.03c.435.03.871.03,1.291.03a3,3,0,0,0,1.8-.645c.075-.045.15-.18.135-.225a.34.34,0,0,0-.24-.165,7.628,7.628,0,0,0-.825-.06,2.24,2.24,0,0,1-.255-.03c.075-.075.105-.12.15-.135,1.335-.825,2.685-1.62,4.02-2.46a1.664,1.664,0,0,1,2.04.135,3.421,3.421,0,0,1,1.095,1.4,11.64,11.64,0,0,1,.84,2.625,1.838,1.838,0,0,1,.03.285c.015.6-.15.81-.735.975a4.381,4.381,0,0,0-.87.345A6.779,6.779,0,0,0,43.51,7.5a2.88,2.88,0,0,1-.3.285c-.03-.195-.06-.33-.09-.465a3.015,3.015,0,0,0-2.64-2.7,6.405,6.405,0,0,0-4.141.705,2,2,0,0,0-.45.345.364.364,0,0,0-.075.4c.06.15.2.165.33.165a13.9,13.9,0,0,1,2.611.27,6.5,6.5,0,0,1,1.185.4,1.537,1.537,0,0,1,.915,1.83,2.3,2.3,0,0,1-.72,1.365,19.2,19.2,0,0,1-2.881,2.16c-.57.375-1.155.72-1.74,1.08-.87.541-1.125.526-1.935-.09l-.495-.36a1.476,1.476,0,0,0-1.215-.3c-.36.06-.45-.015-.405-.36a2.782,2.782,0,0,0-.675-2.055A2.528,2.528,0,0,1,30.474,9.844Z" style="fill:#f5b3d2"/><path d="M21.413,12.214a.677.677,0,0,0-.66-.105c-.525.09-1.035.2-1.56.285-.405.075-.8.165-1.2.225a3.993,3.993,0,0,1-.6,0,1.141,1.141,0,0,1,.36-.465,6.88,6.88,0,0,1,2.715-1.575,9.521,9.521,0,0,1,4.306-.33,8.541,8.541,0,0,1,2.19.555,3.316,3.316,0,0,1,1.29.84,1.255,1.255,0,0,1,.21,1.53,1.043,1.043,0,0,1-.765.6c-.135.03-.285.06-.42.09a.954.954,0,0,0,.015.81.718.718,0,0,0,.7.465,2.15,2.15,0,0,0,1.5-.51.919.919,0,0,1,1.215-.06,16.154,16.154,0,0,1,1.29.975c.27.225.27.36.09.69-.21.36-.42.72-.6,1.11A4.887,4.887,0,0,0,31,19a.447.447,0,0,1-.4.465c-.33.06-.66.15-.99.18-.2.03-.33-.06-.435-.285a5.481,5.481,0,0,0-5.16-3.5,8.919,8.919,0,0,0-2.356.24,7.6,7.6,0,0,1-2.1.255,3.568,3.568,0,0,1-.8-.165.562.562,0,0,1-.42-.63c.06-.54.135-1.065.24-1.59a.782.782,0,0,1,.615-.556c.4-.135.81-.24,1.185-.4a4.671,4.671,0,0,0,.84-.48A2.219,2.219,0,0,1,21.413,12.214Z" style="fill:#fc0"/><path d="M62.5,4.129c-.2.33-.36.6-.525.885-.09-.03-.165-.06-.24-.09a17.189,17.189,0,0,0-5.01-1.4,10.209,10.209,0,0,0-3.57.225c-1.185.285-2.386.54-3.586.81-.075.015-.165.015-.3.03a2.872,2.872,0,0,0,0-.36c-.06-.66-.09-1.32-.18-1.965-.09-.735-.12-.78.465-1.26.36-.3.75-.57,1.125-.84a.684.684,0,0,1,.676-.09c.96.33,1.935.66,2.895.96.81.255,1.62.51,2.445.75a31.385,31.385,0,0,1,4.35,1.59C61.541,3.6,62.006,3.874,62.5,4.129Z" style="fill:#b0cb0a"/><path d="M205.912,55.637c-.069.181-.1.332-.156.362a1.493,1.493,0,0,1-.364.03H106.433a.737.737,0,0,1-.364-.03c-.053-.03-.087-.181-.157-.362Z" style="fill:#fff"/><path d="M205.886,3.006c-.034.08-.086.214-.139.24a1.654,1.654,0,0,1-.364.027H106.424a1.907,1.907,0,0,1-.382-.027c-.052,0-.086-.133-.1-.186.018-.08.018-.08.035-.107,0-.027.017-.027.035-.027a2.278,2.278,0,0,1,.416-.053h99.41C205.852,2.926,205.869,2.953,205.886,3.006Z" style="fill:#fff"/><path d="M117.027,31.827a3.437,3.437,0,0,0,.056-.527l.057-4.015c0-.414-.076-.49-.471-.584-.17-.037-.358-.075-.566-.113-.019-.151-.019-.3-.037-.49a4.132,4.132,0,0,1,.414-.038h1.979a.733.733,0,0,1,.3.038c.056.038.132.151.113.207a.664.664,0,0,1-.113.264c-.019.038-.076.038-.132.038-.641.207-.66.207-.679.905-.037,2.129-.056,4.278-.075,6.407,0,.189.094.434-.151.509-.264.094-.358-.132-.49-.283a16.426,16.426,0,0,0-1.508-1.733c-1.583-1.489-3.2-2.922-4.8-4.392a1.644,1.644,0,0,0-.245-.188,2.233,2.233,0,0,0-.057.264c-.019,1.583-.056,3.166-.056,4.749a3.608,3.608,0,0,0,.037.452.564.564,0,0,0,.453.453c.169.037.32.056.49.094.414.075.452.151.32.6h-2.9c-.095-.452-.076-.49.282-.565.415-.095.434-.113.453-.528.018-.264.018-.509.018-.773.019-1.639.019-3.279.038-4.919a.978.978,0,0,0-.509-.98c-.056-.037-.113-.056-.132-.113a.723.723,0,0,1-.075-.32.286.286,0,0,1,.245-.151c.415-.019.848-.019,1.263,0a.847.847,0,0,1,.395.189,5.483,5.483,0,0,1,.49.471l5.183,4.787A1.223,1.223,0,0,1,117.027,31.827Z" style="fill:#e30713"/><path d="M153.306,33.015c-.17-.151-.3-.264-.434-.4a1.576,1.576,0,0,1-.414-1.734,2.228,2.228,0,0,1,2.713-1.451,3.474,3.474,0,0,0,.98.094c.4-.019.792-.038,1.169-.038.3,0,.377.114.377.377,0,.283-.094.377-.377.4-.245.019-.509,0-.829,0a4.68,4.68,0,0,0,.15.471,1.577,1.577,0,0,1-1.074,2.2c-.414.151-.848.226-1.263.358-.169.057-.32.113-.508.189.113.32.358.32.584.339.622.038,1.263.038,1.884.094a2.25,2.25,0,0,1,.773.208,1.026,1.026,0,0,1,.452,1.526,2.229,2.229,0,0,1-.6.66,4.551,4.551,0,0,1-3.467.791,2.257,2.257,0,0,1-.83-.339.98.98,0,0,1-.037-1.7c.188-.132.4-.264.622-.434a4.438,4.438,0,0,1-.547-.358.493.493,0,0,1-.019-.885C152.816,33.26,153.023,33.165,153.306,33.015Zm1-2.921a.841.841,0,0,0-.866.753,1.6,1.6,0,0,0,1.055,1.7.968.968,0,0,0,1.244-.66A1.569,1.569,0,0,0,154.3,30.094Zm.585,4.711a2.227,2.227,0,0,0-1.414.415.61.61,0,0,0-.32.6c.038.264.264.358.49.414a3.85,3.85,0,0,0,2.167-.018,2.725,2.725,0,0,0,.528-.245.573.573,0,0,0,.3-.566c-.037-.264-.245-.358-.471-.4A9.636,9.636,0,0,0,154.889,34.805Z" style="fill:#fff"/><path d="M136.834,19.615h-2c-.15,0-.263-.056-.282-.226-.019-.151,0-.32.169-.358.453-.094.49-.415.49-.792,0-.471.038-.942.019-1.394a4.531,4.531,0,0,0-.132-.886.672.672,0,0,0-.659-.471,1.362,1.362,0,0,0-1.018.4.62.62,0,0,0-.151.414c-.019.754,0,1.508-.019,2.262a.451.451,0,0,0,.377.471c.339.113.339.132.245.565h-2.224c-.113-.4-.113-.4.189-.6a.531.531,0,0,0,.264-.452c.019-.773.019-1.546.019-2.3a.535.535,0,0,0-.283-.434c-.3-.226-.3-.377-.019-.6s.584-.433.886-.641a2.589,2.589,0,0,1,.471-.169c.019.339.038.622.075.98.151-.113.283-.189.4-.264a2.162,2.162,0,0,1,1.338-.452,1.167,1.167,0,0,1,1.074.546.9.9,0,0,0,.17.226c.132-.113.245-.207.358-.3a2.034,2.034,0,0,1,.961-.49,1.5,1.5,0,0,1,1.828,1.319,3.42,3.42,0,0,1,.038.622V18.39c0,.3.075.528.415.6.037,0,.075.038.132.057a.261.261,0,0,1,.131.339.217.217,0,0,1-.245.207c-.584,0-1.168,0-1.752-.019a.368.368,0,0,1-.264-.169.248.248,0,0,1,.132-.377c.414-.113.414-.415.4-.754-.019-.565,0-1.15,0-1.715,0-.377-.057-.754-.434-.923a1.338,1.338,0,0,0-1.3.113.509.509,0,0,0-.245.452c-.019.791-.019,1.6-.019,2.393a.344.344,0,0,0,.283.358C136.947,19.125,136.947,19.125,136.834,19.615Z" style="fill:#fff"/><path d="M187.078,32.43a3.281,3.281,0,0,1-.377,1.791.666.666,0,0,1-.415.3,6.754,6.754,0,0,1-4.937-.753,3.734,3.734,0,0,1-1.791-2.9,4.183,4.183,0,0,1,1.527-3.826,4.815,4.815,0,0,1,4.523-1.017c.414.094.829.151,1.244.207.207.019.358.094.339.32-.019.509-.057,1.018-.094,1.527-.019.151-.076.3-.264.3-.189.019-.264-.113-.3-.263l-.056-.227a1.644,1.644,0,0,0-1.395-1.3,3.248,3.248,0,0,0-3.939,2.714,5,5,0,0,0,.189,2.582A3.074,3.074,0,0,0,185.7,33.6a1.769,1.769,0,0,0,.886-.924C186.644,32.487,186.739,32.3,187.078,32.43Z" style="fill:#e30713"/><path d="M123.3,17.58a3.364,3.364,0,0,1-.264,1.677.656.656,0,0,1-.547.433,7.439,7.439,0,0,1-4.3-.433,3.868,3.868,0,0,1-2.337-2.921,4.24,4.24,0,0,1,1.546-4.2,4.782,4.782,0,0,1,4.466-.961,9.439,9.439,0,0,0,1.244.207c.207.019.358.1.358.321-.019.509-.056,1.017-.094,1.526-.019.151-.075.3-.264.3a.291.291,0,0,1-.3-.264,1.152,1.152,0,0,1-.057-.207,1.623,1.623,0,0,0-1.451-1.3,3.253,3.253,0,0,0-3.939,3.034,5.055,5.055,0,0,0,.207,2.187,2.963,2.963,0,0,0,2.149,2.054,3.353,3.353,0,0,0,1.922-.113,1.98,1.98,0,0,0,1.225-1.074C122.907,17.655,123,17.467,123.3,17.58Z" style="fill:#e30713"/><path d="M139.586,47.168c.094-.226.169-.4.245-.565.6-1.47,1.206-2.921,1.809-4.391.038-.113.094-.227.132-.34.094-.339.037-.452-.283-.6-.113-.056-.245-.075-.32-.169a.381.381,0,0,1-.113-.3c0-.056.15-.151.226-.151.584-.018,1.168-.018,1.771,0,.245,0,.34.208.226.415a.219.219,0,0,1-.094.094,1.957,1.957,0,0,0-.7,1.074c-.924,2.187-1.828,4.354-2.752,6.54-.075.189-.075.452-.377.434-.245,0-.282-.245-.358-.415-1.093-2.243-2.167-4.467-3.26-6.709a1.63,1.63,0,0,0-.7-.848.3.3,0,0,1-.17-.415c.057-.188.226-.17.377-.17h1.979c.169,0,.339,0,.377.227.037.207-.076.282-.264.376-.415.189-.434.208-.264.6.773,1.715,1.564,3.43,2.356,5.126A1.011,1.011,0,0,1,139.586,47.168Z" style="fill:#e30713"/><path d="M160.222,15.149a1.7,1.7,0,0,0,.264-.151,2.212,2.212,0,0,1,1.677-.339,1.4,1.4,0,0,1,1.244,1.432c.019.754,0,1.508-.019,2.261v.509c.189.057.339.113.49.151a.3.3,0,0,1,.208.358c-.019.189-.151.245-.321.245h-1.752c-.132,0-.245-.038-.283-.17-.038-.15-.038-.339.132-.395.452-.132.433-.471.433-.83,0-.546.019-1.093,0-1.62a1.72,1.72,0,0,0-.075-.528.885.885,0,0,0-.942-.7,2.554,2.554,0,0,0-.528.056c-.528.151-.622.283-.622.829v2.13c0,.434,0,.434.415.565.376.132.395.151.263.622a1.086,1.086,0,0,1-.245.038h-1.752a.5.5,0,0,1-.34-.132.277.277,0,0,1,.151-.414c.358-.17.415-.472.434-.83q.029-2.912.056-5.823a.767.767,0,0,0-.264-.641c-.263-.226-.263-.377.019-.565s.566-.358.848-.509a2.879,2.879,0,0,1,.585-.151c-.038.565-.057,1.055-.076,1.545-.019.509-.019,1.018-.038,1.546C160.2,14.112,160.222,14.6,160.222,15.149Z" style="fill:#fff"/><path d="M142.771,14.489c.056.17.113.339.169.546a2.811,2.811,0,0,0,.339-.169,2.336,2.336,0,0,1,1.847-.17,2.221,2.221,0,0,1,1.6,2.168,2.728,2.728,0,0,1-3.392,2.9c-.132-.019-.264-.057-.433-.076a2.913,2.913,0,0,0-.057.321V21.33c0,.4.075.471.471.509.076,0,.151.019.226.019a.245.245,0,0,1,.226.282.243.243,0,0,1-.245.264,1.214,1.214,0,0,1-.263,0h-1.678a.461.461,0,0,1-.226-.019c-.075-.037-.169-.094-.188-.15a.486.486,0,0,1,.075-.283c.038-.057.132-.075.189-.113.226-.075.282-.226.282-.452.019-.641.038-1.263.038-1.9,0-1.018,0-2.054.019-3.072a.714.714,0,0,0-.377-.7c-.377-.226-.358-.358,0-.622.245-.17.49-.339.754-.509A.724.724,0,0,1,142.771,14.489Zm.113,2.6h0c.019.395,0,.791.019,1.168a.617.617,0,0,0,.226.528,1.7,1.7,0,0,0,2.374-.471,2.118,2.118,0,0,0-.9-2.79,1.7,1.7,0,0,0-1.357-.075.45.45,0,0,0-.339.471C142.884,16.317,142.884,16.694,142.884,17.09Z" style="fill:#fff"/><path d="M172.585,14.451c.019.339.057.6.076.9a2.853,2.853,0,0,1,.3-.113c.264-.151.528-.3.792-.434a1.418,1.418,0,0,1,.961-.094,1.128,1.128,0,0,1,.98,1.169c.019.791.019,1.6.019,2.393v.32c0,.227.075.377.32.4a.362.362,0,0,1,.245.094.657.657,0,0,1,.113.321.222.222,0,0,1-.17.169c-.734.019-1.469,0-2.186,0-.113-.282-.075-.471.189-.546a.484.484,0,0,0,.358-.547c0-.716.019-1.413,0-2.129a.666.666,0,0,0-.735-.735,1.844,1.844,0,0,0-.547.037c-.622.132-.716.245-.716.886-.019.6,0,1.206-.019,1.809,0,.34.076.566.453.679.282.075.282.151.15.528h-2.336c-.17-.4-.151-.472.226-.6a.445.445,0,0,0,.339-.471v-2.45c0-.226-.132-.3-.3-.414-.339-.208-.358-.4-.056-.6a8.3,8.3,0,0,1,1.074-.566A3.9,3.9,0,0,0,172.585,14.451Z" style="fill:#fff"/><path d="M128.975,33.882c-.151.094-.264.169-.4.245a2.642,2.642,0,0,1-1.507.414,1.128,1.128,0,0,1-1.206-1,8.472,8.472,0,0,1-.057-1.394c0-.471.038-.943.075-1.4a.447.447,0,0,0-.32-.528c-.151-.056-.283-.131-.264-.32s.189-.226.321-.245a2.745,2.745,0,0,1,1.357-.075v.622c-.038.867-.076,1.715-.095,2.582a.883.883,0,0,0,1.093.923,3.156,3.156,0,0,0,.4-.094c.679-.226.716-.264.754-.98.038-.566.038-1.15.057-1.715a.558.558,0,0,0-.415-.66.39.39,0,0,1-.151-.075c-.188-.151-.188-.4.038-.453a3.426,3.426,0,0,1,1.583-.131v.565c-.019,1.018-.057,2.054-.075,3.072,0,.377.037.4.414.433h.094c.076.057.208.113.208.17a.281.281,0,0,1-.151.226c-.377.151-.754.3-1.131.434-.283.094-.4.018-.509-.283A1.417,1.417,0,0,0,128.975,33.882Z" style="fill:#fff"/><path d="M169.664,31.752c0-.32.019-.678,0-1.018a.576.576,0,0,0-.565-.546.618.618,0,0,0-.773.377.962.962,0,0,1-1.037.509c-.226-.057-.32-.17-.245-.4a1.152,1.152,0,0,1,.208-.4,2.791,2.791,0,0,1,2.77-.735,1.066,1.066,0,0,1,.7.773,2.63,2.63,0,0,1,.095.659c.019.716,0,1.451,0,2.168,0,.471,0,.471.509.508.056,0,.113.019.169.019.094.4,0,.509-.471.716a.936.936,0,0,1-1.319-.377,3.2,3.2,0,0,0-.339.189,2.512,2.512,0,0,1-1.47.358,1.1,1.1,0,0,1-1.056-.773,1.158,1.158,0,0,1,.377-1.338,2.04,2.04,0,0,1,.641-.32C168.42,31.978,169,31.884,169.664,31.752Zm.019.716a1.959,1.959,0,0,0-1.489.321.561.561,0,0,0-.207.64.539.539,0,0,0,.546.377,1.991,1.991,0,0,0,1.018-.339.332.332,0,0,0,.113-.226C169.683,33,169.683,32.751,169.683,32.468Z" style="fill:#fff"/><path d="M191.167,34.014c-.131.075-.226.131-.339.188a2.509,2.509,0,0,1-1.47.358,1.127,1.127,0,0,1-1.055-.773,1.156,1.156,0,0,1,.377-1.338,1.974,1.974,0,0,1,.641-.3,6.832,6.832,0,0,1,.885-.208c.3-.056.6-.075.943-.131a3.169,3.169,0,0,0-.038-1.188.6.6,0,0,0-.66-.433.575.575,0,0,0-.64.377.905.905,0,0,1-1.037.509c-.245-.057-.358-.227-.226-.472a2.166,2.166,0,0,1,.433-.565,2.755,2.755,0,0,1,2.073-.584,1.209,1.209,0,0,1,1.207,1.319c.018.735,0,1.47.018,2.224v.358c0,.226.113.32.34.32.15,0,.358-.075.414.151s-.113.358-.3.452a2.3,2.3,0,0,1-.453.189A.841.841,0,0,1,191.167,34.014Zm.019-1.527a1.9,1.9,0,0,0-1.3.17c-.358.207-.509.508-.4.81a.622.622,0,0,0,.792.32,3.154,3.154,0,0,0,.7-.282.389.389,0,0,0,.188-.264A4.935,4.935,0,0,0,191.186,32.487Z" style="fill:#fff"/><path d="M160.241,44.021a5.3,5.3,0,0,1,.792.132,2.411,2.411,0,0,1,1.941,2.487,2.49,2.49,0,0,1-2.186,2.488,3.164,3.164,0,0,1-1.4-.056,2.4,2.4,0,0,1-1.734-2.79A2.745,2.745,0,0,1,160.241,44.021Zm1.508,2.959a2.4,2.4,0,0,0-.961-2.111,1.171,1.171,0,0,0-1.847.716,3.031,3.031,0,0,0,.226,2.149,1.844,1.844,0,0,0,.414.527,1.259,1.259,0,0,0,2.055-.6A3.661,3.661,0,0,0,161.749,46.98Z" style="fill:#e30713"/><path d="M148.519,34.56a2.419,2.419,0,0,1-2.62-2.6,2.65,2.65,0,0,1,2.9-2.506,5.129,5.129,0,0,1,.528.094,2.42,2.42,0,0,1,1.9,2.563,2.5,2.5,0,0,1-2.356,2.431A1.721,1.721,0,0,0,148.519,34.56Zm1.47-2.205a2.363,2.363,0,0,0-.924-2.073,1.173,1.173,0,0,0-1.9.716,3.151,3.151,0,0,0,.226,2.111,1.652,1.652,0,0,0,.339.471,1.258,1.258,0,0,0,2.13-.565A2.283,2.283,0,0,0,149.989,32.355Z" style="fill:#fff"/><path d="M139.02,34.56a2.429,2.429,0,0,1-2.638-2.582,2.63,2.63,0,0,1,2.94-2.506,2.184,2.184,0,0,1,.49.094,2.433,2.433,0,0,1,1.922,2.6,2.515,2.515,0,0,1-2.375,2.412A.72.72,0,0,0,139.02,34.56ZM137.569,31.7h.019a3.613,3.613,0,0,0,.019.453,2.386,2.386,0,0,0,.6,1.432,1.264,1.264,0,0,0,2.148-.528,2.726,2.726,0,0,0-.019-1.6,1.944,1.944,0,0,0-.961-1.243,1.162,1.162,0,0,0-1.7.716C137.626,31.149,137.626,31.413,137.569,31.7Z" style="fill:#fff"/><path d="M127.505,19.709a2.441,2.441,0,0,1-2.619-2.035,2.676,2.676,0,0,1,3.373-3,2.428,2.428,0,0,1,1.922,2.677,2.5,2.5,0,0,1-2.355,2.318A1.2,1.2,0,0,1,127.505,19.709Zm1.47-2.261h-.037a1.912,1.912,0,0,0,0-.321,2.184,2.184,0,0,0-.962-1.715,1.174,1.174,0,0,0-1.847.773,3.008,3.008,0,0,0,.17,1.9,1.812,1.812,0,0,0,.547.753,1.241,1.241,0,0,0,2.016-.64C128.919,17.957,128.938,17.693,128.975,17.448Z" style="fill:#fff"/><path d="M175.186,48.6a3.8,3.8,0,0,1-.452.245,2.284,2.284,0,0,1-1.565.283,1.186,1.186,0,0,1-.49-2.111,2.018,2.018,0,0,1,.735-.32c.547-.132,1.112-.226,1.715-.32a8.76,8.76,0,0,0,0-1,.637.637,0,0,0-.64-.584.6.6,0,0,0-.7.414.922.922,0,0,1-1.112.452.263.263,0,0,1-.169-.395,1.812,1.812,0,0,1,.452-.6,2.737,2.737,0,0,1,2.3-.566,1.151,1.151,0,0,1,1,1.169c.038.565.019,1.149.019,1.715v.9c.019.321.057.358.358.4.151.019.339-.056.377.151a.363.363,0,0,1-.245.433,2.537,2.537,0,0,1-.716.264A.689.689,0,0,1,175.186,48.6Zm-.038-1.526a1.489,1.489,0,0,0-1,.075,1.63,1.63,0,0,0-.565.358.534.534,0,0,0,.264.886,1.583,1.583,0,0,0,1.187-.3c.264-.17.094-.472.132-.717A1.934,1.934,0,0,0,175.148,47.074Z" style="fill:#e30713"/><path d="M192.713,17.109a1.8,1.8,0,0,0,.452,1.356,1.115,1.115,0,0,0,.886.359,1.828,1.828,0,0,0,1.187-.377.654.654,0,0,1,.189-.132c.15-.076.282-.1.4.056a.291.291,0,0,1-.056.377,2.426,2.426,0,0,1-1.508.924,2.179,2.179,0,0,1-2.732-1.923,3.124,3.124,0,0,1,.32-1.979,2.216,2.216,0,0,1,2.657-1.093,1.959,1.959,0,0,1,1.037.83.993.993,0,0,0,.358.377.289.289,0,0,1,.169.32c-.018.17-.131.207-.282.245l-2.526.509C193.071,17.014,192.92,17.052,192.713,17.109Zm1.715-.962c-.132-.64-.528-1.017-.942-.942a1.08,1.08,0,0,0-.735,1.319C193.316,16.411,193.862,16.279,194.428,16.147Z" style="fill:#fff"/><path d="M199.573,31.978c.019.151.019.3.038.434a1.459,1.459,0,0,0,2.374.98,1.324,1.324,0,0,1,.339-.227.407.407,0,0,1,.358.057c.132.094.057.245-.018.358a2.558,2.558,0,0,1-3.506.49,1.962,1.962,0,0,1-.527-.716,3.062,3.062,0,0,1,.15-2.827,2.181,2.181,0,0,1,2.62-.98,1.931,1.931,0,0,1,1,.81c.113.17.169.377.414.453.057.019.113.207.095.3a.3.3,0,0,1-.208.189c-.433.094-.848.169-1.281.264-.566.113-1.112.245-1.678.358A.351.351,0,0,0,199.573,31.978Zm1.715-.98c-.094-.641-.509-1.036-.942-.942a1.067,1.067,0,0,0-.7,1.319C200.2,31.243,200.722,31.13,201.288,31Z" style="fill:#fff"/><path d="M121.041,31.94c.019.189.019.321.038.453a1.453,1.453,0,0,0,2.374.98,1.3,1.3,0,0,1,.34-.226.4.4,0,0,1,.358.056c.132.094.075.245-.019.358a2.51,2.51,0,0,1-1.64.961,3.442,3.442,0,0,1-.98-.056,1.847,1.847,0,0,1-1.526-1.432,3.076,3.076,0,0,1,.207-2.413,2.173,2.173,0,0,1,2.638-1.112,1.813,1.813,0,0,1,1.037.83c.113.169.17.376.415.452a.316.316,0,0,1,.094.3.343.343,0,0,1-.245.208c-.7.15-1.414.282-2.13.433C121.7,31.809,121.4,31.865,121.041,31.94ZM122.756,31c-.094-.622-.509-1.036-.923-.942a1.058,1.058,0,0,0-.7,1.319C121.663,31.243,122.209,31.111,122.756,31Z" style="fill:#fff"/><path d="M166.423,17.09a1.5,1.5,0,0,0,.848,1.658,1.715,1.715,0,0,0,1.507-.207c.095-.057.189-.151.283-.207a.3.3,0,0,1,.415.037c.113.132.056.245-.038.377a2.584,2.584,0,0,1-3.487.509,1.86,1.86,0,0,1-.6-.829,3.184,3.184,0,0,1,.132-2.62,2.182,2.182,0,0,1,2.639-1.112,1.816,1.816,0,0,1,1.036.829c.113.17.17.377.415.453a.263.263,0,0,1,.094.264.449.449,0,0,1-.207.245c-.415.113-.848.169-1.282.263C167.61,16.845,167.007,16.977,166.423,17.09Zm-.038-.547c.6-.132,1.149-.264,1.7-.4-.057-.395-.075-.452-.226-.622a.731.731,0,0,0-1.225.019A1.358,1.358,0,0,0,166.385,16.543Z" style="fill:#fff"/><path d="M157.3,16.411c-1.112.226-2.186.453-3.3.679a1.7,1.7,0,0,0,.7,1.545,1.617,1.617,0,0,0,1.715-.094,2.749,2.749,0,0,0,.245-.189c.151-.113.321-.15.453,0s.037.3-.076.434a2.533,2.533,0,0,1-2.469.867,2.006,2.006,0,0,1-1.7-1.809,3.316,3.316,0,0,1,.264-2.036,2.195,2.195,0,0,1,2.657-1.149,1.807,1.807,0,0,1,1.037.829c.113.169.188.358.414.452C157.433,16.015,157.358,16.223,157.3,16.411Zm-3.26.132c.584-.132,1.13-.245,1.677-.377a.967.967,0,0,0-.6-.942.765.765,0,0,0-.867.415A1.146,1.146,0,0,0,154.041,16.543Z" style="fill:#fff"/><path d="M145.089,34.428a1.112,1.112,0,0,1-.264.038h-1.847c-.151,0-.32.038-.358-.17a.288.288,0,0,1,.226-.377c.358-.075.4-.32.415-.64.037-1.866.094-3.732.15-5.6a1.033,1.033,0,0,0-.471-1.036c-.282-.17-.264-.34.019-.509.415-.245.848-.452,1.282-.66a.81.81,0,0,1,.32-.019v.49c-.019.245-.075.472-.075.717-.019,2.129-.057,4.278-.076,6.407v.321c0,.395.019.395.4.527C145.164,34.014,145.164,34.014,145.089,34.428Z" style="fill:#fff"/><path d="M174.244,25.439v.395c-.019.415-.076.848-.076,1.263-.037,1.979-.037,3.977-.075,5.955v.321c.019.377.019.377.377.49s.358.113.3.527a1.086,1.086,0,0,1-.245.038h-1.847c-.15,0-.32.038-.376-.151a.31.31,0,0,1,.245-.414c.3-.076.376-.264.376-.566.038-1.884.095-3.769.151-5.635a1.056,1.056,0,0,0-.49-1.074c-.226-.132-.245-.32-.056-.433.49-.264.98-.509,1.488-.754C174.074,25.4,174.149,25.439,174.244,25.439Z" style="fill:#fff"/><path d="M180.727,15.978a.347.347,0,0,1-.471-.132c-.076-.094-.132-.207-.208-.3a.8.8,0,0,0-1-.3.46.46,0,0,0-.377.4.481.481,0,0,0,.264.527c.453.208.905.434,1.338.641a1.342,1.342,0,0,1,.434,2.186,2.474,2.474,0,0,1-.867.566,3.163,3.163,0,0,1-1.96.056c-.339-.094-.4-.17-.415-.546v-.811c0-.132,0-.283.17-.32a.34.34,0,0,1,.377.169,5.708,5.708,0,0,0,.358.566.913.913,0,0,0,1.036.377.637.637,0,0,0,.528-.547.626.626,0,0,0-.4-.7c-.433-.226-.867-.434-1.281-.679a1.191,1.191,0,0,1-.6-1.225,1.122,1.122,0,0,1,.659-1,3.268,3.268,0,0,1,1.942-.264.438.438,0,0,1,.4.377A1.567,1.567,0,0,1,180.727,15.978Z" style="fill:#fff"/><path d="M147.671,46.942a2.959,2.959,0,0,1,3.5-2.865,1.614,1.614,0,0,1,.848.4.549.549,0,0,1,.151.622.56.56,0,0,1-.547.339.938.938,0,0,1-.659-.264,1.236,1.236,0,0,0-1.018-.282,1.039,1.039,0,0,0-.923.7,2.4,2.4,0,0,0,.131,2.092,1.608,1.608,0,0,0,1.979.66c.189-.076.377-.189.566-.264.132-.057.264-.095.358.056.113.151.056.283-.076.4a2.643,2.643,0,0,1-1.828.66A3.723,3.723,0,0,1,149.046,49,1.987,1.987,0,0,1,147.671,46.942Z" style="fill:#e30713"/><path d="M163.954,34.579c-.226-.038-.453-.038-.679-.094a2.144,2.144,0,0,1-1.734-2.752,2.964,2.964,0,0,1,3.6-2.224,2.388,2.388,0,0,1,.716.377.493.493,0,0,1,.151.622.479.479,0,0,1-.547.321,1.6,1.6,0,0,1-.64-.264,1.486,1.486,0,0,0-.924-.283,1.069,1.069,0,0,0-1.018.7,2.383,2.383,0,0,0,.114,2.055,1.608,1.608,0,0,0,2.091.64,4.334,4.334,0,0,0,.528-.264c.132-.056.264-.056.3.076a.382.382,0,0,1-.019.32,1.023,1.023,0,0,1-.3.264A2.858,2.858,0,0,1,163.954,34.579Z" style="fill:#fff"/><path d="M187.172,15.3c.264.943.66,1.81.98,2.752.094-.094.17-.132.207-.207.34-.641.7-1.263,1.018-1.923.207-.4.189-.433-.17-.7a.659.659,0,0,1-.169-.151c-.132-.169-.057-.4.151-.4q.65-.027,1.3,0a.257.257,0,0,1,.17.434c-.886,1.225-1.452,2.619-2.224,3.92a3.3,3.3,0,0,1-.245.433c-.208.283-.358.264-.528-.037-.056-.113-.113-.245-.17-.377-.452-1.093-.885-2.168-1.338-3.261-.094-.226-.245-.414-.339-.622a.7.7,0,0,1-.094-.377c.019-.056.188-.113.3-.113.528-.018,1.056,0,1.584,0,.15,0,.32-.018.339.208s-.113.282-.3.3C187.492,15.205,187.361,15.262,187.172,15.3Z" style="fill:#fff"/><path d="M134.723,33.844c.113.509.076.584-.339.584-.7.019-1.376.019-2.073.019-.132,0-.283.019-.339-.151a.325.325,0,0,1,.132-.433c.377-.151.377-.453.377-.773,0-.622,0-1.225.018-1.847a.654.654,0,0,0-.3-.641c-.339-.226-.339-.358,0-.6.32-.207.641-.395.961-.584a1.915,1.915,0,0,1,.452-.132c.019.377.038.679.057,1.074.188-.132.339-.245.471-.339a4.743,4.743,0,0,1,.641-.433c.509-.245.9.037.9.6a.958.958,0,0,1-.018.226c-.095.49-.358.641-.811.433a.946.946,0,0,0-1.017.057.529.529,0,0,0-.245.452c0,.566-.038,1.15-.038,1.715,0,.509.151.66.659.735C134.384,33.825,134.554,33.825,134.723,33.844Z" style="fill:#fff"/><path d="M196.708,33.844c.113.528.076.584-.339.584-.678.019-1.357.019-2.035.019-.151,0-.321.038-.377-.151s-.038-.377.169-.452c.3-.132.34-.377.34-.66,0-.64,0-1.3.018-1.941a.67.67,0,0,0-.3-.641c-.339-.226-.339-.358,0-.6.3-.207.6-.377.923-.565a3.375,3.375,0,0,1,.471-.17c.019.377.057.7.076,1.093.245-.169.433-.32.622-.452a2.926,2.926,0,0,1,.622-.358.555.555,0,0,1,.772.546v.227c-.075.565-.339.735-.867.49a.857.857,0,0,0-.772-.019.658.658,0,0,0-.453.659c0,.528-.037,1.056-.037,1.583,0,.566.151.717.716.773C196.388,33.825,196.539,33.825,196.708,33.844Z" style="fill:#fff"/><path d="M148.142,19.6c-.132-.414-.132-.452.151-.622a.539.539,0,0,0,.282-.509c0-.7,0-1.375.019-2.073a.683.683,0,0,0-.32-.64c-.321-.208-.321-.358,0-.566a10.811,10.811,0,0,1,1-.6,3.224,3.224,0,0,1,.433-.132c.019.358.038.679.057,1.037.131-.076.226-.113.32-.17.245-.169.471-.377.735-.528a.669.669,0,0,1,.867.114A1.033,1.033,0,0,1,151.572,16a.6.6,0,0,1-.679-.019.928.928,0,0,0-.98.094.453.453,0,0,0-.226.415c-.019.584-.038,1.168-.038,1.752,0,.49.151.641.641.7a1.921,1.921,0,0,0,.321.018c.207,0,.3.1.3.3s-.094.3-.3.3C149.8,19.6,148.99,19.6,148.142,19.6Z" style="fill:#fff"/><path d="M165.933,45c.358-.264.6-.452.848-.641a.879.879,0,0,1,.716-.207.465.465,0,0,1,.433.433.911.911,0,0,1,0,.321c-.038.6-.32.772-.867.527a.888.888,0,0,0-.867.019.623.623,0,0,0-.377.6c.019.547-.018,1.093-.018,1.621s.15.678.659.716h.132c.434.038.452.057.377.6h-2.714c-.094-.264-.094-.49.189-.6a.416.416,0,0,0,.263-.433c.019-.773.019-1.546.038-2.3,0-.245-.151-.339-.32-.452-.321-.245-.321-.4,0-.6.358-.226.716-.452,1.093-.641.245-.132.358-.037.358.245A3.214,3.214,0,0,1,165.933,45Z" style="fill:#e30713"/><path d="M153.814,45.1c-.113-.056-.226-.094-.32-.132-.339-.132-.358-.3-.094-.565.226-.208.471-.415.7-.641.151-.132.264-.283.434-.415a1.959,1.959,0,0,1,.395-.188v.98h1.282c.32,0,.377.075.377.377,0,.339-.057.414-.415.414h-1.187c-.038.057-.075.076-.075.113-.019.849-.076,1.715-.076,2.564.019.565.4.772.942.6a3.12,3.12,0,0,1,.377-.151.373.373,0,0,1,.283.056c.038.038.019.17-.019.245a1.568,1.568,0,0,1-2.224.509,1.311,1.311,0,0,1-.452-1.074l.057-2.262A1.662,1.662,0,0,0,153.814,45.1Z" style="fill:#e30713"/><path d="M160.75,33.938v.509h-2.356c-.151-.4-.151-.433.207-.584a.462.462,0,0,0,.321-.471V31.13a.533.533,0,0,0-.321-.546c-.15-.057-.263-.132-.245-.321s.151-.245.283-.32c.32-.151.622-.3.942-.434a2.541,2.541,0,0,1,.472-.113v.453L160,33.184c0,.6,0,.6.584.7C160.637,33.863,160.693,33.9,160.75,33.938Z" style="fill:#fff"/><path d="M182.385,19.615c-.075-.452-.075-.471.245-.6a.472.472,0,0,0,.321-.49V16.3a.6.6,0,0,0-.34-.584c-.358-.189-.339-.434.019-.6.339-.17.679-.339,1.018-.49a1.223,1.223,0,0,1,.4-.076,2.326,2.326,0,0,1,.037.264c-.019,1.244-.037,2.469-.056,3.713,0,.415.019.433.452.49q.453.057.339.4a.3.3,0,0,1-.207.188C183.874,19.615,183.139,19.615,182.385,19.615Z" style="fill:#fff"/><path d="M170.625,43.983v.641c-.019,1.093-.038,2.2-.056,3.3,0,.452.037.49.471.547.094.018.169.018.3.037v.528c-.15.019-.3.019-.452.038-.49,0-1,0-1.489.018h-.037c-.189,0-.415.057-.472-.226-.056-.245.095-.358.3-.414.245-.076.3-.245.3-.49V45.736a.583.583,0,0,0-.32-.584c-.358-.189-.339-.434.019-.622.339-.17.678-.34,1.018-.49C170.324,44.021,170.437,44.021,170.625,43.983Z" style="fill:#e30713"/><path d="M146.634,48.506c.17.453.094.584-.339.566h-1.659c-.339,0-.471-.113-.395-.377a.381.381,0,0,1,.226-.227c.3-.094.377-.282.377-.584-.019-.716,0-1.413,0-2.129a.611.611,0,0,0-.358-.622c-.34-.17-.34-.415,0-.584.358-.189.735-.359,1.093-.528a1.76,1.76,0,0,1,.377-.057v.3c-.019,1.244-.038,2.488-.038,3.75,0,.3.056.358.358.415A1.382,1.382,0,0,0,146.634,48.506Z" style="fill:#e30713"/><path d="M170.079,42.306a.591.591,0,0,1-.6-.584.579.579,0,0,1,.584-.6.617.617,0,0,1,.641.6A.651.651,0,0,1,170.079,42.306Z" style="fill:#e30713"/><path d="M145.409,42.306a.62.62,0,0,1-.6-.6.637.637,0,0,1,.622-.6.615.615,0,0,1,.622.622A.653.653,0,0,1,145.409,42.306Z" style="fill:#e30713"/><path d="M183.535,11.662a.585.585,0,1,1-.622.565A.582.582,0,0,1,183.535,11.662Z" style="fill:#fff"/><path d="M159.487,27.681a.584.584,0,1,1,0-1.168.616.616,0,0,1,.641.6A.638.638,0,0,1,159.487,27.681Z" style="fill:#fff"/></g></svg>