<?xml version="1.0" encoding="utf-8"?>
<!-- Generator: Adobe Illustrator 26.3.1, SVG Export Plug-In . SVG Version: 6.00 Build 0)  -->
<svg version="1.1" xmlns="http://www.w3.org/2000/svg" xmlns:xlink="http://www.w3.org/1999/xlink" x="0px" y="0px"
	 viewBox="0 0 360 115" style="enable-background:new 0 0 360 115;" xml:space="preserve">
<style type="text/css">
	.st0{fill:#009640;}
	.st1{fill:#E30513;}
	.st2{fill:#EF7D00;}
	.st3{fill:#009FE3;}
	.st4{fill:#AD4682;}
	.st5{fill:#F5B3D2;}
	.st6{fill:#FFCC00;}
	.st7{fill:#B0CB0A;}
	.st8{fill:#E30713;}
</style>
<g id="CNC_Victoria">
	<g>
		<path d="M11.6,96.5V78c-0.8-1.2-1.7-1.8-3-1.8v-0.6h7.8l7.5,18l7.4-18H39v0.6c-1.8,0-3,0.7-3,3.1v17.9c0,2.4,1.2,3.1,3,3.1v0.6
			H27.5v-0.6c1.8,0,3-0.7,3-3.1V80.6L22,101.2h-0.7l-8.5-20.6v16c0,2.6,1.2,3.7,3.5,3.7v0.6H8.1v-0.6
			C10.3,100.2,11.6,99.1,11.6,96.5z"/>
		<path d="M40.6,92c0-5.8,4.2-9.4,9.4-9.4c4.9,0,7.7,3.2,7.7,6.9H45.9c0,0.4,0,0.7,0,1c0,5.2,3.1,7.5,6.4,7.5c1.9,0,3.5-0.6,4.8-2.4
			l0.4,0.2c-1.2,3-3.7,5.6-7.8,5.6C44.6,101.4,40.6,97.9,40.6,92z M50.4,88.5c1.9,0,2.7-1,2.7-2.3c0-1.4-0.9-2.6-2.9-2.6
			c-2.5,0-3.7,2.4-4.2,4.9H50.4z"/>
		<path d="M61.6,97.2V80.4c0-2-0.9-2.9-3-2.9V77l8.2-2v22.1c0,2.3,1.2,3,3,3v0.6H58.6v-0.6C60.4,100.2,61.6,99.5,61.6,97.2z"/>
		<path d="M76.1,99.2l-2.8,1.9h-0.5V80.4c0-1.9-0.9-2.9-3-2.9V77l8.2-1.9v11.2h0.2c1.2-2.2,3.1-3.6,5.8-3.6c4.1,0,6.6,3.6,6.6,8.4
			c0,6.7-3.7,10.4-8.7,10.4C79.1,101.4,77.4,100.4,76.1,99.2z M77.9,94.8c0,4.4,1.6,5.6,3.5,5.6c2.7,0,3.8-2.7,3.8-7.6
			c0-5.1-1.4-7.6-3.7-7.6c-1.7,0-2.8,1-3.5,2.6V94.8z"/>
		<path d="M93.1,92c0-5.5,3.9-9.4,9.1-9.4c5.4,0,9,3.6,9,9.4c0,5.3-3.9,9.4-9,9.4C96.7,101.4,93.1,98,93.1,92z M102.6,100.4
			c2.4,0,3.3-2.7,3.3-6.7c0-6.2-1.5-10-4.2-10c-2.3,0-3.3,2.3-3.3,6.6C98.4,97.2,100,100.4,102.6,100.4z"/>
		<path d="M115.5,94.9v-8c0-2.4-1.1-3.1-2.8-3.1v-0.6h8v11.4c0,2.2,0.8,3.5,2.9,3.5c1.1,0,2.3-0.5,3.3-1.4v-9.8c0-2.4-1-3.1-2.8-3.1
			v-0.6h8v12.9c0,1.9,0.9,2.9,3,2.9v0.5l-8.2,1.9v-3.8h-0.2c-1.3,2.1-3.2,3.8-5.9,3.8C117.5,101.4,115.5,99.4,115.5,94.9z"/>
		<path d="M139,97.2V88c0-1.9-0.8-2.9-3-2.9v-0.5l8.2-1.9v5.8h0.3c0.8-3.6,3.5-5.8,7-5.8v4.8c-0.8-0.2-1.6-0.3-2.3-0.3
			c-3,0-4.9,1.6-4.9,4.3v5.8c0,2.4,1.2,3.1,3,3.1v0.6H136v-0.6C137.8,100.2,139,99.6,139,97.2z"/>
		<path d="M155.7,97.2V88c0-1.9-0.8-2.9-3-2.9v-0.5l8.2-1.9v3.7h0.2c1.4-2.2,3.2-3.7,5.9-3.7c3.2,0,5.4,2.2,5.4,6.6v7.9
			c0,2.4,1,3.1,2.8,3.1v0.6h-10.3v-0.6c1.4,0,2.3-0.7,2.3-3.1v-7.8c0-2.2-0.9-3.5-2.9-3.5c-1.1,0-2.3,0.5-3.3,1.4v9.9
			c0,2.4,0.9,3.1,2.3,3.1v0.6h-10.5v-0.6C154.5,100.2,155.7,99.6,155.7,97.2z"/>
		<path d="M176.7,92c0-5.8,4.2-9.4,9.4-9.4c4.9,0,7.7,3.2,7.7,6.9H182c0,0.4,0,0.7,0,1c0,5.2,3.1,7.5,6.4,7.5c1.9,0,3.5-0.6,4.8-2.4
			l0.4,0.2c-1.2,3-3.7,5.6-7.8,5.6C180.7,101.4,176.7,97.9,176.7,92z M186.5,88.5c1.9,0,2.7-1,2.7-2.3c0-1.4-0.9-2.6-2.9-2.6
			c-2.5,0-3.7,2.4-4.2,4.9H186.5z"/>
		<path d="M207.5,97.2V79.3c0-2.4-1.2-3.1-3-3.1v-0.6h20.4v7.6h-0.6c0-4-2.3-6.6-6.6-6.6H213v11h4.5c2.7,0,3.8-2,3.8-4.7h0.6v10.4
			h-0.6c0-2.7-1.1-4.7-3.8-4.7H213v11.1h5.4c4.7,0,6.6-2.6,6.6-7h0.6v8.1h-21.1v-0.6C206.3,100.2,207.5,99.6,207.5,97.2z"/>
		<path d="M227.4,107.8c1.8,0,3-0.7,3-3.1V88c0-2.1-0.9-2.8-3-2.8v-0.6l8.2-1.9v3.7h0.2c1.1-2.1,2.9-3.7,5.7-3.7
			c4.2,0,6.7,3.6,6.7,8.6c0,6.5-3.7,10.2-8.7,10.2c-1.6,0-2.8-0.4-3.8-1v4.3c0,2.4,1.2,3.1,3,3.1v0.6h-11.2V107.8z M235.6,94.8
			c0,4.4,1.6,5.6,3.3,5.6c2.6,0,3.9-2.7,3.9-7.6c0-5.1-1.4-7.5-3.9-7.5c-1.5,0-2.7,1-3.4,2.6V94.8z"/>
		<path d="M253.2,97.2V88c0-1.9-0.9-2.9-3-2.9v-0.5l8.2-1.9v14.5c0,2.4,1.2,3.1,3,3.1v0.6h-11.2v-0.6
			C252,100.2,253.2,99.6,253.2,97.2z M255.5,74.4c1.7,0,3,1.4,3,3c0,1.7-1.3,3-3,3c-1.7,0-3-1.3-3-3
			C252.5,75.8,253.8,74.4,255.5,74.4z"/>
		<path d="M265,97.2V80.4c0-2-0.9-2.9-3-2.9V77l8.2-2v22.1c0,2.3,1.2,3,3,3v0.6h-11.2v-0.6C263.8,100.2,265,99.5,265,97.2z"/>
		<path d="M274.7,92c0-5.8,4.2-9.4,9.4-9.4c4.9,0,7.7,3.2,7.7,6.9H280c0,0.4,0,0.7,0,1c0,5.2,3.1,7.5,6.4,7.5c1.9,0,3.5-0.6,4.8-2.4
			l0.4,0.2c-1.2,3-3.7,5.6-7.8,5.6C278.8,101.4,274.7,97.9,274.7,92z M284.5,88.5c1.9,0,2.7-1,2.7-2.3c0-1.4-0.9-2.6-2.9-2.6
			c-2.5,0-3.7,2.4-4.2,4.9H284.5z"/>
		<path d="M292.9,107.8c1.8,0,3-0.7,3-3.1V88c0-2.1-0.9-2.8-3-2.8v-0.6l8.2-1.9v3.7h0.2c1.1-2.1,2.9-3.7,5.7-3.7
			c4.2,0,6.7,3.6,6.7,8.6c0,6.5-3.7,10.2-8.7,10.2c-1.6,0-2.8-0.4-3.8-1v4.3c0,2.4,1.2,3.1,3,3.1v0.6h-11.2V107.8z M301.1,94.8
			c0,4.4,1.6,5.6,3.3,5.6c2.6,0,3.9-2.7,3.9-7.6c0-5.1-1.4-7.5-3.9-7.5c-1.5,0-2.7,1-3.4,2.6V94.8z"/>
		<path d="M316.5,100v-5.8h0.5c1.3,3.5,4.2,6.2,7.5,6.2c2,0,3-0.9,3-2.2c0-4.3-10.8-2.7-10.8-10c0-3.6,2.9-5.6,6.8-5.6
			c2.2,0,4.7,0.5,6.5,1.5v5.6h-0.5c-1.1-3.9-3.7-6-6.6-6c-1.7,0-2.8,0.9-2.8,2.3c0,4.3,10.8,2.9,10.8,10c0,3.7-2.8,5.4-6.9,5.4
			C321.8,101.4,318.4,100.9,316.5,100z"/>
		<path d="M335.2,104.5c3.7,0,5.3-1.3,6.3-3.3l-6.4-14.3c-0.9-2.1-1.8-3.1-3.4-3.1v-0.6h10.9v0.6c-2.2,0-2.9,0.9-1.9,3.1l3.6,8.2
			l3.6-8c1.1-2.4,0-3.2-2.3-3.2v-0.6h7.5v0.6c-1.8,0-3,0.9-4,3.1l-6.3,14c-2.5,5.7-5.2,8.1-10.6,8.1v-4.7
			C333.3,104.4,334.3,104.5,335.2,104.5z"/>
	</g>
</g>
<g id="Layer_2">
	<g>
		<path class="st0" d="M32.6,29c0.1-0.2,0.2-0.4,0.3-0.5c1.1-1.7,2.6-2.8,4.5-3.5c1-0.3,2-0.5,3-0.6c3.1-0.1,6.1,0.4,9,1.4
			c0.4,0.1,0.8,0.3,1.1,0.5c0.2,0.1,0.4,0.3,0.6,0.5c0.8,1.2,1.4,2.5,1.6,4c0.2,1.1,0.1,2.1-0.1,3.2c-0.1,0.4-0.2,0.8-0.5,1.2
			c-0.6,1.1-0.9,2.2-1.1,3.4c-0.1,0.5-0.2,0.9-0.3,1.3c0,0.1-0.1,0.2-0.1,0.3c-0.2,0.5-0.4,0.7-0.9,0.6c-0.6-0.1-1.2-0.1-1.8-0.2
			c0,0-0.1,0-0.1,0c-0.4-0.1-0.5-0.1-0.5-0.5c0-1.3,0-2.6,0-3.8c0-0.5,0-1-0.1-1.5c-0.2-0.8-0.5-1.4-1.1-2c-0.2-0.2-0.4-0.4-0.7-0.6
			c-1.6-1.1-3.4-1.6-5.3-1.6c-0.6,0-1.1,0.1-1.6,0.3c-0.2,0.1-0.3,0.1-0.4,0.2c-0.3,0.2-0.3,0.4,0,0.6c0.2,0.1,0.3,0.2,0.5,0.2
			c0.6,0.2,1.3,0.4,1.9,0.6c0.6,0.2,1.2,0.5,1.8,0.8c0.7,0.3,1.3,0.8,1.6,1.6c0.4,0.9,0.5,1.7,0.3,2.6c-0.2,0.7-0.5,1.4-0.9,2
			c-0.5,0.7-1,1.4-1.7,1.9c-0.6,0.5-1.2,1.1-1.9,1.6c-2.2,1.5-4.2,3.2-6,5.2c-0.3,0.3-0.6,0.7-1,1c-0.6,0.5-1.2,1-1.8,1.5
			c-0.6,0.5-1.3,0.7-2,0.8c-0.5,0-1,0-1.5,0c-0.6,0-1.1-0.1-1.7-0.1c-0.4,0-0.5,0.1-0.3,0.5c0,0,0,0.1,0,0.1c0.5,0.8,1,1.6,1.7,2.1
			c0.9,0.7,1.9,0.8,2.9,0.4c1.5-0.6,2.9-1.4,3.9-2.6c0.7-0.8,1.4-1.7,2.1-2.6c0.8-1.1,1.6-2.2,2.5-3.2c0.8-1,1.8-2,2.9-2.7
			c1-0.7,2-1.2,3.2-1.4c0.8-0.2,1.7-0.2,2.5,0c1.4,0.3,2.8,0.7,4.2,1.3c1.5,0.7,2.7,1.7,3.6,3.1c0.6,0.9,0.9,1.9,0.8,3
			c0,0.6-0.2,1.2-0.5,1.7c-0.4,0.9-0.9,1.7-1.7,2.2c-0.8,0.6-1.6,1.2-2.5,1.7c-1.3,0.7-2.7,1.2-4.2,1.2c-0.8,0-1.5,0-2.3,0
			c-0.4,0-0.5,0.1-0.5,0.5c-0.1,0.7,0.3,1.2,1,1.3c1.1,0.2,2.2,0.2,3.2-0.5c0.6-0.4,1.2-0.6,1.9-0.7c1.8-0.3,3.4-1.1,4.9-2.2
			c0.8-0.6,1.5-1.2,2.3-1.9c0.5-0.4,0.8-0.9,1.1-1.5c0.6-1.1,1.2-2.2,1.7-3.3c0.2-0.4,0.3-0.8,0.6-1.2c0.9-1.5,2.2-2.3,3.9-2.4
			c1.2-0.1,2.3,0.1,3.5,0.3c1.4,0.3,2.7,0.7,3.9,1.4c0.8,0.4,1.4,0.9,2,1.5c0.8,0.8,1.2,1.7,1.2,2.8c0,1-0.4,1.9-1.1,2.6
			c-0.5,0.6-1.2,1-1.9,1.3c-0.5,0.2-0.9,0.4-1.4,0.5c-0.7,0.2-1.2,0.6-1.7,1.2c-0.2,0.2-0.3,0.4-0.5,0.6c-0.1,0.1-0.2,0.2-0.3,0.3
			c0.2,0.2,0.3,0.3,0.5,0.3c0.5,0,1.1,0,1.6,0c0,0,0,0,0.1,0c0.9-0.1,0.9-0.1,1.5-0.7c0,0.1,0.1,0.2,0.1,0.2c0,1.2-0.4,2.2-1.1,3.2
			c-0.1,0.1-0.1,0.2-0.2,0.2c-1.1,1.1-2.4,1.8-3.8,2.2c-0.9,0.2-1.6-0.1-2-1c-0.2-0.6-0.3-1.2-0.2-1.9c0.1-0.9,0.4-1.7,0.7-2.4
			c0.5-1.2,0.9-2.4,1.2-3.7c0.1-0.6-0.3-1.1-0.7-1.4c-0.3-0.2-0.5-0.2-0.8,0c-0.2,0.1-0.4,0.3-0.6,0.5c-0.5,0.6-0.9,1.2-1.1,2
			c-0.3,1.3-0.8,2.5-1.5,3.6c-1.4,2.3-3.4,3.7-6,4.1c-0.5,0.1-1.1,0-1.6,0c-1.1,0-2.2-0.1-3.3-0.1c-0.6,0-1.2,0.1-1.8,0.3
			c-1.1,0.3-2.2,0.6-3.3,0.9c-0.8,0.2-1.6,0.3-2.5,0.3c-1.2,0-2.4,0-3.6-0.2c-0.5-0.1-1-0.2-1.5-0.3c-0.7-0.2-0.9-0.6-0.8-1.4
			c0.1-0.4,0.2-0.9,0.4-1.3c0.4-0.9,0.9-1.6,1.4-2.4c0.2-0.2,0.3-0.5,0.5-0.7c0.8-1.5,1.7-2.9,2.7-4.2c0.8-1.1,1.6-2.1,2.4-3.2
			c0.2-0.3,0.5-0.5,0.7-0.8c0.2-0.2,0.5-0.3,0.8-0.2c0.3,0.1,0.4,0.3,0.2,0.6c0,0.1-0.1,0.1-0.1,0.2c0.1,0.2,0.2,0.2,0.4,0.3
			c0.7,0,1.3-0.1,1.8-0.6c0.1-0.1,0.2-0.2,0.2-0.3c0.2-0.4,0.1-0.8-0.3-1.1c-0.4-0.2-0.8-0.3-1.2-0.3c-1.5-0.1-2.8,0.5-4,1.4
			c-0.1,0.1-0.2,0.2-0.3,0.3c-0.2,0.3-0.5,0.6-0.7,1c-1.6,2.4-3.4,4.7-5.3,7c-0.4,0.5-0.8,0.9-1.2,1.3c-0.5,0.6-1.1,1.1-1.8,1.5
			c-0.9,0.6-2,1-3.1,1.1c-1.3,0-2.6,0.1-3.9,0.1c-0.9,0-1.7-0.1-2.6-0.3c-0.9-0.2-1.7-0.6-2.3-1.2c-0.3-0.3-0.7-0.7-1-1
			c-0.9-1.1-1.2-2.3-0.9-3.6c0.6-3,1.4-5.9,2.3-8.8c0.5-1.8,1.1-3.5,1.8-5.2c0.2-0.5,0.5-0.9,0.8-1.4c0.3-0.5,0.7-0.7,1.2-0.7
			c1.2,0,2.3,0.2,3.4,0.5c0.9,0.2,1.8,0.5,2.8,0.8c0.3,0.1,0.6,0.2,0.9,0.2c0.7,0.1,1.3-0.1,1.9-0.5c0.4-0.3,0.8-0.5,1.2-0.7
			c0.9-0.4,1.5-1.1,1.7-2.1c0.1-0.5-0.1-0.8-0.6-1c-0.5-0.2-1-0.1-1.5,0.1c-0.1,0.1-0.3,0.1-0.3,0.3c0.1,0.2,0.3,0.2,0.5,0.3
			c0.2,0.1,0.3,0.2,0.2,0.4c-0.1,0.6-0.4,1-0.8,1.4c-0.1,0.1-0.3,0.1-0.4,0.1c-0.3,0-0.6-0.1-0.9-0.2c-1.4-0.4-2.7-0.7-4.1-0.9
			c-0.3,0-0.6-0.1-0.9-0.1c-0.6-0.1-0.9-0.4-0.9-1c0-0.7,0.1-1.4,0.3-2.1c0.1-0.5,0.4-0.8,0.7-1.1c1.2-1.1,2.5-2.1,3.7-3.2
			c0.8-0.7,1.7-1.5,2.5-2.2c0.1-0.1,0.3-0.3,0.4-0.4c0.3-0.4,0.2-0.7-0.3-0.7c0,0,0,0,0,0c-1,0.1-2,0.3-2.7,1.1
			c-0.3,0.3-0.6,0.6-0.9,0.9c-0.1,0.1-0.1,0.1-0.2,0.1C32.6,29,32.6,29,32.6,29z"/>
		<path class="st1" d="M80.5,57.2c0.2,0.2,0.4,0.2,0.5,0.2c0.5-0.1,0.9-0.1,1.3-0.2c2.6-0.8,5-2,7.1-3.6c1-0.8,1.9-1.8,2.4-3
			c0.5-1.1,1-2.2,1.3-3.4c0.5-1.6,1.4-3,2.6-4.2c0.2-0.2,0.5-0.4,0.8-0.6c0.2-0.2,0.5-0.2,0.7-0.2c1.3,0.1,2.3,0.6,3.3,1.4
			c0.2,0.2,0.4,0.4,0.5,0.7c0.1,0.3,0.2,0.6,0.3,0.9c0.1,0.4,0.3,0.5,0.7,0.6c0.8,0,1.4-0.2,2-0.7c0.3-0.3,0.4-0.7,0.3-1.1
			c-0.1-0.5-0.3-0.9-0.7-1.3c-0.4-0.4-0.8-0.7-1.3-1c-0.6-0.3-1.3-0.5-1.9-0.7c-0.3-0.1-0.4-0.2-0.3-0.5c0.5-1.8,1-3.7,2.2-5.3
			c0.2-0.3,0.5-0.6,0.7-0.9c0.2-0.2,0.5-0.3,0.8-0.2c1,0.3,2,0.6,2.9,1.2c0.5,0.3,0.9,0.6,1.2,1c0.7,0.8,1,1.7,0.8,2.7
			c-0.2,1-0.3,2.1-0.5,3.1c-0.3,1.7-1,3.3-2,4.7c-0.7,1.1-1.5,2.1-2.5,3c-0.3,0.3-0.7,0.6-1,0.9c-0.2,0.2-0.5,0.3-0.8,0.5
			c-0.6,0.2-1.1,0.2-1.6-0.2c-0.5-0.4-0.8-0.8-1.1-1.3c-0.1-0.2-0.2-0.4-0.3-0.6c-0.3-0.5-0.9-0.7-1.5-0.6c-0.2,0.1-0.4,0.3-0.3,0.5
			c0.2,0.7,0.1,1.4,0.1,2c0,0.8-0.2,1.5-0.4,2.2c-0.3,0.7-0.7,1.3-1.4,1.7c-1.7,0.9-3.4,1.7-5.2,2.3c-1.6,0.5-3.1,1.1-4.6,1.7
			c-1.4,0.6-2.7,1.1-4.2,1.4c-1.1,0.2-2.2,0.3-3.3,0c-0.8-0.2-1.4-0.5-2-1c-0.3-0.3-0.5-0.6-0.6-1c-0.2-1.4,0-2.7,0.9-3.9
			c0.4-0.5,0.8-0.9,1.2-1.4c0.5-0.4,0.8-0.9,0.9-1.5c0,0,0-0.1,0.1-0.2c0.2,0.1,0.3,0.1,0.4,0.2c0.3,0.2,0.6,0.4,0.9,0.6
			c0.2,0.1,0.3,0.1,0.5,0.1c0.1,0,0.2-0.1,0.3-0.1c0.5-0.2,0.9-0.5,1.4-0.7c0.3-0.2,0.4-0.4,0.1-0.6c-0.1-0.1-0.3-0.2-0.5-0.3
			c-1-0.3-1.9-0.6-2.9-0.9c-0.3-0.1-0.4-0.2-0.4-0.5c0-0.3-0.1-0.6-0.3-0.8c-0.2-0.3-0.4-0.7-0.5-1.1c0-0.2,0-0.4,0.1-0.6
			c0.2,0,0.4,0.1,0.5,0.2c1.9,0.6,3.9,1,5.9,0.8c0.7,0,1.5-0.2,2.1-0.5c0.4-0.2,0.6-0.4,0.6-0.8c0-0.3-0.2-0.6-0.5-0.6
			c-0.2,0-0.3,0-0.5,0c-2,0.3-3.8,0-5.7-0.6c-1.2-0.4-2.5-0.9-3.7-1.3c-1.1-0.3-2.2-0.5-3.3-0.6c-0.9-0.1-1.7-0.2-2.6-0.3
			c-1.4-0.3-2.4-1-3.3-2.1c-0.3-0.4-0.6-0.8-0.8-1.3c-0.2-0.4-0.5-0.5-0.9-0.5c-0.5,0-0.9,0.2-1.4,0.3c-0.1,0.1-0.2,0.1-0.3,0.2
			c-0.3,0.2-0.3,0.4-0.2,0.8c0.5,1.1,1.2,2,2.1,2.8c0.1,0.1,0.2,0.2,0.3,0.3c-0.1,0.1-0.2,0.1-0.3,0.1c-1.3,0.1-2.5,0.3-3.7,0.6
			c-0.2,0.1-0.5,0.2-0.7,0.2c-0.3,0.1-0.6,0.3-0.9,0.5c-0.4,0.4-0.9,0.5-1.4,0.3c-0.2,0-0.3-0.1-0.5-0.2c-0.7-0.4-1.5-0.8-2.2-1.2
			c-0.3-0.2-0.6-0.4-0.8-0.6c-1.2-1.1-1.8-2.5-1.6-4.1c0.2-1.1,0.5-2.2,1.1-3.1c0.2-0.4,0.5-0.7,0.8-1c0.8-0.8,1.7-1.2,2.9-1
			c0.8,0.1,1.7,0.2,2.5,0.3c1.7,0.2,3.2-0.1,4.8-0.7c0.6-0.2,1.2-0.5,1.7-0.7c0.7-0.3,1.3-0.4,2.1-0.3c1.3,0.2,2.5,0.4,3.7,0.8
			c0.2,0.1,0.5,0.2,0.7,0.3c0.2,0.1,0.3,0.3,0.4,0.5c0,0.4,0.1,0.8,0.2,1.2c0.2,1,0.9,1.4,1.8,1.1c0.5-0.2,0.9-0.5,1.2-0.9
			c0.3-0.4,0.4-0.8,0.5-1.3c0-0.2,0-0.4,0.1-0.6c0.2,0,0.4,0,0.6,0c1.1,0.2,1.9,0.8,2.3,1.9c0.1,0.3,0,0.5-0.2,0.7
			c-0.3,0.3-0.7,0.5-1,0.8c-0.6,0.5-1.2,0.9-1.7,1.4c-0.4,0.3-0.7,0.8-1.1,1.2c-0.2,0.2-0.3,0.5-0.4,0.7c-0.1,0.3,0,0.4,0.3,0.5
			s0.5,0.1,0.8,0.1c0.4,0,0.9-0.1,1.3-0.3c0.4-0.2,0.7-0.4,0.9-0.7c0.6-0.8,1.2-1.5,2-2.1c0.4-0.3,0.8-0.6,1.2-0.8
			c0.5-0.3,1-0.3,1.5-0.1c1,0.3,2,0.5,3,0.9c2,0.6,3.2,2,3.6,4.1c0.1,0.7,0.2,1.4,0.1,2.1c0,0.5,0,0.9-0.1,1.4
			c-0.1,1.1-0.3,2.1-0.6,3.1c-0.2,0.7-0.5,1.4-0.7,2c-0.3,0.8-0.8,1.6-1.4,2.2c-0.6,0.5-1.2,1.1-1.9,1.5c-1.5,1-3,1.9-4.7,2.6
			c-0.4,0.2-0.7,0.3-1.1,0.5C80.8,57,80.7,57.1,80.5,57.2z"/>
		<path class="st2" d="M70.1,30.5c0.1-0.2,0.1-0.3,0.2-0.5c0.2-0.2,0.3-0.5,0.5-0.7c0.6-0.6,1.2-1.2,1.7-1.9
			c0.2-0.2,0.5-0.3,0.8-0.3c0.3,0,0.7,0.1,1,0.1c0.4,0,0.8,0.1,1.2,0.2c0.6,0.1,1.2-0.1,1.7-0.4c0.4-0.2,0.6-0.5,0.6-1
			c0-0.3,0-0.3-0.3-0.4c-0.6-0.2-1.2-0.3-1.8-0.4c-0.6-0.1-1.2-0.1-1.8-0.2c-0.9-0.1-1.8,0.1-2.6,0.6c-0.6,0.4-1.2,0.9-1.6,1.4
			c-0.5,0.6-1,1.1-1.5,1.7c-0.5,0.5-0.9,1.1-1.4,1.6c-1.5,1.6-3.6,1.9-5.6,1.2c-0.5-0.2-0.9-0.3-1.4-0.4c-0.8-0.2-1.5-0.4-2.2-0.8
			c-0.6-0.3-1-0.7-1.3-1.3c-0.5-0.8-1.1-1.6-1.6-2.4c-0.3-0.4-0.7-0.8-1.1-1.2c-0.6-0.7-1.4-1.2-2.3-1.4c-2-0.6-4-1.2-6.1-1.5
			c-0.5-0.1-1.1-0.1-1.7-0.1c-0.4,0-0.5,0-0.8-0.2c0.1-0.1,0.2-0.2,0.3-0.3c0.5-0.5,0.8-1.1,0.9-1.7c0.1-0.4,0-0.7-0.1-1.1
			c-0.2-0.4-0.1-0.5,0.3-0.7c0.8-0.4,1.6-0.6,2.4-0.8c0.9-0.2,1.9-0.4,2.8-0.4c0.8-0.1,1.6,0.1,2.4,0.5c1.1,0.5,2.1,1.2,3,1.9
			c0.6,0.5,1.1,1,1.7,1.5c0.5,0.4,1,0.8,1.5,1.1c0.2,0.1,0.3,0.2,0.6,0.3c0-0.1,0-0.2-0.1-0.3c-1.2-2.3-2.8-4.2-4.9-5.8
			c-0.4-0.3-0.9-0.6-1.4-0.9c-0.3-0.2-0.7-0.3-1.1-0.3c-0.2,0-0.4,0-0.5-0.1c-0.1,0-0.2-0.1-0.4-0.1c0.1-0.2,0.1-0.3,0.2-0.4
			c0.5-0.6,1-1.2,1.5-1.7c0.2-0.2,0.4-0.2,0.7-0.3c1.2-0.1,2.3,0,3.4,0.5c1.2,0.5,2.3,1,3.5,1.5c1.1,0.5,2.2,1.1,3.4,1.5
			c1.1,0.4,2.3,0.6,3.5,0.6c0.3,0,0.6-0.1,0.9-0.2c0.7-0.2,0.8-1.4,0.2-1.7c-0.4-0.2-0.7-0.4-1.1-0.6c-1.4-0.5-2.8-1-4.2-1.5
			c-1.2-0.4-2.3-0.8-3.6-1c-0.8-0.2-1.6-0.3-2.4-0.5c-0.3-0.1-0.6-0.1-0.8-0.3c0.1-0.1,0.2-0.1,0.3-0.2c1.5-0.9,3-1.5,4.8-1.7
			c1.3-0.2,2.6-0.1,3.9,0.3c1.6,0.4,3.2,1.1,4.5,2.1c0.4,0.3,0.8,0.7,1.1,1.1c0.2,0.3,0.4,0.6,0.6,0.9c0.6,1.1,0.7,2.2-0.1,3.3
			c-0.5,0.7-1.1,1.4-1.8,1.9c-0.2,0.2-0.5,0.3-0.8,0.4c-0.4,0.2-0.9,0.3-1.3,0.4c-0.5,0.2-1,0.3-1.5,0.6c-0.8,0.5-1.8,0.7-2.7,0.8
			C62.4,21,62.2,21,62,21c0,0.1,0,0.1,0,0.1c0.8,0.8,1.7,1.4,2.8,1.7c0.8,0.2,1.5,0.1,2.1-0.5c0.3-0.3,0.6-0.6,1-0.9
			c0.5-0.5,1.1-1,1.6-1.5c1-0.9,2.2-1.4,3.5-1.7c0.5-0.1,0.9-0.1,1.4-0.1c1.6,0,3.3,0.2,4.8,0.6c1.5,0.4,2.7,1.1,3.8,2.2
			c0.6,0.6,1.1,1.2,1.7,1.9c0.8,1,0.9,2,0.5,3.2c-0.2,0.8-0.6,1.4-1.1,2c-0.8,1-1.8,1.9-3,2.5c-0.3,0.2-0.6,0.3-0.9,0.5
			c-0.7,0.4-1.4,0.5-2.1,0.3c-1.1-0.2-2.2-0.5-3.3-0.7c-1.2-0.3-2.4-0.4-3.6-0.3c-0.3,0-0.6,0.1-0.9,0.1
			C70.4,30.5,70.3,30.5,70.1,30.5z"/>
		<path class="st3" d="M19,42.3c-0.2-0.1-0.3-0.2-0.4-0.2c-0.3-0.1-0.6-0.2-1-0.2c-0.4-0.1-0.8-0.2-1-0.5c-0.1-0.1-0.2-0.2-0.3-0.2
			c-0.3-0.2-0.5-0.2-0.7,0.1c-0.1,0.2-0.3,0.3-0.3,0.5c-0.1,0.4-0.2,0.8-0.2,1.2c-0.1,0.6-0.2,1.1-0.6,1.6c-0.5,0.8-1.1,1.5-1.6,2.3
			c-0.3,0.4-0.6,0.8-0.9,1.3C11.5,49,11,50,10.7,51c-0.1,0.3-0.2,0.6-0.3,0.9c-0.1,0.2-0.2,0.2-0.3,0.3c-0.4,0-0.8,0-1.2-0.1
			c-0.3-0.1-0.4-0.2-0.3-0.5c0.1-1,0.4-2,1.1-2.8c0.7-0.9,1.3-1.8,1.8-2.7c0.7-1.2,1.2-2.5,1.3-3.9c0.1-1,0.3-2,0.6-3
			c0.4-1.2,0.9-2.2,1.8-3.1c1-1,2.1-1.5,3.5-1.6c0.8-0.1,1.5,0,2.3,0c0.6,0.1,1.1,0.1,1.7,0c0.2,0,0.3-0.1,0.5-0.2
			c0.4-0.2,0.5-0.5,0.2-0.9c-0.2-0.3-0.4-0.5-0.8-0.6c-0.3-0.1-0.6-0.1-1-0.1c-1,0-2,0.2-2.9,0.4c-0.6,0.1-1.2,0.3-1.9,0.4
			c-0.3,0.1-0.5,0-0.8-0.1c-0.3-0.1-0.7-0.3-1-0.5c-1.2-0.8-1.6-2-1.2-3.4c0.3-0.9,0.8-1.5,1.7-2c1-0.5,2-0.8,3-1.1
			c1.1-0.3,2.3-0.7,3.3-1.2c0.4-0.2,0.8-0.4,1.2-0.6c0.2-0.1,0.2-0.2,0.3-0.4c-0.1-0.2-0.3-0.2-0.4-0.2c-0.7-0.1-1.3,0-1.9,0.2
			c-0.8,0.2-1.7,0.5-2.5,0.8c-0.1,0-0.1,0.1-0.2,0.1c-0.3,0.1-0.4,0-0.3-0.2c0-0.4,0-0.8,0.1-1.1c0.2-0.9,0.4-1.8,0.8-2.7
			c0.2-0.5,0.5-1,0.9-1.4c0.8-0.9,1.8-1.1,3-0.8c0.1,0,0.2,0.1,0.3,0.1c0.2,0.1,0.2,0.2,0.2,0.4c0,0.3,0,0.6,0.1,0.9
			c0.2,0.9,1,1.5,2,1.7c0.5,0,1,0,1.5-0.1c0.7-0.2,1.4-0.4,2.1-0.6c1-0.2,1.9-0.2,2.8,0.2c1,0.3,1.8,0.8,2.6,1.5
			c0.3,0.3,0.6,0.7,0.7,1.1c0.2,0.5,0.1,0.5-0.2,0.8c-0.4,0.3-0.8,0.6-1.2,0.9c-1,0.8-1.9,1.7-2.5,2.9c-0.1-0.1-0.2-0.2-0.3-0.2
			c-0.5-0.4-1-0.8-1.5-1.2c-0.7-0.5-1.6-0.7-2.5-0.7c-1.7,0-3.3,0.4-4.9,0.9c-0.4,0.1-0.8,0.3-1.2,0.5c-0.2,0.1-0.4,0.2-0.5,0.4
			c0,0.1-0.1,0.3,0,0.3c0,0.1,0.2,0.1,0.3,0.1c0.4-0.1,0.8-0.2,1.3-0.3c0.9-0.2,1.8-0.3,2.8-0.3c1,0,1.9,0.2,2.7,0.8
			c0.7,0.5,1.4,0.9,2,1.5c0.1,0.2,0.3,0.3,0.4,0.5c0.2,0.2,0.2,0.3,0,0.5s-0.4,0.4-0.6,0.6c-0.5,0.4-0.9,0.8-1.4,1.2
			c-0.3,0.3-0.5,0.6-0.7,1c-0.4,1-0.6,2-0.5,3.1c0,0.2,0,0.4,0.1,0.6c0,0-0.1,0-0.1,0c-1.6,0.2-2.7,1-3.5,2.4
			c-0.1,0.2-0.2,0.4-0.3,0.7c-0.9,2.5-1.8,5-2.7,7.6c-0.8,2.3-1.5,4.6-2.1,6.9c-0.1,0.5-0.1,0.9,0,1.4c0,0.2,0,0.4,0.1,0.6
			c-0.9,0.3-1.8,0.5-2.7,0c-0.4-0.2-0.7-0.6-0.9-1c-0.3-0.5-0.4-1.1-0.5-1.7c-0.2-1.2,0-2.3,0.3-3.5c0.2-0.6,0.3-1.3,0.6-1.9
			c0.2-0.4,0.4-0.9,0.7-1.3c0.4-0.6,0.8-1.2,1.2-1.9c0.3-0.5,0.5-1.1,0.7-1.7c0.3-0.9,0.8-1.7,1.6-2.3C18.8,42.4,18.9,42.4,19,42.3z
			"/>
		<path class="st4" d="M81,15.4c0.3,0.2,0.5,0.2,0.7,0.3c1.2,0.2,2.4,0.4,3.6,0.8c0.2,0,0.3,0.1,0.5,0c1.4-0.3,2.8-0.2,4.2,0.3
			c1,0.3,1.9,0.6,2.8,1.1c0.5,0.2,0.9,0.5,1.4,0.9c0.8,0.6,1.2,1.4,1.2,2.4c0.1,1.4-0.4,2.6-1.4,3.5c-0.3,0.3-0.5,0.6-0.7,0.9
			c-0.1,0.1-0.2,0.3-0.1,0.5c0.1,0.2,0.3,0.2,0.5,0.1c1.1-0.4,2.1-0.7,3.1-1.2c0.8-0.4,1.4-1,1.6-1.9c0.1-0.2,0.1-0.5,0.1-0.7
			c0-0.6,0-1.2,0-1.8c0-0.6-0.2-1.2-0.6-1.7c-0.3-0.4-0.6-0.7-0.9-1.1c0.1,0.1,0.2,0.1,0.3,0.2c0.5,0.3,0.8,0.8,1.2,1.2
			c0.6,0.9,1.2,1.8,1.7,2.7c0.6,1.2,0.9,2.6,1,3.9c0,0.2,0,0.3,0,0.6c-0.2,0-0.3,0-0.5,0c-0.5-0.1-1-0.2-1.5-0.3
			c-1.4-0.2-2.7-0.1-4.1,0.3c-0.8,0.2-1.6,0.5-2.3,1c-1.4,0.9-2.3,2.1-2.7,3.6c0,0.1,0,0.2,0,0.3c0.1,0,0.2,0.1,0.2,0.1
			c0.4,0,0.9,0,1.3,0c0.5,0,0.9-0.2,1.2-0.8c0.1-0.1,0.1-0.3,0.2-0.4c0.3-0.7,0.8-1.4,1.4-1.9c0.5-0.5,1.2-0.8,2-0.7
			c0.9,0.1,1.7,0.2,2.5,0.6c1.7,0.7,2.7,2,2.9,3.9c0,0.2,0,0.5,0,0.7c0,0.2-0.1,0.4-0.3,0.6c-1.4,0.9-2.3,2.1-3,3.5
			c-0.8,1.3-1.2,2.8-1.6,4.3c0,0.1,0,0.2-0.1,0.2c0,0.2-0.2,0.3-0.3,0.3c-0.8,0.2-1.5,0.6-2.1,1.1c-0.1,0-0.1,0.1-0.2,0.2
			c0-1.8-0.6-3.5-1.7-5c0.2,0,0.4-0.1,0.5-0.1c0.9-0.1,1.7-0.3,2.5-0.7c0.2-0.1,0.5-0.3,0.7-0.4c0.3-0.2,0.5-0.5,0.6-0.9
			c0.2-0.8,0.4-1.7,0.7-2.5c0-0.1,0.1-0.2,0.1-0.3c0.2-0.8-0.3-1.6-1.2-1.7c-0.7-0.1-1.3,0.1-1.9,0.6c-0.2,0.2-0.3,0.4-0.3,0.7
			c0.3,1.1-0.1,2.2-0.5,3.2c-0.2,0.4-0.4,0.6-0.9,0.5c-0.8-0.1-1.6-0.2-2.4-0.3c-1.3-0.2-2.6-0.5-3.9-0.8c-0.7-0.2-1.4-0.5-2-0.8
			c-0.4-0.2-0.7-0.5-0.9-0.8c-0.5-0.7-0.5-1.4,0-2c0.2-0.3,0.5-0.5,0.8-0.8c0.6-0.5,1.2-1,1.8-1.5c0.8-0.7,1.4-1.6,1.8-2.6
			c0.5-1.7,0.4-3.4-0.7-4.9c-0.3-0.5-0.7-0.9-1.1-1.3c-1.7-1.6-3.6-2.7-5.9-3.2c-0.9-0.2-1.8-0.2-2.7-0.2c-0.5,0-0.9-0.2-1.3-0.5
			c-0.4-0.4-0.7-0.8-0.8-1.4c0-0.2,0-0.5,0-0.7c0-0.2,0.1-0.3,0.1-0.5c0.1-0.7,0.5-1.1,1.1-1.4c0.3-0.2,0.6-0.3,0.9-0.5
			c0.2-0.1,0.4-0.3,0.5-0.5c0.1-0.2,0.1-0.3-0.2-0.4c-0.5-0.1-1-0.1-1.5,0c-0.8,0.3-1.6,0.6-2.3,0.9c-0.4,0.2-0.5,0.1-0.7-0.2
			c-0.2-0.3-0.4-0.6-0.6-0.8c-0.5-0.4-0.6-0.9-0.5-1.5c0.1-0.3,0.1-0.7,0.2-1c0.2-0.5,0.6-0.8,1.1-0.8c0.4,0,0.8,0,1.1,0
			c1.9,0.3,3.8,0.6,5.7,0.9c0.6,0.1,1.3,0.2,2,0.2c0.9,0.1,1.6,0.4,2.1,1.1c0.5,0.7,1,1.3,1.5,2c0.2,0.3,0.3,0.5,0.5,0.8
			c0.2,0.4,0.1,0.9,0.1,1.3c0,0.2-0.2,0.3-0.4,0.4c-0.4,0.1-0.7,0.3-1.1,0.3c-0.9,0.1-1.8,0.2-2.6,0.4c-0.3,0-0.6,0.1-0.9,0.2
			C81.3,15.3,81.2,15.4,81,15.4z"/>
		<path class="st5" d="M38.6,13.5c0.5-0.3,1-0.3,1.5-0.1c0.4,0.2,0.7,0.5,1,0.9c0.1,0.2,0.3,0.3,0.5,0.3c0.5,0,0.9,0,1.3-0.1
			c0.7-0.3,1.2-0.8,1.4-1.5c0-0.1,0-0.2,0.1-0.3c0-0.1,0-0.2-0.2-0.3c-0.6-0.2-1.1-0.2-1.7-0.1c-0.2,0-0.3,0.1-0.3,0.4
			c0,0.1,0,0.3,0,0.4c0,0,0,0,0,0.1C42.2,13,42.1,13,42,12.9c-0.4-0.5-0.8-0.7-1.4-0.6c-0.7,0.1-1.4,0.3-2.1,0.4
			c-0.2,0-0.3,0.1-0.5,0.1c-0.9,0.3-1.7,0.3-2.6,0c0-0.1,0-0.3,0.1-0.4c0.2-0.3,0.3-0.7,0.5-1c0.5-0.8,1-1.5,1.5-2.2
			c0.3-0.5,0.8-0.7,1.4-0.9c0.7-0.3,1.5-0.4,2.3-0.5c1.3-0.1,2.6-0.1,3.9,0c0.4,0,0.9,0,1.3,0c0.7,0,1.3-0.3,1.8-0.6
			c0.1,0,0.2-0.2,0.1-0.2c0-0.1-0.2-0.2-0.2-0.2c-0.3,0-0.6,0-0.8-0.1c-0.1,0-0.1,0-0.3,0C47,6.5,47,6.5,47.1,6.4
			c1.3-0.8,2.7-1.6,4-2.5c0.7-0.5,1.4-0.3,2,0.1C53.6,4.5,54,5,54.2,5.5c0.4,0.8,0.7,1.7,0.8,2.6c0,0.1,0,0.2,0,0.3
			c0,0.6-0.2,0.8-0.7,1c-0.3,0.1-0.6,0.2-0.9,0.3c-0.7,0.4-1.3,0.9-1.9,1.5c-0.1,0.1-0.2,0.2-0.3,0.3c0-0.2-0.1-0.3-0.1-0.5
			c-0.2-1.5-1.1-2.4-2.6-2.7c-1.5-0.3-2.8,0-4.1,0.7c-0.2,0.1-0.3,0.2-0.5,0.3c-0.1,0.1-0.1,0.3-0.1,0.4s0.2,0.2,0.3,0.2
			c0.9,0,1.8,0.1,2.6,0.3c0.4,0.1,0.8,0.2,1.2,0.4c0.8,0.4,1.1,1,0.9,1.8c-0.1,0.5-0.3,1-0.7,1.4c-0.9,0.8-1.9,1.5-2.9,2.2
			c-0.6,0.4-1.2,0.7-1.7,1.1c-0.9,0.5-1.1,0.5-1.9-0.1c-0.2-0.1-0.3-0.2-0.5-0.4c-0.4-0.3-0.8-0.4-1.2-0.3c-0.4,0.1-0.5,0-0.4-0.4
			c0.1-0.8-0.2-1.4-0.7-2.1C38.8,13.8,38.7,13.7,38.6,13.5z"/>
		<path class="st6" d="M29.5,15.9c-0.2-0.2-0.5-0.2-0.7-0.1c-0.5,0.1-1,0.2-1.6,0.3c-0.4,0.1-0.8,0.2-1.2,0.2c-0.2,0-0.4,0-0.6,0
			c0.1-0.2,0.2-0.3,0.4-0.5c0.8-0.8,1.7-1.2,2.7-1.6c1.4-0.5,2.9-0.5,4.3-0.3c0.8,0.1,1.5,0.3,2.2,0.6c0.5,0.2,0.9,0.4,1.3,0.8
			c0.4,0.5,0.5,1,0.2,1.5c-0.2,0.3-0.4,0.5-0.8,0.6c-0.1,0-0.3,0.1-0.4,0.1c-0.1,0.3-0.1,0.6,0,0.8c0.1,0.3,0.4,0.5,0.7,0.5
			c0.6,0,1.1-0.2,1.5-0.5c0.4-0.3,0.8-0.3,1.2-0.1c0.5,0.3,0.9,0.6,1.3,1c0.3,0.2,0.3,0.4,0.1,0.7c-0.2,0.4-0.4,0.7-0.6,1.1
			c-0.3,0.5-0.4,1.1-0.5,1.7c0,0.3-0.1,0.4-0.4,0.5c-0.3,0.1-0.7,0.2-1,0.2c-0.2,0-0.3-0.1-0.4-0.3c-1-2.3-2.7-3.4-5.2-3.5
			c-0.8,0-1.6,0.1-2.4,0.2c-0.7,0.2-1.4,0.3-2.1,0.3c-0.3,0-0.5-0.1-0.8-0.2c-0.3-0.1-0.5-0.3-0.4-0.6c0.1-0.5,0.1-1.1,0.2-1.6
			c0.1-0.3,0.3-0.5,0.6-0.6c0.4-0.1,0.8-0.2,1.2-0.4c0.3-0.1,0.6-0.3,0.8-0.5C29.4,16.1,29.4,16,29.5,15.9z"/>
		<path class="st7" d="M70.6,7.8c-0.2,0.3-0.4,0.6-0.5,0.9c-0.1,0-0.2-0.1-0.2-0.1c-1.6-0.7-3.3-1.2-5-1.4c-1.2-0.1-2.4-0.1-3.6,0.2
			c-1.2,0.3-2.4,0.5-3.6,0.8c-0.1,0-0.2,0-0.3,0c0-0.1,0-0.3,0-0.4c-0.1-0.7-0.1-1.3-0.2-2c-0.1-0.7-0.1-0.8,0.5-1.3
			c0.4-0.3,0.8-0.6,1.1-0.8c0.2-0.2,0.4-0.2,0.7-0.1c1,0.3,1.9,0.7,2.9,1C63.2,5,64,5.2,64.8,5.5c1.5,0.5,3,0.9,4.4,1.6
			C69.6,7.3,70.1,7.6,70.6,7.8z"/>
	</g>
	<path d="M214,59.3c-0.1,0.2-0.1,0.3-0.2,0.4c-0.1,0-0.2,0-0.4,0c-33,0-66,0-99,0c-0.1,0-0.3,0-0.4,0c-0.1,0-0.1-0.2-0.2-0.4
		C147.4,59.3,180.7,59.3,214,59.3z"/>
	<path d="M214,6.7c0,0.1-0.1,0.2-0.1,0.2c-0.1,0-0.2,0-0.4,0c-33,0-66,0-99,0c-0.1,0-0.2,0-0.4,0c-0.1,0-0.1-0.1-0.1-0.2
		c0-0.1,0-0.1,0-0.1c0,0,0,0,0,0c0.1,0,0.3-0.1,0.4-0.1c33.1,0,66.3,0,99.4,0C214,6.6,214,6.7,214,6.7z"/>
	<g>
		<path class="st8" d="M125.1,35.5c0-0.2,0.1-0.4,0.1-0.5c0-1.3,0-2.7,0.1-4c0-0.4-0.1-0.5-0.5-0.6c-0.2,0-0.4-0.1-0.6-0.1
			c0-0.2,0-0.3,0-0.5c0.2,0,0.3,0,0.4,0c0.7,0,1.3,0,2,0c0.1,0,0.2,0,0.3,0c0.1,0,0.1,0.2,0.1,0.2c0,0.1-0.1,0.2-0.1,0.3
			c0,0-0.1,0-0.1,0c-0.6,0.2-0.7,0.2-0.7,0.9c0,2.1-0.1,4.3-0.1,6.4c0,0.2,0.1,0.4-0.2,0.5c-0.3,0.1-0.4-0.1-0.5-0.3
			c-0.5-0.6-0.9-1.2-1.5-1.7c-1.6-1.5-3.2-2.9-4.8-4.4c-0.1-0.1-0.1-0.1-0.2-0.2c0,0.1-0.1,0.2-0.1,0.3c0,1.6-0.1,3.2-0.1,4.7
			c0,0.2,0,0.3,0,0.5c0.1,0.2,0.2,0.4,0.5,0.5c0.2,0,0.3,0.1,0.5,0.1c0.4,0.1,0.5,0.2,0.3,0.6c-1,0-1.9,0-2.9,0
			c-0.1-0.5-0.1-0.5,0.3-0.6c0.4-0.1,0.4-0.1,0.5-0.5c0-0.3,0-0.5,0-0.8c0-1.6,0-3.3,0-4.9c0-0.4-0.1-0.8-0.5-1
			c-0.1,0-0.1-0.1-0.1-0.1c0-0.1-0.1-0.2-0.1-0.3c0-0.1,0.2-0.2,0.2-0.2c0.4,0,0.8,0,1.3,0c0.1,0,0.3,0.1,0.4,0.2
			c0.2,0.1,0.3,0.3,0.5,0.5c1.7,1.6,3.4,3.2,5.2,4.8C124.8,35.3,124.9,35.4,125.1,35.5z"/>
		<path d="M161.4,36.7c-0.2-0.2-0.3-0.3-0.4-0.4c-0.5-0.5-0.6-1.1-0.4-1.7c0.3-0.9,1.3-1.8,2.7-1.5c0.3,0.1,0.6,0.1,1,0.1
			c0.4,0,0.8,0,1.2,0c0.3,0,0.4,0.1,0.4,0.4c0,0.3-0.1,0.4-0.4,0.4c-0.2,0-0.5,0-0.8,0c0.1,0.2,0.1,0.3,0.2,0.5
			c0.3,1.1,0,1.8-1.1,2.2c-0.4,0.2-0.8,0.2-1.3,0.4c-0.2,0.1-0.3,0.1-0.5,0.2c0.1,0.3,0.4,0.3,0.6,0.3c0.6,0,1.3,0,1.9,0.1
			c0.3,0,0.5,0.1,0.8,0.2c0.6,0.3,0.8,0.9,0.5,1.5c-0.2,0.2-0.4,0.5-0.6,0.7c-1,0.8-2.2,1-3.5,0.8c-0.3,0-0.6-0.2-0.8-0.3
			c-0.6-0.4-0.7-1.2,0-1.7c0.2-0.1,0.4-0.3,0.6-0.4c-0.2-0.1-0.4-0.2-0.5-0.4c-0.4-0.3-0.4-0.6,0-0.9
			C160.9,37,161.1,36.9,161.4,36.7z M162.4,33.8c-0.5,0-0.8,0.3-0.9,0.8c-0.1,0.7,0.4,1.5,1.1,1.7c0.5,0.2,1.1-0.1,1.2-0.7
			C164,34.8,163.3,33.8,162.4,33.8z M163,38.5c-0.5,0-1,0.1-1.4,0.4c-0.2,0.2-0.4,0.3-0.3,0.6c0,0.3,0.3,0.4,0.5,0.4
			c0.7,0.2,1.5,0.2,2.2,0c0.2-0.1,0.4-0.2,0.5-0.2c0.2-0.1,0.3-0.3,0.3-0.6s-0.2-0.4-0.5-0.4C163.9,38.6,163.4,38.6,163,38.5z"/>
		<path d="M144.9,23.3c-0.7,0-1.3,0-2,0c-0.2,0-0.3-0.1-0.3-0.2c0-0.2,0-0.3,0.2-0.4c0.5-0.1,0.5-0.4,0.5-0.8c0-0.5,0-0.9,0-1.4
			c0-0.3-0.1-0.6-0.1-0.9c-0.1-0.3-0.3-0.5-0.7-0.5c-0.4,0-0.7,0.1-1,0.4c-0.1,0.1-0.2,0.3-0.2,0.4c0,0.8,0,1.5,0,2.3
			c0,0.3,0.1,0.4,0.4,0.5c0.3,0.1,0.3,0.1,0.2,0.6c-0.7,0-1.5,0-2.2,0c-0.1-0.4-0.1-0.4,0.2-0.6c0.2-0.1,0.3-0.3,0.3-0.5
			c0-0.8,0-1.5,0-2.3c0-0.2-0.1-0.3-0.3-0.4c-0.3-0.2-0.3-0.4,0-0.6c0.3-0.2,0.6-0.4,0.9-0.6c0.1-0.1,0.3-0.1,0.5-0.2
			c0,0.3,0,0.6,0.1,1c0.2-0.1,0.3-0.2,0.4-0.3c0.4-0.3,0.8-0.5,1.3-0.5c0.5,0,0.8,0.2,1.1,0.5c0,0.1,0.1,0.2,0.2,0.2
			c0.1-0.1,0.2-0.2,0.4-0.3c0.3-0.2,0.6-0.4,1-0.5c0.9-0.2,1.7,0.4,1.8,1.3c0,0.2,0,0.4,0,0.6c0,0.6,0,1.2,0,1.8
			c0,0.3,0.1,0.5,0.4,0.6c0,0,0.1,0,0.1,0.1c0.2,0.1,0.2,0.2,0.1,0.3c0,0.2-0.1,0.2-0.2,0.2c-0.6,0-1.2,0-1.8,0
			c-0.1,0-0.2-0.1-0.3-0.2c-0.1-0.2,0-0.3,0.1-0.4c0.4-0.1,0.4-0.4,0.4-0.8c0-0.6,0-1.1,0-1.7c0-0.4-0.1-0.8-0.4-0.9
			c-0.4-0.2-0.9-0.2-1.3,0.1c-0.2,0.1-0.2,0.3-0.2,0.5c0,0.8,0,1.6,0,2.4c0,0.2,0.1,0.3,0.3,0.4C145.1,22.8,145.1,22.8,144.9,23.3z"
			/>
		<path class="st8" d="M195.2,36.1c0,0.6-0.1,1.2-0.4,1.8c-0.1,0.1-0.3,0.3-0.4,0.3c-1.7,0.3-3.4,0.2-4.9-0.8
			c-1.1-0.7-1.7-1.7-1.8-2.9c-0.2-1.5,0.3-2.8,1.5-3.8c1.3-1.1,2.8-1.5,4.5-1c0.4,0.1,0.8,0.2,1.2,0.2c0.2,0,0.4,0.1,0.3,0.3
			c0,0.5-0.1,1-0.1,1.5c0,0.2-0.1,0.3-0.3,0.3c-0.2,0-0.3-0.1-0.3-0.3c0-0.1,0-0.2-0.1-0.2c-0.2-0.8-0.7-1.1-1.4-1.3
			c-1.9-0.4-3.6,0.8-3.9,2.7c-0.2,0.9-0.1,1.8,0.2,2.6c0.8,2.1,2.8,2.4,4.4,1.7c0.4-0.2,0.7-0.5,0.9-0.9
			C194.7,36.2,194.8,36,195.2,36.1z"/>
		<path class="st8" d="M131.4,21.3c0.1,0.6-0.1,1.1-0.3,1.7c-0.1,0.2-0.3,0.4-0.5,0.4c-1.5,0.2-2.9,0.2-4.3-0.4
			c-1.2-0.6-2.1-1.5-2.3-2.9c-0.3-1.7,0.2-3.1,1.5-4.2c1.3-1.1,2.8-1.4,4.5-1c0.4,0.1,0.8,0.2,1.2,0.2c0.2,0,0.4,0.1,0.4,0.3
			c0,0.5-0.1,1-0.1,1.5c0,0.2-0.1,0.3-0.3,0.3s-0.3-0.1-0.3-0.3c0-0.1-0.1-0.2-0.1-0.2c-0.2-0.8-0.7-1.2-1.5-1.3
			c-2.1-0.4-3.8,1-3.9,3c-0.1,0.8,0,1.5,0.2,2.2c0.4,1,1,1.8,2.1,2.1c0.6,0.2,1.3,0.1,1.9-0.1c0.5-0.2,1-0.5,1.2-1.1
			C131,21.4,131.1,21.2,131.4,21.3z"/>
		<path class="st8" d="M147.7,50.9c0.1-0.2,0.2-0.4,0.2-0.6c0.6-1.5,1.2-2.9,1.8-4.4c0-0.1,0.1-0.2,0.1-0.3c0.1-0.3,0-0.5-0.3-0.6
			c-0.1-0.1-0.2-0.1-0.3-0.2c-0.1-0.1-0.1-0.2-0.1-0.3c0-0.1,0.2-0.2,0.2-0.2c0.6,0,1.2,0,1.8,0c0.2,0,0.3,0.2,0.2,0.4
			c0,0-0.1,0.1-0.1,0.1c-0.4,0.2-0.5,0.7-0.7,1.1c-0.9,2.2-1.8,4.4-2.8,6.5c-0.1,0.2-0.1,0.5-0.4,0.4c-0.2,0-0.3-0.2-0.4-0.4
			c-1.1-2.2-2.2-4.5-3.3-6.7c-0.2-0.3-0.3-0.7-0.7-0.8c-0.2-0.1-0.2-0.2-0.2-0.4c0.1-0.2,0.2-0.2,0.4-0.2c0.7,0,1.3,0,2,0
			c0.2,0,0.3,0,0.4,0.2c0,0.2-0.1,0.3-0.3,0.4c-0.4,0.2-0.4,0.2-0.3,0.6c0.8,1.7,1.6,3.4,2.4,5.1C147.6,50.7,147.6,50.8,147.7,50.9z
			"/>
		<path d="M168.3,18.8c0.1-0.1,0.2-0.1,0.3-0.2c0.5-0.4,1.1-0.4,1.7-0.3c0.7,0.1,1.2,0.7,1.2,1.4c0,0.8,0,1.5,0,2.3
			c0,0.2,0,0.3,0,0.5c0.2,0.1,0.3,0.1,0.5,0.2c0.2,0.1,0.2,0.2,0.2,0.4c0,0.2-0.2,0.2-0.3,0.2c-0.6,0-1.2,0-1.8,0
			c-0.1,0-0.2,0-0.3-0.2c0-0.2,0-0.3,0.1-0.4c0.5-0.1,0.4-0.5,0.4-0.8c0-0.5,0-1.1,0-1.6c0-0.2,0-0.4-0.1-0.5
			c-0.1-0.5-0.5-0.7-0.9-0.7c-0.2,0-0.4,0-0.5,0.1c-0.5,0.2-0.6,0.3-0.6,0.8c0,0.7,0,1.4,0,2.1c0,0.4,0,0.4,0.4,0.6
			c0.4,0.1,0.4,0.2,0.3,0.6c-0.1,0-0.2,0-0.2,0c-0.6,0-1.2,0-1.8,0c-0.1,0-0.3-0.1-0.3-0.1c-0.1-0.2,0-0.3,0.2-0.4
			c0.4-0.2,0.4-0.5,0.4-0.8c0-1.9,0-3.9,0.1-5.8c0-0.3-0.1-0.5-0.3-0.6c-0.3-0.2-0.3-0.4,0-0.6c0.3-0.2,0.6-0.4,0.8-0.5
			c0.2-0.1,0.3-0.1,0.6-0.2c0,0.6-0.1,1.1-0.1,1.5c0,0.5,0,1,0,1.5C168.3,17.8,168.3,18.3,168.3,18.8z"/>
		<path d="M150.9,18.2c0.1,0.2,0.1,0.3,0.2,0.5c0.1-0.1,0.2-0.1,0.3-0.2c0.6-0.3,1.2-0.4,1.8-0.2c1,0.3,1.6,1.1,1.6,2.2
			c0.1,2.2-1.6,3.2-3.4,2.9c-0.1,0-0.3-0.1-0.4-0.1c0,0.1-0.1,0.2-0.1,0.3c0,0.4,0,0.9,0,1.3c0,0.4,0.1,0.5,0.5,0.5
			c0.1,0,0.2,0,0.2,0c0.2,0,0.2,0.1,0.2,0.3c0,0.2-0.1,0.2-0.2,0.3c-0.1,0-0.2,0-0.3,0c-0.6,0-1.1,0-1.7,0c-0.1,0-0.2,0-0.2,0
			c-0.1,0-0.2-0.1-0.2-0.2c0-0.1,0-0.2,0.1-0.3c0-0.1,0.1-0.1,0.2-0.1c0.2-0.1,0.3-0.2,0.3-0.5c0-0.6,0-1.3,0-1.9c0-1,0-2.1,0-3.1
			c0-0.3-0.1-0.5-0.4-0.7c-0.4-0.2-0.4-0.4,0-0.6c0.2-0.2,0.5-0.3,0.8-0.5C150.5,18.2,150.6,18.1,150.9,18.2z M151,20.8L151,20.8
			c0,0.4,0,0.8,0,1.2c0,0.2,0,0.4,0.2,0.5c0.7,0.5,2,0.3,2.4-0.5c0.5-1,0.1-2.3-0.9-2.8c-0.4-0.2-0.9-0.2-1.4-0.1
			c-0.2,0.1-0.3,0.2-0.3,0.5C151,20,151,20.4,151,20.8z"/>
		<path d="M180.7,18.2c0,0.3,0.1,0.6,0.1,0.9c0.1-0.1,0.2-0.1,0.3-0.1c0.3-0.2,0.5-0.3,0.8-0.4c0.3-0.2,0.6-0.2,1-0.1
			c0.6,0.2,1,0.5,1,1.2c0,0.8,0,1.6,0,2.4c0,0.1,0,0.2,0,0.3c0,0.2,0.1,0.4,0.3,0.4c0.1,0,0.2,0,0.2,0.1c0.1,0.1,0.1,0.2,0.1,0.3
			c0,0.1-0.1,0.2-0.2,0.2c-0.7,0-1.5,0-2.2,0c-0.1-0.3-0.1-0.5,0.2-0.5c0.3-0.1,0.4-0.3,0.4-0.5c0-0.7,0-1.4,0-2.1
			c0-0.5-0.2-0.7-0.7-0.7c-0.2,0-0.4,0-0.5,0c-0.6,0.1-0.7,0.2-0.7,0.9c0,0.6,0,1.2,0,1.8c0,0.3,0.1,0.6,0.5,0.7
			c0.3,0.1,0.3,0.2,0.2,0.5c-0.8,0-1.5,0-2.3,0c-0.2-0.4-0.2-0.5,0.2-0.6c0.2-0.1,0.3-0.2,0.3-0.5c0-0.8,0-1.6,0-2.4
			c0-0.2-0.1-0.3-0.3-0.4c-0.3-0.2-0.4-0.4-0.1-0.6c0.3-0.2,0.7-0.4,1.1-0.6C180.4,18.2,180.5,18.2,180.7,18.2z"/>
		<path d="M137.1,37.6c-0.2,0.1-0.3,0.2-0.4,0.2c-0.5,0.3-1,0.4-1.5,0.4c-0.7,0-1.1-0.3-1.2-1c-0.1-0.5-0.1-0.9-0.1-1.4
			s0-0.9,0.1-1.4c0-0.3-0.1-0.4-0.3-0.5c-0.2-0.1-0.3-0.1-0.3-0.3c0-0.2,0.2-0.2,0.3-0.2c0.4-0.1,0.9-0.2,1.4-0.1c0,0.2,0,0.4,0,0.6
			c0,0.9-0.1,1.7-0.1,2.6c0,0.6,0.5,1,1.1,0.9c0.1,0,0.3-0.1,0.4-0.1c0.7-0.2,0.7-0.3,0.8-1c0-0.6,0-1.1,0.1-1.7
			c0-0.3-0.1-0.6-0.4-0.7c-0.1,0-0.1,0-0.2-0.1c-0.2-0.2-0.2-0.4,0-0.5c0.5-0.1,1-0.2,1.6-0.1c0,0.2,0,0.4,0,0.6
			c0,1-0.1,2.1-0.1,3.1c0,0.4,0,0.4,0.4,0.4c0,0,0.1,0,0.1,0c0.1,0.1,0.2,0.1,0.2,0.2c0,0.1-0.1,0.2-0.2,0.2
			c-0.4,0.2-0.8,0.3-1.1,0.4c-0.3,0.1-0.4,0-0.5-0.3C137.2,37.8,137.1,37.7,137.1,37.6z"/>
		<path d="M177.8,35.5c0-0.3,0-0.7,0-1c0-0.3-0.2-0.5-0.6-0.5c-0.4-0.1-0.6,0-0.8,0.4c-0.2,0.4-0.6,0.6-1,0.5
			c-0.2-0.1-0.3-0.2-0.2-0.4c0-0.1,0.1-0.3,0.2-0.4c0.6-0.7,1.9-1.1,2.8-0.7c0.4,0.1,0.6,0.4,0.7,0.8c0.1,0.2,0.1,0.5,0.1,0.7
			c0,0.7,0,1.5,0,2.2c0,0.5,0,0.5,0.5,0.5c0.1,0,0.1,0,0.2,0c0.1,0.4,0,0.5-0.5,0.7c-0.6,0.2-1,0.1-1.3-0.4
			c-0.1,0.1-0.2,0.1-0.3,0.2c-0.5,0.3-0.9,0.4-1.5,0.4c-0.5,0-0.9-0.3-1.1-0.8c-0.2-0.5,0-1,0.4-1.3c0.2-0.1,0.4-0.3,0.6-0.3
			C176.5,35.7,177.1,35.6,177.8,35.5z M177.8,36.2c-0.7-0.1-1.2,0.1-1.5,0.3c-0.2,0.2-0.3,0.4-0.2,0.6c0.1,0.2,0.3,0.4,0.5,0.4
			c0.4,0,0.7-0.2,1-0.3c0.1,0,0.1-0.2,0.1-0.2C177.8,36.7,177.8,36.5,177.8,36.2z"/>
		<path d="M199.3,37.7c-0.1,0.1-0.2,0.1-0.3,0.2c-0.5,0.3-0.9,0.4-1.5,0.4c-0.5,0-0.9-0.3-1.1-0.8c-0.2-0.5,0-1,0.4-1.3
			c0.2-0.1,0.4-0.2,0.6-0.3c0.3-0.1,0.6-0.2,0.9-0.2c0.3-0.1,0.6-0.1,0.9-0.1c0-0.4,0.1-0.8,0-1.2c-0.1-0.3-0.3-0.4-0.7-0.4
			c-0.3,0-0.5,0.1-0.6,0.4c-0.2,0.4-0.6,0.6-1,0.5c-0.2-0.1-0.4-0.2-0.2-0.5c0.1-0.2,0.3-0.4,0.4-0.6c0.6-0.5,1.3-0.7,2.1-0.6
			c0.8,0.1,1.2,0.5,1.2,1.3c0,0.7,0,1.5,0,2.2c0,0.1,0,0.2,0,0.4c0,0.2,0.1,0.3,0.3,0.3c0.2,0,0.4-0.1,0.4,0.2
			c0.1,0.2-0.1,0.4-0.3,0.5c-0.2,0.1-0.3,0.2-0.5,0.2C199.9,38.3,199.6,38.2,199.3,37.7z M199.3,36.2c-0.5-0.1-0.9,0-1.3,0.2
			c-0.4,0.2-0.5,0.5-0.4,0.8c0.1,0.3,0.4,0.4,0.8,0.3c0.2-0.1,0.5-0.2,0.7-0.3c0.1,0,0.2-0.2,0.2-0.3
			C199.3,36.7,199.3,36.5,199.3,36.2z"/>
		<path class="st8" d="M168.3,47.7c0.3,0,0.5,0.1,0.8,0.1c1.2,0.3,2,1.3,1.9,2.5c-0.1,1.3-0.9,2.3-2.2,2.5c-0.5,0.1-0.9,0.1-1.4-0.1
			c-1.2-0.3-1.9-1.5-1.7-2.8C166,48.8,167.1,47.7,168.3,47.7z M169.9,50.7c0-0.9-0.2-1.6-1-2.1c-0.8-0.5-1.6-0.2-1.8,0.7
			c-0.2,0.7-0.1,1.5,0.2,2.1c0.1,0.2,0.2,0.4,0.4,0.5c0.7,0.6,1.8,0.3,2.1-0.6C169.8,51.1,169.8,50.9,169.9,50.7z"/>
		<path d="M156.6,38.3c-1.6,0-2.7-1.1-2.6-2.6c0.1-1.5,1.5-2.7,2.9-2.5c0.2,0,0.4,0.1,0.5,0.1c1.2,0.3,2,1.3,1.9,2.6
			c-0.1,1.4-1,2.3-2.4,2.4C156.8,38.2,156.7,38.2,156.6,38.3z M158.1,36.1c0-0.9-0.2-1.6-0.9-2.1c-0.8-0.5-1.7-0.2-1.9,0.7
			c-0.2,0.7-0.1,1.4,0.2,2.1c0.1,0.2,0.2,0.3,0.3,0.5c0.7,0.7,1.9,0.4,2.1-0.6C158.1,36.5,158.1,36.2,158.1,36.1z"/>
		<path d="M147.1,38.3c-1.6,0-2.7-1.1-2.6-2.6c0.1-1.6,1.5-2.7,2.9-2.5c0.2,0,0.3,0,0.5,0.1c1.3,0.3,2,1.4,1.9,2.6
			c-0.1,1.4-1,2.3-2.4,2.4C147.3,38.2,147.2,38.2,147.1,38.3z M145.7,35.4L145.7,35.4c0,0.2,0,0.3,0,0.5c0.1,0.5,0.2,1,0.6,1.4
			c0.7,0.7,1.9,0.4,2.1-0.5c0.2-0.5,0.2-1.1,0-1.6c-0.2-0.5-0.5-1-1-1.2c-0.7-0.4-1.5,0-1.7,0.7C145.7,34.8,145.7,35.1,145.7,35.4z"
			/>
		<path d="M135.6,23.4c-1.4,0-2.4-0.8-2.6-2c-0.2-1.7,1.2-3.6,3.4-3c1.3,0.3,2,1.4,1.9,2.7c-0.1,1.3-1.1,2.2-2.4,2.3
			C135.8,23.4,135.7,23.4,135.6,23.4z M137.1,21.1C137.1,21.1,137.1,21.1,137.1,21.1c0-0.1,0-0.2,0-0.3c-0.1-0.7-0.3-1.3-1-1.7
			c-0.8-0.5-1.7-0.1-1.8,0.8c-0.2,0.6-0.1,1.3,0.2,1.9c0.1,0.3,0.3,0.6,0.5,0.8c0.7,0.6,1.8,0.3,2-0.6C137,21.7,137,21.4,137.1,21.1
			z"/>
		<path class="st8" d="M183.3,52.3c-0.2,0.1-0.3,0.2-0.5,0.2c-0.5,0.3-1,0.4-1.6,0.3c-0.5-0.1-0.8-0.4-0.9-0.9
			c-0.1-0.5,0-0.9,0.4-1.2c0.2-0.2,0.5-0.3,0.7-0.3c0.5-0.1,1.1-0.2,1.7-0.3c0-0.3,0-0.7,0-1c0-0.4-0.3-0.5-0.6-0.6
			c-0.3,0-0.5,0.1-0.7,0.4c-0.2,0.4-0.7,0.6-1.1,0.5c-0.2-0.1-0.3-0.2-0.2-0.4c0.1-0.2,0.3-0.5,0.5-0.6c0.7-0.5,1.5-0.7,2.3-0.6
			c0.6,0.1,1,0.5,1,1.2c0,0.6,0,1.1,0,1.7c0,0.3,0,0.6,0,0.9c0,0.3,0.1,0.4,0.4,0.4c0.2,0,0.3-0.1,0.4,0.2c0.1,0.2-0.1,0.4-0.2,0.4
			c-0.2,0.1-0.5,0.2-0.7,0.3C183.8,52.9,183.4,52.8,183.3,52.3z M183.3,50.8c-0.4-0.1-0.7-0.1-1,0.1c-0.2,0.1-0.4,0.2-0.6,0.4
			c-0.3,0.3-0.1,0.8,0.3,0.9c0.4,0.1,0.8-0.1,1.2-0.3c0.3-0.2,0.1-0.5,0.1-0.7C183.3,51,183.3,50.9,183.3,50.8z"/>
		<path d="M200.8,20.8c0,0.5,0.1,1,0.5,1.4c0.2,0.3,0.5,0.4,0.9,0.4c0.4,0,0.8-0.1,1.2-0.4c0.1-0.1,0.1-0.1,0.2-0.1
			c0.2-0.1,0.3-0.1,0.4,0.1c0.1,0.1,0,0.3-0.1,0.4c-0.4,0.5-0.9,0.8-1.5,0.9c-1.2,0.2-2.5-0.2-2.7-1.9c-0.1-0.7,0-1.4,0.3-2
			c0.5-1,1.6-1.4,2.7-1.1c0.5,0.2,0.8,0.4,1,0.8c0.1,0.2,0.2,0.3,0.4,0.4c0.2,0.1,0.2,0.2,0.2,0.3c0,0.2-0.1,0.2-0.3,0.2
			c-0.8,0.2-1.7,0.3-2.5,0.5C201.2,20.7,201,20.8,200.8,20.8z M202.5,19.8c-0.1-0.6-0.5-1-0.9-0.9c-0.5,0.1-0.9,0.7-0.7,1.3
			C201.4,20.1,202,20,202.5,19.8z"/>
		<path d="M207.7,35.7c0,0.2,0,0.3,0,0.4c0.2,1.2,1.4,1.7,2.4,1c0.1-0.1,0.2-0.2,0.3-0.2c0.1,0,0.3,0,0.4,0.1c0.1,0.1,0.1,0.2,0,0.4
			c-0.7,1.1-2.5,1.3-3.5,0.5c-0.2-0.2-0.4-0.5-0.5-0.7c-0.4-1-0.4-1.9,0.2-2.8c0.5-0.9,1.6-1.3,2.6-1c0.4,0.2,0.8,0.4,1,0.8
			c0.1,0.2,0.2,0.4,0.4,0.5c0.1,0,0.1,0.2,0.1,0.3c0,0.1-0.1,0.2-0.2,0.2c-0.4,0.1-0.8,0.2-1.3,0.3c-0.6,0.1-1.1,0.2-1.7,0.4
			C207.8,35.6,207.8,35.6,207.7,35.7z M209.4,34.7c-0.1-0.6-0.5-1-0.9-0.9c-0.5,0.1-0.9,0.8-0.7,1.3
			C208.3,34.9,208.8,34.8,209.4,34.7z"/>
		<path d="M129.1,35.6c0,0.2,0,0.3,0,0.5c0.2,1.2,1.4,1.7,2.4,1c0.1-0.1,0.2-0.2,0.3-0.2c0.1,0,0.3,0,0.4,0.1c0.1,0.1,0.1,0.2,0,0.4
			c-0.4,0.5-1,0.9-1.6,1c-0.3,0-0.7,0-1-0.1c-0.8-0.2-1.3-0.6-1.5-1.4c-0.2-0.8-0.2-1.6,0.2-2.4c0.5-1,1.6-1.4,2.6-1.1
			c0.5,0.1,0.8,0.4,1,0.8c0.1,0.2,0.2,0.4,0.4,0.5c0.1,0,0.1,0.2,0.1,0.3c0,0.1-0.2,0.2-0.2,0.2c-0.7,0.2-1.4,0.3-2.1,0.4
			C129.8,35.5,129.5,35.6,129.1,35.6z M130.9,34.7c-0.1-0.6-0.5-1-0.9-0.9c-0.5,0.1-0.9,0.7-0.7,1.3
			C129.8,34.9,130.3,34.8,130.9,34.7z"/>
		<path d="M174.5,20.8c-0.1,0.8,0.3,1.5,0.8,1.7c0.5,0.2,1,0.1,1.5-0.2c0.1-0.1,0.2-0.2,0.3-0.2c0.1-0.1,0.3-0.1,0.4,0
			c0.1,0.1,0.1,0.2,0,0.4c-0.7,1-2.5,1.3-3.5,0.5c-0.3-0.2-0.5-0.5-0.6-0.8c-0.3-0.9-0.3-1.8,0.1-2.6c0.5-1,1.6-1.4,2.6-1.1
			c0.5,0.1,0.8,0.4,1,0.8c0.1,0.2,0.2,0.4,0.4,0.5c0.1,0,0.1,0.2,0.1,0.3c0,0.1-0.1,0.2-0.2,0.2c-0.4,0.1-0.8,0.2-1.3,0.3
			C175.7,20.5,175.1,20.7,174.5,20.8z M174.5,20.2c0.6-0.1,1.1-0.3,1.7-0.4c-0.1-0.4-0.1-0.5-0.2-0.6c-0.4-0.4-0.9-0.4-1.2,0
			C174.5,19.5,174.5,19.8,174.5,20.2z"/>
		<path d="M165.4,20.1c-1.1,0.2-2.2,0.5-3.3,0.7c0,0.6,0.2,1.2,0.7,1.5c0.6,0.3,1.1,0.2,1.7-0.1c0.1-0.1,0.2-0.1,0.2-0.2
			c0.2-0.1,0.3-0.2,0.5,0c0.1,0.2,0,0.3-0.1,0.4c-0.7,0.7-1.5,1.1-2.5,0.9c-1-0.2-1.5-0.8-1.7-1.8c-0.1-0.7-0.1-1.4,0.3-2
			c0.5-1,1.6-1.5,2.7-1.1c0.5,0.1,0.8,0.4,1,0.8c0.1,0.2,0.2,0.4,0.4,0.5C165.5,19.7,165.5,19.9,165.4,20.1z M162.1,20.2
			c0.6-0.1,1.1-0.2,1.7-0.4c0-0.5-0.2-0.8-0.6-0.9c-0.3-0.1-0.7,0.1-0.9,0.4C162.2,19.6,162.1,19.9,162.1,20.2z"/>
		<path d="M153.2,38.1c-0.1,0-0.2,0-0.3,0c-0.6,0-1.2,0-1.8,0c-0.2,0-0.3,0-0.4-0.2c0-0.2,0-0.3,0.2-0.4c0.4-0.1,0.4-0.3,0.4-0.6
			c0-1.9,0.1-3.7,0.2-5.6c0-0.4-0.1-0.8-0.5-1c-0.3-0.2-0.3-0.3,0-0.5c0.4-0.2,0.8-0.5,1.3-0.7c0.1,0,0.2,0,0.3,0c0,0.2,0,0.3,0,0.5
			c0,0.2-0.1,0.5-0.1,0.7c0,2.1-0.1,4.3-0.1,6.4c0,0.1,0,0.2,0,0.3c0,0.4,0,0.4,0.4,0.5C153.3,37.7,153.3,37.7,153.2,38.1z"/>
		<path d="M182.3,29.1c0,0.1,0,0.3,0,0.4c0,0.4-0.1,0.8-0.1,1.3c0,2,0,4-0.1,6c0,0.1,0,0.2,0,0.3c0,0.4,0,0.4,0.4,0.5
			c0.4,0.1,0.4,0.1,0.3,0.5c-0.1,0-0.2,0-0.2,0c-0.6,0-1.2,0-1.8,0c-0.2,0-0.3,0-0.4-0.2c-0.1-0.2,0-0.4,0.2-0.4
			c0.3-0.1,0.4-0.3,0.4-0.6c0-1.9,0.1-3.8,0.2-5.6c0-0.5-0.1-0.8-0.5-1.1c-0.2-0.1-0.2-0.3-0.1-0.4c0.5-0.3,1-0.5,1.5-0.8
			C182.2,29.1,182.3,29.1,182.3,29.1z"/>
		<path d="M188.8,19.7c-0.2,0.1-0.3,0-0.5-0.1c-0.1-0.1-0.1-0.2-0.2-0.3c-0.3-0.4-0.6-0.4-1-0.3c-0.2,0.1-0.3,0.2-0.4,0.4
			c0,0.2,0,0.4,0.3,0.5c0.5,0.2,0.9,0.4,1.3,0.6c0.3,0.2,0.6,0.4,0.7,0.8c0.2,0.5,0.1,1-0.3,1.4c-0.2,0.2-0.5,0.4-0.9,0.6
			c-0.6,0.2-1.3,0.2-2,0.1c-0.3-0.1-0.4-0.2-0.4-0.5c0-0.3,0-0.5,0-0.8c0-0.1,0-0.3,0.2-0.3c0.2,0,0.3,0,0.4,0.2
			c0.1,0.2,0.2,0.4,0.4,0.6c0.3,0.4,0.6,0.5,1,0.4c0.3-0.1,0.5-0.3,0.5-0.5c0-0.3-0.1-0.5-0.4-0.7c-0.4-0.2-0.9-0.4-1.3-0.7
			c-0.5-0.3-0.7-0.7-0.6-1.2c0-0.5,0.2-0.8,0.7-1c0.6-0.3,1.3-0.4,1.9-0.3c0.2,0,0.3,0.2,0.4,0.4C188.9,19.1,188.9,19.3,188.8,19.7z
			"/>
		<path class="st8" d="M155.8,50.6c0-1.6,1.4-3.2,3.5-2.9c0.3,0.1,0.6,0.2,0.8,0.4c0.2,0.2,0.2,0.4,0.2,0.6
			c-0.1,0.2-0.3,0.3-0.5,0.3c-0.3,0-0.5-0.1-0.7-0.3c-0.3-0.2-0.6-0.3-1-0.3c-0.5,0.1-0.8,0.3-0.9,0.7c-0.3,0.7-0.2,1.4,0.1,2.1
			c0.4,0.7,1.2,0.9,2,0.7c0.2-0.1,0.4-0.2,0.6-0.3c0.1-0.1,0.3-0.1,0.4,0.1c0.1,0.2,0.1,0.3-0.1,0.4c-0.5,0.5-1.1,0.7-1.8,0.7
			c-0.4,0-0.8-0.1-1.1-0.2C156.2,52.4,155.8,51.6,155.8,50.6z"/>
		<path d="M172.1,38.3c-0.2,0-0.5,0-0.7-0.1c-1.4-0.3-2-1.4-1.7-2.8c0.4-1.6,2-2.6,3.6-2.2c0.2,0.1,0.5,0.2,0.7,0.4
			c0.2,0.2,0.2,0.4,0.2,0.6c-0.1,0.2-0.3,0.4-0.5,0.3c-0.2,0-0.5-0.1-0.6-0.3c-0.3-0.2-0.6-0.3-0.9-0.3c-0.5,0-0.8,0.3-1,0.7
			c-0.3,0.7-0.2,1.4,0.1,2.1c0.4,0.7,1.3,1,2.1,0.6c0.2-0.1,0.4-0.2,0.5-0.3c0.1-0.1,0.3-0.1,0.3,0.1c0,0.1,0,0.2,0,0.3
			c-0.1,0.1-0.2,0.2-0.3,0.3C173.2,38.1,172.7,38.3,172.1,38.3z"/>
		<path d="M195.3,19c0.3,0.9,0.7,1.8,1,2.8c0.1-0.1,0.2-0.1,0.2-0.2c0.3-0.6,0.7-1.3,1-1.9c0.2-0.4,0.2-0.4-0.2-0.7
			c-0.1,0-0.1-0.1-0.2-0.2c-0.1-0.2-0.1-0.4,0.2-0.4c0.4,0,0.9,0,1.3,0c0.2,0,0.3,0.2,0.2,0.4c-0.9,1.2-1.5,2.6-2.2,3.9
			c-0.1,0.2-0.2,0.3-0.2,0.4c-0.2,0.3-0.4,0.3-0.5,0c-0.1-0.1-0.1-0.2-0.2-0.4c-0.5-1.1-0.9-2.2-1.3-3.3c-0.1-0.2-0.2-0.4-0.3-0.6
			c-0.1-0.1-0.1-0.3-0.1-0.4c0-0.1,0.2-0.1,0.3-0.1c0.5,0,1.1,0,1.6,0c0.2,0,0.3,0,0.3,0.2s-0.1,0.3-0.3,0.3
			C195.6,18.9,195.5,19,195.3,19z"/>
		<path d="M142.8,37.5c0.1,0.5,0.1,0.6-0.3,0.6c-0.7,0-1.4,0-2.1,0c-0.1,0-0.3,0-0.3-0.2c-0.1-0.2,0-0.4,0.1-0.4
			c0.4-0.2,0.4-0.5,0.4-0.8c0-0.6,0-1.2,0-1.8c0-0.3-0.1-0.5-0.3-0.6c-0.3-0.2-0.3-0.4,0-0.6c0.3-0.2,0.6-0.4,1-0.6
			c0.1-0.1,0.3-0.1,0.5-0.1c0,0.4,0,0.7,0.1,1.1c0.2-0.1,0.3-0.2,0.5-0.3c0.2-0.2,0.4-0.3,0.6-0.4c0.5-0.2,0.9,0,0.9,0.6
			c0,0.1,0,0.2,0,0.2c-0.1,0.5-0.4,0.6-0.8,0.4c-0.4-0.2-0.7-0.2-1,0.1c-0.2,0.1-0.2,0.2-0.2,0.5c0,0.6,0,1.1,0,1.7
			c0,0.5,0.2,0.7,0.7,0.7C142.5,37.5,142.7,37.5,142.8,37.5z"/>
		<path d="M204.8,37.5c0.1,0.5,0.1,0.6-0.3,0.6c-0.7,0-1.4,0-2,0c-0.2,0-0.3,0-0.4-0.2s0-0.4,0.2-0.5c0.3-0.1,0.3-0.4,0.3-0.7
			c0-0.6,0-1.3,0-1.9c0-0.3-0.1-0.5-0.3-0.6c-0.3-0.2-0.3-0.4,0-0.6c0.3-0.2,0.6-0.4,0.9-0.6c0.1-0.1,0.3-0.1,0.5-0.2
			c0,0.4,0.1,0.7,0.1,1.1c0.2-0.2,0.4-0.3,0.6-0.5c0.2-0.1,0.4-0.3,0.6-0.4c0.4-0.2,0.8,0.1,0.8,0.5c0,0.1,0,0.2,0,0.2
			c-0.1,0.6-0.3,0.7-0.9,0.5c-0.3-0.1-0.5-0.2-0.8,0c-0.3,0.1-0.5,0.3-0.5,0.7c0,0.5,0,1.1,0,1.6c0,0.6,0.2,0.7,0.7,0.8
			C204.5,37.5,204.6,37.5,204.8,37.5z"/>
		<path d="M156.2,23.3c-0.1-0.4-0.1-0.5,0.2-0.6c0.2-0.1,0.3-0.3,0.3-0.5c0-0.7,0-1.4,0-2.1c0-0.3-0.1-0.5-0.3-0.6
			c-0.3-0.2-0.3-0.4,0-0.6c0.3-0.2,0.7-0.4,1-0.6c0.1-0.1,0.2-0.1,0.4-0.1c0,0.4,0,0.7,0.1,1c0.1-0.1,0.2-0.1,0.3-0.2
			c0.2-0.2,0.5-0.4,0.7-0.5c0.3-0.2,0.7-0.1,0.9,0.1c0.2,0.3,0.1,0.9-0.1,1.1c-0.2,0.2-0.5,0.1-0.7,0c-0.3-0.2-0.7-0.1-1,0.1
			c-0.2,0.1-0.2,0.2-0.2,0.4c0,0.6,0,1.2,0,1.8c0,0.5,0.2,0.6,0.6,0.7c0.1,0,0.2,0,0.3,0c0.2,0,0.3,0.1,0.3,0.3s-0.1,0.3-0.3,0.3
			C157.9,23.3,157.1,23.3,156.2,23.3z"/>
		<path class="st8" d="M174,48.7c0.4-0.3,0.6-0.5,0.8-0.6c0.2-0.2,0.4-0.3,0.7-0.2c0.3,0,0.4,0.2,0.4,0.4c0,0.1,0,0.2,0,0.3
			c0,0.6-0.3,0.8-0.9,0.5c-0.3-0.1-0.6-0.2-0.9,0c-0.2,0.1-0.4,0.3-0.4,0.6c0,0.5,0,1.1,0,1.6c0,0.5,0.2,0.7,0.7,0.7
			c0,0,0.1,0,0.1,0c0.4,0,0.5,0.1,0.4,0.6c-0.9,0-1.8,0-2.7,0c-0.1-0.3-0.1-0.5,0.2-0.6c0.2-0.1,0.3-0.2,0.3-0.4c0-0.8,0-1.5,0-2.3
			c0-0.2-0.2-0.3-0.3-0.5c-0.3-0.2-0.3-0.4,0-0.6c0.4-0.2,0.7-0.5,1.1-0.6c0.2-0.1,0.4,0,0.4,0.2C174,48.1,174,48.4,174,48.7z"/>
		<path class="st8" d="M161.9,48.8c-0.1-0.1-0.2-0.1-0.3-0.1c-0.3-0.1-0.4-0.3-0.1-0.6c0.2-0.2,0.5-0.4,0.7-0.6
			c0.2-0.1,0.3-0.3,0.4-0.4c0.1-0.1,0.2-0.1,0.4-0.2c0,0.4,0,0.6,0,1c0.5,0,0.9,0,1.3,0c0.3,0,0.4,0.1,0.4,0.4
			c0,0.3-0.1,0.4-0.4,0.4c-0.4,0-0.8,0-1.2,0c0,0.1-0.1,0.1-0.1,0.1c0,0.8-0.1,1.7-0.1,2.6c0,0.6,0.4,0.8,0.9,0.6
			c0.1,0,0.2-0.1,0.4-0.2c0.1,0,0.2,0,0.3,0.1c0,0,0,0.2,0,0.2c-0.4,0.8-1.6,1-2.2,0.5c-0.3-0.3-0.5-0.7-0.5-1.1
			c0-0.8,0-1.5,0.1-2.3C161.9,49.1,161.9,48.9,161.9,48.8z"/>
		<path d="M168.9,37.6c0,0.2,0,0.3,0,0.5c-0.8,0-1.6,0-2.4,0c-0.2-0.4-0.2-0.4,0.2-0.6c0.2-0.1,0.3-0.2,0.3-0.5c0-0.8,0-1.5,0-2.3
			c0-0.2-0.1-0.4-0.3-0.5c-0.2-0.1-0.3-0.1-0.2-0.3c0-0.2,0.2-0.2,0.3-0.3c0.3-0.2,0.6-0.3,0.9-0.4c0.1-0.1,0.3-0.1,0.5-0.1
			c0,0.2,0,0.3,0,0.5c0,1.1,0,2.2-0.1,3.3c0,0.6,0,0.6,0.6,0.7C168.7,37.6,168.8,37.6,168.9,37.6z"/>
		<path d="M190.5,23.3c-0.1-0.5-0.1-0.5,0.2-0.6c0.2-0.1,0.3-0.2,0.3-0.5c0-0.7,0-1.5,0-2.2c0-0.3-0.1-0.5-0.3-0.6
			c-0.4-0.2-0.3-0.4,0-0.6c0.3-0.2,0.7-0.3,1-0.5c0.1-0.1,0.2-0.1,0.4-0.1c0,0.1,0,0.2,0,0.3c0,1.2,0,2.5-0.1,3.7
			c0,0.4,0,0.4,0.5,0.5c0.3,0,0.4,0.2,0.3,0.4c0,0.1-0.1,0.2-0.2,0.2C192,23.3,191.2,23.3,190.5,23.3z"/>
		<path class="st8" d="M178.7,47.7c0,0.3,0,0.5,0,0.6c0,1.1,0,2.2-0.1,3.3c0,0.5,0,0.5,0.5,0.5c0.1,0,0.2,0,0.3,0c0,0.2,0,0.3,0,0.5
			c-0.2,0-0.3,0-0.5,0c-0.5,0-1,0-1.5,0c0,0,0,0,0,0c-0.2,0-0.4,0.1-0.5-0.2c-0.1-0.2,0.1-0.4,0.3-0.4c0.2-0.1,0.3-0.2,0.3-0.5
			c0-0.7,0-1.5,0-2.2c0-0.3-0.1-0.5-0.3-0.6c-0.4-0.2-0.3-0.4,0-0.6c0.3-0.2,0.7-0.3,1-0.5C178.4,47.7,178.5,47.7,178.7,47.7z"/>
		<path class="st8" d="M154.7,52.2c0.2,0.5,0.1,0.6-0.3,0.6c-0.5,0-1.1,0-1.7,0c-0.3,0-0.5-0.1-0.4-0.4c0-0.1,0.1-0.2,0.2-0.2
			c0.3-0.1,0.4-0.3,0.4-0.6c0-0.7,0-1.4,0-2.1c0-0.3-0.1-0.5-0.4-0.6c-0.3-0.2-0.3-0.4,0-0.6c0.4-0.2,0.7-0.4,1.1-0.5
			c0.1,0,0.2,0,0.4-0.1c0,0.1,0,0.2,0,0.3c0,1.2,0,2.5,0,3.8c0,0.3,0.1,0.4,0.4,0.4C154.5,52.2,154.6,52.2,154.7,52.2z"/>
		<path class="st8" d="M178.2,46c-0.3,0-0.6-0.3-0.6-0.6c0-0.3,0.2-0.6,0.6-0.6c0.3,0,0.7,0.3,0.6,0.6C178.8,45.7,178.5,46,178.2,46
			z"/>
		<path class="st8" d="M153.5,46c-0.3,0-0.6-0.3-0.6-0.6c0-0.3,0.3-0.6,0.6-0.6c0.3,0,0.6,0.3,0.6,0.6C154.1,45.7,153.8,46,153.5,46
			z"/>
		<path d="M191.6,15.4c0.3,0,0.6,0.3,0.6,0.6c0,0.3-0.3,0.6-0.6,0.6c-0.3,0-0.6-0.3-0.6-0.6C191,15.6,191.3,15.4,191.6,15.4z"/>
		<path d="M167.6,31.4c-0.4,0-0.6-0.2-0.6-0.6s0.2-0.6,0.6-0.6s0.7,0.3,0.6,0.6C168.2,31.1,167.9,31.4,167.6,31.4z"/>
	</g>
</g>
</svg>
